<svg version="1.1" xmlns="http://www.w3.org/2000/svg" width="700" height="400"><defs><clipPath id="KCPJFETQgess"><path fill="none" stroke="none" d="M 53.5 60.5 L 695.5 60.5 L 695.5 354.5 L 53.5 354.5 L 53.5 60.5"/></clipPath><clipPath id="fweWVvodZWVB"><path fill="none" stroke="none" d="M 53.5 60.5 L 695.5 60.5 L 695.5 354.5 L 53.5 354.5 L 53.5 60.5"/></clipPath><clipPath id="uwliWtQRaugb"><path fill="none" stroke="none" d="M 53.5 60.5 L 695.5 60.5 L 695.5 354.5 L 53.5 354.5 L 53.5 60.5"/></clipPath><clipPath id="urbXbPNFvIFE"><path fill="none" stroke="none" d="M 53.5 60.5 L 695.5 60.5 L 695.5 354.5 L 53.5 354.5 L 53.5 60.5"/></clipPath><clipPath id="wRldkwSdhJak"><path fill="none" stroke="none" d="M 53.5 60.5 L 695.5 60.5 L 695.5 354.5 L 53.5 354.5 L 53.5 60.5"/></clipPath><clipPath id="ukqkQdDzoNtI"><path fill="none" stroke="none" d="M 53.5 60.5 L 695.5 60.5 L 695.5 354.5 L 53.5 354.5 L 53.5 60.5"/></clipPath><clipPath id="NuxovNnywPOR"><path fill="none" stroke="none" d="M 53.5 60.5 L 695.5 60.5 L 695.5 354.5 L 53.5 354.5 L 53.5 60.5"/></clipPath></defs><path fill="rgb(255,255,255)" stroke="none" paint-order="stroke" d="M 0.5 0.5 L 700.5 0.5 L 700.5 400.5 L 0.5 400.5 L 0.5 0.5" fill-opacity="1"/><rect fill="#FFFFFF" stroke="none" x="53" y="60" width="642" height="294" transform="matrix(1, 0, 0, 1, 0.5, 0.5)"/><path fill="rgb(255,255,255)" stroke="none" paint-order="stroke" d="M 53.5 60.5 L 695.5 60.5 L 695.5 354.5 L 53.5 354.5 L 53.5 60.5" fill-opacity="1"/><path fill="none" stroke="rgb(229,229,229)" paint-order="fill" d="M 53.5 60.5 L 695.5 60.5 L 695.5 354.5 L 53.5 354.5 L 53.5 60.5" stroke-opacity="1" stroke-linejoin="bevel" stroke-miterlimit="10" stroke-dasharray=""/><path fill="none" stroke="rgb(229,229,229)" paint-order="fill" d="M 67.5 354.5 L 67.5 60.5 M 224.5 354.5 L 224.5 60.5 M 381.5 354.5 L 381.5 60.5 M 538.5 354.5 L 538.5 60.5" stroke-opacity="1" stroke-linejoin="bevel" stroke-miterlimit="10" stroke-dasharray="" clip-path="url(#KCPJFETQgess)"/><path fill="none" stroke="rgb(229,229,229)" paint-order="fill" d="M 53.5 341.5 L 695.5 341.5 M 53.5 300.5 L 695.5 300.5 M 53.5 259.5 L 695.5 259.5 M 53.5 219.5 L 695.5 219.5 M 53.5 178.5 L 695.5 178.5 M 53.5 138.5 L 695.5 138.5 M 53.5 97.5 L 695.5 97.5" stroke-opacity="1" stroke-linejoin="bevel" stroke-miterlimit="10" stroke-dasharray="" clip-path="url(#fweWVvodZWVB)"/><path fill="none" stroke="rgb(11,132,165)" paint-order="fill" d="M 82.68181610107422 341.1363525390625 L 97.6065673828125 341.1363525390625 L 110.96029663085938 341.1363525390625 L 122.27169036865234 211.9235076904297 L 134.52569580078125 316.9234924316406 L 146.6226043701172 307.3780517578125 L 157.30557250976562 302.9545593261719 L 169.55958557128906 243.120849609375 L 180.24256896972656 178.6308135986328 L 190.45423889160156 207.03436279296875 L 202.708251953125 183.28713989257812 L 215.11935424804688 287.8215026855469 L 227.6875762939453 231.48004150390625 L 239.7844696044922 263.3758239746094 L 252.66688537597656 214.0188446044922 L 264.4495849609375 188.40908813476562 L 275.132568359375 172.34478759765625 L 286.60107421875 162.33370971679688 L 297.9124450683594 247.07872009277344 L 311.58038330078125 223.797119140625 L 327.2906494140625 212.1563262939453 L 339.8588562011719 211.45787048339844 L 350.3847351074219 201.21397399902344 L 362.6387634277344 280.1385803222656 L 374.57855224609375 197.48890686035156 L 384.16180419921875 142.77716064453125 L 394.68768310546875 201.44677734375 L 404.89935302734375 172.11196899414062 L 415.73944091796875 169.7838134765625 L 426.10821533203125 170.01663208007812 L 438.9906311035156 223.797119140625 L 448.73101806640625 136.7239532470703 L 460.3565979003906 168.85255432128906 L 477.1665954589844 206.56874084472656 L 489.10638427734375 130.4379119873047 L 499.47515869140625 130.6707305908203 L 510.31524658203125 216.3470001220703 L 520.9982299804688 135.7926788330078 L 531.9954223632812 119.72837829589844 L 545.034912109375 136.02549743652344 L 557.76025390625 134.39578247070312 L 570.17138671875 127.87693786621094 L 581.0114135742188 73.86363983154297 L 594.2080688476562 88.0654067993164 L 608.3472900390625 125.31596374511719 L 620.601318359375 155.58204650878906 L 631.127197265625 74.32926940917969 L 643.22412109375 111.81263732910156 L 653.9070434570312 163.2649688720703 L 666.3181762695312 166.0587615966797" stroke-opacity="1" stroke-linejoin="bevel" stroke-miterlimit="10" stroke-width="2" stroke-dasharray="" clip-path="url(#uwliWtQRaugb)"/><path fill="none" stroke="rgb(246,200,95)" paint-order="fill" d="M 82.68181610107422 341.1363525390625 L 97.6065673828125 341.1363525390625 L 110.96029663085938 341.1363525390625 L 122.27169036865234 291.7793884277344 L 134.52569580078125 331.35809326171875 L 146.6226043701172 322.5110778808594 L 157.30557250976562 323.20953369140625 L 169.55958557128906 300.1607666015625 L 180.24256896972656 228.68624877929688 L 190.45423889160156 247.54434204101562 L 202.708251953125 217.743896484375 L 215.11935424804688 302.4889221191406 L 227.6875762939453 265.2383728027344 L 239.7844696044922 296.66851806640625 L 252.66688537597656 242.42239379882812 L 264.4495849609375 221.46896362304688 L 275.132568359375 216.11419677734375 L 286.60107421875 183.28713989257812 L 297.9124450683594 271.9900207519531 L 311.58038330078125 250.80377197265625 L 327.2906494140625 241.02549743652344 L 339.8588562011719 246.6130828857422 L 350.3847351074219 226.35809326171875 L 362.6387634277344 300.6263732910156 L 374.57855224609375 224.02993774414062 L 384.16180419921875 187.01219177246094 L 394.68768310546875 224.4955596923828 L 404.89935302734375 209.82815551757812 L 415.73944091796875 206.8015594482422 L 426.10821533203125 195.6263885498047 L 438.9906311035156 251.50221252441406 L 448.73101806640625 161.16961669921875 L 460.3565979003906 204.0077667236328 L 477.1665954589844 235.20509338378906 L 489.10638427734375 158.84146118164062 L 499.47515869140625 181.4246063232422 L 510.31524658203125 249.40687561035156 L 520.9982299804688 163.96340942382812 L 531.9954223632812 153.02105712890625 L 545.034912109375 180.958984375 L 557.76025390625 160.47117614746094 L 570.17138671875 149.9944610595703 L 581.0114135742188 109.01884460449219 L 594.2080688476562 122.52217102050781 L 608.3472900390625 163.73060607910156 L 620.601318359375 190.73724365234375 L 631.127197265625 120.19401550292969 L 643.22412109375 151.62417602539062 L 653.9070434570312 195.39356994628906 L 666.3181762695312 200.9811553955078" stroke-opacity="1" stroke-linejoin="bevel" stroke-miterlimit="10" stroke-width="2" stroke-dasharray="" clip-path="url(#urbXbPNFvIFE)"/><path fill="none" stroke="rgb(11,132,165)" paint-order="fill" d="M 82.68181610107422 310.6066589355469 L 97.6065673828125 302.55126953125 L 110.96029663085938 295.4893493652344 L 122.27169036865234 289.6149597167969 L 134.52569580078125 283.3623046875 L 146.6226043701172 277.3033142089844 L 157.30557250976562 272.0462951660156 L 169.55958557128906 266.12445068359375 L 180.24256896972656 261.0562438964844 L 190.45423889160156 256.2938537597656 L 202.708251953125 250.68505859375 L 215.11935424804688 245.12228393554688 L 227.6875762939453 239.61007690429688 L 239.7844696044922 234.41954040527344 L 252.66688537597656 229.01593017578125 L 264.4495849609375 224.1855926513672 L 275.132568359375 219.8985595703125 L 286.60107421875 215.39418029785156 L 297.9124450683594 211.05078125 L 311.58038330078125 205.93406677246094 L 327.2906494140625 200.23062133789062 L 339.8588562011719 195.80479431152344 L 350.3847351074219 192.19183349609375 L 362.6387634277344 188.09324645996094 L 374.57855224609375 184.2110595703125 L 384.16180419921875 181.17457580566406 L 394.68768310546875 177.92095947265625 L 404.89935302734375 174.8460693359375 L 415.73944091796875 171.6698760986328 L 426.10821533203125 168.7165069580078 L 438.9906311035156 165.16259765625 L 448.73101806640625 162.5603790283203 L 460.3565979003906 159.55023193359375 L 477.1665954589844 155.3818817138672 L 489.10638427734375 152.55345153808594 L 499.47515869140625 150.18630981445312 L 510.31524658203125 147.80015563964844 L 520.9982299804688 145.53717041015625 L 531.9954223632812 143.2994842529297 L 545.034912109375 140.76699829101562 L 557.76025390625 138.421875 L 570.17138671875 136.2548370361328 L 581.0114135742188 134.45924377441406 L 594.2080688476562 132.3955078125 L 608.3472900390625 130.33328247070312 L 620.601318359375 128.67063903808594 L 631.127197265625 127.3348617553711 L 643.22412109375 125.9051513671875 L 653.9070434570312 124.73632049560547 L 666.3181762695312 123.48884582519531" stroke-opacity="0.6" stroke-linejoin="bevel" stroke-miterlimit="10" stroke-width="2" stroke-dasharray="6" clip-path="url(#wRldkwSdhJak)"/><path fill="none" stroke="rgb(246,200,95)" paint-order="fill" d="M 82.68181610107422 333.6356201171875 L 97.6065673828125 326.2235107421875 L 110.96029663085938 319.7214660644531 L 122.27169036865234 314.3097839355469 L 134.52569580078125 308.5464172363281 L 146.6226043701172 302.958251953125 L 157.30557250976562 298.10693359375 L 169.55958557128906 292.6388244628906 L 180.24256896972656 287.9560241699219 L 190.45423889160156 283.5531921386719 L 202.708251953125 278.36444091796875 L 215.11935424804688 273.2144470214844 L 227.6875762939453 268.1072082519531 L 239.7844696044922 263.2940673828125 L 252.66688537597656 258.2790832519531 L 264.4495849609375 253.79212951660156 L 275.132568359375 249.8064727783203 L 286.60107421875 245.61512756347656 L 297.9124450683594 241.56979370117188 L 311.58038330078125 236.79908752441406 L 327.2906494140625 231.47422790527344 L 339.8588562011719 227.3365478515625 L 350.3847351074219 223.954833984375 L 362.6387634277344 220.11390686035156 L 374.57855224609375 216.4707794189453 L 384.16180419921875 213.6176300048828 L 394.68768310546875 210.55662536621094 L 404.89935302734375 207.65980529785156 L 415.73944091796875 204.66319274902344 L 426.10821533203125 201.87249755859375 L 438.9906311035156 198.5082550048828 L 448.73101806640625 196.04034423828125 L 460.3565979003906 193.18017578125 L 477.1665954589844 189.20889282226562 L 489.10638427734375 186.50621032714844 L 499.47515869140625 184.23867797851562 L 510.31524658203125 181.9471435546875 L 520.9982299804688 179.76788330078125 L 531.9954223632812 177.60650634765625 L 545.034912109375 175.15150451660156 L 557.76025390625 172.868408203125 L 570.17138671875 170.74896240234375 L 581.0114135742188 168.98446655273438 L 594.2080688476562 166.94546508789062 L 608.3472900390625 164.8937225341797 L 620.601318359375 163.2267608642578 L 631.127197265625 161.87733459472656 L 643.22412109375 160.4206085205078 L 653.9070434570312 159.21783447265625 L 666.3181762695312 157.91903686523438" stroke-opacity="0.6" stroke-linejoin="bevel" stroke-miterlimit="10" stroke-width="2" stroke-dasharray="6" clip-path="url(#ukqkQdDzoNtI)"/><path fill="none" stroke="rgb(0,0,0)" paint-order="fill" d="M 53.5 354.5 L 695.5 354.5" stroke-opacity="1" stroke-linejoin="bevel" stroke-miterlimit="10" stroke-dasharray=""/><path fill="none" stroke="rgb(0,0,0)" paint-order="fill" d="M 67.5 360.5 L 67.5 352.5 M 224.5 360.5 L 224.5 352.5 M 381.5 360.5 L 381.5 352.5 M 538.5 360.5 L 538.5 352.5" stroke-opacity="1" stroke-linejoin="bevel" stroke-miterlimit="10" stroke-dasharray=""/><path fill="none" stroke="rgb(0,0,0)" paint-order="fill" d="M 67.5 358.5 L 67.5 354.5 M 98.5 358.5 L 98.5 354.5 M 130.5 358.5 L 130.5 354.5 M 161.5 358.5 L 161.5 354.5 M 193.5 358.5 L 193.5 354.5 M 224.5 358.5 L 224.5 354.5 M 255.5 358.5 L 255.5 354.5 M 287.5 358.5 L 287.5 354.5 M 318.5 358.5 L 318.5 354.5 M 350.5 358.5 L 350.5 354.5 M 381.5 358.5 L 381.5 354.5 M 413.5 358.5 L 413.5 354.5 M 444.5 358.5 L 444.5 354.5 M 475.5 358.5 L 475.5 354.5 M 507.5 358.5 L 507.5 354.5 M 538.5 358.5 L 538.5 354.5 M 570.5 358.5 L 570.5 354.5 M 601.5 358.5 L 601.5 354.5 M 633.5 358.5 L 633.5 354.5 M 664.5 358.5 L 664.5 354.5" stroke-opacity="1" stroke-linejoin="bevel" stroke-miterlimit="10" stroke-dasharray=""/><text fill="rgb(68,68,68)" stroke="none" font-family="helvetica" font-size="11px" font-style="normal" font-weight="normal" text-decoration="normal" x="63.88453006744385" y="373" text-anchor="start" dominant-baseline="alphabetic" transform="matrix(1, 0, 0, 1, 0.5, 0.5)" fill-opacity="1">0</text><text fill="none" stroke="rgb(0,0,0)" font-family="helvetica" font-size="11px" font-style="normal" font-weight="normal" text-decoration="normal" x="63.88453006744385" y="373" text-anchor="start" dominant-baseline="alphabetic" transform="matrix(1, 0, 0, 1, 0.5, 0.5)" stroke-opacity="0" stroke-linejoin="bevel" stroke-miterlimit="10" stroke-dasharray="">0</text><text fill="rgb(68,68,68)" stroke="none" font-family="helvetica" font-size="11px" font-style="normal" font-weight="normal" text-decoration="normal" x="211.81218338012695" y="373" text-anchor="start" dominant-baseline="alphabetic" transform="matrix(1, 0, 0, 1, 0.5, 0.5)" fill-opacity="1">1000</text><text fill="none" stroke="rgb(0,0,0)" font-family="helvetica" font-size="11px" font-style="normal" font-weight="normal" text-decoration="normal" x="211.81218338012695" y="373" text-anchor="start" dominant-baseline="alphabetic" transform="matrix(1, 0, 0, 1, 0.5, 0.5)" stroke-opacity="0" stroke-linejoin="bevel" stroke-miterlimit="10" stroke-dasharray="">1000</text><text fill="rgb(68,68,68)" stroke="none" font-family="helvetica" font-size="11px" font-style="normal" font-weight="normal" text-decoration="normal" x="368.9148292541504" y="373" text-anchor="start" dominant-baseline="alphabetic" transform="matrix(1, 0, 0, 1, 0.5, 0.5)" fill-opacity="1">2000</text><text fill="none" stroke="rgb(0,0,0)" font-family="helvetica" font-size="11px" font-style="normal" font-weight="normal" text-decoration="normal" x="368.9148292541504" y="373" text-anchor="start" dominant-baseline="alphabetic" transform="matrix(1, 0, 0, 1, 0.5, 0.5)" stroke-opacity="0" stroke-linejoin="bevel" stroke-miterlimit="10" stroke-dasharray="">2000</text><text fill="rgb(68,68,68)" stroke="none" font-family="helvetica" font-size="11px" font-style="normal" font-weight="normal" text-decoration="normal" x="526.017520904541" y="373" text-anchor="start" dominant-baseline="alphabetic" transform="matrix(1, 0, 0, 1, 0.5, 0.5)" fill-opacity="1">3000</text><text fill="none" stroke="rgb(0,0,0)" font-family="helvetica" font-size="11px" font-style="normal" font-weight="normal" text-decoration="normal" x="526.017520904541" y="373" text-anchor="start" dominant-baseline="alphabetic" transform="matrix(1, 0, 0, 1, 0.5, 0.5)" stroke-opacity="0" stroke-linejoin="bevel" stroke-miterlimit="10" stroke-dasharray="">3000</text><text fill="rgb(68,68,68)" stroke="none" font-family="helvetica" font-size="13px" font-style="italic" font-weight="normal" text-decoration="normal" x="340.03333282470703" y="394" text-anchor="start" dominant-baseline="alphabetic" transform="matrix(1, 0, 0, 1, 0.5, 0.5)" fill-opacity="1">Liczba encji</text><text fill="none" stroke="rgb(0,0,0)" font-family="helvetica" font-size="13px" font-style="italic" font-weight="normal" text-decoration="normal" x="340.03333282470703" y="394" text-anchor="start" dominant-baseline="alphabetic" transform="matrix(1, 0, 0, 1, 0.5, 0.5)" stroke-opacity="0" stroke-linejoin="bevel" stroke-miterlimit="10" stroke-dasharray="">Liczba encji</text><path fill="none" stroke="rgb(0,0,0)" paint-order="fill" d="M 53.5 354.5 L 53.5 60.5" stroke-opacity="1" stroke-linejoin="bevel" stroke-miterlimit="10" stroke-dasharray=""/><path fill="none" stroke="rgb(0,0,0)" paint-order="fill" d="M 47.5 341.5 L 55.5 341.5 M 47.5 300.5 L 55.5 300.5 M 47.5 259.5 L 55.5 259.5 M 47.5 219.5 L 55.5 219.5 M 47.5 178.5 L 55.5 178.5 M 47.5 138.5 L 55.5 138.5 M 47.5 97.5 L 55.5 97.5" stroke-opacity="1" stroke-linejoin="bevel" stroke-miterlimit="10" stroke-dasharray=""/><path fill="none" stroke="rgb(0,0,0)" paint-order="fill" d="M 49.5 349.5 L 53.5 349.5 M 49.5 341.5 L 53.5 341.5 M 49.5 333.5 L 53.5 333.5 M 49.5 324.5 L 53.5 324.5 M 49.5 316.5 L 53.5 316.5 M 49.5 308.5 L 53.5 308.5 M 49.5 300.5 L 53.5 300.5 M 49.5 292.5 L 53.5 292.5 M 49.5 284.5 L 53.5 284.5 M 49.5 276.5 L 53.5 276.5 M 49.5 268.5 L 53.5 268.5 M 49.5 259.5 L 53.5 259.5 M 49.5 251.5 L 53.5 251.5 M 49.5 243.5 L 53.5 243.5 M 49.5 235.5 L 53.5 235.5 M 49.5 227.5 L 53.5 227.5 M 49.5 219.5 L 53.5 219.5 M 49.5 211.5 L 53.5 211.5 M 49.5 203.5 L 53.5 203.5 M 49.5 195.5 L 53.5 195.5 M 49.5 186.5 L 53.5 186.5 M 49.5 178.5 L 53.5 178.5 M 49.5 170.5 L 53.5 170.5 M 49.5 162.5 L 53.5 162.5 M 49.5 154.5 L 53.5 154.5 M 49.5 146.5 L 53.5 146.5 M 49.5 138.5 L 53.5 138.5 M 49.5 130.5 L 53.5 130.5 M 49.5 122.5 L 53.5 122.5 M 49.5 113.5 L 53.5 113.5 M 49.5 105.5 L 53.5 105.5 M 49.5 97.5 L 53.5 97.5 M 49.5 89.5 L 53.5 89.5 M 49.5 81.5 L 53.5 81.5 M 49.5 73.5 L 53.5 73.5 M 49.5 65.5 L 53.5 65.5" stroke-opacity="1" stroke-linejoin="bevel" stroke-miterlimit="10" stroke-dasharray=""/><text fill="rgb(68,68,68)" stroke="none" font-family="helvetica" font-size="11px" font-style="normal" font-weight="normal" text-decoration="normal" x="35.88333320617676" y="344.6363525390625" text-anchor="start" dominant-baseline="alphabetic" transform="matrix(1, 0, 0, 1, 0.5, 0.5)" fill-opacity="1">0</text><text fill="none" stroke="rgb(0,0,0)" font-family="helvetica" font-size="11px" font-style="normal" font-weight="normal" text-decoration="normal" x="35.88333320617676" y="344.6363525390625" text-anchor="start" dominant-baseline="alphabetic" transform="matrix(1, 0, 0, 1, 0.5, 0.5)" stroke-opacity="0" stroke-linejoin="bevel" stroke-miterlimit="10" stroke-dasharray="">0</text><text fill="rgb(68,68,68)" stroke="none" font-family="helvetica" font-size="11px" font-style="normal" font-weight="normal" text-decoration="normal" x="26.716666221618652" y="304.0565490722656" text-anchor="start" dominant-baseline="alphabetic" transform="matrix(1, 0, 0, 1, 0.5, 0.5)" fill-opacity="1">0.1</text><text fill="none" stroke="rgb(0,0,0)" font-family="helvetica" font-size="11px" font-style="normal" font-weight="normal" text-decoration="normal" x="26.716666221618652" y="304.0565490722656" text-anchor="start" dominant-baseline="alphabetic" transform="matrix(1, 0, 0, 1, 0.5, 0.5)" stroke-opacity="0" stroke-linejoin="bevel" stroke-miterlimit="10" stroke-dasharray="">0.1</text><text fill="rgb(68,68,68)" stroke="none" font-family="helvetica" font-size="11px" font-style="normal" font-weight="normal" text-decoration="normal" x="26.716666221618652" y="263.4767150878906" text-anchor="start" dominant-baseline="alphabetic" transform="matrix(1, 0, 0, 1, 0.5, 0.5)" fill-opacity="1">0.2</text><text fill="none" stroke="rgb(0,0,0)" font-family="helvetica" font-size="11px" font-style="normal" font-weight="normal" text-decoration="normal" x="26.716666221618652" y="263.4767150878906" text-anchor="start" dominant-baseline="alphabetic" transform="matrix(1, 0, 0, 1, 0.5, 0.5)" stroke-opacity="0" stroke-linejoin="bevel" stroke-miterlimit="10" stroke-dasharray="">0.2</text><text fill="rgb(68,68,68)" stroke="none" font-family="helvetica" font-size="11px" font-style="normal" font-weight="normal" text-decoration="normal" x="26.716666221618652" y="222.8968963623047" text-anchor="start" dominant-baseline="alphabetic" transform="matrix(1, 0, 0, 1, 0.5, 0.5)" fill-opacity="1">0.3</text><text fill="none" stroke="rgb(0,0,0)" font-family="helvetica" font-size="11px" font-style="normal" font-weight="normal" text-decoration="normal" x="26.716666221618652" y="222.8968963623047" text-anchor="start" dominant-baseline="alphabetic" transform="matrix(1, 0, 0, 1, 0.5, 0.5)" stroke-opacity="0" stroke-linejoin="bevel" stroke-miterlimit="10" stroke-dasharray="">0.3</text><text fill="rgb(68,68,68)" stroke="none" font-family="helvetica" font-size="11px" font-style="normal" font-weight="normal" text-decoration="normal" x="26.716666221618652" y="182.31707763671875" text-anchor="start" dominant-baseline="alphabetic" transform="matrix(1, 0, 0, 1, 0.5, 0.5)" fill-opacity="1">0.4</text><text fill="none" stroke="rgb(0,0,0)" font-family="helvetica" font-size="11px" font-style="normal" font-weight="normal" text-decoration="normal" x="26.716666221618652" y="182.31707763671875" text-anchor="start" dominant-baseline="alphabetic" transform="matrix(1, 0, 0, 1, 0.5, 0.5)" stroke-opacity="0" stroke-linejoin="bevel" stroke-miterlimit="10" stroke-dasharray="">0.4</text><text fill="rgb(68,68,68)" stroke="none" font-family="helvetica" font-size="11px" font-style="normal" font-weight="normal" text-decoration="normal" x="26.716666221618652" y="141.73724365234375" text-anchor="start" dominant-baseline="alphabetic" transform="matrix(1, 0, 0, 1, 0.5, 0.5)" fill-opacity="1">0.5</text><text fill="none" stroke="rgb(0,0,0)" font-family="helvetica" font-size="11px" font-style="normal" font-weight="normal" text-decoration="normal" x="26.716666221618652" y="141.73724365234375" text-anchor="start" dominant-baseline="alphabetic" transform="matrix(1, 0, 0, 1, 0.5, 0.5)" stroke-opacity="0" stroke-linejoin="bevel" stroke-miterlimit="10" stroke-dasharray="">0.5</text><text fill="rgb(68,68,68)" stroke="none" font-family="helvetica" font-size="11px" font-style="normal" font-weight="normal" text-decoration="normal" x="26.716666221618652" y="101.15742492675781" text-anchor="start" dominant-baseline="alphabetic" transform="matrix(1, 0, 0, 1, 0.5, 0.5)" fill-opacity="1">0.6</text><text fill="none" stroke="rgb(0,0,0)" font-family="helvetica" font-size="11px" font-style="normal" font-weight="normal" text-decoration="normal" x="26.716666221618652" y="101.15742492675781" text-anchor="start" dominant-baseline="alphabetic" transform="matrix(1, 0, 0, 1, 0.5, 0.5)" stroke-opacity="0" stroke-linejoin="bevel" stroke-miterlimit="10" stroke-dasharray="">0.6</text><text fill="rgb(68,68,68)" stroke="none" font-family="helvetica" font-size="13px" font-style="italic" font-weight="normal" text-decoration="normal" x="-44.64166736602783" y="204" text-anchor="start" dominant-baseline="alphabetic" transform="matrix(6.123233995736766e-17, -1, 1, 6.123233995736766e-17, -187.78333377838135, 226.21666622161865)" fill-opacity="1">Wartość kompletności</text><text fill="none" stroke="rgb(0,0,0)" font-family="helvetica" font-size="13px" font-style="italic" font-weight="normal" text-decoration="normal" x="-44.64166736602783" y="204" text-anchor="start" dominant-baseline="alphabetic" transform="matrix(6.123233995736766e-17, -1, 1, 6.123233995736766e-17, -187.78333377838135, 226.21666622161865)" stroke-opacity="0" stroke-linejoin="bevel" stroke-miterlimit="10" stroke-dasharray="">Wartość kompletności</text><path fill="rgb(255,255,255)" stroke="rgb(229,229,229)" paint-order="fill" d="M 140.1833267211914 10.5 L 608.8166732788086 10.5 L 608.8166732788086 50.5 L 140.1833267211914 50.5 L 140.1833267211914 10.5" fill-opacity="0.9490196078431372" stroke-opacity="0.5019607843137255" stroke-linejoin="bevel" stroke-miterlimit="10" stroke-dasharray=""/><text fill="rgb(68,68,68)" stroke="none" font-family="helvetica" font-size="13px" font-style="normal" font-weight="normal" text-decoration="normal" x="174.6833267211914" y="30" text-anchor="start" dominant-baseline="central" transform="matrix(1, 0, 0, 1, 0.5, 0.5)" fill-opacity="1">strategia najmniejszej pewności</text><path fill="none" stroke="rgb(11,132,165)" paint-order="fill" d="M 150.1833267211914 30.5 L 170.1833267211914 30.5" stroke-opacity="1" stroke-linejoin="bevel" stroke-miterlimit="10" stroke-width="2" stroke-dasharray=""/><text fill="rgb(68,68,68)" stroke="none" font-family="helvetica" font-size="13px" font-style="normal" font-weight="normal" text-decoration="normal" x="412.53333282470703" y="30" text-anchor="start" dominant-baseline="central" transform="matrix(1, 0, 0, 1, 0.5, 0.5)" fill-opacity="1">strategia próbkowania losowego</text><path fill="none" stroke="rgb(246,200,95)" paint-order="fill" d="M 388.03333282470703 30.5 L 408.03333282470703 30.5" stroke-opacity="1" stroke-linejoin="bevel" stroke-miterlimit="10" stroke-width="2" stroke-dasharray=""/><path fill="rgb(255,255,255)" stroke="rgb(229,229,229)" paint-order="fill" d="M 140.1833267211914 10.5 L 608.8166732788086 10.5 L 608.8166732788086 50.5 L 140.1833267211914 50.5 L 140.1833267211914 10.5" fill-opacity="0.9490196078431372" stroke-opacity="0.5019607843137255" stroke-linejoin="bevel" stroke-miterlimit="10" stroke-dasharray=""/><text fill="rgb(68,68,68)" stroke="none" font-family="helvetica" font-size="13px" font-style="normal" font-weight="normal" text-decoration="normal" x="174.6833267211914" y="30" text-anchor="start" dominant-baseline="central" transform="matrix(1, 0, 0, 1, 0.5, 0.5)" fill-opacity="1">strategia najmniejszej pewności</text><path fill="none" stroke="rgb(11,132,165)" paint-order="fill" d="M 150.1833267211914 30.5 L 170.1833267211914 30.5" stroke-opacity="1" stroke-linejoin="bevel" stroke-miterlimit="10" stroke-width="2" stroke-dasharray=""/><text fill="rgb(68,68,68)" stroke="none" font-family="helvetica" font-size="13px" font-style="normal" font-weight="normal" text-decoration="normal" x="412.53333282470703" y="30" text-anchor="start" dominant-baseline="central" transform="matrix(1, 0, 0, 1, 0.5, 0.5)" fill-opacity="1">strategia próbkowania losowego</text><path fill="none" stroke="rgb(246,200,95)" paint-order="fill" d="M 388.03333282470703 30.5 L 408.03333282470703 30.5" stroke-opacity="1" stroke-linejoin="bevel" stroke-miterlimit="10" stroke-width="2" stroke-dasharray=""/></svg>