<svg version="1.1" xmlns="http://www.w3.org/2000/svg" width="700" height="400"><defs><clipPath id="yqsOhUekIHxZ"><path fill="none" stroke="none" d="M 53.5 5.5 L 560.5 5.5 L 560.5 354.5 L 53.5 354.5 L 53.5 5.5"/></clipPath><clipPath id="FCWrOfTyMMUk"><path fill="none" stroke="none" d="M 53.5 5.5 L 560.5 5.5 L 560.5 354.5 L 53.5 354.5 L 53.5 5.5"/></clipPath><clipPath id="QdKSVVtzgfRp"><path fill="none" stroke="none" d="M 53.5 5.5 L 560.5 5.5 L 560.5 354.5 L 53.5 354.5 L 53.5 5.5"/></clipPath><clipPath id="KNEqAScoBVhI"><path fill="none" stroke="none" d="M 53.5 5.5 L 560.5 5.5 L 560.5 354.5 L 53.5 354.5 L 53.5 5.5"/></clipPath><clipPath id="AgzMfwyyxZcp"><path fill="none" stroke="none" d="M 53.5 5.5 L 560.5 5.5 L 560.5 354.5 L 53.5 354.5 L 53.5 5.5"/></clipPath><clipPath id="mFClBDMqFGtP"><path fill="none" stroke="none" d="M 53.5 5.5 L 560.5 5.5 L 560.5 354.5 L 53.5 354.5 L 53.5 5.5"/></clipPath></defs><path fill="rgb(255,255,255)" stroke="none" paint-order="stroke" d="M 0.5 0.5 L 700.5 0.5 L 700.5 400.5 L 0.5 400.5 L 0.5 0.5" fill-opacity="1"/><rect fill="#FFFFFF" stroke="none" x="53" y="5" width="507" height="349" transform="matrix(1, 0, 0, 1, 0.5, 0.5)"/><path fill="rgb(255,255,255)" stroke="none" paint-order="stroke" d="M 53.5 5.5 L 560.5 5.5 L 560.5 354.5 L 53.5 354.5 L 53.5 5.5" fill-opacity="1"/><path fill="none" stroke="rgb(229,229,229)" paint-order="fill" d="M 53.5 5.5 L 560.5 5.5 L 560.5 354.5 L 53.5 354.5 L 53.5 5.5" stroke-opacity="1" stroke-linejoin="bevel" stroke-miterlimit="10" stroke-dasharray=""/><path fill="none" stroke="rgb(229,229,229)" paint-order="fill" d="M 146.5 354.5 L 146.5 5.5 M 250.5 354.5 L 250.5 5.5 M 353.5 354.5 L 353.5 5.5 M 457.5 354.5 L 457.5 5.5" stroke-opacity="1" stroke-linejoin="bevel" stroke-miterlimit="10" stroke-dasharray="" clip-path="url(#yqsOhUekIHxZ)"/><path fill="none" stroke="rgb(229,229,229)" paint-order="fill" d="M 53.5 284.5 L 560.5 284.5 M 53.5 214.5 L 560.5 214.5 M 53.5 145.5 L 560.5 145.5 M 53.5 75.5 L 560.5 75.5" stroke-opacity="1" stroke-linejoin="bevel" stroke-miterlimit="10" stroke-dasharray="" clip-path="url(#FCWrOfTyMMUk)"/><path fill="none" stroke="rgb(11,132,165)" paint-order="fill" d="M 53.5 354.5 L 63.84693908691406 354.5 L 74.19387817382812 354.5 L 84.54081726074219 295.8724365234375 L 94.88775634765625 338.24945068359375 L 105.23469543457031 326.73272705078125 L 115.58163452148438 325.0984802246094 L 125.92857360839844 295.7772521972656 L 136.2755126953125 235.24496459960938 L 146.62245178222656 236.89898681640625 L 156.96939086914062 225.9593505859375 L 167.3163299560547 295.0195007324219 L 177.66326904296875 255.47998046875 L 188.0102081298828 286.5845642089844 L 198.35714721679688 230.41111755371094 L 208.70408630371094 216.88128662109375 L 219.051025390625 206.28884887695312 L 229.39796447753906 215.9625244140625 L 239.74490356445312 255.78285217285156 L 250.0918426513672 234.71937561035156 L 260.43878173828125 222.74407958984375 L 270.78570556640625 228.4937744140625 L 281.1326599121094 219.65908813476562 L 291.4795837402344 291.7989196777344 L 301.8265380859375 208.3326416015625 L 312.1734619140625 182.53274536132812 L 322.5204162597656 210.70970153808594 L 332.8673400878906 196.90512084960938 L 343.21429443359375 192.68963623046875 L 353.56121826171875 187.03358459472656 L 363.9081726074219 233.01266479492188 L 374.2550964355469 172.525634765625 L 384.60205078125 191.09698486328125 L 394.948974609375 217.54872131347656 L 405.2959289550781 170.29574584960938 L 415.6428527832031 177.87586975097656 L 425.98980712890625 230.5648956298828 L 436.33673095703125 162.73898315429688 L 446.6836853027344 152.28271484375 L 457.0306091308594 173.21498107910156 L 467.3775634765625 165.0463409423828 L 477.7244873046875 157.50515747070312 L 488.0714416503906 133.01495361328125 L 498.4183654785156 137.4728546142578 L 508.76531982421875 153.184326171875 L 519.1122436523438 173.41244506835938 L 529.4591674804688 129.8808135986328 L 539.80615234375 151.58143615722656 L 550.153076171875 182.94601440429688 L 560.5 185.61093139648438" stroke-opacity="1" stroke-linejoin="bevel" stroke-miterlimit="10" stroke-width="2" stroke-dasharray="" clip-path="url(#QdKSVVtzgfRp)"/><path fill="none" stroke="rgb(246,200,95)" paint-order="fill" d="M 53.5 354.5 L 63.84693908691406 354.5 L 74.19387817382812 354.5 L 84.54081726074219 312.0513610839844 L 94.88775634765625 346.0903625488281 L 105.23469543457031 338.48162841796875 L 115.58163452148438 339.08233642578125 L 125.92857360839844 319.2596130371094 L 136.2755126953125 257.7891540527344 L 146.62245178222656 274.00775146484375 L 156.96939086914062 248.3783721923828 L 167.3163299560547 321.26190185546875 L 177.66326904296875 289.2251892089844 L 188.0102081298828 316.25616455078125 L 198.35714721679688 269.6026916503906 L 208.70408630371094 251.58204650878906 L 219.051025390625 246.9767608642578 L 229.39796447753906 218.74440002441406 L 239.74490356445312 295.0318298339844 L 250.0918426513672 276.8109436035156 L 260.43878173828125 268.40130615234375 L 270.78570556640625 273.2068176269531 L 281.1326599121094 255.786865234375 L 291.4795837402344 319.6600646972656 L 301.8265380859375 253.78456115722656 L 312.1734619140625 221.9480743408203 L 322.5204162597656 254.18502807617188 L 332.8673400878906 241.57057189941406 L 343.21429443359375 238.96759033203125 L 353.56121826171875 229.3565673828125 L 363.9081726074219 277.4116516113281 L 374.2550964355469 199.7226104736328 L 384.60205078125 236.56483459472656 L 394.948974609375 263.39556884765625 L 405.2959289550781 197.72030639648438 L 415.6428527832031 217.14256286621094 L 425.98980712890625 275.6095886230469 L 436.33673095703125 202.12535095214844 L 446.6836853027344 192.71456909179688 L 457.0306091308594 216.7421112060547 L 467.3775634765625 199.12191772460938 L 477.7244873046875 190.11158752441406 L 488.0714416503906 154.87120056152344 L 498.4183654785156 166.48451232910156 L 508.76531982421875 201.9251251220703 L 519.1122436523438 225.15174865722656 L 529.4591674804688 164.48220825195312 L 539.80615234375 191.51319885253906 L 550.153076171875 229.15634155273438 L 560.5 233.96185302734375" stroke-opacity="1" stroke-linejoin="bevel" stroke-miterlimit="10" stroke-width="2" stroke-dasharray="" clip-path="url(#KNEqAScoBVhI)"/><path fill="none" stroke="rgb(193,230,153)" paint-order="fill" d="M 53.5 354.5 L 63.84693908691406 354.5 L 74.19387817382812 354.5 L 84.54081726074219 259.7650451660156 L 94.88775634765625 114.20491790771484 L 105.23469543457031 250.32089233398438 L 115.58163452148438 38.3470573425293 L 125.92857360839844 178.5 L 136.2755126953125 198.99539184570312 L 146.62245178222656 136.30715942382812 L 156.96939086914062 191.5308380126953 L 167.3163299560547 71.8951187133789 L 177.66326904296875 149.50180053710938 L 188.0102081298828 51.504547119140625 L 198.35714721679688 124.0077896118164 L 208.70408630371094 146.8773193359375 L 219.051025390625 116.06106567382812 L 229.39796447753906 213.0642547607422 L 239.74490356445312 64.15546035766602 L 250.0918426513672 93.08687591552734 L 260.43878173828125 73.99533081054688 L 270.78570556640625 74.47233581542969 L 281.1326599121094 141.82138061523438 L 291.4795837402344 41.4793815612793 L 301.8265380859375 88.11608123779297 L 312.1734619140625 109.75635528564453 L 322.5204162597656 100.72786712646484 L 332.8673400878906 93.79006958007812 L 343.21429443359375 84.56300354003906 L 353.56121826171875 101.45475769042969 L 363.9081726074219 68.00746154785156 L 374.2550964355469 133.7332305908203 L 384.60205078125 88.57373809814453 L 394.948974609375 78.81423950195312 L 405.2959289550781 131.24264526367188 L 415.6428527832031 107.1714859008789 L 425.98980712890625 65.6218490600586 L 436.33673095703125 95.89337921142578 L 446.6836853027344 84.9091796875 L 457.0306091308594 89.47571563720703 L 467.3775634765625 111.82616424560547 L 477.7244873046875 108.76329040527344 L 488.0714416503906 105.78449249267578 L 498.4183654785156 97.87431335449219 L 508.76531982421875 58.68465042114258 L 519.1122436523438 52.687416076660156 L 529.4591674804688 79.87230682373047 L 539.80615234375 85.73368072509766 L 550.153076171875 82.76616668701172 L 560.5 72.48926544189453" stroke-opacity="1" stroke-linejoin="bevel" stroke-miterlimit="10" stroke-width="2" stroke-dasharray="" clip-path="url(#AgzMfwyyxZcp)"/><path fill="none" stroke="rgb(0,0,0)" paint-order="fill" d="M 53.5 354.5 L 560.5 354.5" stroke-opacity="1" stroke-linejoin="bevel" stroke-miterlimit="10" stroke-dasharray=""/><path fill="none" stroke="rgb(0,0,0)" paint-order="fill" d="M 146.5 360.5 L 146.5 352.5 M 250.5 360.5 L 250.5 352.5 M 353.5 360.5 L 353.5 352.5 M 457.5 360.5 L 457.5 352.5 M 560.5 360.5 L 560.5 352.5" stroke-opacity="1" stroke-linejoin="bevel" stroke-miterlimit="10" stroke-dasharray=""/><path fill="none" stroke="rgb(0,0,0)" paint-order="fill" d="M 125.5 358.5 L 125.5 354.5 M 105.5 358.5 L 105.5 354.5 M 84.5 358.5 L 84.5 354.5 M 63.5 358.5 L 63.5 354.5 M 146.5 358.5 L 146.5 354.5 M 167.5 358.5 L 167.5 354.5 M 188.5 358.5 L 188.5 354.5 M 208.5 358.5 L 208.5 354.5 M 229.5 358.5 L 229.5 354.5 M 250.5 358.5 L 250.5 354.5 M 270.5 358.5 L 270.5 354.5 M 291.5 358.5 L 291.5 354.5 M 312.5 358.5 L 312.5 354.5 M 332.5 358.5 L 332.5 354.5 M 353.5 358.5 L 353.5 354.5 M 374.5 358.5 L 374.5 354.5 M 394.5 358.5 L 394.5 354.5 M 415.5 358.5 L 415.5 354.5 M 436.5 358.5 L 436.5 354.5 M 457.5 358.5 L 457.5 354.5 M 477.5 358.5 L 477.5 354.5 M 498.5 358.5 L 498.5 354.5 M 519.5 358.5 L 519.5 354.5 M 539.5 358.5 L 539.5 354.5 M 560.5 358.5 L 560.5 354.5" stroke-opacity="1" stroke-linejoin="bevel" stroke-miterlimit="10" stroke-dasharray=""/><text fill="rgb(68,68,68)" stroke="none" font-family="helvetica" font-size="11px" font-style="normal" font-weight="normal" text-decoration="normal" x="140.00578498840332" y="373" text-anchor="start" dominant-baseline="alphabetic" transform="matrix(1, 0, 0, 1, 0.5, 0.5)" fill-opacity="1">10</text><text fill="none" stroke="rgb(0,0,0)" font-family="helvetica" font-size="11px" font-style="normal" font-weight="normal" text-decoration="normal" x="140.00578498840332" y="373" text-anchor="start" dominant-baseline="alphabetic" transform="matrix(1, 0, 0, 1, 0.5, 0.5)" stroke-opacity="0" stroke-linejoin="bevel" stroke-miterlimit="10" stroke-dasharray="">10</text><text fill="rgb(68,68,68)" stroke="none" font-family="helvetica" font-size="11px" font-style="normal" font-weight="normal" text-decoration="normal" x="243.47517585754395" y="373" text-anchor="start" dominant-baseline="alphabetic" transform="matrix(1, 0, 0, 1, 0.5, 0.5)" fill-opacity="1">20</text><text fill="none" stroke="rgb(0,0,0)" font-family="helvetica" font-size="11px" font-style="normal" font-weight="normal" text-decoration="normal" x="243.47517585754395" y="373" text-anchor="start" dominant-baseline="alphabetic" transform="matrix(1, 0, 0, 1, 0.5, 0.5)" stroke-opacity="0" stroke-linejoin="bevel" stroke-miterlimit="10" stroke-dasharray="">20</text><text fill="rgb(68,68,68)" stroke="none" font-family="helvetica" font-size="11px" font-style="normal" font-weight="normal" text-decoration="normal" x="346.9445514678955" y="373" text-anchor="start" dominant-baseline="alphabetic" transform="matrix(1, 0, 0, 1, 0.5, 0.5)" fill-opacity="1">30</text><text fill="none" stroke="rgb(0,0,0)" font-family="helvetica" font-size="11px" font-style="normal" font-weight="normal" text-decoration="normal" x="346.9445514678955" y="373" text-anchor="start" dominant-baseline="alphabetic" transform="matrix(1, 0, 0, 1, 0.5, 0.5)" stroke-opacity="0" stroke-linejoin="bevel" stroke-miterlimit="10" stroke-dasharray="">30</text><text fill="rgb(68,68,68)" stroke="none" font-family="helvetica" font-size="11px" font-style="normal" font-weight="normal" text-decoration="normal" x="450.41394233703613" y="373" text-anchor="start" dominant-baseline="alphabetic" transform="matrix(1, 0, 0, 1, 0.5, 0.5)" fill-opacity="1">40</text><text fill="none" stroke="rgb(0,0,0)" font-family="helvetica" font-size="11px" font-style="normal" font-weight="normal" text-decoration="normal" x="450.41394233703613" y="373" text-anchor="start" dominant-baseline="alphabetic" transform="matrix(1, 0, 0, 1, 0.5, 0.5)" stroke-opacity="0" stroke-linejoin="bevel" stroke-miterlimit="10" stroke-dasharray="">40</text><text fill="rgb(68,68,68)" stroke="none" font-family="helvetica" font-size="11px" font-style="normal" font-weight="normal" text-decoration="normal" x="553.8833332061768" y="373" text-anchor="start" dominant-baseline="alphabetic" transform="matrix(1, 0, 0, 1, 0.5, 0.5)" fill-opacity="1">50</text><text fill="none" stroke="rgb(0,0,0)" font-family="helvetica" font-size="11px" font-style="normal" font-weight="normal" text-decoration="normal" x="553.8833332061768" y="373" text-anchor="start" dominant-baseline="alphabetic" transform="matrix(1, 0, 0, 1, 0.5, 0.5)" stroke-opacity="0" stroke-linejoin="bevel" stroke-miterlimit="10" stroke-dasharray="">50</text><text fill="rgb(68,68,68)" stroke="none" font-family="helvetica" font-size="13px" font-style="italic" font-weight="normal" text-decoration="normal" x="285.17499923706055" y="394" text-anchor="start" dominant-baseline="alphabetic" transform="matrix(1, 0, 0, 1, 0.5, 0.5)" fill-opacity="1">Iteracja</text><text fill="none" stroke="rgb(0,0,0)" font-family="helvetica" font-size="13px" font-style="italic" font-weight="normal" text-decoration="normal" x="285.17499923706055" y="394" text-anchor="start" dominant-baseline="alphabetic" transform="matrix(1, 0, 0, 1, 0.5, 0.5)" stroke-opacity="0" stroke-linejoin="bevel" stroke-miterlimit="10" stroke-dasharray="">Iteracja</text><path fill="none" stroke="rgb(0,0,0)" paint-order="fill" d="M 53.5 354.5 L 53.5 5.5" stroke-opacity="1" stroke-linejoin="bevel" stroke-miterlimit="10" stroke-dasharray=""/><path fill="none" stroke="rgb(0,0,0)" paint-order="fill" d="M 47.5 354.5 L 55.5 354.5 M 47.5 284.5 L 55.5 284.5 M 47.5 214.5 L 55.5 214.5 M 47.5 145.5 L 55.5 145.5 M 47.5 75.5 L 55.5 75.5 M 47.5 5.5 L 55.5 5.5" stroke-opacity="1" stroke-linejoin="bevel" stroke-miterlimit="10" stroke-dasharray=""/><path fill="none" stroke="rgb(0,0,0)" paint-order="fill" d="M 49.5 354.5 L 53.5 354.5 M 49.5 340.5 L 53.5 340.5 M 49.5 326.5 L 53.5 326.5 M 49.5 312.5 L 53.5 312.5 M 49.5 298.5 L 53.5 298.5 M 49.5 284.5 L 53.5 284.5 M 49.5 270.5 L 53.5 270.5 M 49.5 256.5 L 53.5 256.5 M 49.5 242.5 L 53.5 242.5 M 49.5 228.5 L 53.5 228.5 M 49.5 214.5 L 53.5 214.5 M 49.5 200.5 L 53.5 200.5 M 49.5 186.5 L 53.5 186.5 M 49.5 173.5 L 53.5 173.5 M 49.5 159.5 L 53.5 159.5 M 49.5 145.5 L 53.5 145.5 M 49.5 131.5 L 53.5 131.5 M 49.5 117.5 L 53.5 117.5 M 49.5 103.5 L 53.5 103.5 M 49.5 89.5 L 53.5 89.5 M 49.5 75.5 L 53.5 75.5 M 49.5 61.5 L 53.5 61.5 M 49.5 47.5 L 53.5 47.5 M 49.5 33.5 L 53.5 33.5 M 49.5 19.5 L 53.5 19.5 M 49.5 5.5 L 53.5 5.5" stroke-opacity="1" stroke-linejoin="bevel" stroke-miterlimit="10" stroke-dasharray=""/><text fill="rgb(68,68,68)" stroke="none" font-family="helvetica" font-size="11px" font-style="normal" font-weight="normal" text-decoration="normal" x="35.88333320617676" y="358" text-anchor="start" dominant-baseline="alphabetic" transform="matrix(1, 0, 0, 1, 0.5, 0.5)" fill-opacity="1">0</text><text fill="none" stroke="rgb(0,0,0)" font-family="helvetica" font-size="11px" font-style="normal" font-weight="normal" text-decoration="normal" x="35.88333320617676" y="358" text-anchor="start" dominant-baseline="alphabetic" transform="matrix(1, 0, 0, 1, 0.5, 0.5)" stroke-opacity="0" stroke-linejoin="bevel" stroke-miterlimit="10" stroke-dasharray="">0</text><text fill="rgb(68,68,68)" stroke="none" font-family="helvetica" font-size="11px" font-style="normal" font-weight="normal" text-decoration="normal" x="26.716666221618652" y="288.20001220703125" text-anchor="start" dominant-baseline="alphabetic" transform="matrix(1, 0, 0, 1, 0.5, 0.5)" fill-opacity="1">0.2</text><text fill="none" stroke="rgb(0,0,0)" font-family="helvetica" font-size="11px" font-style="normal" font-weight="normal" text-decoration="normal" x="26.716666221618652" y="288.20001220703125" text-anchor="start" dominant-baseline="alphabetic" transform="matrix(1, 0, 0, 1, 0.5, 0.5)" stroke-opacity="0" stroke-linejoin="bevel" stroke-miterlimit="10" stroke-dasharray="">0.2</text><text fill="rgb(68,68,68)" stroke="none" font-family="helvetica" font-size="11px" font-style="normal" font-weight="normal" text-decoration="normal" x="26.716666221618652" y="218.39999389648438" text-anchor="start" dominant-baseline="alphabetic" transform="matrix(1, 0, 0, 1, 0.5, 0.5)" fill-opacity="1">0.4</text><text fill="none" stroke="rgb(0,0,0)" font-family="helvetica" font-size="11px" font-style="normal" font-weight="normal" text-decoration="normal" x="26.716666221618652" y="218.39999389648438" text-anchor="start" dominant-baseline="alphabetic" transform="matrix(1, 0, 0, 1, 0.5, 0.5)" stroke-opacity="0" stroke-linejoin="bevel" stroke-miterlimit="10" stroke-dasharray="">0.4</text><text fill="rgb(68,68,68)" stroke="none" font-family="helvetica" font-size="11px" font-style="normal" font-weight="normal" text-decoration="normal" x="26.716666221618652" y="148.60000610351562" text-anchor="start" dominant-baseline="alphabetic" transform="matrix(1, 0, 0, 1, 0.5, 0.5)" fill-opacity="1">0.6</text><text fill="none" stroke="rgb(0,0,0)" font-family="helvetica" font-size="11px" font-style="normal" font-weight="normal" text-decoration="normal" x="26.716666221618652" y="148.60000610351562" text-anchor="start" dominant-baseline="alphabetic" transform="matrix(1, 0, 0, 1, 0.5, 0.5)" stroke-opacity="0" stroke-linejoin="bevel" stroke-miterlimit="10" stroke-dasharray="">0.6</text><text fill="rgb(68,68,68)" stroke="none" font-family="helvetica" font-size="11px" font-style="normal" font-weight="normal" text-decoration="normal" x="26.716666221618652" y="78.80000305175781" text-anchor="start" dominant-baseline="alphabetic" transform="matrix(1, 0, 0, 1, 0.5, 0.5)" fill-opacity="1">0.8</text><text fill="none" stroke="rgb(0,0,0)" font-family="helvetica" font-size="11px" font-style="normal" font-weight="normal" text-decoration="normal" x="26.716666221618652" y="78.80000305175781" text-anchor="start" dominant-baseline="alphabetic" transform="matrix(1, 0, 0, 1, 0.5, 0.5)" stroke-opacity="0" stroke-linejoin="bevel" stroke-miterlimit="10" stroke-dasharray="">0.8</text><text fill="rgb(68,68,68)" stroke="none" font-family="helvetica" font-size="11px" font-style="normal" font-weight="normal" text-decoration="normal" x="35.88333320617676" y="9" text-anchor="start" dominant-baseline="alphabetic" transform="matrix(1, 0, 0, 1, 0.5, 0.5)" fill-opacity="1">1</text><text fill="none" stroke="rgb(0,0,0)" font-family="helvetica" font-size="11px" font-style="normal" font-weight="normal" text-decoration="normal" x="35.88333320617676" y="9" text-anchor="start" dominant-baseline="alphabetic" transform="matrix(1, 0, 0, 1, 0.5, 0.5)" stroke-opacity="0" stroke-linejoin="bevel" stroke-miterlimit="10" stroke-dasharray="">1</text><text fill="rgb(68,68,68)" stroke="none" font-family="helvetica" font-size="13px" font-style="italic" font-weight="normal" text-decoration="normal" x="-27.649998664855957" y="176.5" text-anchor="start" dominant-baseline="alphabetic" transform="matrix(6.123233995736766e-17, -1, 1, 6.123233995736766e-17, -160.28333377838135, 198.71666622161865)" fill-opacity="1">Wartość metryki</text><text fill="none" stroke="rgb(0,0,0)" font-family="helvetica" font-size="13px" font-style="italic" font-weight="normal" text-decoration="normal" x="-27.649998664855957" y="176.5" text-anchor="start" dominant-baseline="alphabetic" transform="matrix(6.123233995736766e-17, -1, 1, 6.123233995736766e-17, -160.28333377838135, 198.71666622161865)" stroke-opacity="0" stroke-linejoin="bevel" stroke-miterlimit="10" stroke-dasharray="">Wartość metryki</text><path fill="rgb(255,255,255)" stroke="rgb(229,229,229)" paint-order="fill" d="M 570.3333358764648 15.5 L 690.5 15.5 L 690.5 101.5 L 570.3333358764648 101.5 L 570.3333358764648 15.5" fill-opacity="0.9490196078431372" stroke-opacity="0.5019607843137255" stroke-linejoin="bevel" stroke-miterlimit="10" stroke-dasharray=""/><text fill="rgb(68,68,68)" stroke="none" font-family="helvetica" font-size="13px" font-style="normal" font-weight="normal" text-decoration="normal" x="604.8333358764648" y="35" text-anchor="start" dominant-baseline="central" transform="matrix(1, 0, 0, 1, 0.5, 0.5)" fill-opacity="1">F1</text><path fill="none" stroke="rgb(11,132,165)" paint-order="fill" d="M 580.3333358764648 35.5 L 600.3333358764648 35.5" stroke-opacity="1" stroke-linejoin="bevel" stroke-miterlimit="10" stroke-width="2" stroke-dasharray=""/><text fill="rgb(68,68,68)" stroke="none" font-family="helvetica" font-size="13px" font-style="normal" font-weight="normal" text-decoration="normal" x="604.8333358764648" y="58" text-anchor="start" dominant-baseline="central" transform="matrix(1, 0, 0, 1, 0.5, 0.5)" fill-opacity="1">Kompletność</text><path fill="none" stroke="rgb(246,200,95)" paint-order="fill" d="M 580.3333358764648 58.5 L 600.3333358764648 58.5" stroke-opacity="1" stroke-linejoin="bevel" stroke-miterlimit="10" stroke-width="2" stroke-dasharray=""/><text fill="rgb(68,68,68)" stroke="none" font-family="helvetica" font-size="13px" font-style="normal" font-weight="normal" text-decoration="normal" x="604.8333358764648" y="81" text-anchor="start" dominant-baseline="central" transform="matrix(1, 0, 0, 1, 0.5, 0.5)" fill-opacity="1">Dokładność</text><path fill="none" stroke="rgb(193,230,153)" paint-order="fill" d="M 580.3333358764648 81.5 L 600.3333358764648 81.5" stroke-opacity="1" stroke-linejoin="bevel" stroke-miterlimit="10" stroke-width="2" stroke-dasharray=""/><path fill="rgb(255,255,255)" stroke="rgb(229,229,229)" paint-order="fill" d="M 570.3333358764648 15.5 L 690.5 15.5 L 690.5 101.5 L 570.3333358764648 101.5 L 570.3333358764648 15.5" fill-opacity="0.9490196078431372" stroke-opacity="0.5019607843137255" stroke-linejoin="bevel" stroke-miterlimit="10" stroke-dasharray=""/><text fill="rgb(68,68,68)" stroke="none" font-family="helvetica" font-size="13px" font-style="normal" font-weight="normal" text-decoration="normal" x="604.8333358764648" y="35" text-anchor="start" dominant-baseline="central" transform="matrix(1, 0, 0, 1, 0.5, 0.5)" fill-opacity="1">F1</text><path fill="none" stroke="rgb(11,132,165)" paint-order="fill" d="M 580.3333358764648 35.5 L 600.3333358764648 35.5" stroke-opacity="1" stroke-linejoin="bevel" stroke-miterlimit="10" stroke-width="2" stroke-dasharray=""/><text fill="rgb(68,68,68)" stroke="none" font-family="helvetica" font-size="13px" font-style="normal" font-weight="normal" text-decoration="normal" x="604.8333358764648" y="58" text-anchor="start" dominant-baseline="central" transform="matrix(1, 0, 0, 1, 0.5, 0.5)" fill-opacity="1">Kompletność</text><path fill="none" stroke="rgb(246,200,95)" paint-order="fill" d="M 580.3333358764648 58.5 L 600.3333358764648 58.5" stroke-opacity="1" stroke-linejoin="bevel" stroke-miterlimit="10" stroke-width="2" stroke-dasharray=""/><text fill="rgb(68,68,68)" stroke="none" font-family="helvetica" font-size="13px" font-style="normal" font-weight="normal" text-decoration="normal" x="604.8333358764648" y="81" text-anchor="start" dominant-baseline="central" transform="matrix(1, 0, 0, 1, 0.5, 0.5)" fill-opacity="1">Dokładność</text><path fill="none" stroke="rgb(193,230,153)" paint-order="fill" d="M 580.3333358764648 81.5 L 600.3333358764648 81.5" stroke-opacity="1" stroke-linejoin="bevel" stroke-miterlimit="10" stroke-width="2" stroke-dasharray=""/></svg>