<svg version="1.1" xmlns="http://www.w3.org/2000/svg" width="700" height="400"><defs><clipPath id="dgsnfvTCBSSd"><path fill="none" stroke="none" d="M 53.5 60.5 L 695.5 60.5 L 695.5 354.5 L 53.5 354.5 L 53.5 60.5"/></clipPath><clipPath id="FRsakSLvwGxc"><path fill="none" stroke="none" d="M 53.5 60.5 L 695.5 60.5 L 695.5 354.5 L 53.5 354.5 L 53.5 60.5"/></clipPath><clipPath id="HVzsoGOMcSKm"><path fill="none" stroke="none" d="M 53.5 60.5 L 695.5 60.5 L 695.5 354.5 L 53.5 354.5 L 53.5 60.5"/></clipPath><clipPath id="HnZgmSCLVfCs"><path fill="none" stroke="none" d="M 53.5 60.5 L 695.5 60.5 L 695.5 354.5 L 53.5 354.5 L 53.5 60.5"/></clipPath><clipPath id="CKXlTVwBNhQs"><path fill="none" stroke="none" d="M 53.5 60.5 L 695.5 60.5 L 695.5 354.5 L 53.5 354.5 L 53.5 60.5"/></clipPath><clipPath id="pXkptBrVcvvT"><path fill="none" stroke="none" d="M 53.5 60.5 L 695.5 60.5 L 695.5 354.5 L 53.5 354.5 L 53.5 60.5"/></clipPath><clipPath id="PKyutTqnxztT"><path fill="none" stroke="none" d="M 53.5 60.5 L 695.5 60.5 L 695.5 354.5 L 53.5 354.5 L 53.5 60.5"/></clipPath></defs><path fill="rgb(255,255,255)" stroke="none" paint-order="stroke" d="M 0.5 0.5 L 700.5 0.5 L 700.5 400.5 L 0.5 400.5 L 0.5 0.5" fill-opacity="1"/><rect fill="#FFFFFF" stroke="none" x="53" y="60" width="642" height="294" transform="matrix(1, 0, 0, 1, 0.5, 0.5)"/><path fill="rgb(255,255,255)" stroke="none" paint-order="stroke" d="M 53.5 60.5 L 695.5 60.5 L 695.5 354.5 L 53.5 354.5 L 53.5 60.5" fill-opacity="1"/><path fill="none" stroke="rgb(229,229,229)" paint-order="fill" d="M 53.5 60.5 L 695.5 60.5 L 695.5 354.5 L 53.5 354.5 L 53.5 60.5" stroke-opacity="1" stroke-linejoin="bevel" stroke-miterlimit="10" stroke-dasharray=""/><path fill="none" stroke="rgb(229,229,229)" paint-order="fill" d="M 67.5 354.5 L 67.5 60.5 M 224.5 354.5 L 224.5 60.5 M 381.5 354.5 L 381.5 60.5 M 538.5 354.5 L 538.5 60.5" stroke-opacity="1" stroke-linejoin="bevel" stroke-miterlimit="10" stroke-dasharray="" clip-path="url(#dgsnfvTCBSSd)"/><path fill="none" stroke="rgb(229,229,229)" paint-order="fill" d="M 53.5 341.5 L 695.5 341.5 M 53.5 300.5 L 695.5 300.5 M 53.5 259.5 L 695.5 259.5 M 53.5 218.5 L 695.5 218.5 M 53.5 178.5 L 695.5 178.5 M 53.5 137.5 L 695.5 137.5 M 53.5 96.5 L 695.5 96.5" stroke-opacity="1" stroke-linejoin="bevel" stroke-miterlimit="10" stroke-dasharray="" clip-path="url(#FRsakSLvwGxc)"/><path fill="none" stroke="rgb(11,132,165)" paint-order="fill" d="M 82.68181610107422 341.1363525390625 L 97.6065673828125 341.1363525390625 L 110.96029663085938 341.1363525390625 L 122.27169036865234 237.60345458984375 L 134.52569580078125 297.3970031738281 L 146.6226043701172 289.07659912109375 L 157.30557250976562 272.5874328613281 L 169.55958557128906 224.67941284179688 L 180.24256896972656 194.01541137695312 L 190.45423889160156 178.32034301757812 L 202.708251953125 181.45738220214844 L 215.11935424804688 251.1875762939453 L 227.6875762939453 202.51715087890625 L 239.7844696044922 218.6829071044922 L 252.66688537597656 180.79159545898438 L 264.4495849609375 169.961669921875 L 275.132568359375 153.34051513671875 L 286.60107421875 191.67442321777344 L 297.9124450683594 197.79283142089844 L 311.58038330078125 177.62330627441406 L 327.2906494140625 159.52125549316406 L 339.8588562011719 159.92330932617188 L 350.3847351074219 174.4917449951172 L 362.6387634277344 236.8681182861328 L 374.57855224609375 153.44546508789062 L 384.16180419921875 121.14337158203125 L 394.68768310546875 158.6849822998047 L 404.89935302734375 136.98291015625 L 415.73944091796875 128.06635284423828 L 426.10821533203125 134.4520721435547 L 438.9906311035156 171.61477661132812 L 448.73101806640625 131.13674926757812 L 460.3565979003906 128.49523162841797 L 477.1665954589844 154.6551513671875 L 489.10638427734375 124.10542297363281 L 499.47515869140625 115.02661895751953 L 510.31524658203125 163.92454528808594 L 520.9982299804688 112.89073181152344 L 531.9954223632812 100.23841857910156 L 545.034912109375 112.78682708740234 L 557.76025390625 118.68706512451172 L 570.17138671875 110.60958099365234 L 581.0114135742188 83.21774291992188 L 594.2080688476562 85.64889526367188 L 608.3472900390625 85.23114776611328 L 620.601318359375 103.30764770507812 L 631.127197265625 73.86363983154297 L 643.22412109375 94.0841064453125 L 653.9070434570312 121.8308334350586 L 666.3181762695312 121.16748046875" stroke-opacity="1" stroke-linejoin="bevel" stroke-miterlimit="10" stroke-width="2" stroke-dasharray="" clip-path="url(#HVzsoGOMcSKm)"/><path fill="none" stroke="rgb(246,200,95)" paint-order="fill" d="M 82.68181610107422 341.1363525390625 L 97.6065673828125 341.1363525390625 L 110.96029663085938 341.1363525390625 L 122.27169036865234 272.7113037109375 L 134.52569580078125 322.17010498046875 L 146.6226043701172 308.7287902832031 L 157.30557250976562 306.8214416503906 L 169.55958557128906 272.6002197265625 L 180.24256896972656 201.95216369628906 L 190.45423889160156 203.8826141357422 L 202.708251953125 191.1147918701172 L 215.11935424804688 271.7158508300781 L 227.6875762939453 225.56874084472656 L 239.7844696044922 261.871337890625 L 252.66688537597656 196.31051635742188 L 264.4495849609375 180.51966857910156 L 275.132568359375 168.15708923339844 L 286.60107421875 179.44737243652344 L 297.9124450683594 225.92222595214844 L 311.58038330078125 201.3387451171875 L 327.2906494140625 187.36221313476562 L 339.8588562011719 194.07276916503906 L 350.3847351074219 183.76168823242188 L 362.6387634277344 267.9570617675781 L 374.57855224609375 170.54241943359375 L 384.16180419921875 140.43101501464844 L 394.68768310546875 173.3167266845703 L 404.89935302734375 157.20521545410156 L 415.73944091796875 152.28526306152344 L 426.10821533203125 145.6840057373047 L 438.9906311035156 199.34681701660156 L 448.73101806640625 128.75157165527344 L 460.3565979003906 150.42645263671875 L 477.1665954589844 181.29864501953125 L 489.10638427734375 126.14905548095703 L 499.47515869140625 134.99591064453125 L 510.31524658203125 196.489990234375 L 520.9982299804688 117.3294448852539 L 531.9954223632812 105.12579345703125 L 545.034912109375 129.55613708496094 L 557.76025390625 120.02239227294922 L 570.17138671875 111.2209701538086 L 581.0114135742188 82.63812255859375 L 594.2080688476562 87.84098815917969 L 608.3472900390625 106.1780776977539 L 620.601318359375 129.78659057617188 L 631.127197265625 78.98020935058594 L 643.22412109375 104.30730438232422 L 653.9070434570312 140.91334533691406 L 666.3181762695312 144.0236053466797" stroke-opacity="1" stroke-linejoin="bevel" stroke-miterlimit="10" stroke-width="2" stroke-dasharray="" clip-path="url(#HnZgmSCLVfCs)"/><path fill="none" stroke="rgb(11,132,165)" paint-order="fill" d="M 82.68181610107422 311.7750549316406 L 97.6065673828125 300.73681640625 L 110.96029663085938 291.1179504394531 L 122.27169036865234 283.160400390625 L 134.52569580078125 274.7366027832031 L 146.6226043701172 266.62164306640625 L 157.30557250976562 259.62109375 L 169.55958557128906 251.78268432617188 L 180.24256896972656 245.1162567138672 L 190.45423889160156 238.88938903808594 L 202.708251953125 231.6048583984375 L 215.11935424804688 224.4356231689453 L 227.6875762939453 217.3896942138672 L 239.7844696044922 210.81138610839844 L 252.66688537597656 204.02532958984375 L 264.4495849609375 198.01669311523438 L 275.132568359375 192.73248291015625 L 286.60107421875 187.23294067382812 L 297.9124450683594 181.98440551757812 L 311.58038330078125 175.87518310546875 L 327.2906494140625 169.1677703857422 L 339.8588562011719 164.04412841796875 L 350.3847351074219 159.9188232421875 L 362.6387634277344 155.30653381347656 L 374.57855224609375 151.0094451904297 L 384.16180419921875 147.7010955810547 L 394.68768310546875 144.21163940429688 L 404.89935302734375 140.97071838378906 L 415.73944091796875 137.68592834472656 L 426.10821533203125 134.69390869140625 L 438.9906311035156 131.1807403564453 L 448.73101806640625 128.67466735839844 L 460.3565979003906 125.8529052734375 L 477.1665954589844 122.09867858886719 L 489.10638427734375 119.66615295410156 L 499.47515869140625 117.71139526367188 L 510.31524658203125 115.82453155517578 L 520.9982299804688 114.12177276611328 L 531.9954223632812 112.53147888183594 L 545.034912109375 110.85952758789062 L 557.76025390625 109.45140075683594 L 570.17138671875 108.29072570800781 L 581.0114135742188 107.44881439208984 L 594.2080688476562 106.64013671875 L 608.3472900390625 106.03720092773438 L 620.601318359375 105.73516082763672 L 631.127197265625 105.63919067382812 L 643.22412109375 105.71546936035156 L 653.9070434570312 105.94874572753906 L 666.3181762695312 106.41517639160156" stroke-opacity="0.6" stroke-linejoin="bevel" stroke-miterlimit="10" stroke-width="2" stroke-dasharray="6" clip-path="url(#CKXlTVwBNhQs)"/><path fill="none" stroke="rgb(246,200,95)" paint-order="fill" d="M 82.68181610107422 328.59002685546875 L 97.6065673828125 317.956787109375 L 110.96029663085938 308.67333984375 L 122.27169036865234 300.98004150390625 L 134.52569580078125 292.8219299316406 L 146.6226043701172 284.9482116699219 L 157.30557250976562 278.14337158203125 L 169.55958557128906 270.5094299316406 L 180.24256896972656 264.0037536621094 L 190.45423889160156 257.91534423828125 L 202.708251953125 250.77732849121094 L 215.11935424804688 243.73468017578125 L 227.6875762939453 236.79452514648438 L 239.7844696044922 230.29678344726562 L 252.66688537597656 223.57354736328125 L 264.4495849609375 217.60165405273438 L 275.132568359375 212.3336639404297 L 286.60107421875 206.83340454101562 L 297.9124450683594 201.56578063964844 L 311.58038330078125 195.40916442871094 L 327.2906494140625 188.61434936523438 L 339.8588562011719 183.3954620361328 L 350.3847351074219 179.17303466796875 L 362.6387634277344 174.4277801513672 L 374.57855224609375 169.98056030273438 L 384.16180419921875 166.5369873046875 L 394.68768310546875 162.8839111328125 L 404.89935302734375 159.4691619873047 L 415.73944091796875 155.9835968017578 L 426.10821533203125 152.7838134765625 L 438.9906311035156 148.99118041992188 L 448.73101806640625 146.2581024169922 L 460.3565979003906 143.14767456054688 L 477.1665954589844 138.9419708251953 L 489.10638427734375 136.16429138183594 L 499.47515869140625 133.89329528808594 L 510.31524658203125 131.65943908691406 L 520.9982299804688 129.5983123779297 L 531.9954223632812 127.62211608886719 L 545.034912109375 125.47024536132812 L 557.76025390625 123.57038116455078 L 570.17138671875 121.90787506103516 L 581.0114135742188 120.60967254638672 L 594.2080688476562 119.222900390625 L 608.3472900390625 117.9730224609375 L 620.601318359375 117.08723449707031 L 631.127197265625 116.47274017333984 L 643.22412109375 115.93359375 L 653.9070434570312 115.60602569580078 L 666.3181762695312 115.40044403076172" stroke-opacity="0.6" stroke-linejoin="bevel" stroke-miterlimit="10" stroke-width="2" stroke-dasharray="6" clip-path="url(#pXkptBrVcvvT)"/><path fill="none" stroke="rgb(0,0,0)" paint-order="fill" d="M 53.5 354.5 L 695.5 354.5" stroke-opacity="1" stroke-linejoin="bevel" stroke-miterlimit="10" stroke-dasharray=""/><path fill="none" stroke="rgb(0,0,0)" paint-order="fill" d="M 67.5 360.5 L 67.5 352.5 M 224.5 360.5 L 224.5 352.5 M 381.5 360.5 L 381.5 352.5 M 538.5 360.5 L 538.5 352.5" stroke-opacity="1" stroke-linejoin="bevel" stroke-miterlimit="10" stroke-dasharray=""/><path fill="none" stroke="rgb(0,0,0)" paint-order="fill" d="M 67.5 358.5 L 67.5 354.5 M 98.5 358.5 L 98.5 354.5 M 130.5 358.5 L 130.5 354.5 M 161.5 358.5 L 161.5 354.5 M 193.5 358.5 L 193.5 354.5 M 224.5 358.5 L 224.5 354.5 M 255.5 358.5 L 255.5 354.5 M 287.5 358.5 L 287.5 354.5 M 318.5 358.5 L 318.5 354.5 M 350.5 358.5 L 350.5 354.5 M 381.5 358.5 L 381.5 354.5 M 413.5 358.5 L 413.5 354.5 M 444.5 358.5 L 444.5 354.5 M 475.5 358.5 L 475.5 354.5 M 507.5 358.5 L 507.5 354.5 M 538.5 358.5 L 538.5 354.5 M 570.5 358.5 L 570.5 354.5 M 601.5 358.5 L 601.5 354.5 M 633.5 358.5 L 633.5 354.5 M 664.5 358.5 L 664.5 354.5" stroke-opacity="1" stroke-linejoin="bevel" stroke-miterlimit="10" stroke-dasharray=""/><text fill="rgb(68,68,68)" stroke="none" font-family="helvetica" font-size="11px" font-style="normal" font-weight="normal" text-decoration="normal" x="63.88453006744385" y="373" text-anchor="start" dominant-baseline="alphabetic" transform="matrix(1, 0, 0, 1, 0.5, 0.5)" fill-opacity="1">0</text><text fill="none" stroke="rgb(0,0,0)" font-family="helvetica" font-size="11px" font-style="normal" font-weight="normal" text-decoration="normal" x="63.88453006744385" y="373" text-anchor="start" dominant-baseline="alphabetic" transform="matrix(1, 0, 0, 1, 0.5, 0.5)" stroke-opacity="0" stroke-linejoin="bevel" stroke-miterlimit="10" stroke-dasharray="">0</text><text fill="rgb(68,68,68)" stroke="none" font-family="helvetica" font-size="11px" font-style="normal" font-weight="normal" text-decoration="normal" x="211.81218338012695" y="373" text-anchor="start" dominant-baseline="alphabetic" transform="matrix(1, 0, 0, 1, 0.5, 0.5)" fill-opacity="1">1000</text><text fill="none" stroke="rgb(0,0,0)" font-family="helvetica" font-size="11px" font-style="normal" font-weight="normal" text-decoration="normal" x="211.81218338012695" y="373" text-anchor="start" dominant-baseline="alphabetic" transform="matrix(1, 0, 0, 1, 0.5, 0.5)" stroke-opacity="0" stroke-linejoin="bevel" stroke-miterlimit="10" stroke-dasharray="">1000</text><text fill="rgb(68,68,68)" stroke="none" font-family="helvetica" font-size="11px" font-style="normal" font-weight="normal" text-decoration="normal" x="368.9148292541504" y="373" text-anchor="start" dominant-baseline="alphabetic" transform="matrix(1, 0, 0, 1, 0.5, 0.5)" fill-opacity="1">2000</text><text fill="none" stroke="rgb(0,0,0)" font-family="helvetica" font-size="11px" font-style="normal" font-weight="normal" text-decoration="normal" x="368.9148292541504" y="373" text-anchor="start" dominant-baseline="alphabetic" transform="matrix(1, 0, 0, 1, 0.5, 0.5)" stroke-opacity="0" stroke-linejoin="bevel" stroke-miterlimit="10" stroke-dasharray="">2000</text><text fill="rgb(68,68,68)" stroke="none" font-family="helvetica" font-size="11px" font-style="normal" font-weight="normal" text-decoration="normal" x="526.017520904541" y="373" text-anchor="start" dominant-baseline="alphabetic" transform="matrix(1, 0, 0, 1, 0.5, 0.5)" fill-opacity="1">3000</text><text fill="none" stroke="rgb(0,0,0)" font-family="helvetica" font-size="11px" font-style="normal" font-weight="normal" text-decoration="normal" x="526.017520904541" y="373" text-anchor="start" dominant-baseline="alphabetic" transform="matrix(1, 0, 0, 1, 0.5, 0.5)" stroke-opacity="0" stroke-linejoin="bevel" stroke-miterlimit="10" stroke-dasharray="">3000</text><text fill="rgb(68,68,68)" stroke="none" font-family="helvetica" font-size="13px" font-style="italic" font-weight="normal" text-decoration="normal" x="340.03333282470703" y="394" text-anchor="start" dominant-baseline="alphabetic" transform="matrix(1, 0, 0, 1, 0.5, 0.5)" fill-opacity="1">Liczba encji</text><text fill="none" stroke="rgb(0,0,0)" font-family="helvetica" font-size="13px" font-style="italic" font-weight="normal" text-decoration="normal" x="340.03333282470703" y="394" text-anchor="start" dominant-baseline="alphabetic" transform="matrix(1, 0, 0, 1, 0.5, 0.5)" stroke-opacity="0" stroke-linejoin="bevel" stroke-miterlimit="10" stroke-dasharray="">Liczba encji</text><path fill="none" stroke="rgb(0,0,0)" paint-order="fill" d="M 53.5 354.5 L 53.5 60.5" stroke-opacity="1" stroke-linejoin="bevel" stroke-miterlimit="10" stroke-dasharray=""/><path fill="none" stroke="rgb(0,0,0)" paint-order="fill" d="M 47.5 341.5 L 55.5 341.5 M 47.5 300.5 L 55.5 300.5 M 47.5 259.5 L 55.5 259.5 M 47.5 218.5 L 55.5 218.5 M 47.5 178.5 L 55.5 178.5 M 47.5 137.5 L 55.5 137.5 M 47.5 96.5 L 55.5 96.5" stroke-opacity="1" stroke-linejoin="bevel" stroke-miterlimit="10" stroke-dasharray=""/><path fill="none" stroke="rgb(0,0,0)" paint-order="fill" d="M 49.5 349.5 L 53.5 349.5 M 49.5 341.5 L 53.5 341.5 M 49.5 332.5 L 53.5 332.5 M 49.5 324.5 L 53.5 324.5 M 49.5 316.5 L 53.5 316.5 M 49.5 308.5 L 53.5 308.5 M 49.5 300.5 L 53.5 300.5 M 49.5 292.5 L 53.5 292.5 M 49.5 284.5 L 53.5 284.5 M 49.5 275.5 L 53.5 275.5 M 49.5 267.5 L 53.5 267.5 M 49.5 259.5 L 53.5 259.5 M 49.5 251.5 L 53.5 251.5 M 49.5 243.5 L 53.5 243.5 M 49.5 235.5 L 53.5 235.5 M 49.5 227.5 L 53.5 227.5 M 49.5 218.5 L 53.5 218.5 M 49.5 210.5 L 53.5 210.5 M 49.5 202.5 L 53.5 202.5 M 49.5 194.5 L 53.5 194.5 M 49.5 186.5 L 53.5 186.5 M 49.5 178.5 L 53.5 178.5 M 49.5 170.5 L 53.5 170.5 M 49.5 161.5 L 53.5 161.5 M 49.5 153.5 L 53.5 153.5 M 49.5 145.5 L 53.5 145.5 M 49.5 137.5 L 53.5 137.5 M 49.5 129.5 L 53.5 129.5 M 49.5 121.5 L 53.5 121.5 M 49.5 113.5 L 53.5 113.5 M 49.5 104.5 L 53.5 104.5 M 49.5 96.5 L 53.5 96.5 M 49.5 88.5 L 53.5 88.5 M 49.5 80.5 L 53.5 80.5 M 49.5 72.5 L 53.5 72.5 M 49.5 64.5 L 53.5 64.5" stroke-opacity="1" stroke-linejoin="bevel" stroke-miterlimit="10" stroke-dasharray=""/><text fill="rgb(68,68,68)" stroke="none" font-family="helvetica" font-size="11px" font-style="normal" font-weight="normal" text-decoration="normal" x="35.88333320617676" y="344.6363525390625" text-anchor="start" dominant-baseline="alphabetic" transform="matrix(1, 0, 0, 1, 0.5, 0.5)" fill-opacity="1">0</text><text fill="none" stroke="rgb(0,0,0)" font-family="helvetica" font-size="11px" font-style="normal" font-weight="normal" text-decoration="normal" x="35.88333320617676" y="344.6363525390625" text-anchor="start" dominant-baseline="alphabetic" transform="matrix(1, 0, 0, 1, 0.5, 0.5)" stroke-opacity="0" stroke-linejoin="bevel" stroke-miterlimit="10" stroke-dasharray="">0</text><text fill="rgb(68,68,68)" stroke="none" font-family="helvetica" font-size="11px" font-style="normal" font-weight="normal" text-decoration="normal" x="26.716666221618652" y="303.9040832519531" text-anchor="start" dominant-baseline="alphabetic" transform="matrix(1, 0, 0, 1, 0.5, 0.5)" fill-opacity="1">0.1</text><text fill="none" stroke="rgb(0,0,0)" font-family="helvetica" font-size="11px" font-style="normal" font-weight="normal" text-decoration="normal" x="26.716666221618652" y="303.9040832519531" text-anchor="start" dominant-baseline="alphabetic" transform="matrix(1, 0, 0, 1, 0.5, 0.5)" stroke-opacity="0" stroke-linejoin="bevel" stroke-miterlimit="10" stroke-dasharray="">0.1</text><text fill="rgb(68,68,68)" stroke="none" font-family="helvetica" font-size="11px" font-style="normal" font-weight="normal" text-decoration="normal" x="26.716666221618652" y="263.17181396484375" text-anchor="start" dominant-baseline="alphabetic" transform="matrix(1, 0, 0, 1, 0.5, 0.5)" fill-opacity="1">0.2</text><text fill="none" stroke="rgb(0,0,0)" font-family="helvetica" font-size="11px" font-style="normal" font-weight="normal" text-decoration="normal" x="26.716666221618652" y="263.17181396484375" text-anchor="start" dominant-baseline="alphabetic" transform="matrix(1, 0, 0, 1, 0.5, 0.5)" stroke-opacity="0" stroke-linejoin="bevel" stroke-miterlimit="10" stroke-dasharray="">0.2</text><text fill="rgb(68,68,68)" stroke="none" font-family="helvetica" font-size="11px" font-style="normal" font-weight="normal" text-decoration="normal" x="26.716666221618652" y="222.43955993652344" text-anchor="start" dominant-baseline="alphabetic" transform="matrix(1, 0, 0, 1, 0.5, 0.5)" fill-opacity="1">0.3</text><text fill="none" stroke="rgb(0,0,0)" font-family="helvetica" font-size="11px" font-style="normal" font-weight="normal" text-decoration="normal" x="26.716666221618652" y="222.43955993652344" text-anchor="start" dominant-baseline="alphabetic" transform="matrix(1, 0, 0, 1, 0.5, 0.5)" stroke-opacity="0" stroke-linejoin="bevel" stroke-miterlimit="10" stroke-dasharray="">0.3</text><text fill="rgb(68,68,68)" stroke="none" font-family="helvetica" font-size="11px" font-style="normal" font-weight="normal" text-decoration="normal" x="26.716666221618652" y="181.707275390625" text-anchor="start" dominant-baseline="alphabetic" transform="matrix(1, 0, 0, 1, 0.5, 0.5)" fill-opacity="1">0.4</text><text fill="none" stroke="rgb(0,0,0)" font-family="helvetica" font-size="11px" font-style="normal" font-weight="normal" text-decoration="normal" x="26.716666221618652" y="181.707275390625" text-anchor="start" dominant-baseline="alphabetic" transform="matrix(1, 0, 0, 1, 0.5, 0.5)" stroke-opacity="0" stroke-linejoin="bevel" stroke-miterlimit="10" stroke-dasharray="">0.4</text><text fill="rgb(68,68,68)" stroke="none" font-family="helvetica" font-size="11px" font-style="normal" font-weight="normal" text-decoration="normal" x="26.716666221618652" y="140.97500610351562" text-anchor="start" dominant-baseline="alphabetic" transform="matrix(1, 0, 0, 1, 0.5, 0.5)" fill-opacity="1">0.5</text><text fill="none" stroke="rgb(0,0,0)" font-family="helvetica" font-size="11px" font-style="normal" font-weight="normal" text-decoration="normal" x="26.716666221618652" y="140.97500610351562" text-anchor="start" dominant-baseline="alphabetic" transform="matrix(1, 0, 0, 1, 0.5, 0.5)" stroke-opacity="0" stroke-linejoin="bevel" stroke-miterlimit="10" stroke-dasharray="">0.5</text><text fill="rgb(68,68,68)" stroke="none" font-family="helvetica" font-size="11px" font-style="normal" font-weight="normal" text-decoration="normal" x="26.716666221618652" y="100.24274444580078" text-anchor="start" dominant-baseline="alphabetic" transform="matrix(1, 0, 0, 1, 0.5, 0.5)" fill-opacity="1">0.6</text><text fill="none" stroke="rgb(0,0,0)" font-family="helvetica" font-size="11px" font-style="normal" font-weight="normal" text-decoration="normal" x="26.716666221618652" y="100.24274444580078" text-anchor="start" dominant-baseline="alphabetic" transform="matrix(1, 0, 0, 1, 0.5, 0.5)" stroke-opacity="0" stroke-linejoin="bevel" stroke-miterlimit="10" stroke-dasharray="">0.6</text><text fill="rgb(68,68,68)" stroke="none" font-family="helvetica" font-size="13px" font-style="italic" font-weight="normal" text-decoration="normal" x="-28.366665840148926" y="204" text-anchor="start" dominant-baseline="alphabetic" transform="matrix(6.123233995736766e-17, -1, 1, 6.123233995736766e-17, -187.78333377838135, 226.21666622161865)" fill-opacity="1">Wartość miary F</text><text fill="none" stroke="rgb(0,0,0)" font-family="helvetica" font-size="13px" font-style="italic" font-weight="normal" text-decoration="normal" x="-28.366665840148926" y="204" text-anchor="start" dominant-baseline="alphabetic" transform="matrix(6.123233995736766e-17, -1, 1, 6.123233995736766e-17, -187.78333377838135, 226.21666622161865)" stroke-opacity="0" stroke-linejoin="bevel" stroke-miterlimit="10" stroke-dasharray="">Wartość miary F</text><path fill="rgb(255,255,255)" stroke="rgb(229,229,229)" paint-order="fill" d="M 140.1833267211914 10.5 L 608.8166732788086 10.5 L 608.8166732788086 50.5 L 140.1833267211914 50.5 L 140.1833267211914 10.5" fill-opacity="0.9490196078431372" stroke-opacity="0.5019607843137255" stroke-linejoin="bevel" stroke-miterlimit="10" stroke-dasharray=""/><text fill="rgb(68,68,68)" stroke="none" font-family="helvetica" font-size="13px" font-style="normal" font-weight="normal" text-decoration="normal" x="174.6833267211914" y="30" text-anchor="start" dominant-baseline="central" transform="matrix(1, 0, 0, 1, 0.5, 0.5)" fill-opacity="1">strategia najmniejszej pewności</text><path fill="none" stroke="rgb(11,132,165)" paint-order="fill" d="M 150.1833267211914 30.5 L 170.1833267211914 30.5" stroke-opacity="1" stroke-linejoin="bevel" stroke-miterlimit="10" stroke-width="2" stroke-dasharray=""/><text fill="rgb(68,68,68)" stroke="none" font-family="helvetica" font-size="13px" font-style="normal" font-weight="normal" text-decoration="normal" x="412.53333282470703" y="30" text-anchor="start" dominant-baseline="central" transform="matrix(1, 0, 0, 1, 0.5, 0.5)" fill-opacity="1">strategia próbkowania losowego</text><path fill="none" stroke="rgb(246,200,95)" paint-order="fill" d="M 388.03333282470703 30.5 L 408.03333282470703 30.5" stroke-opacity="1" stroke-linejoin="bevel" stroke-miterlimit="10" stroke-width="2" stroke-dasharray=""/><path fill="rgb(255,255,255)" stroke="rgb(229,229,229)" paint-order="fill" d="M 140.1833267211914 10.5 L 608.8166732788086 10.5 L 608.8166732788086 50.5 L 140.1833267211914 50.5 L 140.1833267211914 10.5" fill-opacity="0.9490196078431372" stroke-opacity="0.5019607843137255" stroke-linejoin="bevel" stroke-miterlimit="10" stroke-dasharray=""/><text fill="rgb(68,68,68)" stroke="none" font-family="helvetica" font-size="13px" font-style="normal" font-weight="normal" text-decoration="normal" x="174.6833267211914" y="30" text-anchor="start" dominant-baseline="central" transform="matrix(1, 0, 0, 1, 0.5, 0.5)" fill-opacity="1">strategia najmniejszej pewności</text><path fill="none" stroke="rgb(11,132,165)" paint-order="fill" d="M 150.1833267211914 30.5 L 170.1833267211914 30.5" stroke-opacity="1" stroke-linejoin="bevel" stroke-miterlimit="10" stroke-width="2" stroke-dasharray=""/><text fill="rgb(68,68,68)" stroke="none" font-family="helvetica" font-size="13px" font-style="normal" font-weight="normal" text-decoration="normal" x="412.53333282470703" y="30" text-anchor="start" dominant-baseline="central" transform="matrix(1, 0, 0, 1, 0.5, 0.5)" fill-opacity="1">strategia próbkowania losowego</text><path fill="none" stroke="rgb(246,200,95)" paint-order="fill" d="M 388.03333282470703 30.5 L 408.03333282470703 30.5" stroke-opacity="1" stroke-linejoin="bevel" stroke-miterlimit="10" stroke-width="2" stroke-dasharray=""/></svg>