<svg version="1.1" xmlns="http://www.w3.org/2000/svg" width="700" height="400"><defs><clipPath id="vivoSGsMkBFG"><path fill="none" stroke="none" d="M 53.5 5.5 L 560.5 5.5 L 560.5 354.5 L 53.5 354.5 L 53.5 5.5"/></clipPath><clipPath id="BmrvkAEyywRB"><path fill="none" stroke="none" d="M 53.5 5.5 L 560.5 5.5 L 560.5 354.5 L 53.5 354.5 L 53.5 5.5"/></clipPath><clipPath id="UUtkOKGoaqIE"><path fill="none" stroke="none" d="M 53.5 5.5 L 560.5 5.5 L 560.5 354.5 L 53.5 354.5 L 53.5 5.5"/></clipPath><clipPath id="HFIwTuOgneJw"><path fill="none" stroke="none" d="M 53.5 5.5 L 560.5 5.5 L 560.5 354.5 L 53.5 354.5 L 53.5 5.5"/></clipPath><clipPath id="BEgSsvXUdyWI"><path fill="none" stroke="none" d="M 53.5 5.5 L 560.5 5.5 L 560.5 354.5 L 53.5 354.5 L 53.5 5.5"/></clipPath><clipPath id="FpwGTBWRIsTe"><path fill="none" stroke="none" d="M 53.5 5.5 L 560.5 5.5 L 560.5 354.5 L 53.5 354.5 L 53.5 5.5"/></clipPath></defs><path fill="rgb(255,255,255)" stroke="none" paint-order="stroke" d="M 0.5 0.5 L 700.5 0.5 L 700.5 400.5 L 0.5 400.5 L 0.5 0.5" fill-opacity="1"/><rect fill="#FFFFFF" stroke="none" x="53" y="5" width="507" height="349" transform="matrix(1, 0, 0, 1, 0.5, 0.5)"/><path fill="rgb(255,255,255)" stroke="none" paint-order="stroke" d="M 53.5 5.5 L 560.5 5.5 L 560.5 354.5 L 53.5 354.5 L 53.5 5.5" fill-opacity="1"/><path fill="none" stroke="rgb(229,229,229)" paint-order="fill" d="M 53.5 5.5 L 560.5 5.5 L 560.5 354.5 L 53.5 354.5 L 53.5 5.5" stroke-opacity="1" stroke-linejoin="bevel" stroke-miterlimit="10" stroke-dasharray=""/><path fill="none" stroke="rgb(229,229,229)" paint-order="fill" d="M 146.5 354.5 L 146.5 5.5 M 250.5 354.5 L 250.5 5.5 M 353.5 354.5 L 353.5 5.5 M 457.5 354.5 L 457.5 5.5" stroke-opacity="1" stroke-linejoin="bevel" stroke-miterlimit="10" stroke-dasharray="" clip-path="url(#vivoSGsMkBFG)"/><path fill="none" stroke="rgb(229,229,229)" paint-order="fill" d="M 53.5 284.5 L 560.5 284.5 M 53.5 214.5 L 560.5 214.5 M 53.5 145.5 L 560.5 145.5 M 53.5 75.5 L 560.5 75.5" stroke-opacity="1" stroke-linejoin="bevel" stroke-miterlimit="10" stroke-dasharray="" clip-path="url(#BmrvkAEyywRB)"/><path fill="none" stroke="rgb(11,132,165)" paint-order="fill" d="M 53.5 354.5 L 63.84693908691406 354.5 L 74.19387817382812 354.5 L 84.54081726074219 265.79150390625 L 94.88775634765625 317.02349853515625 L 105.23469543457031 309.8944396972656 L 115.58163452148438 295.76629638671875 L 125.92857360839844 254.71800231933594 L 136.2755126953125 228.4446258544922 L 146.62245178222656 214.9968719482422 L 156.96939086914062 217.6847381591797 L 167.3163299560547 277.4305725097656 L 177.66326904296875 235.7290496826172 L 188.0102081298828 249.58010864257812 L 198.35714721679688 217.11427307128906 L 208.70408630371094 207.8350372314453 L 219.051025390625 193.5937957763672 L 229.39796447753906 226.4388427734375 L 239.74490356445312 231.68118286132812 L 250.0918426513672 214.39964294433594 L 260.43878173828125 198.88954162597656 L 270.78570556640625 199.23402404785156 L 281.1326599121094 211.7164764404297 L 291.4795837402344 265.1614685058594 L 301.8265380859375 193.6837158203125 L 312.1734619140625 166.00682067871094 L 322.5204162597656 198.1730194091797 L 332.8673400878906 179.57835388183594 L 343.21429443359375 171.9385223388672 L 353.56121826171875 177.409912109375 L 363.9081726074219 209.25144958496094 L 374.2550964355469 174.5692901611328 L 384.60205078125 172.30599975585938 L 394.948974609375 194.72019958496094 L 405.2959289550781 168.54473876953125 L 415.6428527832031 160.76588439941406 L 425.98980712890625 202.66233825683594 L 436.33673095703125 158.9358367919922 L 446.6836853027344 148.09515380859375 L 457.0306091308594 158.8468017578125 L 467.3775634765625 163.90220642089844 L 477.7244873046875 156.98130798339844 L 488.0714416503906 133.51158142089844 L 498.4183654785156 135.59463500976562 L 508.76531982421875 135.2366943359375 L 519.1122436523438 150.72491455078125 L 529.4591674804688 125.4968490600586 L 539.80615234375 142.82203674316406 L 550.153076171875 166.59584045410156 L 560.5 166.0274658203125" stroke-opacity="1" stroke-linejoin="bevel" stroke-miterlimit="10" stroke-width="2" stroke-dasharray="" clip-path="url(#UUtkOKGoaqIE)"/><path fill="none" stroke="rgb(246,200,95)" paint-order="fill" d="M 53.5 354.5 L 63.84693908691406 354.5 L 74.19387817382812 354.5 L 84.54081726074219 243.3726348876953 L 94.88775634765625 333.6761474609375 L 105.23469543457031 325.46673583984375 L 115.58163452148438 321.662353515625 L 125.92857360839844 270.2033996582031 L 136.2755126953125 214.7398223876953 L 146.62245178222656 239.16781616210938 L 156.96939086914062 218.74440002441406 L 167.3163299560547 308.6474609375 L 177.66326904296875 260.1919250488281 L 188.0102081298828 287.62335205078125 L 198.35714721679688 245.17469787597656 L 208.70408630371094 223.1494598388672 L 219.051025390625 209.3336181640625 L 229.39796447753906 200.7237548828125 L 239.74490356445312 273.6072998046875 L 250.0918426513672 253.58433532714844 L 260.43878173828125 243.57286071777344 L 270.78570556640625 242.97216796875 L 281.1326599121094 234.16207885742188 L 291.4795837402344 302.0398864746094 L 301.8265380859375 230.95840454101562 L 312.1734619140625 183.90447998046875 L 322.5204162597656 234.3623046875 L 332.8673400878906 209.13339233398438 L 343.21429443359375 207.13108825683594 L 353.56121826171875 207.33132934570312 L 363.9081726074219 253.58433532714844 L 374.2550964355469 178.69850158691406 L 384.60205078125 206.33018493652344 L 394.948974609375 238.76734924316406 L 405.2959289550781 173.2923126220703 L 415.6428527832031 173.49253845214844 L 425.98980712890625 247.17698669433594 L 436.33673095703125 177.8975830078125 L 446.6836853027344 164.08175659179688 L 457.0306091308594 178.0978240966797 L 467.3775634765625 176.6962127685547 L 477.7244873046875 171.08978271484375 L 488.0714416503906 124.63654327392578 L 498.4183654785156 136.8505401611328 L 508.76531982421875 168.88726806640625 L 519.1122436523438 194.91709899902344 L 529.4591674804688 125.03700256347656 L 539.80615234375 157.27395629882812 L 550.153076171875 201.52467346191406 L 560.5 203.92742919921875" stroke-opacity="1" stroke-linejoin="bevel" stroke-miterlimit="10" stroke-width="2" stroke-dasharray="" clip-path="url(#HFIwTuOgneJw)"/><path fill="none" stroke="rgb(193,230,153)" paint-order="fill" d="M 53.5 354.5 L 63.84693908691406 354.5 L 74.19387817382812 354.5 L 84.54081726074219 280.6833190917969 L 94.88775634765625 167.40721130371094 L 105.23469543457031 258.29278564453125 L 115.58163452148438 76.65534210205078 L 125.92857360839844 232.2628936767578 L 136.2755126953125 239.70169067382812 L 146.62245178222656 178.0083465576172 L 156.96939086914062 216.6083984375 L 167.3163299560547 113.04682922363281 L 177.66326904296875 194.1302490234375 L 188.0102081298828 111.14717864990234 L 198.35714721679688 169.67555236816406 L 208.70408630371094 188.47824096679688 L 219.051025390625 174.0256805419922 L 229.39796447753906 244.7857208251953 L 239.74490356445312 99.53435516357422 L 250.0918426513672 125.46875 L 260.43878173828125 93.92587280273438 L 270.78570556640625 99.05584716796875 L 281.1326599121094 178.9778289794922 L 291.4795837402344 53.717105865478516 L 301.8265380859375 124.19732666015625 L 312.1734619140625 143.91360473632812 L 322.5204162597656 130.7820587158203 L 332.8673400878906 134.9384765625 L 343.21429443359375 114.6643295288086 L 353.56121826171875 132.21664428710938 L 363.9081726074219 95.44845581054688 L 374.2550964355469 170.24142456054688 L 384.60205078125 117.9981689453125 L 394.948974609375 96.5434799194336 L 405.2959289550781 163.54171752929688 L 415.6428527832031 146.11427307128906 L 425.98980712890625 95.04924011230469 L 436.33673095703125 135.41246032714844 L 446.6836853027344 129.17820739746094 L 457.0306091308594 134.87928771972656 L 467.3775634765625 149.12425231933594 L 477.7244873046875 140.52142333984375 L 488.0714416503906 141.7267608642578 L 498.4183654785156 134.3241424560547 L 508.76531982421875 86.68294525146484 L 519.1122436523438 72.68338775634766 L 529.4591674804688 125.9548568725586 L 539.80615234375 126.084716796875 L 550.153076171875 110.9968032836914 L 560.5 102.6305160522461" stroke-opacity="1" stroke-linejoin="bevel" stroke-miterlimit="10" stroke-width="2" stroke-dasharray="" clip-path="url(#BEgSsvXUdyWI)"/><path fill="none" stroke="rgb(0,0,0)" paint-order="fill" d="M 53.5 354.5 L 560.5 354.5" stroke-opacity="1" stroke-linejoin="bevel" stroke-miterlimit="10" stroke-dasharray=""/><path fill="none" stroke="rgb(0,0,0)" paint-order="fill" d="M 146.5 360.5 L 146.5 352.5 M 250.5 360.5 L 250.5 352.5 M 353.5 360.5 L 353.5 352.5 M 457.5 360.5 L 457.5 352.5 M 560.5 360.5 L 560.5 352.5" stroke-opacity="1" stroke-linejoin="bevel" stroke-miterlimit="10" stroke-dasharray=""/><path fill="none" stroke="rgb(0,0,0)" paint-order="fill" d="M 125.5 358.5 L 125.5 354.5 M 105.5 358.5 L 105.5 354.5 M 84.5 358.5 L 84.5 354.5 M 63.5 358.5 L 63.5 354.5 M 146.5 358.5 L 146.5 354.5 M 167.5 358.5 L 167.5 354.5 M 188.5 358.5 L 188.5 354.5 M 208.5 358.5 L 208.5 354.5 M 229.5 358.5 L 229.5 354.5 M 250.5 358.5 L 250.5 354.5 M 270.5 358.5 L 270.5 354.5 M 291.5 358.5 L 291.5 354.5 M 312.5 358.5 L 312.5 354.5 M 332.5 358.5 L 332.5 354.5 M 353.5 358.5 L 353.5 354.5 M 374.5 358.5 L 374.5 354.5 M 394.5 358.5 L 394.5 354.5 M 415.5 358.5 L 415.5 354.5 M 436.5 358.5 L 436.5 354.5 M 457.5 358.5 L 457.5 354.5 M 477.5 358.5 L 477.5 354.5 M 498.5 358.5 L 498.5 354.5 M 519.5 358.5 L 519.5 354.5 M 539.5 358.5 L 539.5 354.5 M 560.5 358.5 L 560.5 354.5" stroke-opacity="1" stroke-linejoin="bevel" stroke-miterlimit="10" stroke-dasharray=""/><text fill="rgb(68,68,68)" stroke="none" font-family="helvetica" font-size="11px" font-style="normal" font-weight="normal" text-decoration="normal" x="140.00578498840332" y="373" text-anchor="start" dominant-baseline="alphabetic" transform="matrix(1, 0, 0, 1, 0.5, 0.5)" fill-opacity="1">10</text><text fill="none" stroke="rgb(0,0,0)" font-family="helvetica" font-size="11px" font-style="normal" font-weight="normal" text-decoration="normal" x="140.00578498840332" y="373" text-anchor="start" dominant-baseline="alphabetic" transform="matrix(1, 0, 0, 1, 0.5, 0.5)" stroke-opacity="0" stroke-linejoin="bevel" stroke-miterlimit="10" stroke-dasharray="">10</text><text fill="rgb(68,68,68)" stroke="none" font-family="helvetica" font-size="11px" font-style="normal" font-weight="normal" text-decoration="normal" x="243.47517585754395" y="373" text-anchor="start" dominant-baseline="alphabetic" transform="matrix(1, 0, 0, 1, 0.5, 0.5)" fill-opacity="1">20</text><text fill="none" stroke="rgb(0,0,0)" font-family="helvetica" font-size="11px" font-style="normal" font-weight="normal" text-decoration="normal" x="243.47517585754395" y="373" text-anchor="start" dominant-baseline="alphabetic" transform="matrix(1, 0, 0, 1, 0.5, 0.5)" stroke-opacity="0" stroke-linejoin="bevel" stroke-miterlimit="10" stroke-dasharray="">20</text><text fill="rgb(68,68,68)" stroke="none" font-family="helvetica" font-size="11px" font-style="normal" font-weight="normal" text-decoration="normal" x="346.9445514678955" y="373" text-anchor="start" dominant-baseline="alphabetic" transform="matrix(1, 0, 0, 1, 0.5, 0.5)" fill-opacity="1">30</text><text fill="none" stroke="rgb(0,0,0)" font-family="helvetica" font-size="11px" font-style="normal" font-weight="normal" text-decoration="normal" x="346.9445514678955" y="373" text-anchor="start" dominant-baseline="alphabetic" transform="matrix(1, 0, 0, 1, 0.5, 0.5)" stroke-opacity="0" stroke-linejoin="bevel" stroke-miterlimit="10" stroke-dasharray="">30</text><text fill="rgb(68,68,68)" stroke="none" font-family="helvetica" font-size="11px" font-style="normal" font-weight="normal" text-decoration="normal" x="450.41394233703613" y="373" text-anchor="start" dominant-baseline="alphabetic" transform="matrix(1, 0, 0, 1, 0.5, 0.5)" fill-opacity="1">40</text><text fill="none" stroke="rgb(0,0,0)" font-family="helvetica" font-size="11px" font-style="normal" font-weight="normal" text-decoration="normal" x="450.41394233703613" y="373" text-anchor="start" dominant-baseline="alphabetic" transform="matrix(1, 0, 0, 1, 0.5, 0.5)" stroke-opacity="0" stroke-linejoin="bevel" stroke-miterlimit="10" stroke-dasharray="">40</text><text fill="rgb(68,68,68)" stroke="none" font-family="helvetica" font-size="11px" font-style="normal" font-weight="normal" text-decoration="normal" x="553.8833332061768" y="373" text-anchor="start" dominant-baseline="alphabetic" transform="matrix(1, 0, 0, 1, 0.5, 0.5)" fill-opacity="1">50</text><text fill="none" stroke="rgb(0,0,0)" font-family="helvetica" font-size="11px" font-style="normal" font-weight="normal" text-decoration="normal" x="553.8833332061768" y="373" text-anchor="start" dominant-baseline="alphabetic" transform="matrix(1, 0, 0, 1, 0.5, 0.5)" stroke-opacity="0" stroke-linejoin="bevel" stroke-miterlimit="10" stroke-dasharray="">50</text><text fill="rgb(68,68,68)" stroke="none" font-family="helvetica" font-size="13px" font-style="italic" font-weight="normal" text-decoration="normal" x="285.17499923706055" y="394" text-anchor="start" dominant-baseline="alphabetic" transform="matrix(1, 0, 0, 1, 0.5, 0.5)" fill-opacity="1">Iteracja</text><text fill="none" stroke="rgb(0,0,0)" font-family="helvetica" font-size="13px" font-style="italic" font-weight="normal" text-decoration="normal" x="285.17499923706055" y="394" text-anchor="start" dominant-baseline="alphabetic" transform="matrix(1, 0, 0, 1, 0.5, 0.5)" stroke-opacity="0" stroke-linejoin="bevel" stroke-miterlimit="10" stroke-dasharray="">Iteracja</text><path fill="none" stroke="rgb(0,0,0)" paint-order="fill" d="M 53.5 354.5 L 53.5 5.5" stroke-opacity="1" stroke-linejoin="bevel" stroke-miterlimit="10" stroke-dasharray=""/><path fill="none" stroke="rgb(0,0,0)" paint-order="fill" d="M 47.5 354.5 L 55.5 354.5 M 47.5 284.5 L 55.5 284.5 M 47.5 214.5 L 55.5 214.5 M 47.5 145.5 L 55.5 145.5 M 47.5 75.5 L 55.5 75.5 M 47.5 5.5 L 55.5 5.5" stroke-opacity="1" stroke-linejoin="bevel" stroke-miterlimit="10" stroke-dasharray=""/><path fill="none" stroke="rgb(0,0,0)" paint-order="fill" d="M 49.5 354.5 L 53.5 354.5 M 49.5 340.5 L 53.5 340.5 M 49.5 326.5 L 53.5 326.5 M 49.5 312.5 L 53.5 312.5 M 49.5 298.5 L 53.5 298.5 M 49.5 284.5 L 53.5 284.5 M 49.5 270.5 L 53.5 270.5 M 49.5 256.5 L 53.5 256.5 M 49.5 242.5 L 53.5 242.5 M 49.5 228.5 L 53.5 228.5 M 49.5 214.5 L 53.5 214.5 M 49.5 200.5 L 53.5 200.5 M 49.5 186.5 L 53.5 186.5 M 49.5 173.5 L 53.5 173.5 M 49.5 159.5 L 53.5 159.5 M 49.5 145.5 L 53.5 145.5 M 49.5 131.5 L 53.5 131.5 M 49.5 117.5 L 53.5 117.5 M 49.5 103.5 L 53.5 103.5 M 49.5 89.5 L 53.5 89.5 M 49.5 75.5 L 53.5 75.5 M 49.5 61.5 L 53.5 61.5 M 49.5 47.5 L 53.5 47.5 M 49.5 33.5 L 53.5 33.5 M 49.5 19.5 L 53.5 19.5 M 49.5 5.5 L 53.5 5.5" stroke-opacity="1" stroke-linejoin="bevel" stroke-miterlimit="10" stroke-dasharray=""/><text fill="rgb(68,68,68)" stroke="none" font-family="helvetica" font-size="11px" font-style="normal" font-weight="normal" text-decoration="normal" x="35.88333320617676" y="358" text-anchor="start" dominant-baseline="alphabetic" transform="matrix(1, 0, 0, 1, 0.5, 0.5)" fill-opacity="1">0</text><text fill="none" stroke="rgb(0,0,0)" font-family="helvetica" font-size="11px" font-style="normal" font-weight="normal" text-decoration="normal" x="35.88333320617676" y="358" text-anchor="start" dominant-baseline="alphabetic" transform="matrix(1, 0, 0, 1, 0.5, 0.5)" stroke-opacity="0" stroke-linejoin="bevel" stroke-miterlimit="10" stroke-dasharray="">0</text><text fill="rgb(68,68,68)" stroke="none" font-family="helvetica" font-size="11px" font-style="normal" font-weight="normal" text-decoration="normal" x="26.716666221618652" y="288.20001220703125" text-anchor="start" dominant-baseline="alphabetic" transform="matrix(1, 0, 0, 1, 0.5, 0.5)" fill-opacity="1">0.2</text><text fill="none" stroke="rgb(0,0,0)" font-family="helvetica" font-size="11px" font-style="normal" font-weight="normal" text-decoration="normal" x="26.716666221618652" y="288.20001220703125" text-anchor="start" dominant-baseline="alphabetic" transform="matrix(1, 0, 0, 1, 0.5, 0.5)" stroke-opacity="0" stroke-linejoin="bevel" stroke-miterlimit="10" stroke-dasharray="">0.2</text><text fill="rgb(68,68,68)" stroke="none" font-family="helvetica" font-size="11px" font-style="normal" font-weight="normal" text-decoration="normal" x="26.716666221618652" y="218.39999389648438" text-anchor="start" dominant-baseline="alphabetic" transform="matrix(1, 0, 0, 1, 0.5, 0.5)" fill-opacity="1">0.4</text><text fill="none" stroke="rgb(0,0,0)" font-family="helvetica" font-size="11px" font-style="normal" font-weight="normal" text-decoration="normal" x="26.716666221618652" y="218.39999389648438" text-anchor="start" dominant-baseline="alphabetic" transform="matrix(1, 0, 0, 1, 0.5, 0.5)" stroke-opacity="0" stroke-linejoin="bevel" stroke-miterlimit="10" stroke-dasharray="">0.4</text><text fill="rgb(68,68,68)" stroke="none" font-family="helvetica" font-size="11px" font-style="normal" font-weight="normal" text-decoration="normal" x="26.716666221618652" y="148.60000610351562" text-anchor="start" dominant-baseline="alphabetic" transform="matrix(1, 0, 0, 1, 0.5, 0.5)" fill-opacity="1">0.6</text><text fill="none" stroke="rgb(0,0,0)" font-family="helvetica" font-size="11px" font-style="normal" font-weight="normal" text-decoration="normal" x="26.716666221618652" y="148.60000610351562" text-anchor="start" dominant-baseline="alphabetic" transform="matrix(1, 0, 0, 1, 0.5, 0.5)" stroke-opacity="0" stroke-linejoin="bevel" stroke-miterlimit="10" stroke-dasharray="">0.6</text><text fill="rgb(68,68,68)" stroke="none" font-family="helvetica" font-size="11px" font-style="normal" font-weight="normal" text-decoration="normal" x="26.716666221618652" y="78.80000305175781" text-anchor="start" dominant-baseline="alphabetic" transform="matrix(1, 0, 0, 1, 0.5, 0.5)" fill-opacity="1">0.8</text><text fill="none" stroke="rgb(0,0,0)" font-family="helvetica" font-size="11px" font-style="normal" font-weight="normal" text-decoration="normal" x="26.716666221618652" y="78.80000305175781" text-anchor="start" dominant-baseline="alphabetic" transform="matrix(1, 0, 0, 1, 0.5, 0.5)" stroke-opacity="0" stroke-linejoin="bevel" stroke-miterlimit="10" stroke-dasharray="">0.8</text><text fill="rgb(68,68,68)" stroke="none" font-family="helvetica" font-size="11px" font-style="normal" font-weight="normal" text-decoration="normal" x="35.88333320617676" y="9" text-anchor="start" dominant-baseline="alphabetic" transform="matrix(1, 0, 0, 1, 0.5, 0.5)" fill-opacity="1">1</text><text fill="none" stroke="rgb(0,0,0)" font-family="helvetica" font-size="11px" font-style="normal" font-weight="normal" text-decoration="normal" x="35.88333320617676" y="9" text-anchor="start" dominant-baseline="alphabetic" transform="matrix(1, 0, 0, 1, 0.5, 0.5)" stroke-opacity="0" stroke-linejoin="bevel" stroke-miterlimit="10" stroke-dasharray="">1</text><text fill="rgb(68,68,68)" stroke="none" font-family="helvetica" font-size="13px" font-style="italic" font-weight="normal" text-decoration="normal" x="-27.649998664855957" y="176.5" text-anchor="start" dominant-baseline="alphabetic" transform="matrix(6.123233995736766e-17, -1, 1, 6.123233995736766e-17, -160.28333377838135, 198.71666622161865)" fill-opacity="1">Wartość metryki</text><text fill="none" stroke="rgb(0,0,0)" font-family="helvetica" font-size="13px" font-style="italic" font-weight="normal" text-decoration="normal" x="-27.649998664855957" y="176.5" text-anchor="start" dominant-baseline="alphabetic" transform="matrix(6.123233995736766e-17, -1, 1, 6.123233995736766e-17, -160.28333377838135, 198.71666622161865)" stroke-opacity="0" stroke-linejoin="bevel" stroke-miterlimit="10" stroke-dasharray="">Wartość metryki</text><path fill="rgb(255,255,255)" stroke="rgb(229,229,229)" paint-order="fill" d="M 570.3333358764648 15.5 L 690.5 15.5 L 690.5 101.5 L 570.3333358764648 101.5 L 570.3333358764648 15.5" fill-opacity="0.9490196078431372" stroke-opacity="0.5019607843137255" stroke-linejoin="bevel" stroke-miterlimit="10" stroke-dasharray=""/><text fill="rgb(68,68,68)" stroke="none" font-family="helvetica" font-size="13px" font-style="normal" font-weight="normal" text-decoration="normal" x="604.8333358764648" y="35" text-anchor="start" dominant-baseline="central" transform="matrix(1, 0, 0, 1, 0.5, 0.5)" fill-opacity="1">F1</text><path fill="none" stroke="rgb(11,132,165)" paint-order="fill" d="M 580.3333358764648 35.5 L 600.3333358764648 35.5" stroke-opacity="1" stroke-linejoin="bevel" stroke-miterlimit="10" stroke-width="2" stroke-dasharray=""/><text fill="rgb(68,68,68)" stroke="none" font-family="helvetica" font-size="13px" font-style="normal" font-weight="normal" text-decoration="normal" x="604.8333358764648" y="58" text-anchor="start" dominant-baseline="central" transform="matrix(1, 0, 0, 1, 0.5, 0.5)" fill-opacity="1">Kompletność</text><path fill="none" stroke="rgb(246,200,95)" paint-order="fill" d="M 580.3333358764648 58.5 L 600.3333358764648 58.5" stroke-opacity="1" stroke-linejoin="bevel" stroke-miterlimit="10" stroke-width="2" stroke-dasharray=""/><text fill="rgb(68,68,68)" stroke="none" font-family="helvetica" font-size="13px" font-style="normal" font-weight="normal" text-decoration="normal" x="604.8333358764648" y="81" text-anchor="start" dominant-baseline="central" transform="matrix(1, 0, 0, 1, 0.5, 0.5)" fill-opacity="1">Dokładność</text><path fill="none" stroke="rgb(193,230,153)" paint-order="fill" d="M 580.3333358764648 81.5 L 600.3333358764648 81.5" stroke-opacity="1" stroke-linejoin="bevel" stroke-miterlimit="10" stroke-width="2" stroke-dasharray=""/><path fill="rgb(255,255,255)" stroke="rgb(229,229,229)" paint-order="fill" d="M 570.3333358764648 15.5 L 690.5 15.5 L 690.5 101.5 L 570.3333358764648 101.5 L 570.3333358764648 15.5" fill-opacity="0.9490196078431372" stroke-opacity="0.5019607843137255" stroke-linejoin="bevel" stroke-miterlimit="10" stroke-dasharray=""/><text fill="rgb(68,68,68)" stroke="none" font-family="helvetica" font-size="13px" font-style="normal" font-weight="normal" text-decoration="normal" x="604.8333358764648" y="35" text-anchor="start" dominant-baseline="central" transform="matrix(1, 0, 0, 1, 0.5, 0.5)" fill-opacity="1">F1</text><path fill="none" stroke="rgb(11,132,165)" paint-order="fill" d="M 580.3333358764648 35.5 L 600.3333358764648 35.5" stroke-opacity="1" stroke-linejoin="bevel" stroke-miterlimit="10" stroke-width="2" stroke-dasharray=""/><text fill="rgb(68,68,68)" stroke="none" font-family="helvetica" font-size="13px" font-style="normal" font-weight="normal" text-decoration="normal" x="604.8333358764648" y="58" text-anchor="start" dominant-baseline="central" transform="matrix(1, 0, 0, 1, 0.5, 0.5)" fill-opacity="1">Kompletność</text><path fill="none" stroke="rgb(246,200,95)" paint-order="fill" d="M 580.3333358764648 58.5 L 600.3333358764648 58.5" stroke-opacity="1" stroke-linejoin="bevel" stroke-miterlimit="10" stroke-width="2" stroke-dasharray=""/><text fill="rgb(68,68,68)" stroke="none" font-family="helvetica" font-size="13px" font-style="normal" font-weight="normal" text-decoration="normal" x="604.8333358764648" y="81" text-anchor="start" dominant-baseline="central" transform="matrix(1, 0, 0, 1, 0.5, 0.5)" fill-opacity="1">Dokładność</text><path fill="none" stroke="rgb(193,230,153)" paint-order="fill" d="M 580.3333358764648 81.5 L 600.3333358764648 81.5" stroke-opacity="1" stroke-linejoin="bevel" stroke-miterlimit="10" stroke-width="2" stroke-dasharray=""/></svg>