<svg version="1.1" xmlns="http://www.w3.org/2000/svg" width="700" height="400"><defs><clipPath id="ZJpSvwlEQJEi"><path fill="none" stroke="none" d="M 53.5 5.5 L 560.5 5.5 L 560.5 354.5 L 53.5 354.5 L 53.5 5.5"/></clipPath><clipPath id="lxTrVymOXQvP"><path fill="none" stroke="none" d="M 53.5 5.5 L 560.5 5.5 L 560.5 354.5 L 53.5 354.5 L 53.5 5.5"/></clipPath><clipPath id="QIGEyfrTMTsg"><path fill="none" stroke="none" d="M 53.5 5.5 L 560.5 5.5 L 560.5 354.5 L 53.5 354.5 L 53.5 5.5"/></clipPath><clipPath id="tbIlzQiuTmtE"><path fill="none" stroke="none" d="M 53.5 5.5 L 560.5 5.5 L 560.5 354.5 L 53.5 354.5 L 53.5 5.5"/></clipPath><clipPath id="sQgyUMeBIMTM"><path fill="none" stroke="none" d="M 53.5 5.5 L 560.5 5.5 L 560.5 354.5 L 53.5 354.5 L 53.5 5.5"/></clipPath><clipPath id="rUVywqPThczI"><path fill="none" stroke="none" d="M 53.5 5.5 L 560.5 5.5 L 560.5 354.5 L 53.5 354.5 L 53.5 5.5"/></clipPath></defs><path fill="rgb(255,255,255)" stroke="none" paint-order="stroke" d="M 0.5 0.5 L 700.5 0.5 L 700.5 400.5 L 0.5 400.5 L 0.5 0.5" fill-opacity="1"/><rect fill="#FFFFFF" stroke="none" x="53" y="5" width="507" height="349" transform="matrix(1, 0, 0, 1, 0.5, 0.5)"/><path fill="rgb(255,255,255)" stroke="none" paint-order="stroke" d="M 53.5 5.5 L 560.5 5.5 L 560.5 354.5 L 53.5 354.5 L 53.5 5.5" fill-opacity="1"/><path fill="none" stroke="rgb(229,229,229)" paint-order="fill" d="M 53.5 5.5 L 560.5 5.5 L 560.5 354.5 L 53.5 354.5 L 53.5 5.5" stroke-opacity="1" stroke-linejoin="bevel" stroke-miterlimit="10" stroke-dasharray=""/><path fill="none" stroke="rgb(229,229,229)" paint-order="fill" d="M 125.5 354.5 L 125.5 5.5 M 198.5 354.5 L 198.5 5.5 M 270.5 354.5 L 270.5 5.5 M 343.5 354.5 L 343.5 5.5 M 415.5 354.5 L 415.5 5.5 M 488.5 354.5 L 488.5 5.5" stroke-opacity="1" stroke-linejoin="bevel" stroke-miterlimit="10" stroke-dasharray="" clip-path="url(#ZJpSvwlEQJEi)"/><path fill="none" stroke="rgb(229,229,229)" paint-order="fill" d="M 53.5 284.5 L 560.5 284.5 M 53.5 214.5 L 560.5 214.5 M 53.5 145.5 L 560.5 145.5 M 53.5 75.5 L 560.5 75.5" stroke-opacity="1" stroke-linejoin="bevel" stroke-miterlimit="10" stroke-dasharray="" clip-path="url(#lxTrVymOXQvP)"/><path fill="none" stroke="rgb(11,132,165)" paint-order="fill" d="M 67.55113983154297 354.5 L 81.31256866455078 354.5 L 93.62542724609375 354.5 L 104.05514526367188 278.78179931640625 L 115.35399627685547 326.927490234375 L 126.50800323486328 319.5009460449219 L 136.35829162597656 313.2444152832031 L 147.6571502685547 271.76104736328125 L 157.50743103027344 228.82603454589844 L 166.9231414794922 224.36441040039062 L 178.2220001220703 218.96385192871094 L 189.66571044921875 288.3883361816406 L 201.25428771972656 241.98240661621094 L 212.4082794189453 269.3203430175781 L 224.2865753173828 222.71934509277344 L 235.15086364746094 213.05726623535156 L 245.0011444091797 197.6629638671875 L 255.57571411132812 218.5717315673828 L 266.00543212890625 242.7433624267578 L 278.6080017089844 222.5092315673828 L 293.0937194824219 211.41148376464844 L 304.6822814941406 214.8408203125 L 314.3877258300781 214.8484649658203 L 325.68658447265625 279.71429443359375 L 336.6957092285156 199.82009887695312 L 345.5320129394531 173.09750366210938 L 355.2374267578125 204.02635192871094 L 364.65313720703125 186.0535430908203 L 374.6482849121094 180.06617736816406 L 384.2088623046875 181.02195739746094 L 396.0871276855469 221.0855712890625 L 405.06829833984375 171.01429748535156 L 415.7877197265625 181.12155151367188 L 431.28741455078125 204.94935607910156 L 442.29656982421875 168.4108123779297 L 451.8571472167969 169.60247802734375 L 461.852294921875 214.3008575439453 L 471.70257568359375 157.957275390625 L 481.8425598144531 150.161376953125 L 493.86572265625 164.3804168701172 L 505.5991516113281 164.13636779785156 L 517.0428466796875 157.16929626464844 L 527.0380249023438 132.55145263671875 L 539.2059936523438 134.87535095214844 L 552.2431640625 143.4183807373047 L 563.5419921875 160.35784912109375 L 573.2474365234375 125.88675689697266 L 584.4014282226562 145.61634826660156 L 594.251708984375 174.31192016601562 L 605.6954345703125 175.94186401367188" stroke-opacity="1" stroke-linejoin="bevel" stroke-miterlimit="10" stroke-width="2" stroke-dasharray="" clip-path="url(#QIGEyfrTMTsg)"/><path fill="none" stroke="rgb(246,200,95)" paint-order="fill" d="M 67.55113983154297 354.5 L 81.31256866455078 354.5 L 93.62542724609375 354.5 L 104.05514526367188 284.82012939453125 L 115.35399627685547 339.88323974609375 L 126.50800323486328 333.2756652832031 L 136.35829162597656 332.2745361328125 L 147.6571502685547 298.0352783203125 L 157.50743103027344 235.96414184570312 L 166.9231414794922 257.58892822265625 L 178.2220001220703 232.960693359375 L 189.66571044921875 316.4563903808594 L 201.25428771972656 273.8075256347656 L 212.4082794189453 304.04217529296875 L 224.2865753173828 257.9893798828125 L 235.15086364746094 240.7696533203125 L 245.0011444091797 229.15634155273438 L 255.57571411132812 207.73178100585938 L 266.00543212890625 284.419677734375 L 278.6080017089844 264.1965026855469 L 293.0937194824219 257.58892822265625 L 304.6822814941406 259.9916687011719 L 314.3877258300781 245.97561645507812 L 325.68658447265625 311.8511047363281 L 336.6957092285156 242.77194213867188 L 345.5320129394531 204.52810668945312 L 355.2374267578125 244.7742462158203 L 364.65313720703125 226.35313415527344 L 374.6482849121094 222.54876708984375 L 384.2088623046875 218.54417419433594 L 396.0871276855469 266.3990173339844 L 405.06829833984375 188.91021728515625 L 415.7877197265625 222.94921875 L 431.28741455078125 251.58204650878906 L 442.29656982421875 185.70654296875 L 451.8571472167969 198.72145080566406 L 461.852294921875 260.7926025390625 L 471.70257568359375 188.91021728515625 L 481.8425598144531 180.7008056640625 L 493.86572265625 198.52122497558594 L 505.5991516113281 188.70997619628906 L 517.0428466796875 182.30264282226562 L 527.0380249023438 141.6560516357422 L 539.2059936523438 151.06683349609375 L 552.2431640625 186.10699462890625 L 563.5419921875 209.53384399414062 L 573.2474365234375 147.46270751953125 L 584.4014282226562 176.29576110839844 L 594.251708984375 216.54188537597656 L 605.6954345703125 220.14601135253906" stroke-opacity="1" stroke-linejoin="bevel" stroke-miterlimit="10" stroke-width="2" stroke-dasharray="" clip-path="url(#tbIlzQiuTmtE)"/><path fill="none" stroke="rgb(193,230,153)" paint-order="fill" d="M 67.55113983154297 354.5 L 81.31256866455078 354.5 L 93.62542724609375 354.5 L 104.05514526367188 271.5976257324219 L 115.35399627685547 111.86190795898438 L 126.50800323486328 254.7857208251953 L 136.35829162597656 67.54444122314453 L 147.6571502685547 199.7547149658203 L 157.50743103027344 220.77313232421875 L 166.9231414794922 156.47421264648438 L 178.2220001220703 201.32357788085938 L 189.66571044921875 102.37071990966797 L 201.25428771972656 168.7047576904297 L 212.4082794189453 81.36956787109375 L 224.2865753173828 146.82345581054688 L 235.15086364746094 167.48867797851562 L 245.0011444091797 145.0330810546875 L 255.57571411132812 227.9205780029297 L 266.00543212890625 78.76636505126953 L 278.6080017089844 109.33021545410156 L 293.0937194824219 81.17314147949219 L 304.6822814941406 87.08441925048828 L 314.3877258300781 158.68426513671875 L 325.68658447265625 51.08367156982422 L 336.6957092285156 103.22000122070312 L 345.5320129394531 124.99955749511719 L 355.2374267578125 115.13579559326172 L 364.65313720703125 108.77942657470703 L 374.6482849121094 97.23937225341797 L 384.2088623046875 114.89332580566406 L 396.0871276855469 79.79517364501953 L 405.06829833984375 148.7815399169922 L 415.7877197265625 100.2948989868164 L 431.28741455078125 81.04573059082031 L 442.29656982421875 147.16595458984375 L 451.8571472167969 127.09464263916016 L 461.852294921875 76.25127410888672 L 471.70257568359375 112.7721939086914 L 481.8425598144531 106.60147094726562 L 493.86572265625 111.10608673095703 L 505.5991516113281 131.01043701171875 L 517.0428466796875 123.44534301757812 L 527.0380249023438 122.63312530517578 L 539.2059936523438 115.88358306884766 L 552.2431640625 71.73603057861328 L 563.5419921875 60.690696716308594 L 573.2474365234375 99.29066467285156 L 584.4014282226562 102.17668914794922 L 594.251708984375 94.82289123535156 L 605.6954345703125 88.38749694824219" stroke-opacity="1" stroke-linejoin="bevel" stroke-miterlimit="10" stroke-width="2" stroke-dasharray="" clip-path="url(#sQgyUMeBIMTM)"/><path fill="none" stroke="rgb(0,0,0)" paint-order="fill" d="M 53.5 354.5 L 560.5 354.5" stroke-opacity="1" stroke-linejoin="bevel" stroke-miterlimit="10" stroke-dasharray=""/><path fill="none" stroke="rgb(0,0,0)" paint-order="fill" d="M 53.5 360.5 L 53.5 352.5 M 125.5 360.5 L 125.5 352.5 M 198.5 360.5 L 198.5 352.5 M 270.5 360.5 L 270.5 352.5 M 343.5 360.5 L 343.5 352.5 M 415.5 360.5 L 415.5 352.5 M 488.5 360.5 L 488.5 352.5 M 560.5 360.5 L 560.5 352.5" stroke-opacity="1" stroke-linejoin="bevel" stroke-miterlimit="10" stroke-dasharray=""/><path fill="none" stroke="rgb(0,0,0)" paint-order="fill" d="M 53.5 358.5 L 53.5 354.5 M 67.5 358.5 L 67.5 354.5 M 82.5 358.5 L 82.5 354.5 M 96.5 358.5 L 96.5 354.5 M 111.5 358.5 L 111.5 354.5 M 125.5 358.5 L 125.5 354.5 M 140.5 358.5 L 140.5 354.5 M 154.5 358.5 L 154.5 354.5 M 169.5 358.5 L 169.5 354.5 M 183.5 358.5 L 183.5 354.5 M 198.5 358.5 L 198.5 354.5 M 212.5 358.5 L 212.5 354.5 M 227.5 358.5 L 227.5 354.5 M 241.5 358.5 L 241.5 354.5 M 256.5 358.5 L 256.5 354.5 M 270.5 358.5 L 270.5 354.5 M 285.5 358.5 L 285.5 354.5 M 299.5 358.5 L 299.5 354.5 M 314.5 358.5 L 314.5 354.5 M 328.5 358.5 L 328.5 354.5 M 343.5 358.5 L 343.5 354.5 M 357.5 358.5 L 357.5 354.5 M 372.5 358.5 L 372.5 354.5 M 386.5 358.5 L 386.5 354.5 M 401.5 358.5 L 401.5 354.5 M 415.5 358.5 L 415.5 354.5 M 430.5 358.5 L 430.5 354.5 M 444.5 358.5 L 444.5 354.5 M 459.5 358.5 L 459.5 354.5 M 473.5 358.5 L 473.5 354.5 M 488.5 358.5 L 488.5 354.5 M 502.5 358.5 L 502.5 354.5 M 517.5 358.5 L 517.5 354.5 M 531.5 358.5 L 531.5 354.5 M 546.5 358.5 L 546.5 354.5 M 560.5 358.5 L 560.5 354.5" stroke-opacity="1" stroke-linejoin="bevel" stroke-miterlimit="10" stroke-dasharray=""/><text fill="rgb(68,68,68)" stroke="none" font-family="helvetica" font-size="11px" font-style="normal" font-weight="normal" text-decoration="normal" x="49.94166660308838" y="373" text-anchor="start" dominant-baseline="alphabetic" transform="matrix(1, 0, 0, 1, 0.5, 0.5)" fill-opacity="1">0</text><text fill="none" stroke="rgb(0,0,0)" font-family="helvetica" font-size="11px" font-style="normal" font-weight="normal" text-decoration="normal" x="49.94166660308838" y="373" text-anchor="start" dominant-baseline="alphabetic" transform="matrix(1, 0, 0, 1, 0.5, 0.5)" stroke-opacity="0" stroke-linejoin="bevel" stroke-miterlimit="10" stroke-dasharray="">0</text><text fill="rgb(68,68,68)" stroke="none" font-family="helvetica" font-size="11px" font-style="normal" font-weight="normal" text-decoration="normal" x="116.25357341766357" y="373" text-anchor="start" dominant-baseline="alphabetic" transform="matrix(1, 0, 0, 1, 0.5, 0.5)" fill-opacity="1">500</text><text fill="none" stroke="rgb(0,0,0)" font-family="helvetica" font-size="11px" font-style="normal" font-weight="normal" text-decoration="normal" x="116.25357341766357" y="373" text-anchor="start" dominant-baseline="alphabetic" transform="matrix(1, 0, 0, 1, 0.5, 0.5)" stroke-opacity="0" stroke-linejoin="bevel" stroke-miterlimit="10" stroke-dasharray="">500</text><text fill="rgb(68,68,68)" stroke="none" font-family="helvetica" font-size="11px" font-style="normal" font-weight="normal" text-decoration="normal" x="185.6238136291504" y="373" text-anchor="start" dominant-baseline="alphabetic" transform="matrix(1, 0, 0, 1, 0.5, 0.5)" fill-opacity="1">1000</text><text fill="none" stroke="rgb(0,0,0)" font-family="helvetica" font-size="11px" font-style="normal" font-weight="normal" text-decoration="normal" x="185.6238136291504" y="373" text-anchor="start" dominant-baseline="alphabetic" transform="matrix(1, 0, 0, 1, 0.5, 0.5)" stroke-opacity="0" stroke-linejoin="bevel" stroke-miterlimit="10" stroke-dasharray="">1000</text><text fill="rgb(68,68,68)" stroke="none" font-family="helvetica" font-size="11px" font-style="normal" font-weight="normal" text-decoration="normal" x="258.05237197875977" y="373" text-anchor="start" dominant-baseline="alphabetic" transform="matrix(1, 0, 0, 1, 0.5, 0.5)" fill-opacity="1">1500</text><text fill="none" stroke="rgb(0,0,0)" font-family="helvetica" font-size="11px" font-style="normal" font-weight="normal" text-decoration="normal" x="258.05237197875977" y="373" text-anchor="start" dominant-baseline="alphabetic" transform="matrix(1, 0, 0, 1, 0.5, 0.5)" stroke-opacity="0" stroke-linejoin="bevel" stroke-miterlimit="10" stroke-dasharray="">1500</text><text fill="rgb(68,68,68)" stroke="none" font-family="helvetica" font-size="11px" font-style="normal" font-weight="normal" text-decoration="normal" x="330.48096084594727" y="373" text-anchor="start" dominant-baseline="alphabetic" transform="matrix(1, 0, 0, 1, 0.5, 0.5)" fill-opacity="1">2000</text><text fill="none" stroke="rgb(0,0,0)" font-family="helvetica" font-size="11px" font-style="normal" font-weight="normal" text-decoration="normal" x="330.48096084594727" y="373" text-anchor="start" dominant-baseline="alphabetic" transform="matrix(1, 0, 0, 1, 0.5, 0.5)" stroke-opacity="0" stroke-linejoin="bevel" stroke-miterlimit="10" stroke-dasharray="">2000</text><text fill="rgb(68,68,68)" stroke="none" font-family="helvetica" font-size="11px" font-style="normal" font-weight="normal" text-decoration="normal" x="402.90951919555664" y="373" text-anchor="start" dominant-baseline="alphabetic" transform="matrix(1, 0, 0, 1, 0.5, 0.5)" fill-opacity="1">2500</text><text fill="none" stroke="rgb(0,0,0)" font-family="helvetica" font-size="11px" font-style="normal" font-weight="normal" text-decoration="normal" x="402.90951919555664" y="373" text-anchor="start" dominant-baseline="alphabetic" transform="matrix(1, 0, 0, 1, 0.5, 0.5)" stroke-opacity="0" stroke-linejoin="bevel" stroke-miterlimit="10" stroke-dasharray="">2500</text><text fill="rgb(68,68,68)" stroke="none" font-family="helvetica" font-size="11px" font-style="normal" font-weight="normal" text-decoration="normal" x="475.33810806274414" y="373" text-anchor="start" dominant-baseline="alphabetic" transform="matrix(1, 0, 0, 1, 0.5, 0.5)" fill-opacity="1">3000</text><text fill="none" stroke="rgb(0,0,0)" font-family="helvetica" font-size="11px" font-style="normal" font-weight="normal" text-decoration="normal" x="475.33810806274414" y="373" text-anchor="start" dominant-baseline="alphabetic" transform="matrix(1, 0, 0, 1, 0.5, 0.5)" stroke-opacity="0" stroke-linejoin="bevel" stroke-miterlimit="10" stroke-dasharray="">3000</text><text fill="rgb(68,68,68)" stroke="none" font-family="helvetica" font-size="11px" font-style="normal" font-weight="normal" text-decoration="normal" x="547.7666664123535" y="373" text-anchor="start" dominant-baseline="alphabetic" transform="matrix(1, 0, 0, 1, 0.5, 0.5)" fill-opacity="1">3500</text><text fill="none" stroke="rgb(0,0,0)" font-family="helvetica" font-size="11px" font-style="normal" font-weight="normal" text-decoration="normal" x="547.7666664123535" y="373" text-anchor="start" dominant-baseline="alphabetic" transform="matrix(1, 0, 0, 1, 0.5, 0.5)" stroke-opacity="0" stroke-linejoin="bevel" stroke-miterlimit="10" stroke-dasharray="">3500</text><text fill="rgb(68,68,68)" stroke="none" font-family="helvetica" font-size="13px" font-style="italic" font-weight="normal" text-decoration="normal" x="272.53333282470703" y="394" text-anchor="start" dominant-baseline="alphabetic" transform="matrix(1, 0, 0, 1, 0.5, 0.5)" fill-opacity="1">Liczba encji</text><text fill="none" stroke="rgb(0,0,0)" font-family="helvetica" font-size="13px" font-style="italic" font-weight="normal" text-decoration="normal" x="272.53333282470703" y="394" text-anchor="start" dominant-baseline="alphabetic" transform="matrix(1, 0, 0, 1, 0.5, 0.5)" stroke-opacity="0" stroke-linejoin="bevel" stroke-miterlimit="10" stroke-dasharray="">Liczba encji</text><path fill="none" stroke="rgb(0,0,0)" paint-order="fill" d="M 53.5 354.5 L 53.5 5.5" stroke-opacity="1" stroke-linejoin="bevel" stroke-miterlimit="10" stroke-dasharray=""/><path fill="none" stroke="rgb(0,0,0)" paint-order="fill" d="M 47.5 354.5 L 55.5 354.5 M 47.5 284.5 L 55.5 284.5 M 47.5 214.5 L 55.5 214.5 M 47.5 145.5 L 55.5 145.5 M 47.5 75.5 L 55.5 75.5 M 47.5 5.5 L 55.5 5.5" stroke-opacity="1" stroke-linejoin="bevel" stroke-miterlimit="10" stroke-dasharray=""/><path fill="none" stroke="rgb(0,0,0)" paint-order="fill" d="M 49.5 354.5 L 53.5 354.5 M 49.5 340.5 L 53.5 340.5 M 49.5 326.5 L 53.5 326.5 M 49.5 312.5 L 53.5 312.5 M 49.5 298.5 L 53.5 298.5 M 49.5 284.5 L 53.5 284.5 M 49.5 270.5 L 53.5 270.5 M 49.5 256.5 L 53.5 256.5 M 49.5 242.5 L 53.5 242.5 M 49.5 228.5 L 53.5 228.5 M 49.5 214.5 L 53.5 214.5 M 49.5 200.5 L 53.5 200.5 M 49.5 186.5 L 53.5 186.5 M 49.5 173.5 L 53.5 173.5 M 49.5 159.5 L 53.5 159.5 M 49.5 145.5 L 53.5 145.5 M 49.5 131.5 L 53.5 131.5 M 49.5 117.5 L 53.5 117.5 M 49.5 103.5 L 53.5 103.5 M 49.5 89.5 L 53.5 89.5 M 49.5 75.5 L 53.5 75.5 M 49.5 61.5 L 53.5 61.5 M 49.5 47.5 L 53.5 47.5 M 49.5 33.5 L 53.5 33.5 M 49.5 19.5 L 53.5 19.5 M 49.5 5.5 L 53.5 5.5" stroke-opacity="1" stroke-linejoin="bevel" stroke-miterlimit="10" stroke-dasharray=""/><text fill="rgb(68,68,68)" stroke="none" font-family="helvetica" font-size="11px" font-style="normal" font-weight="normal" text-decoration="normal" x="35.88333320617676" y="358" text-anchor="start" dominant-baseline="alphabetic" transform="matrix(1, 0, 0, 1, 0.5, 0.5)" fill-opacity="1">0</text><text fill="none" stroke="rgb(0,0,0)" font-family="helvetica" font-size="11px" font-style="normal" font-weight="normal" text-decoration="normal" x="35.88333320617676" y="358" text-anchor="start" dominant-baseline="alphabetic" transform="matrix(1, 0, 0, 1, 0.5, 0.5)" stroke-opacity="0" stroke-linejoin="bevel" stroke-miterlimit="10" stroke-dasharray="">0</text><text fill="rgb(68,68,68)" stroke="none" font-family="helvetica" font-size="11px" font-style="normal" font-weight="normal" text-decoration="normal" x="26.716666221618652" y="288.20001220703125" text-anchor="start" dominant-baseline="alphabetic" transform="matrix(1, 0, 0, 1, 0.5, 0.5)" fill-opacity="1">0.2</text><text fill="none" stroke="rgb(0,0,0)" font-family="helvetica" font-size="11px" font-style="normal" font-weight="normal" text-decoration="normal" x="26.716666221618652" y="288.20001220703125" text-anchor="start" dominant-baseline="alphabetic" transform="matrix(1, 0, 0, 1, 0.5, 0.5)" stroke-opacity="0" stroke-linejoin="bevel" stroke-miterlimit="10" stroke-dasharray="">0.2</text><text fill="rgb(68,68,68)" stroke="none" font-family="helvetica" font-size="11px" font-style="normal" font-weight="normal" text-decoration="normal" x="26.716666221618652" y="218.39999389648438" text-anchor="start" dominant-baseline="alphabetic" transform="matrix(1, 0, 0, 1, 0.5, 0.5)" fill-opacity="1">0.4</text><text fill="none" stroke="rgb(0,0,0)" font-family="helvetica" font-size="11px" font-style="normal" font-weight="normal" text-decoration="normal" x="26.716666221618652" y="218.39999389648438" text-anchor="start" dominant-baseline="alphabetic" transform="matrix(1, 0, 0, 1, 0.5, 0.5)" stroke-opacity="0" stroke-linejoin="bevel" stroke-miterlimit="10" stroke-dasharray="">0.4</text><text fill="rgb(68,68,68)" stroke="none" font-family="helvetica" font-size="11px" font-style="normal" font-weight="normal" text-decoration="normal" x="26.716666221618652" y="148.60000610351562" text-anchor="start" dominant-baseline="alphabetic" transform="matrix(1, 0, 0, 1, 0.5, 0.5)" fill-opacity="1">0.6</text><text fill="none" stroke="rgb(0,0,0)" font-family="helvetica" font-size="11px" font-style="normal" font-weight="normal" text-decoration="normal" x="26.716666221618652" y="148.60000610351562" text-anchor="start" dominant-baseline="alphabetic" transform="matrix(1, 0, 0, 1, 0.5, 0.5)" stroke-opacity="0" stroke-linejoin="bevel" stroke-miterlimit="10" stroke-dasharray="">0.6</text><text fill="rgb(68,68,68)" stroke="none" font-family="helvetica" font-size="11px" font-style="normal" font-weight="normal" text-decoration="normal" x="26.716666221618652" y="78.80000305175781" text-anchor="start" dominant-baseline="alphabetic" transform="matrix(1, 0, 0, 1, 0.5, 0.5)" fill-opacity="1">0.8</text><text fill="none" stroke="rgb(0,0,0)" font-family="helvetica" font-size="11px" font-style="normal" font-weight="normal" text-decoration="normal" x="26.716666221618652" y="78.80000305175781" text-anchor="start" dominant-baseline="alphabetic" transform="matrix(1, 0, 0, 1, 0.5, 0.5)" stroke-opacity="0" stroke-linejoin="bevel" stroke-miterlimit="10" stroke-dasharray="">0.8</text><text fill="rgb(68,68,68)" stroke="none" font-family="helvetica" font-size="11px" font-style="normal" font-weight="normal" text-decoration="normal" x="35.88333320617676" y="9" text-anchor="start" dominant-baseline="alphabetic" transform="matrix(1, 0, 0, 1, 0.5, 0.5)" fill-opacity="1">1</text><text fill="none" stroke="rgb(0,0,0)" font-family="helvetica" font-size="11px" font-style="normal" font-weight="normal" text-decoration="normal" x="35.88333320617676" y="9" text-anchor="start" dominant-baseline="alphabetic" transform="matrix(1, 0, 0, 1, 0.5, 0.5)" stroke-opacity="0" stroke-linejoin="bevel" stroke-miterlimit="10" stroke-dasharray="">1</text><text fill="rgb(68,68,68)" stroke="none" font-family="helvetica" font-size="13px" font-style="italic" font-weight="normal" text-decoration="normal" x="-27.649998664855957" y="176.5" text-anchor="start" dominant-baseline="alphabetic" transform="matrix(6.123233995736766e-17, -1, 1, 6.123233995736766e-17, -160.28333377838135, 198.71666622161865)" fill-opacity="1">Wartość metryki</text><text fill="none" stroke="rgb(0,0,0)" font-family="helvetica" font-size="13px" font-style="italic" font-weight="normal" text-decoration="normal" x="-27.649998664855957" y="176.5" text-anchor="start" dominant-baseline="alphabetic" transform="matrix(6.123233995736766e-17, -1, 1, 6.123233995736766e-17, -160.28333377838135, 198.71666622161865)" stroke-opacity="0" stroke-linejoin="bevel" stroke-miterlimit="10" stroke-dasharray="">Wartość metryki</text><path fill="rgb(255,255,255)" stroke="rgb(229,229,229)" paint-order="fill" d="M 570.3333358764648 15.5 L 690.5 15.5 L 690.5 101.5 L 570.3333358764648 101.5 L 570.3333358764648 15.5" fill-opacity="0.9490196078431372" stroke-opacity="0.5019607843137255" stroke-linejoin="bevel" stroke-miterlimit="10" stroke-dasharray=""/><text fill="rgb(68,68,68)" stroke="none" font-family="helvetica" font-size="13px" font-style="normal" font-weight="normal" text-decoration="normal" x="604.8333358764648" y="35" text-anchor="start" dominant-baseline="central" transform="matrix(1, 0, 0, 1, 0.5, 0.5)" fill-opacity="1">F1</text><path fill="none" stroke="rgb(11,132,165)" paint-order="fill" d="M 580.3333358764648 35.5 L 600.3333358764648 35.5" stroke-opacity="1" stroke-linejoin="bevel" stroke-miterlimit="10" stroke-width="2" stroke-dasharray=""/><text fill="rgb(68,68,68)" stroke="none" font-family="helvetica" font-size="13px" font-style="normal" font-weight="normal" text-decoration="normal" x="604.8333358764648" y="58" text-anchor="start" dominant-baseline="central" transform="matrix(1, 0, 0, 1, 0.5, 0.5)" fill-opacity="1">Kompletność</text><path fill="none" stroke="rgb(246,200,95)" paint-order="fill" d="M 580.3333358764648 58.5 L 600.3333358764648 58.5" stroke-opacity="1" stroke-linejoin="bevel" stroke-miterlimit="10" stroke-width="2" stroke-dasharray=""/><text fill="rgb(68,68,68)" stroke="none" font-family="helvetica" font-size="13px" font-style="normal" font-weight="normal" text-decoration="normal" x="604.8333358764648" y="81" text-anchor="start" dominant-baseline="central" transform="matrix(1, 0, 0, 1, 0.5, 0.5)" fill-opacity="1">Dokładność</text><path fill="none" stroke="rgb(193,230,153)" paint-order="fill" d="M 580.3333358764648 81.5 L 600.3333358764648 81.5" stroke-opacity="1" stroke-linejoin="bevel" stroke-miterlimit="10" stroke-width="2" stroke-dasharray=""/><path fill="rgb(255,255,255)" stroke="rgb(229,229,229)" paint-order="fill" d="M 570.3333358764648 15.5 L 690.5 15.5 L 690.5 101.5 L 570.3333358764648 101.5 L 570.3333358764648 15.5" fill-opacity="0.9490196078431372" stroke-opacity="0.5019607843137255" stroke-linejoin="bevel" stroke-miterlimit="10" stroke-dasharray=""/><text fill="rgb(68,68,68)" stroke="none" font-family="helvetica" font-size="13px" font-style="normal" font-weight="normal" text-decoration="normal" x="604.8333358764648" y="35" text-anchor="start" dominant-baseline="central" transform="matrix(1, 0, 0, 1, 0.5, 0.5)" fill-opacity="1">F1</text><path fill="none" stroke="rgb(11,132,165)" paint-order="fill" d="M 580.3333358764648 35.5 L 600.3333358764648 35.5" stroke-opacity="1" stroke-linejoin="bevel" stroke-miterlimit="10" stroke-width="2" stroke-dasharray=""/><text fill="rgb(68,68,68)" stroke="none" font-family="helvetica" font-size="13px" font-style="normal" font-weight="normal" text-decoration="normal" x="604.8333358764648" y="58" text-anchor="start" dominant-baseline="central" transform="matrix(1, 0, 0, 1, 0.5, 0.5)" fill-opacity="1">Kompletność</text><path fill="none" stroke="rgb(246,200,95)" paint-order="fill" d="M 580.3333358764648 58.5 L 600.3333358764648 58.5" stroke-opacity="1" stroke-linejoin="bevel" stroke-miterlimit="10" stroke-width="2" stroke-dasharray=""/><text fill="rgb(68,68,68)" stroke="none" font-family="helvetica" font-size="13px" font-style="normal" font-weight="normal" text-decoration="normal" x="604.8333358764648" y="81" text-anchor="start" dominant-baseline="central" transform="matrix(1, 0, 0, 1, 0.5, 0.5)" fill-opacity="1">Dokładność</text><path fill="none" stroke="rgb(193,230,153)" paint-order="fill" d="M 580.3333358764648 81.5 L 600.3333358764648 81.5" stroke-opacity="1" stroke-linejoin="bevel" stroke-miterlimit="10" stroke-width="2" stroke-dasharray=""/></svg>