<svg version="1.1" xmlns="http://www.w3.org/2000/svg" width="700" height="400"><defs><clipPath id="IlyAVZqgBTSa"><path fill="none" stroke="none" d="M 53.5 60.5 L 695.5 60.5 L 695.5 354.5 L 53.5 354.5 L 53.5 60.5"/></clipPath><clipPath id="iGbUgeCMgMZy"><path fill="none" stroke="none" d="M 53.5 60.5 L 695.5 60.5 L 695.5 354.5 L 53.5 354.5 L 53.5 60.5"/></clipPath><clipPath id="tokLBUgyshTI"><path fill="none" stroke="none" d="M 53.5 60.5 L 695.5 60.5 L 695.5 354.5 L 53.5 354.5 L 53.5 60.5"/></clipPath><clipPath id="zcAoDisnNiQO"><path fill="none" stroke="none" d="M 53.5 60.5 L 695.5 60.5 L 695.5 354.5 L 53.5 354.5 L 53.5 60.5"/></clipPath><clipPath id="dcwhyZiFuzMP"><path fill="none" stroke="none" d="M 53.5 60.5 L 695.5 60.5 L 695.5 354.5 L 53.5 354.5 L 53.5 60.5"/></clipPath><clipPath id="FtIFvAUgOUFl"><path fill="none" stroke="none" d="M 53.5 60.5 L 695.5 60.5 L 695.5 354.5 L 53.5 354.5 L 53.5 60.5"/></clipPath><clipPath id="rGTADCkbdpcv"><path fill="none" stroke="none" d="M 53.5 60.5 L 695.5 60.5 L 695.5 354.5 L 53.5 354.5 L 53.5 60.5"/></clipPath></defs><path fill="rgb(255,255,255)" stroke="none" paint-order="stroke" d="M 0.5 0.5 L 700.5 0.5 L 700.5 400.5 L 0.5 400.5 L 0.5 0.5" fill-opacity="1"/><rect fill="#FFFFFF" stroke="none" x="53" y="60" width="642" height="294" transform="matrix(1, 0, 0, 1, 0.5, 0.5)"/><path fill="rgb(255,255,255)" stroke="none" paint-order="stroke" d="M 53.5 60.5 L 695.5 60.5 L 695.5 354.5 L 53.5 354.5 L 53.5 60.5" fill-opacity="1"/><path fill="none" stroke="rgb(229,229,229)" paint-order="fill" d="M 53.5 60.5 L 695.5 60.5 L 695.5 354.5 L 53.5 354.5 L 53.5 60.5" stroke-opacity="1" stroke-linejoin="bevel" stroke-miterlimit="10" stroke-dasharray=""/><path fill="none" stroke="rgb(229,229,229)" paint-order="fill" d="M 67.5 354.5 L 67.5 60.5 M 224.5 354.5 L 224.5 60.5 M 381.5 354.5 L 381.5 60.5 M 538.5 354.5 L 538.5 60.5" stroke-opacity="1" stroke-linejoin="bevel" stroke-miterlimit="10" stroke-dasharray="" clip-path="url(#IlyAVZqgBTSa)"/><path fill="none" stroke="rgb(229,229,229)" paint-order="fill" d="M 53.5 341.5 L 695.5 341.5 M 53.5 300.5 L 695.5 300.5 M 53.5 259.5 L 695.5 259.5 M 53.5 218.5 L 695.5 218.5 M 53.5 177.5 L 695.5 177.5 M 53.5 137.5 L 695.5 137.5 M 53.5 96.5 L 695.5 96.5" stroke-opacity="1" stroke-linejoin="bevel" stroke-miterlimit="10" stroke-dasharray="" clip-path="url(#iGbUgeCMgMZy)"/><path fill="none" stroke="rgb(11,132,165)" paint-order="fill" d="M 82.68181610107422 341.1363525390625 L 97.6065673828125 341.1363525390625 L 110.96029663085938 341.1363525390625 L 122.27169036865234 252.61387634277344 L 134.52569580078125 308.9012145996094 L 146.6226043701172 300.21881103515625 L 157.30557250976562 292.9042663574219 L 169.55958557128906 244.4058837890625 L 180.24256896972656 194.21038818359375 L 190.45423889160156 188.99427795410156 L 202.708251953125 182.6804656982422 L 215.11935424804688 263.8449401855469 L 227.6875762939453 209.591552734375 L 239.7844696044922 241.55245971679688 L 252.66688537597656 187.07102966308594 L 264.4495849609375 175.77503967285156 L 275.132568359375 157.77749633789062 L 286.60107421875 182.2220458984375 L 297.9124450683594 210.481201171875 L 311.58038330078125 186.82537841796875 L 327.2906494140625 173.8509521484375 L 339.8588562011719 177.86021423339844 L 350.3847351074219 177.86915588378906 L 362.6387634277344 253.7040557861328 L 374.57855224609375 160.29942321777344 L 384.16180419921875 129.05792236328125 L 394.68768310546875 165.21697998046875 L 404.89935302734375 144.2048797607422 L 415.73944091796875 137.20501708984375 L 426.10821533203125 138.3224334716797 L 438.9906311035156 185.16098022460938 L 448.73101806640625 126.62244415283203 L 460.3565979003906 138.43887329101562 L 477.1665954589844 166.29605102539062 L 489.10638427734375 123.57869720458984 L 499.47515869140625 124.97187805175781 L 510.31524658203125 177.22894287109375 L 520.9982299804688 111.35740661621094 L 531.9954223632812 102.24320220947266 L 545.034912109375 118.86673736572266 L 557.76025390625 118.58141326904297 L 570.17138671875 110.43618774414062 L 581.0114135742188 81.65535736083984 L 594.2080688476562 84.37223815917969 L 608.3472900390625 94.35992431640625 L 620.601318359375 114.16394805908203 L 631.127197265625 73.86363983154297 L 643.22412109375 96.92957305908203 L 653.9070434570312 130.47769165039062 L 666.3181762695312 132.38327026367188" stroke-opacity="1" stroke-linejoin="bevel" stroke-miterlimit="10" stroke-width="2" stroke-dasharray="" clip-path="url(#tokLBUgyshTI)"/><path fill="none" stroke="rgb(246,200,95)" paint-order="fill" d="M 82.68181610107422 341.1363525390625 L 97.6065673828125 341.1363525390625 L 110.96029663085938 341.1363525390625 L 122.27169036865234 272.5946044921875 L 134.52569580078125 322.13775634765625 L 146.6226043701172 308.67352294921875 L 157.30557250976562 306.7629089355469 L 169.55958557128906 272.48333740234375 L 180.24256896972656 201.71478271484375 L 190.45423889160156 203.6485137939453 L 202.708251953125 190.8589324951172 L 215.11935424804688 271.59747314453125 L 227.6875762939453 225.3716278076172 L 239.7844696044922 261.73614501953125 L 252.66688537597656 196.06350708007812 L 264.4495849609375 180.2457275390625 L 275.132568359375 167.862060546875 L 286.60107421875 179.17160034179688 L 297.9124450683594 225.72572326660156 L 311.58038330078125 201.10031127929688 L 327.2906494140625 187.09994506835938 L 339.8588562011719 193.8219451904297 L 350.3847351074219 183.49327087402344 L 362.6387634277344 267.8322448730469 L 374.57855224609375 170.25146484375 L 384.16180419921875 140.08871459960938 L 394.68768310546875 173.03050231933594 L 404.89935302734375 156.89151000976562 L 415.73944091796875 151.96316528320312 L 426.10821533203125 145.3506622314453 L 438.9906311035156 199.10498046875 L 448.73101806640625 128.38934326171875 L 460.3565979003906 150.10118103027344 L 477.1665954589844 181.0260467529297 L 489.10638427734375 125.78237915039062 L 499.47515869140625 134.6443328857422 L 510.31524658203125 196.24330139160156 L 520.9982299804688 116.94773864746094 L 531.9954223632812 104.7232666015625 L 545.034912109375 129.1952667236328 L 557.76025390625 119.64527893066406 L 570.17138671875 110.82884216308594 L 581.0114135742188 82.1972427368164 L 594.2080688476562 87.40898132324219 L 608.3472900390625 105.77734375 L 620.601318359375 129.42613220214844 L 631.127197265625 78.53309631347656 L 643.22412109375 103.90338134765625 L 653.9070434570312 140.5718536376953 L 666.3181762695312 143.6874237060547" stroke-opacity="1" stroke-linejoin="bevel" stroke-miterlimit="10" stroke-width="2" stroke-dasharray="" clip-path="url(#zcAoDisnNiQO)"/><path fill="none" stroke="rgb(11,132,165)" paint-order="fill" d="M 82.68181610107422 319.6825256347656 L 97.6065673828125 308.76715087890625 L 110.96029663085938 299.2472229003906 L 122.27169036865234 291.3653564453125 L 134.52569580078125 283.01513671875 L 146.6226043701172 274.9642333984375 L 157.30557250976562 268.0131530761719 L 169.55958557128906 260.2232666015625 L 180.24256896972656 253.592041015625 L 190.45423889160156 247.39259338378906 L 202.708251953125 240.1329345703125 L 215.11935424804688 232.97998046875 L 227.6875762939453 225.94139099121094 L 239.7844696044922 219.3614501953125 L 252.66688537597656 212.56427001953125 L 264.4495849609375 206.53700256347656 L 275.132568359375 201.22891235351562 L 286.60107421875 195.69631958007812 L 297.9124450683594 190.40768432617188 L 311.58038330078125 184.24005126953125 L 327.2906494140625 177.45204162597656 L 339.8588562011719 172.2535858154297 L 350.3847351074219 168.05853271484375 L 362.6387634277344 163.35690307617188 L 374.57855224609375 158.96437072753906 L 384.16180419921875 155.57337951660156 L 394.68768310546875 151.98699951171875 L 404.89935302734375 148.64588928222656 L 415.73944091796875 145.2480926513672 L 426.10821533203125 142.14154052734375 L 438.9906311035156 138.47738647460938 L 448.73101806640625 135.85072326660156 L 460.3565979003906 132.87779235839844 L 477.1665954589844 128.89105224609375 L 489.10638427734375 126.28337860107422 L 499.47515869140625 124.1697769165039 L 510.31524658203125 122.11015319824219 L 520.9982299804688 120.23043060302734 L 531.9954223632812 118.4510269165039 L 545.034912109375 116.54571533203125 L 557.76025390625 114.9002914428711 L 570.17138671875 113.49909210205078 L 581.0114135742188 112.43975067138672 L 594.2080688476562 111.35713958740234 L 608.3472900390625 110.44944763183594 L 620.601318359375 109.87385559082031 L 631.127197265625 109.53591918945312 L 643.22412109375 109.32615661621094 L 653.9070434570312 109.29972839355469 L 666.3181762695312 109.45608520507812" stroke-opacity="0.6" stroke-linejoin="bevel" stroke-miterlimit="10" stroke-width="2" stroke-dasharray="6" clip-path="url(#dcwhyZiFuzMP)"/><path fill="none" stroke="rgb(246,200,95)" paint-order="fill" d="M 82.68181610107422 328.5686340332031 L 97.6065673828125 317.917236328125 L 110.96029663085938 308.61798095703125 L 122.27169036865234 300.91156005859375 L 134.52569580078125 292.7395324707031 L 146.6226043701172 284.8523864746094 L 157.30557250976562 278.03594970703125 L 169.55958557128906 270.3889465332031 L 180.24256896972656 263.8721923828125 L 190.45423889160156 257.7734069824219 L 202.708251953125 250.62322998046875 L 215.11935424804688 243.5685577392578 L 227.6875762939453 236.6165771484375 L 239.7844696044922 230.1077423095703 L 252.66688537597656 223.37303161621094 L 264.4495849609375 217.39096069335938 L 275.132568359375 212.11398315429688 L 286.60107421875 206.60433959960938 L 297.9124450683594 201.32772827148438 L 311.58038330078125 195.16061401367188 L 327.2906494140625 188.35421752929688 L 339.8588562011719 183.1264190673828 L 350.3847351074219 178.8968048095703 L 362.6387634277344 174.14346313476562 L 374.57855224609375 169.6886444091797 L 384.16180419921875 166.23919677734375 L 394.68768310546875 162.57989501953125 L 404.89935302734375 159.15933227539062 L 415.73944091796875 155.6678009033203 L 426.10821533203125 152.4625701904297 L 438.9906311035156 148.66346740722656 L 448.73101806640625 145.92572021484375 L 460.3565979003906 142.80999755859375 L 477.1665954589844 138.59710693359375 L 489.10638427734375 135.814697265625 L 499.47515869140625 133.5398406982422 L 510.31524658203125 131.3021697998047 L 520.9982299804688 129.23751831054688 L 531.9954223632812 127.2579574584961 L 545.034912109375 125.1024169921875 L 557.76025390625 123.19931030273438 L 570.17138671875 121.53397369384766 L 581.0114135742188 120.23355865478516 L 594.2080688476562 118.84442138671875 L 608.3472900390625 117.5924072265625 L 620.601318359375 116.70510864257812 L 631.127197265625 116.08956909179688 L 643.22412109375 115.54949951171875 L 653.9070434570312 115.22137451171875 L 666.3181762695312 115.01544189453125" stroke-opacity="0.6" stroke-linejoin="bevel" stroke-miterlimit="10" stroke-width="2" stroke-dasharray="6" clip-path="url(#FtIFvAUgOUFl)"/><path fill="none" stroke="rgb(0,0,0)" paint-order="fill" d="M 53.5 354.5 L 695.5 354.5" stroke-opacity="1" stroke-linejoin="bevel" stroke-miterlimit="10" stroke-dasharray=""/><path fill="none" stroke="rgb(0,0,0)" paint-order="fill" d="M 67.5 360.5 L 67.5 352.5 M 224.5 360.5 L 224.5 352.5 M 381.5 360.5 L 381.5 352.5 M 538.5 360.5 L 538.5 352.5" stroke-opacity="1" stroke-linejoin="bevel" stroke-miterlimit="10" stroke-dasharray=""/><path fill="none" stroke="rgb(0,0,0)" paint-order="fill" d="M 67.5 358.5 L 67.5 354.5 M 98.5 358.5 L 98.5 354.5 M 130.5 358.5 L 130.5 354.5 M 161.5 358.5 L 161.5 354.5 M 193.5 358.5 L 193.5 354.5 M 224.5 358.5 L 224.5 354.5 M 255.5 358.5 L 255.5 354.5 M 287.5 358.5 L 287.5 354.5 M 318.5 358.5 L 318.5 354.5 M 350.5 358.5 L 350.5 354.5 M 381.5 358.5 L 381.5 354.5 M 413.5 358.5 L 413.5 354.5 M 444.5 358.5 L 444.5 354.5 M 475.5 358.5 L 475.5 354.5 M 507.5 358.5 L 507.5 354.5 M 538.5 358.5 L 538.5 354.5 M 570.5 358.5 L 570.5 354.5 M 601.5 358.5 L 601.5 354.5 M 633.5 358.5 L 633.5 354.5 M 664.5 358.5 L 664.5 354.5" stroke-opacity="1" stroke-linejoin="bevel" stroke-miterlimit="10" stroke-dasharray=""/><text fill="rgb(68,68,68)" stroke="none" font-family="helvetica" font-size="11px" font-style="normal" font-weight="normal" text-decoration="normal" x="63.88453006744385" y="373" text-anchor="start" dominant-baseline="alphabetic" transform="matrix(1, 0, 0, 1, 0.5, 0.5)" fill-opacity="1">0</text><text fill="none" stroke="rgb(0,0,0)" font-family="helvetica" font-size="11px" font-style="normal" font-weight="normal" text-decoration="normal" x="63.88453006744385" y="373" text-anchor="start" dominant-baseline="alphabetic" transform="matrix(1, 0, 0, 1, 0.5, 0.5)" stroke-opacity="0" stroke-linejoin="bevel" stroke-miterlimit="10" stroke-dasharray="">0</text><text fill="rgb(68,68,68)" stroke="none" font-family="helvetica" font-size="11px" font-style="normal" font-weight="normal" text-decoration="normal" x="211.81218338012695" y="373" text-anchor="start" dominant-baseline="alphabetic" transform="matrix(1, 0, 0, 1, 0.5, 0.5)" fill-opacity="1">1000</text><text fill="none" stroke="rgb(0,0,0)" font-family="helvetica" font-size="11px" font-style="normal" font-weight="normal" text-decoration="normal" x="211.81218338012695" y="373" text-anchor="start" dominant-baseline="alphabetic" transform="matrix(1, 0, 0, 1, 0.5, 0.5)" stroke-opacity="0" stroke-linejoin="bevel" stroke-miterlimit="10" stroke-dasharray="">1000</text><text fill="rgb(68,68,68)" stroke="none" font-family="helvetica" font-size="11px" font-style="normal" font-weight="normal" text-decoration="normal" x="368.9148292541504" y="373" text-anchor="start" dominant-baseline="alphabetic" transform="matrix(1, 0, 0, 1, 0.5, 0.5)" fill-opacity="1">2000</text><text fill="none" stroke="rgb(0,0,0)" font-family="helvetica" font-size="11px" font-style="normal" font-weight="normal" text-decoration="normal" x="368.9148292541504" y="373" text-anchor="start" dominant-baseline="alphabetic" transform="matrix(1, 0, 0, 1, 0.5, 0.5)" stroke-opacity="0" stroke-linejoin="bevel" stroke-miterlimit="10" stroke-dasharray="">2000</text><text fill="rgb(68,68,68)" stroke="none" font-family="helvetica" font-size="11px" font-style="normal" font-weight="normal" text-decoration="normal" x="526.017520904541" y="373" text-anchor="start" dominant-baseline="alphabetic" transform="matrix(1, 0, 0, 1, 0.5, 0.5)" fill-opacity="1">3000</text><text fill="none" stroke="rgb(0,0,0)" font-family="helvetica" font-size="11px" font-style="normal" font-weight="normal" text-decoration="normal" x="526.017520904541" y="373" text-anchor="start" dominant-baseline="alphabetic" transform="matrix(1, 0, 0, 1, 0.5, 0.5)" stroke-opacity="0" stroke-linejoin="bevel" stroke-miterlimit="10" stroke-dasharray="">3000</text><text fill="rgb(68,68,68)" stroke="none" font-family="helvetica" font-size="13px" font-style="italic" font-weight="normal" text-decoration="normal" x="340.03333282470703" y="394" text-anchor="start" dominant-baseline="alphabetic" transform="matrix(1, 0, 0, 1, 0.5, 0.5)" fill-opacity="1">Liczba encji</text><text fill="none" stroke="rgb(0,0,0)" font-family="helvetica" font-size="13px" font-style="italic" font-weight="normal" text-decoration="normal" x="340.03333282470703" y="394" text-anchor="start" dominant-baseline="alphabetic" transform="matrix(1, 0, 0, 1, 0.5, 0.5)" stroke-opacity="0" stroke-linejoin="bevel" stroke-miterlimit="10" stroke-dasharray="">Liczba encji</text><path fill="none" stroke="rgb(0,0,0)" paint-order="fill" d="M 53.5 354.5 L 53.5 60.5" stroke-opacity="1" stroke-linejoin="bevel" stroke-miterlimit="10" stroke-dasharray=""/><path fill="none" stroke="rgb(0,0,0)" paint-order="fill" d="M 47.5 341.5 L 55.5 341.5 M 47.5 300.5 L 55.5 300.5 M 47.5 259.5 L 55.5 259.5 M 47.5 218.5 L 55.5 218.5 M 47.5 177.5 L 55.5 177.5 M 47.5 137.5 L 55.5 137.5 M 47.5 96.5 L 55.5 96.5" stroke-opacity="1" stroke-linejoin="bevel" stroke-miterlimit="10" stroke-dasharray=""/><path fill="none" stroke="rgb(0,0,0)" paint-order="fill" d="M 49.5 349.5 L 53.5 349.5 M 49.5 341.5 L 53.5 341.5 M 49.5 332.5 L 53.5 332.5 M 49.5 324.5 L 53.5 324.5 M 49.5 316.5 L 53.5 316.5 M 49.5 308.5 L 53.5 308.5 M 49.5 300.5 L 53.5 300.5 M 49.5 292.5 L 53.5 292.5 M 49.5 284.5 L 53.5 284.5 M 49.5 275.5 L 53.5 275.5 M 49.5 267.5 L 53.5 267.5 M 49.5 259.5 L 53.5 259.5 M 49.5 251.5 L 53.5 251.5 M 49.5 243.5 L 53.5 243.5 M 49.5 235.5 L 53.5 235.5 M 49.5 226.5 L 53.5 226.5 M 49.5 218.5 L 53.5 218.5 M 49.5 210.5 L 53.5 210.5 M 49.5 202.5 L 53.5 202.5 M 49.5 194.5 L 53.5 194.5 M 49.5 186.5 L 53.5 186.5 M 49.5 177.5 L 53.5 177.5 M 49.5 169.5 L 53.5 169.5 M 49.5 161.5 L 53.5 161.5 M 49.5 153.5 L 53.5 153.5 M 49.5 145.5 L 53.5 145.5 M 49.5 137.5 L 53.5 137.5 M 49.5 128.5 L 53.5 128.5 M 49.5 120.5 L 53.5 120.5 M 49.5 112.5 L 53.5 112.5 M 49.5 104.5 L 53.5 104.5 M 49.5 96.5 L 53.5 96.5 M 49.5 88.5 L 53.5 88.5 M 49.5 80.5 L 53.5 80.5 M 49.5 71.5 L 53.5 71.5 M 49.5 63.5 L 53.5 63.5" stroke-opacity="1" stroke-linejoin="bevel" stroke-miterlimit="10" stroke-dasharray=""/><text fill="rgb(68,68,68)" stroke="none" font-family="helvetica" font-size="11px" font-style="normal" font-weight="normal" text-decoration="normal" x="35.88333320617676" y="344.6363525390625" text-anchor="start" dominant-baseline="alphabetic" transform="matrix(1, 0, 0, 1, 0.5, 0.5)" fill-opacity="1">0</text><text fill="none" stroke="rgb(0,0,0)" font-family="helvetica" font-size="11px" font-style="normal" font-weight="normal" text-decoration="normal" x="35.88333320617676" y="344.6363525390625" text-anchor="start" dominant-baseline="alphabetic" transform="matrix(1, 0, 0, 1, 0.5, 0.5)" stroke-opacity="0" stroke-linejoin="bevel" stroke-miterlimit="10" stroke-dasharray="">0</text><text fill="rgb(68,68,68)" stroke="none" font-family="helvetica" font-size="11px" font-style="normal" font-weight="normal" text-decoration="normal" x="26.716666221618652" y="303.8346252441406" text-anchor="start" dominant-baseline="alphabetic" transform="matrix(1, 0, 0, 1, 0.5, 0.5)" fill-opacity="1">0.1</text><text fill="none" stroke="rgb(0,0,0)" font-family="helvetica" font-size="11px" font-style="normal" font-weight="normal" text-decoration="normal" x="26.716666221618652" y="303.8346252441406" text-anchor="start" dominant-baseline="alphabetic" transform="matrix(1, 0, 0, 1, 0.5, 0.5)" stroke-opacity="0" stroke-linejoin="bevel" stroke-miterlimit="10" stroke-dasharray="">0.1</text><text fill="rgb(68,68,68)" stroke="none" font-family="helvetica" font-size="11px" font-style="normal" font-weight="normal" text-decoration="normal" x="26.716666221618652" y="263.0328674316406" text-anchor="start" dominant-baseline="alphabetic" transform="matrix(1, 0, 0, 1, 0.5, 0.5)" fill-opacity="1">0.2</text><text fill="none" stroke="rgb(0,0,0)" font-family="helvetica" font-size="11px" font-style="normal" font-weight="normal" text-decoration="normal" x="26.716666221618652" y="263.0328674316406" text-anchor="start" dominant-baseline="alphabetic" transform="matrix(1, 0, 0, 1, 0.5, 0.5)" stroke-opacity="0" stroke-linejoin="bevel" stroke-miterlimit="10" stroke-dasharray="">0.2</text><text fill="rgb(68,68,68)" stroke="none" font-family="helvetica" font-size="11px" font-style="normal" font-weight="normal" text-decoration="normal" x="26.716666221618652" y="222.23114013671875" text-anchor="start" dominant-baseline="alphabetic" transform="matrix(1, 0, 0, 1, 0.5, 0.5)" fill-opacity="1">0.3</text><text fill="none" stroke="rgb(0,0,0)" font-family="helvetica" font-size="11px" font-style="normal" font-weight="normal" text-decoration="normal" x="26.716666221618652" y="222.23114013671875" text-anchor="start" dominant-baseline="alphabetic" transform="matrix(1, 0, 0, 1, 0.5, 0.5)" stroke-opacity="0" stroke-linejoin="bevel" stroke-miterlimit="10" stroke-dasharray="">0.3</text><text fill="rgb(68,68,68)" stroke="none" font-family="helvetica" font-size="11px" font-style="normal" font-weight="normal" text-decoration="normal" x="26.716666221618652" y="181.4293975830078" text-anchor="start" dominant-baseline="alphabetic" transform="matrix(1, 0, 0, 1, 0.5, 0.5)" fill-opacity="1">0.4</text><text fill="none" stroke="rgb(0,0,0)" font-family="helvetica" font-size="11px" font-style="normal" font-weight="normal" text-decoration="normal" x="26.716666221618652" y="181.4293975830078" text-anchor="start" dominant-baseline="alphabetic" transform="matrix(1, 0, 0, 1, 0.5, 0.5)" stroke-opacity="0" stroke-linejoin="bevel" stroke-miterlimit="10" stroke-dasharray="">0.4</text><text fill="rgb(68,68,68)" stroke="none" font-family="helvetica" font-size="11px" font-style="normal" font-weight="normal" text-decoration="normal" x="26.716666221618652" y="140.62765502929688" text-anchor="start" dominant-baseline="alphabetic" transform="matrix(1, 0, 0, 1, 0.5, 0.5)" fill-opacity="1">0.5</text><text fill="none" stroke="rgb(0,0,0)" font-family="helvetica" font-size="11px" font-style="normal" font-weight="normal" text-decoration="normal" x="26.716666221618652" y="140.62765502929688" text-anchor="start" dominant-baseline="alphabetic" transform="matrix(1, 0, 0, 1, 0.5, 0.5)" stroke-opacity="0" stroke-linejoin="bevel" stroke-miterlimit="10" stroke-dasharray="">0.5</text><text fill="rgb(68,68,68)" stroke="none" font-family="helvetica" font-size="11px" font-style="normal" font-weight="normal" text-decoration="normal" x="26.716666221618652" y="99.82592010498047" text-anchor="start" dominant-baseline="alphabetic" transform="matrix(1, 0, 0, 1, 0.5, 0.5)" fill-opacity="1">0.6</text><text fill="none" stroke="rgb(0,0,0)" font-family="helvetica" font-size="11px" font-style="normal" font-weight="normal" text-decoration="normal" x="26.716666221618652" y="99.82592010498047" text-anchor="start" dominant-baseline="alphabetic" transform="matrix(1, 0, 0, 1, 0.5, 0.5)" stroke-opacity="0" stroke-linejoin="bevel" stroke-miterlimit="10" stroke-dasharray="">0.6</text><text fill="rgb(68,68,68)" stroke="none" font-family="helvetica" font-size="13px" font-style="italic" font-weight="normal" text-decoration="normal" x="-28.366665840148926" y="204" text-anchor="start" dominant-baseline="alphabetic" transform="matrix(6.123233995736766e-17, -1, 1, 6.123233995736766e-17, -187.78333377838135, 226.21666622161865)" fill-opacity="1">Wartość miary F</text><text fill="none" stroke="rgb(0,0,0)" font-family="helvetica" font-size="13px" font-style="italic" font-weight="normal" text-decoration="normal" x="-28.366665840148926" y="204" text-anchor="start" dominant-baseline="alphabetic" transform="matrix(6.123233995736766e-17, -1, 1, 6.123233995736766e-17, -187.78333377838135, 226.21666622161865)" stroke-opacity="0" stroke-linejoin="bevel" stroke-miterlimit="10" stroke-dasharray="">Wartość miary F</text><path fill="rgb(255,255,255)" stroke="rgb(229,229,229)" paint-order="fill" d="M 140.1833267211914 10.5 L 608.8166732788086 10.5 L 608.8166732788086 50.5 L 140.1833267211914 50.5 L 140.1833267211914 10.5" fill-opacity="0.9490196078431372" stroke-opacity="0.5019607843137255" stroke-linejoin="bevel" stroke-miterlimit="10" stroke-dasharray=""/><text fill="rgb(68,68,68)" stroke="none" font-family="helvetica" font-size="13px" font-style="normal" font-weight="normal" text-decoration="normal" x="174.6833267211914" y="30" text-anchor="start" dominant-baseline="central" transform="matrix(1, 0, 0, 1, 0.5, 0.5)" fill-opacity="1">strategia najmniejszej pewności</text><path fill="none" stroke="rgb(11,132,165)" paint-order="fill" d="M 150.1833267211914 30.5 L 170.1833267211914 30.5" stroke-opacity="1" stroke-linejoin="bevel" stroke-miterlimit="10" stroke-width="2" stroke-dasharray=""/><text fill="rgb(68,68,68)" stroke="none" font-family="helvetica" font-size="13px" font-style="normal" font-weight="normal" text-decoration="normal" x="412.53333282470703" y="30" text-anchor="start" dominant-baseline="central" transform="matrix(1, 0, 0, 1, 0.5, 0.5)" fill-opacity="1">strategia próbkowania losowego</text><path fill="none" stroke="rgb(246,200,95)" paint-order="fill" d="M 388.03333282470703 30.5 L 408.03333282470703 30.5" stroke-opacity="1" stroke-linejoin="bevel" stroke-miterlimit="10" stroke-width="2" stroke-dasharray=""/><path fill="rgb(255,255,255)" stroke="rgb(229,229,229)" paint-order="fill" d="M 140.1833267211914 10.5 L 608.8166732788086 10.5 L 608.8166732788086 50.5 L 140.1833267211914 50.5 L 140.1833267211914 10.5" fill-opacity="0.9490196078431372" stroke-opacity="0.5019607843137255" stroke-linejoin="bevel" stroke-miterlimit="10" stroke-dasharray=""/><text fill="rgb(68,68,68)" stroke="none" font-family="helvetica" font-size="13px" font-style="normal" font-weight="normal" text-decoration="normal" x="174.6833267211914" y="30" text-anchor="start" dominant-baseline="central" transform="matrix(1, 0, 0, 1, 0.5, 0.5)" fill-opacity="1">strategia najmniejszej pewności</text><path fill="none" stroke="rgb(11,132,165)" paint-order="fill" d="M 150.1833267211914 30.5 L 170.1833267211914 30.5" stroke-opacity="1" stroke-linejoin="bevel" stroke-miterlimit="10" stroke-width="2" stroke-dasharray=""/><text fill="rgb(68,68,68)" stroke="none" font-family="helvetica" font-size="13px" font-style="normal" font-weight="normal" text-decoration="normal" x="412.53333282470703" y="30" text-anchor="start" dominant-baseline="central" transform="matrix(1, 0, 0, 1, 0.5, 0.5)" fill-opacity="1">strategia próbkowania losowego</text><path fill="none" stroke="rgb(246,200,95)" paint-order="fill" d="M 388.03333282470703 30.5 L 408.03333282470703 30.5" stroke-opacity="1" stroke-linejoin="bevel" stroke-miterlimit="10" stroke-width="2" stroke-dasharray=""/></svg>