<svg version="1.1" xmlns="http://www.w3.org/2000/svg" width="700" height="400"><defs><clipPath id="zINgeSpJlvLE"><path fill="none" stroke="none" d="M 53.5 60.5 L 695.5 60.5 L 695.5 354.5 L 53.5 354.5 L 53.5 60.5"/></clipPath><clipPath id="DyQtcpONshyy"><path fill="none" stroke="none" d="M 53.5 60.5 L 695.5 60.5 L 695.5 354.5 L 53.5 354.5 L 53.5 60.5"/></clipPath><clipPath id="NqXwnqyKbXRT"><path fill="none" stroke="none" d="M 53.5 60.5 L 695.5 60.5 L 695.5 354.5 L 53.5 354.5 L 53.5 60.5"/></clipPath><clipPath id="PoRTbGGDkCqp"><path fill="none" stroke="none" d="M 53.5 60.5 L 695.5 60.5 L 695.5 354.5 L 53.5 354.5 L 53.5 60.5"/></clipPath><clipPath id="QMmLMdbwFNBw"><path fill="none" stroke="none" d="M 53.5 60.5 L 695.5 60.5 L 695.5 354.5 L 53.5 354.5 L 53.5 60.5"/></clipPath><clipPath id="tKosdNpWPAtu"><path fill="none" stroke="none" d="M 53.5 60.5 L 695.5 60.5 L 695.5 354.5 L 53.5 354.5 L 53.5 60.5"/></clipPath><clipPath id="HgtwhWxwGTlu"><path fill="none" stroke="none" d="M 53.5 60.5 L 695.5 60.5 L 695.5 354.5 L 53.5 354.5 L 53.5 60.5"/></clipPath></defs><path fill="rgb(255,255,255)" stroke="none" paint-order="stroke" d="M 0.5 0.5 L 700.5 0.5 L 700.5 400.5 L 0.5 400.5 L 0.5 0.5" fill-opacity="1"/><rect fill="#FFFFFF" stroke="none" x="53" y="60" width="642" height="294" transform="matrix(1, 0, 0, 1, 0.5, 0.5)"/><path fill="rgb(255,255,255)" stroke="none" paint-order="stroke" d="M 53.5 60.5 L 695.5 60.5 L 695.5 354.5 L 53.5 354.5 L 53.5 60.5" fill-opacity="1"/><path fill="none" stroke="rgb(229,229,229)" paint-order="fill" d="M 53.5 60.5 L 695.5 60.5 L 695.5 354.5 L 53.5 354.5 L 53.5 60.5" stroke-opacity="1" stroke-linejoin="bevel" stroke-miterlimit="10" stroke-dasharray=""/><path fill="none" stroke="rgb(229,229,229)" paint-order="fill" d="M 67.5 354.5 L 67.5 60.5 M 224.5 354.5 L 224.5 60.5 M 381.5 354.5 L 381.5 60.5 M 538.5 354.5 L 538.5 60.5" stroke-opacity="1" stroke-linejoin="bevel" stroke-miterlimit="10" stroke-dasharray="" clip-path="url(#zINgeSpJlvLE)"/><path fill="none" stroke="rgb(229,229,229)" paint-order="fill" d="M 53.5 341.5 L 695.5 341.5 M 53.5 297.5 L 695.5 297.5 M 53.5 253.5 L 695.5 253.5 M 53.5 209.5 L 695.5 209.5 M 53.5 165.5 L 695.5 165.5 M 53.5 122.5 L 695.5 122.5 M 53.5 78.5 L 695.5 78.5" stroke-opacity="1" stroke-linejoin="bevel" stroke-miterlimit="10" stroke-dasharray="" clip-path="url(#DyQtcpONshyy)"/><path fill="none" stroke="rgb(11,132,165)" paint-order="fill" d="M 82.68181610107422 341.1363525390625 L 97.6065673828125 341.1363525390625 L 110.96029663085938 341.1363525390625 L 122.27169036865234 253.6378631591797 L 134.52569580078125 322.78179931640625 L 146.6226043701172 314.4845275878906 L 157.30557250976562 313.22735595703125 L 169.55958557128906 270.2323913574219 L 180.24256896972656 192.288330078125 L 190.45423889160156 219.4430389404297 L 202.708251953125 188.516845703125 L 215.11935424804688 293.36419677734375 L 227.6875762939453 239.80906677246094 L 239.7844696044922 277.775390625 L 252.66688537597656 219.94590759277344 L 264.4495849609375 198.3227081298828 L 275.132568359375 183.7396240234375 L 286.60107421875 156.8363494873047 L 297.9124450683594 253.13499450683594 L 311.58038330078125 227.7403106689453 L 327.2906494140625 219.4430389404297 L 339.8588562011719 222.46023559570312 L 350.3847351074219 204.85995483398438 L 362.6387634277344 287.58123779296875 L 374.57855224609375 200.8370361328125 L 384.16180419921875 152.8134307861328 L 394.68768310546875 203.3513641357422 L 404.89935302734375 180.21957397460938 L 415.73944091796875 175.44235229492188 L 426.10821533203125 170.41371154785156 L 438.9906311035156 230.50607299804688 L 448.73101806640625 133.2017059326172 L 460.3565979003906 175.94522094726562 L 477.1665954589844 211.9000701904297 L 489.10638427734375 129.1787872314453 L 499.47515869140625 145.5218963623047 L 510.31524658203125 223.46595764160156 L 520.9982299804688 133.2017059326172 L 531.9954223632812 122.8929672241211 L 545.034912109375 145.2704620361328 L 557.76025390625 132.9502716064453 L 570.17138671875 124.90442657470703 L 581.0114135742188 73.86363983154297 L 594.2080688476562 85.68096160888672 L 608.3472900390625 129.681640625 L 620.601318359375 159.0992431640625 L 631.127197265625 81.15518188476562 L 643.22412109375 117.36145782470703 L 653.9070434570312 167.89938354492188 L 666.3181762695312 172.4251708984375" stroke-opacity="1" stroke-linejoin="bevel" stroke-miterlimit="10" stroke-width="2" stroke-dasharray="" clip-path="url(#NqXwnqyKbXRT)"/><path fill="none" stroke="rgb(246,200,95)" paint-order="fill" d="M 82.68181610107422 341.1363525390625 L 97.6065673828125 341.1363525390625 L 110.96029663085938 341.1363525390625 L 122.27169036865234 287.8326721191406 L 134.52569580078125 330.5762023925781 L 146.6226043701172 321.0217590332031 L 157.30557250976562 321.77606201171875 L 169.55958557128906 296.8842468261719 L 180.24256896972656 219.69447326660156 L 190.45423889160156 240.0605010986328 L 202.708251953125 207.8771514892578 L 215.11935424804688 299.3985595703125 L 227.6875762939453 259.16937255859375 L 239.7844696044922 293.1127624511719 L 252.66688537597656 234.52899169921875 L 264.4495849609375 211.9000701904297 L 275.132568359375 206.11712646484375 L 286.60107421875 170.66514587402344 L 297.9124450683594 266.4609069824219 L 311.58038330078125 243.58056640625 L 327.2906494140625 233.02040100097656 L 339.8588562011719 239.05477905273438 L 350.3847351074219 217.18014526367188 L 362.6387634277344 297.3871154785156 L 374.57855224609375 214.66583251953125 L 384.16180419921875 174.6880645751953 L 394.68768310546875 215.16868591308594 L 404.89935302734375 199.3284454345703 L 415.73944091796875 196.05982971191406 L 426.10821533203125 183.99105834960938 L 438.9906311035156 244.33485412597656 L 448.73101806640625 146.779052734375 L 460.3565979003906 193.04263305664062 L 477.1665954589844 226.73458862304688 L 489.10638427734375 144.2647247314453 L 499.47515869140625 168.6536865234375 L 510.31524658203125 242.07196044921875 L 520.9982299804688 149.79624938964844 L 531.9954223632812 137.97891235351562 L 545.034912109375 168.15081787109375 L 557.76025390625 146.02476501464844 L 570.17138671875 134.71029663085938 L 581.0114135742188 90.45818328857422 L 594.2080688476562 105.04126739501953 L 608.3472900390625 149.54481506347656 L 620.601318359375 178.7109832763672 L 631.127197265625 102.52693939208984 L 643.22412109375 136.47032165527344 L 653.9070434570312 183.7396240234375 L 666.3181762695312 189.77401733398438" stroke-opacity="1" stroke-linejoin="bevel" stroke-miterlimit="10" stroke-width="2" stroke-dasharray="" clip-path="url(#PoRTbGGDkCqp)"/><path fill="none" stroke="rgb(11,132,165)" paint-order="fill" d="M 82.68181610107422 322.5196533203125 L 97.6065673828125 314.06500244140625 L 110.96029663085938 306.65325927734375 L 122.27169036865234 300.48809814453125 L 134.52569580078125 293.9261474609375 L 146.6226043701172 287.5676574707031 L 157.30557250976562 282.0509033203125 L 169.55958557128906 275.8367614746094 L 180.24256896972656 270.5185546875 L 190.45423889160156 265.5213928222656 L 202.708251953125 259.6363220214844 L 215.11935424804688 253.79977416992188 L 227.6875762939453 248.01654052734375 L 239.7844696044922 242.57102966308594 L 252.66688537597656 236.9022674560547 L 264.4495849609375 231.83514404296875 L 275.132568359375 227.33816528320312 L 286.60107421875 222.61343383789062 L 297.9124450683594 218.05780029296875 L 311.58038330078125 212.69137573242188 L 327.2906494140625 206.71002197265625 L 339.8588562011719 202.06890869140625 L 350.3847351074219 198.2804412841797 L 362.6387634277344 193.98304748535156 L 374.57855224609375 189.91287231445312 L 384.16180419921875 186.72955322265625 L 394.68768310546875 183.31887817382812 L 404.89935302734375 180.0957794189453 L 415.73944091796875 176.76678466796875 L 426.10821533203125 173.67160034179688 L 438.9906311035156 169.94740295410156 L 448.73101806640625 167.22080993652344 L 460.3565979003906 164.0670928955078 L 477.1665954589844 159.70062255859375 L 489.10638427734375 156.73825073242188 L 499.47515869140625 154.2593536376953 L 510.31524658203125 151.7609100341797 L 520.9982299804688 149.39181518554688 L 531.9954223632812 147.04962158203125 L 545.034912109375 144.39939880371094 L 557.76025390625 141.9458465576172 L 570.17138671875 139.67926025390625 L 581.0114135742188 137.80166625976562 L 594.2080688476562 135.64437866210938 L 608.3472900390625 133.4895782470703 L 620.601318359375 131.75308227539062 L 631.127197265625 130.35861206054688 L 643.22412109375 128.8668670654297 L 653.9070434570312 127.6480484008789 L 666.3181762695312 126.34817504882812" stroke-opacity="0.6" stroke-linejoin="bevel" stroke-miterlimit="10" stroke-width="2" stroke-dasharray="6" clip-path="url(#QMmLMdbwFNBw)"/><path fill="none" stroke="rgb(246,200,95)" paint-order="fill" d="M 82.68181610107422 333.03582763671875 L 97.6065673828125 325.0310363769531 L 110.96029663085938 318.0090637207031 L 122.27169036865234 312.1646728515625 L 134.52569580078125 305.9404602050781 L 146.6226043701172 299.90545654296875 L 157.30557250976562 294.66619873046875 L 169.55958557128906 288.7608337402344 L 180.24256896972656 283.7035827636719 L 190.45423889160156 278.9486999511719 L 202.708251953125 273.34503173828125 L 215.11935424804688 267.7832336425781 L 227.6875762939453 262.2676086425781 L 239.7844696044922 257.06964111328125 L 252.66688537597656 251.6536102294922 L 264.4495849609375 246.80787658691406 L 275.132568359375 242.50352478027344 L 286.60107421875 237.97702026367188 L 297.9124450683594 233.60821533203125 L 311.58038330078125 228.45603942871094 L 327.2906494140625 222.70538330078125 L 339.8588562011719 218.23684692382812 L 350.3847351074219 214.584716796875 L 362.6387634277344 210.43666076660156 L 374.57855224609375 206.50222778320312 L 384.16180419921875 203.42092895507812 L 394.68768310546875 200.1151580810547 L 404.89935302734375 196.98670959472656 L 415.73944091796875 193.75048828125 L 426.10821533203125 190.73663330078125 L 438.9906311035156 187.10337829589844 L 448.73101806640625 184.4381103515625 L 460.3565979003906 181.3492431640625 L 477.1665954589844 177.06040954589844 L 489.10638427734375 174.14161682128906 L 499.47515869140625 171.69276428222656 L 510.31524658203125 169.21798706054688 L 520.9982299804688 166.86447143554688 L 531.9954223632812 164.5302734375 L 545.034912109375 161.87896728515625 L 557.76025390625 159.41329956054688 L 570.17138671875 157.12437438964844 L 581.0114135742188 155.2187957763672 L 594.2080688476562 153.01673889160156 L 608.3472900390625 150.8009490966797 L 620.601318359375 149.0006866455078 L 631.127197265625 147.54336547851562 L 643.22412109375 145.97015380859375 L 653.9070434570312 144.6711883544922 L 666.3181762695312 143.2685546875" stroke-opacity="0.6" stroke-linejoin="bevel" stroke-miterlimit="10" stroke-width="2" stroke-dasharray="6" clip-path="url(#tKosdNpWPAtu)"/><path fill="none" stroke="rgb(0,0,0)" paint-order="fill" d="M 53.5 354.5 L 695.5 354.5" stroke-opacity="1" stroke-linejoin="bevel" stroke-miterlimit="10" stroke-dasharray=""/><path fill="none" stroke="rgb(0,0,0)" paint-order="fill" d="M 67.5 360.5 L 67.5 352.5 M 224.5 360.5 L 224.5 352.5 M 381.5 360.5 L 381.5 352.5 M 538.5 360.5 L 538.5 352.5" stroke-opacity="1" stroke-linejoin="bevel" stroke-miterlimit="10" stroke-dasharray=""/><path fill="none" stroke="rgb(0,0,0)" paint-order="fill" d="M 67.5 358.5 L 67.5 354.5 M 98.5 358.5 L 98.5 354.5 M 130.5 358.5 L 130.5 354.5 M 161.5 358.5 L 161.5 354.5 M 193.5 358.5 L 193.5 354.5 M 224.5 358.5 L 224.5 354.5 M 255.5 358.5 L 255.5 354.5 M 287.5 358.5 L 287.5 354.5 M 318.5 358.5 L 318.5 354.5 M 350.5 358.5 L 350.5 354.5 M 381.5 358.5 L 381.5 354.5 M 413.5 358.5 L 413.5 354.5 M 444.5 358.5 L 444.5 354.5 M 475.5 358.5 L 475.5 354.5 M 507.5 358.5 L 507.5 354.5 M 538.5 358.5 L 538.5 354.5 M 570.5 358.5 L 570.5 354.5 M 601.5 358.5 L 601.5 354.5 M 633.5 358.5 L 633.5 354.5 M 664.5 358.5 L 664.5 354.5" stroke-opacity="1" stroke-linejoin="bevel" stroke-miterlimit="10" stroke-dasharray=""/><text fill="rgb(68,68,68)" stroke="none" font-family="helvetica" font-size="11px" font-style="normal" font-weight="normal" text-decoration="normal" x="63.88453006744385" y="373" text-anchor="start" dominant-baseline="alphabetic" transform="matrix(1, 0, 0, 1, 0.5, 0.5)" fill-opacity="1">0</text><text fill="none" stroke="rgb(0,0,0)" font-family="helvetica" font-size="11px" font-style="normal" font-weight="normal" text-decoration="normal" x="63.88453006744385" y="373" text-anchor="start" dominant-baseline="alphabetic" transform="matrix(1, 0, 0, 1, 0.5, 0.5)" stroke-opacity="0" stroke-linejoin="bevel" stroke-miterlimit="10" stroke-dasharray="">0</text><text fill="rgb(68,68,68)" stroke="none" font-family="helvetica" font-size="11px" font-style="normal" font-weight="normal" text-decoration="normal" x="211.81218338012695" y="373" text-anchor="start" dominant-baseline="alphabetic" transform="matrix(1, 0, 0, 1, 0.5, 0.5)" fill-opacity="1">1000</text><text fill="none" stroke="rgb(0,0,0)" font-family="helvetica" font-size="11px" font-style="normal" font-weight="normal" text-decoration="normal" x="211.81218338012695" y="373" text-anchor="start" dominant-baseline="alphabetic" transform="matrix(1, 0, 0, 1, 0.5, 0.5)" stroke-opacity="0" stroke-linejoin="bevel" stroke-miterlimit="10" stroke-dasharray="">1000</text><text fill="rgb(68,68,68)" stroke="none" font-family="helvetica" font-size="11px" font-style="normal" font-weight="normal" text-decoration="normal" x="368.9148292541504" y="373" text-anchor="start" dominant-baseline="alphabetic" transform="matrix(1, 0, 0, 1, 0.5, 0.5)" fill-opacity="1">2000</text><text fill="none" stroke="rgb(0,0,0)" font-family="helvetica" font-size="11px" font-style="normal" font-weight="normal" text-decoration="normal" x="368.9148292541504" y="373" text-anchor="start" dominant-baseline="alphabetic" transform="matrix(1, 0, 0, 1, 0.5, 0.5)" stroke-opacity="0" stroke-linejoin="bevel" stroke-miterlimit="10" stroke-dasharray="">2000</text><text fill="rgb(68,68,68)" stroke="none" font-family="helvetica" font-size="11px" font-style="normal" font-weight="normal" text-decoration="normal" x="526.017520904541" y="373" text-anchor="start" dominant-baseline="alphabetic" transform="matrix(1, 0, 0, 1, 0.5, 0.5)" fill-opacity="1">3000</text><text fill="none" stroke="rgb(0,0,0)" font-family="helvetica" font-size="11px" font-style="normal" font-weight="normal" text-decoration="normal" x="526.017520904541" y="373" text-anchor="start" dominant-baseline="alphabetic" transform="matrix(1, 0, 0, 1, 0.5, 0.5)" stroke-opacity="0" stroke-linejoin="bevel" stroke-miterlimit="10" stroke-dasharray="">3000</text><text fill="rgb(68,68,68)" stroke="none" font-family="helvetica" font-size="13px" font-style="italic" font-weight="normal" text-decoration="normal" x="340.03333282470703" y="394" text-anchor="start" dominant-baseline="alphabetic" transform="matrix(1, 0, 0, 1, 0.5, 0.5)" fill-opacity="1">Liczba encji</text><text fill="none" stroke="rgb(0,0,0)" font-family="helvetica" font-size="13px" font-style="italic" font-weight="normal" text-decoration="normal" x="340.03333282470703" y="394" text-anchor="start" dominant-baseline="alphabetic" transform="matrix(1, 0, 0, 1, 0.5, 0.5)" stroke-opacity="0" stroke-linejoin="bevel" stroke-miterlimit="10" stroke-dasharray="">Liczba encji</text><path fill="none" stroke="rgb(0,0,0)" paint-order="fill" d="M 53.5 354.5 L 53.5 60.5" stroke-opacity="1" stroke-linejoin="bevel" stroke-miterlimit="10" stroke-dasharray=""/><path fill="none" stroke="rgb(0,0,0)" paint-order="fill" d="M 47.5 341.5 L 55.5 341.5 M 47.5 297.5 L 55.5 297.5 M 47.5 253.5 L 55.5 253.5 M 47.5 209.5 L 55.5 209.5 M 47.5 165.5 L 55.5 165.5 M 47.5 122.5 L 55.5 122.5 M 47.5 78.5 L 55.5 78.5" stroke-opacity="1" stroke-linejoin="bevel" stroke-miterlimit="10" stroke-dasharray=""/><path fill="none" stroke="rgb(0,0,0)" paint-order="fill" d="M 49.5 349.5 L 53.5 349.5 M 49.5 341.5 L 53.5 341.5 M 49.5 332.5 L 53.5 332.5 M 49.5 323.5 L 53.5 323.5 M 49.5 314.5 L 53.5 314.5 M 49.5 306.5 L 53.5 306.5 M 49.5 297.5 L 53.5 297.5 M 49.5 288.5 L 53.5 288.5 M 49.5 279.5 L 53.5 279.5 M 49.5 271.5 L 53.5 271.5 M 49.5 262.5 L 53.5 262.5 M 49.5 253.5 L 53.5 253.5 M 49.5 244.5 L 53.5 244.5 M 49.5 235.5 L 53.5 235.5 M 49.5 227.5 L 53.5 227.5 M 49.5 218.5 L 53.5 218.5 M 49.5 209.5 L 53.5 209.5 M 49.5 200.5 L 53.5 200.5 M 49.5 192.5 L 53.5 192.5 M 49.5 183.5 L 53.5 183.5 M 49.5 174.5 L 53.5 174.5 M 49.5 165.5 L 53.5 165.5 M 49.5 157.5 L 53.5 157.5 M 49.5 148.5 L 53.5 148.5 M 49.5 139.5 L 53.5 139.5 M 49.5 130.5 L 53.5 130.5 M 49.5 122.5 L 53.5 122.5 M 49.5 113.5 L 53.5 113.5 M 49.5 104.5 L 53.5 104.5 M 49.5 95.5 L 53.5 95.5 M 49.5 86.5 L 53.5 86.5 M 49.5 78.5 L 53.5 78.5 M 49.5 69.5 L 53.5 69.5 M 49.5 60.5 L 53.5 60.5" stroke-opacity="1" stroke-linejoin="bevel" stroke-miterlimit="10" stroke-dasharray=""/><text fill="rgb(68,68,68)" stroke="none" font-family="helvetica" font-size="11px" font-style="normal" font-weight="normal" text-decoration="normal" x="35.88333320617676" y="344.6363525390625" text-anchor="start" dominant-baseline="alphabetic" transform="matrix(1, 0, 0, 1, 0.5, 0.5)" fill-opacity="1">0</text><text fill="none" stroke="rgb(0,0,0)" font-family="helvetica" font-size="11px" font-style="normal" font-weight="normal" text-decoration="normal" x="35.88333320617676" y="344.6363525390625" text-anchor="start" dominant-baseline="alphabetic" transform="matrix(1, 0, 0, 1, 0.5, 0.5)" stroke-opacity="0" stroke-linejoin="bevel" stroke-miterlimit="10" stroke-dasharray="">0</text><text fill="rgb(68,68,68)" stroke="none" font-family="helvetica" font-size="11px" font-style="normal" font-weight="normal" text-decoration="normal" x="26.716666221618652" y="300.8116760253906" text-anchor="start" dominant-baseline="alphabetic" transform="matrix(1, 0, 0, 1, 0.5, 0.5)" fill-opacity="1">0.1</text><text fill="none" stroke="rgb(0,0,0)" font-family="helvetica" font-size="11px" font-style="normal" font-weight="normal" text-decoration="normal" x="26.716666221618652" y="300.8116760253906" text-anchor="start" dominant-baseline="alphabetic" transform="matrix(1, 0, 0, 1, 0.5, 0.5)" stroke-opacity="0" stroke-linejoin="bevel" stroke-miterlimit="10" stroke-dasharray="">0.1</text><text fill="rgb(68,68,68)" stroke="none" font-family="helvetica" font-size="11px" font-style="normal" font-weight="normal" text-decoration="normal" x="26.716666221618652" y="256.98699951171875" text-anchor="start" dominant-baseline="alphabetic" transform="matrix(1, 0, 0, 1, 0.5, 0.5)" fill-opacity="1">0.2</text><text fill="none" stroke="rgb(0,0,0)" font-family="helvetica" font-size="11px" font-style="normal" font-weight="normal" text-decoration="normal" x="26.716666221618652" y="256.98699951171875" text-anchor="start" dominant-baseline="alphabetic" transform="matrix(1, 0, 0, 1, 0.5, 0.5)" stroke-opacity="0" stroke-linejoin="bevel" stroke-miterlimit="10" stroke-dasharray="">0.2</text><text fill="rgb(68,68,68)" stroke="none" font-family="helvetica" font-size="11px" font-style="normal" font-weight="normal" text-decoration="normal" x="26.716666221618652" y="213.16232299804688" text-anchor="start" dominant-baseline="alphabetic" transform="matrix(1, 0, 0, 1, 0.5, 0.5)" fill-opacity="1">0.3</text><text fill="none" stroke="rgb(0,0,0)" font-family="helvetica" font-size="11px" font-style="normal" font-weight="normal" text-decoration="normal" x="26.716666221618652" y="213.16232299804688" text-anchor="start" dominant-baseline="alphabetic" transform="matrix(1, 0, 0, 1, 0.5, 0.5)" stroke-opacity="0" stroke-linejoin="bevel" stroke-miterlimit="10" stroke-dasharray="">0.3</text><text fill="rgb(68,68,68)" stroke="none" font-family="helvetica" font-size="11px" font-style="normal" font-weight="normal" text-decoration="normal" x="26.716666221618652" y="169.33763122558594" text-anchor="start" dominant-baseline="alphabetic" transform="matrix(1, 0, 0, 1, 0.5, 0.5)" fill-opacity="1">0.4</text><text fill="none" stroke="rgb(0,0,0)" font-family="helvetica" font-size="11px" font-style="normal" font-weight="normal" text-decoration="normal" x="26.716666221618652" y="169.33763122558594" text-anchor="start" dominant-baseline="alphabetic" transform="matrix(1, 0, 0, 1, 0.5, 0.5)" stroke-opacity="0" stroke-linejoin="bevel" stroke-miterlimit="10" stroke-dasharray="">0.4</text><text fill="rgb(68,68,68)" stroke="none" font-family="helvetica" font-size="11px" font-style="normal" font-weight="normal" text-decoration="normal" x="26.716666221618652" y="125.51295471191406" text-anchor="start" dominant-baseline="alphabetic" transform="matrix(1, 0, 0, 1, 0.5, 0.5)" fill-opacity="1">0.5</text><text fill="none" stroke="rgb(0,0,0)" font-family="helvetica" font-size="11px" font-style="normal" font-weight="normal" text-decoration="normal" x="26.716666221618652" y="125.51295471191406" text-anchor="start" dominant-baseline="alphabetic" transform="matrix(1, 0, 0, 1, 0.5, 0.5)" stroke-opacity="0" stroke-linejoin="bevel" stroke-miterlimit="10" stroke-dasharray="">0.5</text><text fill="rgb(68,68,68)" stroke="none" font-family="helvetica" font-size="11px" font-style="normal" font-weight="normal" text-decoration="normal" x="26.716666221618652" y="81.68827819824219" text-anchor="start" dominant-baseline="alphabetic" transform="matrix(1, 0, 0, 1, 0.5, 0.5)" fill-opacity="1">0.6</text><text fill="none" stroke="rgb(0,0,0)" font-family="helvetica" font-size="11px" font-style="normal" font-weight="normal" text-decoration="normal" x="26.716666221618652" y="81.68827819824219" text-anchor="start" dominant-baseline="alphabetic" transform="matrix(1, 0, 0, 1, 0.5, 0.5)" stroke-opacity="0" stroke-linejoin="bevel" stroke-miterlimit="10" stroke-dasharray="">0.6</text><text fill="rgb(68,68,68)" stroke="none" font-family="helvetica" font-size="13px" font-style="italic" font-weight="normal" text-decoration="normal" x="-44.64166736602783" y="204" text-anchor="start" dominant-baseline="alphabetic" transform="matrix(6.123233995736766e-17, -1, 1, 6.123233995736766e-17, -187.78333377838135, 226.21666622161865)" fill-opacity="1">Wartość kompletności</text><text fill="none" stroke="rgb(0,0,0)" font-family="helvetica" font-size="13px" font-style="italic" font-weight="normal" text-decoration="normal" x="-44.64166736602783" y="204" text-anchor="start" dominant-baseline="alphabetic" transform="matrix(6.123233995736766e-17, -1, 1, 6.123233995736766e-17, -187.78333377838135, 226.21666622161865)" stroke-opacity="0" stroke-linejoin="bevel" stroke-miterlimit="10" stroke-dasharray="">Wartość kompletności</text><path fill="rgb(255,255,255)" stroke="rgb(229,229,229)" paint-order="fill" d="M 140.1833267211914 10.5 L 608.8166732788086 10.5 L 608.8166732788086 50.5 L 140.1833267211914 50.5 L 140.1833267211914 10.5" fill-opacity="0.9490196078431372" stroke-opacity="0.5019607843137255" stroke-linejoin="bevel" stroke-miterlimit="10" stroke-dasharray=""/><text fill="rgb(68,68,68)" stroke="none" font-family="helvetica" font-size="13px" font-style="normal" font-weight="normal" text-decoration="normal" x="174.6833267211914" y="30" text-anchor="start" dominant-baseline="central" transform="matrix(1, 0, 0, 1, 0.5, 0.5)" fill-opacity="1">strategia najmniejszej pewności</text><path fill="none" stroke="rgb(11,132,165)" paint-order="fill" d="M 150.1833267211914 30.5 L 170.1833267211914 30.5" stroke-opacity="1" stroke-linejoin="bevel" stroke-miterlimit="10" stroke-width="2" stroke-dasharray=""/><text fill="rgb(68,68,68)" stroke="none" font-family="helvetica" font-size="13px" font-style="normal" font-weight="normal" text-decoration="normal" x="412.53333282470703" y="30" text-anchor="start" dominant-baseline="central" transform="matrix(1, 0, 0, 1, 0.5, 0.5)" fill-opacity="1">strategia próbkowania losowego</text><path fill="none" stroke="rgb(246,200,95)" paint-order="fill" d="M 388.03333282470703 30.5 L 408.03333282470703 30.5" stroke-opacity="1" stroke-linejoin="bevel" stroke-miterlimit="10" stroke-width="2" stroke-dasharray=""/><path fill="rgb(255,255,255)" stroke="rgb(229,229,229)" paint-order="fill" d="M 140.1833267211914 10.5 L 608.8166732788086 10.5 L 608.8166732788086 50.5 L 140.1833267211914 50.5 L 140.1833267211914 10.5" fill-opacity="0.9490196078431372" stroke-opacity="0.5019607843137255" stroke-linejoin="bevel" stroke-miterlimit="10" stroke-dasharray=""/><text fill="rgb(68,68,68)" stroke="none" font-family="helvetica" font-size="13px" font-style="normal" font-weight="normal" text-decoration="normal" x="174.6833267211914" y="30" text-anchor="start" dominant-baseline="central" transform="matrix(1, 0, 0, 1, 0.5, 0.5)" fill-opacity="1">strategia najmniejszej pewności</text><path fill="none" stroke="rgb(11,132,165)" paint-order="fill" d="M 150.1833267211914 30.5 L 170.1833267211914 30.5" stroke-opacity="1" stroke-linejoin="bevel" stroke-miterlimit="10" stroke-width="2" stroke-dasharray=""/><text fill="rgb(68,68,68)" stroke="none" font-family="helvetica" font-size="13px" font-style="normal" font-weight="normal" text-decoration="normal" x="412.53333282470703" y="30" text-anchor="start" dominant-baseline="central" transform="matrix(1, 0, 0, 1, 0.5, 0.5)" fill-opacity="1">strategia próbkowania losowego</text><path fill="none" stroke="rgb(246,200,95)" paint-order="fill" d="M 388.03333282470703 30.5 L 408.03333282470703 30.5" stroke-opacity="1" stroke-linejoin="bevel" stroke-miterlimit="10" stroke-width="2" stroke-dasharray=""/></svg>