<svg version="1.1" xmlns="http://www.w3.org/2000/svg" width="700" height="400"><defs><clipPath id="xZlhfCwpoJyc"><path fill="none" stroke="none" d="M 53.5 60.5 L 695.5 60.5 L 695.5 354.5 L 53.5 354.5 L 53.5 60.5"/></clipPath><clipPath id="ETdSLJuGiOSD"><path fill="none" stroke="none" d="M 53.5 60.5 L 695.5 60.5 L 695.5 354.5 L 53.5 354.5 L 53.5 60.5"/></clipPath><clipPath id="NsCbhTLGmcOB"><path fill="none" stroke="none" d="M 53.5 60.5 L 695.5 60.5 L 695.5 354.5 L 53.5 354.5 L 53.5 60.5"/></clipPath><clipPath id="PUCuItAMOGHk"><path fill="none" stroke="none" d="M 53.5 60.5 L 695.5 60.5 L 695.5 354.5 L 53.5 354.5 L 53.5 60.5"/></clipPath><clipPath id="sUnNfFBlPfXW"><path fill="none" stroke="none" d="M 53.5 60.5 L 695.5 60.5 L 695.5 354.5 L 53.5 354.5 L 53.5 60.5"/></clipPath><clipPath id="HyhTTVnSHzdX"><path fill="none" stroke="none" d="M 53.5 60.5 L 695.5 60.5 L 695.5 354.5 L 53.5 354.5 L 53.5 60.5"/></clipPath><clipPath id="fwOnZImZqtkO"><path fill="none" stroke="none" d="M 53.5 60.5 L 695.5 60.5 L 695.5 354.5 L 53.5 354.5 L 53.5 60.5"/></clipPath></defs><path fill="rgb(255,255,255)" stroke="none" paint-order="stroke" d="M 0.5 0.5 L 700.5 0.5 L 700.5 400.5 L 0.5 400.5 L 0.5 0.5" fill-opacity="1"/><rect fill="#FFFFFF" stroke="none" x="53" y="60" width="642" height="294" transform="matrix(1, 0, 0, 1, 0.5, 0.5)"/><path fill="rgb(255,255,255)" stroke="none" paint-order="stroke" d="M 53.5 60.5 L 695.5 60.5 L 695.5 354.5 L 53.5 354.5 L 53.5 60.5" fill-opacity="1"/><path fill="none" stroke="rgb(229,229,229)" paint-order="fill" d="M 53.5 60.5 L 695.5 60.5 L 695.5 354.5 L 53.5 354.5 L 53.5 60.5" stroke-opacity="1" stroke-linejoin="bevel" stroke-miterlimit="10" stroke-dasharray=""/><path fill="none" stroke="rgb(229,229,229)" paint-order="fill" d="M 67.5 354.5 L 67.5 60.5 M 224.5 354.5 L 224.5 60.5 M 381.5 354.5 L 381.5 60.5 M 538.5 354.5 L 538.5 60.5" stroke-opacity="1" stroke-linejoin="bevel" stroke-miterlimit="10" stroke-dasharray="" clip-path="url(#xZlhfCwpoJyc)"/><path fill="none" stroke="rgb(229,229,229)" paint-order="fill" d="M 53.5 341.5 L 695.5 341.5 M 53.5 282.5 L 695.5 282.5 M 53.5 223.5 L 695.5 223.5 M 53.5 164.5 L 695.5 164.5 M 53.5 105.5 L 695.5 105.5" stroke-opacity="1" stroke-linejoin="bevel" stroke-miterlimit="10" stroke-dasharray="" clip-path="url(#ETdSLJuGiOSD)"/><path fill="none" stroke="rgb(11,132,165)" paint-order="fill" d="M 82.68181610107422 341.1363525390625 L 97.6065673828125 341.1363525390625 L 110.96029663085938 341.1363525390625 L 122.27169036865234 271.05145263671875 L 134.52569580078125 136.01239013671875 L 146.6226043701172 256.8388366699219 L 157.30557250976562 98.54682922363281 L 169.55958557128906 210.316162109375 L 180.24256896972656 228.08493041992188 L 190.45423889160156 173.7272186279297 L 202.708251953125 211.6424560546875 L 215.11935424804688 127.98863983154297 L 227.6875762939453 184.06680297851562 L 239.7844696044922 110.23445892333984 L 252.66688537597656 165.5685577392578 L 264.4495849609375 183.0387420654297 L 275.132568359375 164.05499267578125 L 286.60107421875 234.1273193359375 L 297.9124450683594 108.03373718261719 L 311.58038330078125 133.87213134765625 L 327.2906494140625 110.06840515136719 L 339.8588562011719 115.06574249267578 L 350.3847351074219 175.5955810546875 L 362.6387634277344 84.63105010986328 L 374.57855224609375 128.70660400390625 L 384.16180419921875 147.1188507080078 L 394.68768310546875 138.7801055908203 L 404.89935302734375 133.406494140625 L 415.73944091796875 123.65064239501953 L 426.10821533203125 138.57513427734375 L 438.9906311035156 108.90348052978516 L 448.73101806640625 167.22390747070312 L 460.3565979003906 126.23375701904297 L 477.1665954589844 109.960693359375 L 489.10638427734375 165.8581085205078 L 499.47515869140625 148.8900146484375 L 510.31524658203125 105.90750885009766 L 520.9982299804688 136.78195190429688 L 531.9954223632812 131.56527709960938 L 545.034912109375 135.37344360351562 L 557.76025390625 152.2003936767578 L 570.17138671875 145.804931640625 L 581.0114135742188 145.1182861328125 L 594.2080688476562 139.4122772216797 L 608.3472900390625 102.09036254882812 L 620.601318359375 92.75273895263672 L 631.127197265625 125.3847885131836 L 643.22412109375 127.82460021972656 L 653.9070434570312 121.60778045654297 L 666.3181762695312 116.1673583984375" stroke-opacity="1" stroke-linejoin="bevel" stroke-miterlimit="10" stroke-width="2" stroke-dasharray="" clip-path="url(#NsCbhTLGmcOB)"/><path fill="none" stroke="rgb(246,200,95)" paint-order="fill" d="M 82.68181610107422 341.1363525390625 L 97.6065673828125 341.1363525390625 L 110.96029663085938 341.1363525390625 L 122.27169036865234 261.0483093261719 L 134.52569580078125 137.9931640625 L 146.6226043701172 253.0643310546875 L 157.30557250976562 73.86363983154297 L 169.55958557128906 192.3476104736328 L 180.24256896972656 209.67422485351562 L 190.45423889160156 156.6781768798828 L 202.708251953125 203.36376953125 L 215.11935424804688 102.224853515625 L 227.6875762939453 167.8328094482422 L 239.7844696044922 84.98685455322266 L 252.66688537597656 146.28041076660156 L 264.4495849609375 165.6140899658203 L 275.132568359375 139.5623321533203 L 286.60107421875 221.5679168701172 L 297.9124450683594 95.68181610107422 L 311.58038330078125 120.1401596069336 L 327.2906494140625 104.00035095214844 L 339.8588562011719 104.40360260009766 L 350.3847351074219 161.33985900878906 L 362.6387634277344 76.51167297363281 L 374.57855224609375 115.93790435791016 L 384.16180419921875 134.23239135742188 L 394.68768310546875 126.59978485107422 L 404.89935302734375 120.73463439941406 L 415.73944091796875 112.93415832519531 L 426.10821533203125 127.21429443359375 L 438.9906311035156 98.93826293945312 L 448.73101806640625 154.502197265625 L 460.3565979003906 116.32479858398438 L 477.1665954589844 108.07421112060547 L 489.10638427734375 152.39669799804688 L 499.47515869140625 132.0471649169922 L 510.31524658203125 96.9214859008789 L 520.9982299804688 122.51275634765625 L 531.9954223632812 113.22681427001953 L 545.034912109375 117.08732604980469 L 557.76025390625 135.982177734375 L 570.17138671875 133.39285278320312 L 581.0114135742188 130.87460327148438 L 594.2080688476562 124.18741607666016 L 608.3472900390625 91.05684661865234 L 620.601318359375 85.9868392944336 L 631.127197265625 108.96868896484375 L 643.22412109375 113.92384338378906 L 653.9070434570312 111.4151382446289 L 666.3181762695312 102.72713470458984" stroke-opacity="1" stroke-linejoin="bevel" stroke-miterlimit="10" stroke-width="2" stroke-dasharray="" clip-path="url(#PUCuItAMOGHk)"/><path fill="none" stroke="rgb(11,132,165)" paint-order="fill" d="M 82.68181610107422 279.5326232910156 L 97.6065673828125 267.8811950683594 L 110.96029663085938 257.8240661621094 L 122.27169036865234 249.5768585205078 L 134.52569580078125 240.92367553710938 L 146.6226043701172 232.66835021972656 L 157.30557250976562 225.614990234375 L 169.55958557128906 217.79815673828125 L 180.24256896972656 211.22216796875 L 190.45423889160156 205.14413452148438 L 202.708251953125 198.11865234375 L 215.11935424804688 191.30128479003906 L 227.6875762939453 184.7034149169922 L 239.7844696044922 178.64361572265625 L 252.66688537597656 172.5037841796875 L 264.4495849609375 167.17115783691406 L 275.132568359375 162.57003784179688 L 286.60107421875 157.8780517578125 L 297.9124450683594 153.50132751464844 L 311.58038330078125 148.5453643798828 L 327.2906494140625 143.2984161376953 L 339.8588562011719 139.44705200195312 L 350.3847351074219 136.4583282470703 L 362.6387634277344 133.25082397460938 L 374.57855224609375 130.40695190429688 L 384.16180419921875 128.32527923583984 L 394.68768310546875 126.24503326416016 L 404.89935302734375 124.43315887451172 L 415.73944091796875 122.73207092285156 L 426.10821533203125 121.31915283203125 L 438.9906311035156 119.85548400878906 L 448.73101806640625 118.96344757080078 L 460.3565979003906 118.14070892333984 L 477.1665954589844 117.41668701171875 L 489.10638427734375 117.23680114746094 L 499.47515869140625 117.30590057373047 L 510.31524658203125 117.60208129882812 L 520.9982299804688 118.1179428100586 L 531.9954223632812 118.8812255859375 L 545.034912109375 120.091552734375 L 557.76025390625 121.59208679199219 L 570.17138671875 123.35945129394531 L 581.0114135742188 125.14861297607422 L 594.2080688476562 127.63570404052734 L 608.3472900390625 130.67694091796875 L 620.601318359375 133.62771606445312 L 631.127197265625 136.39590454101562 L 643.22412109375 139.84385681152344 L 653.9070434570312 143.12582397460938 L 666.3181762695312 147.21791076660156" stroke-opacity="0.6" stroke-linejoin="bevel" stroke-miterlimit="10" stroke-width="2" stroke-dasharray="6" clip-path="url(#sUnNfFBlPfXW)"/><path fill="none" stroke="rgb(246,200,95)" paint-order="fill" d="M 82.68181610107422 271.8170471191406 L 97.6065673828125 259.5571594238281 L 110.96029663085938 248.97964477539062 L 122.27169036865234 240.30938720703125 L 134.52569580078125 231.21624755859375 L 146.6226043701172 222.5453643798828 L 157.30557250976562 215.1405029296875 L 169.55958557128906 206.93833923339844 L 180.24256896972656 200.04200744628906 L 190.45423889160156 193.6713409423828 L 202.708251953125 186.3122100830078 L 215.11935424804688 179.1763916015625 L 227.6875762939453 172.27601623535156 L 239.7844696044922 165.94403076171875 L 252.66688537597656 159.53480529785156 L 264.4495849609375 153.9742889404297 L 275.132568359375 149.18179321289062 L 286.60107421875 144.30052185058594 L 297.9124450683594 139.75350952148438 L 311.58038330078125 134.6134796142578 L 327.2906494140625 129.18434143066406 L 339.8588562011719 125.2098388671875 L 350.3847351074219 122.13343811035156 L 362.6387634277344 118.84162139892578 L 374.57855224609375 115.93396759033203 L 384.16180419921875 113.8142318725586 L 394.68768310546875 111.70563507080078 L 404.89935302734375 109.8797378540039 L 415.73944091796875 108.17827606201172 L 426.10821533203125 106.77899169921875 L 438.9906311035156 105.35130310058594 L 448.73101806640625 104.50049591064453 L 460.3565979003906 103.74276733398438 L 477.1665954589844 103.14315032958984 L 489.10638427734375 103.0734634399414 L 499.47515869140625 103.25297546386719 L 510.31524658203125 103.67921447753906 L 520.9982299804688 104.33787536621094 L 531.9954223632812 105.26332092285156 L 545.034912109375 106.68586730957031 L 557.76025390625 108.41436767578125 L 570.17138671875 110.42391204833984 L 581.0114135742188 112.44062805175781 L 594.2080688476562 115.22492218017578 L 608.3472900390625 118.60917663574219 L 620.601318359375 121.8778076171875 L 631.127197265625 124.93428802490234 L 643.22412109375 128.73094177246094 L 653.9070434570312 132.33636474609375 L 666.3181762695312 136.82244873046875" stroke-opacity="0.6" stroke-linejoin="bevel" stroke-miterlimit="10" stroke-width="2" stroke-dasharray="6" clip-path="url(#HyhTTVnSHzdX)"/><path fill="none" stroke="rgb(0,0,0)" paint-order="fill" d="M 53.5 354.5 L 695.5 354.5" stroke-opacity="1" stroke-linejoin="bevel" stroke-miterlimit="10" stroke-dasharray=""/><path fill="none" stroke="rgb(0,0,0)" paint-order="fill" d="M 67.5 360.5 L 67.5 352.5 M 224.5 360.5 L 224.5 352.5 M 381.5 360.5 L 381.5 352.5 M 538.5 360.5 L 538.5 352.5" stroke-opacity="1" stroke-linejoin="bevel" stroke-miterlimit="10" stroke-dasharray=""/><path fill="none" stroke="rgb(0,0,0)" paint-order="fill" d="M 67.5 358.5 L 67.5 354.5 M 98.5 358.5 L 98.5 354.5 M 130.5 358.5 L 130.5 354.5 M 161.5 358.5 L 161.5 354.5 M 193.5 358.5 L 193.5 354.5 M 224.5 358.5 L 224.5 354.5 M 255.5 358.5 L 255.5 354.5 M 287.5 358.5 L 287.5 354.5 M 318.5 358.5 L 318.5 354.5 M 350.5 358.5 L 350.5 354.5 M 381.5 358.5 L 381.5 354.5 M 413.5 358.5 L 413.5 354.5 M 444.5 358.5 L 444.5 354.5 M 475.5 358.5 L 475.5 354.5 M 507.5 358.5 L 507.5 354.5 M 538.5 358.5 L 538.5 354.5 M 570.5 358.5 L 570.5 354.5 M 601.5 358.5 L 601.5 354.5 M 633.5 358.5 L 633.5 354.5 M 664.5 358.5 L 664.5 354.5" stroke-opacity="1" stroke-linejoin="bevel" stroke-miterlimit="10" stroke-dasharray=""/><text fill="rgb(68,68,68)" stroke="none" font-family="helvetica" font-size="11px" font-style="normal" font-weight="normal" text-decoration="normal" x="63.88453006744385" y="373" text-anchor="start" dominant-baseline="alphabetic" transform="matrix(1, 0, 0, 1, 0.5, 0.5)" fill-opacity="1">0</text><text fill="none" stroke="rgb(0,0,0)" font-family="helvetica" font-size="11px" font-style="normal" font-weight="normal" text-decoration="normal" x="63.88453006744385" y="373" text-anchor="start" dominant-baseline="alphabetic" transform="matrix(1, 0, 0, 1, 0.5, 0.5)" stroke-opacity="0" stroke-linejoin="bevel" stroke-miterlimit="10" stroke-dasharray="">0</text><text fill="rgb(68,68,68)" stroke="none" font-family="helvetica" font-size="11px" font-style="normal" font-weight="normal" text-decoration="normal" x="211.81218338012695" y="373" text-anchor="start" dominant-baseline="alphabetic" transform="matrix(1, 0, 0, 1, 0.5, 0.5)" fill-opacity="1">1000</text><text fill="none" stroke="rgb(0,0,0)" font-family="helvetica" font-size="11px" font-style="normal" font-weight="normal" text-decoration="normal" x="211.81218338012695" y="373" text-anchor="start" dominant-baseline="alphabetic" transform="matrix(1, 0, 0, 1, 0.5, 0.5)" stroke-opacity="0" stroke-linejoin="bevel" stroke-miterlimit="10" stroke-dasharray="">1000</text><text fill="rgb(68,68,68)" stroke="none" font-family="helvetica" font-size="11px" font-style="normal" font-weight="normal" text-decoration="normal" x="368.9148292541504" y="373" text-anchor="start" dominant-baseline="alphabetic" transform="matrix(1, 0, 0, 1, 0.5, 0.5)" fill-opacity="1">2000</text><text fill="none" stroke="rgb(0,0,0)" font-family="helvetica" font-size="11px" font-style="normal" font-weight="normal" text-decoration="normal" x="368.9148292541504" y="373" text-anchor="start" dominant-baseline="alphabetic" transform="matrix(1, 0, 0, 1, 0.5, 0.5)" stroke-opacity="0" stroke-linejoin="bevel" stroke-miterlimit="10" stroke-dasharray="">2000</text><text fill="rgb(68,68,68)" stroke="none" font-family="helvetica" font-size="11px" font-style="normal" font-weight="normal" text-decoration="normal" x="526.017520904541" y="373" text-anchor="start" dominant-baseline="alphabetic" transform="matrix(1, 0, 0, 1, 0.5, 0.5)" fill-opacity="1">3000</text><text fill="none" stroke="rgb(0,0,0)" font-family="helvetica" font-size="11px" font-style="normal" font-weight="normal" text-decoration="normal" x="526.017520904541" y="373" text-anchor="start" dominant-baseline="alphabetic" transform="matrix(1, 0, 0, 1, 0.5, 0.5)" stroke-opacity="0" stroke-linejoin="bevel" stroke-miterlimit="10" stroke-dasharray="">3000</text><text fill="rgb(68,68,68)" stroke="none" font-family="helvetica" font-size="13px" font-style="italic" font-weight="normal" text-decoration="normal" x="340.03333282470703" y="394" text-anchor="start" dominant-baseline="alphabetic" transform="matrix(1, 0, 0, 1, 0.5, 0.5)" fill-opacity="1">Liczba encji</text><text fill="none" stroke="rgb(0,0,0)" font-family="helvetica" font-size="13px" font-style="italic" font-weight="normal" text-decoration="normal" x="340.03333282470703" y="394" text-anchor="start" dominant-baseline="alphabetic" transform="matrix(1, 0, 0, 1, 0.5, 0.5)" stroke-opacity="0" stroke-linejoin="bevel" stroke-miterlimit="10" stroke-dasharray="">Liczba encji</text><path fill="none" stroke="rgb(0,0,0)" paint-order="fill" d="M 53.5 354.5 L 53.5 60.5" stroke-opacity="1" stroke-linejoin="bevel" stroke-miterlimit="10" stroke-dasharray=""/><path fill="none" stroke="rgb(0,0,0)" paint-order="fill" d="M 47.5 341.5 L 55.5 341.5 M 47.5 282.5 L 55.5 282.5 M 47.5 223.5 L 55.5 223.5 M 47.5 164.5 L 55.5 164.5 M 47.5 105.5 L 55.5 105.5" stroke-opacity="1" stroke-linejoin="bevel" stroke-miterlimit="10" stroke-dasharray=""/><path fill="none" stroke="rgb(0,0,0)" paint-order="fill" d="M 49.5 352.5 L 53.5 352.5 M 49.5 341.5 L 53.5 341.5 M 49.5 329.5 L 53.5 329.5 M 49.5 317.5 L 53.5 317.5 M 49.5 305.5 L 53.5 305.5 M 49.5 293.5 L 53.5 293.5 M 49.5 282.5 L 53.5 282.5 M 49.5 270.5 L 53.5 270.5 M 49.5 258.5 L 53.5 258.5 M 49.5 246.5 L 53.5 246.5 M 49.5 234.5 L 53.5 234.5 M 49.5 223.5 L 53.5 223.5 M 49.5 211.5 L 53.5 211.5 M 49.5 199.5 L 53.5 199.5 M 49.5 187.5 L 53.5 187.5 M 49.5 175.5 L 53.5 175.5 M 49.5 164.5 L 53.5 164.5 M 49.5 152.5 L 53.5 152.5 M 49.5 140.5 L 53.5 140.5 M 49.5 128.5 L 53.5 128.5 M 49.5 116.5 L 53.5 116.5 M 49.5 105.5 L 53.5 105.5 M 49.5 93.5 L 53.5 93.5 M 49.5 81.5 L 53.5 81.5 M 49.5 69.5 L 53.5 69.5" stroke-opacity="1" stroke-linejoin="bevel" stroke-miterlimit="10" stroke-dasharray=""/><text fill="rgb(68,68,68)" stroke="none" font-family="helvetica" font-size="11px" font-style="normal" font-weight="normal" text-decoration="normal" x="35.88333320617676" y="344.6363525390625" text-anchor="start" dominant-baseline="alphabetic" transform="matrix(1, 0, 0, 1, 0.5, 0.5)" fill-opacity="1">0</text><text fill="none" stroke="rgb(0,0,0)" font-family="helvetica" font-size="11px" font-style="normal" font-weight="normal" text-decoration="normal" x="35.88333320617676" y="344.6363525390625" text-anchor="start" dominant-baseline="alphabetic" transform="matrix(1, 0, 0, 1, 0.5, 0.5)" stroke-opacity="0" stroke-linejoin="bevel" stroke-miterlimit="10" stroke-dasharray="">0</text><text fill="rgb(68,68,68)" stroke="none" font-family="helvetica" font-size="11px" font-style="normal" font-weight="normal" text-decoration="normal" x="26.716666221618652" y="285.62811279296875" text-anchor="start" dominant-baseline="alphabetic" transform="matrix(1, 0, 0, 1, 0.5, 0.5)" fill-opacity="1">0.2</text><text fill="none" stroke="rgb(0,0,0)" font-family="helvetica" font-size="11px" font-style="normal" font-weight="normal" text-decoration="normal" x="26.716666221618652" y="285.62811279296875" text-anchor="start" dominant-baseline="alphabetic" transform="matrix(1, 0, 0, 1, 0.5, 0.5)" stroke-opacity="0" stroke-linejoin="bevel" stroke-miterlimit="10" stroke-dasharray="">0.2</text><text fill="rgb(68,68,68)" stroke="none" font-family="helvetica" font-size="11px" font-style="normal" font-weight="normal" text-decoration="normal" x="26.716666221618652" y="226.6198272705078" text-anchor="start" dominant-baseline="alphabetic" transform="matrix(1, 0, 0, 1, 0.5, 0.5)" fill-opacity="1">0.4</text><text fill="none" stroke="rgb(0,0,0)" font-family="helvetica" font-size="11px" font-style="normal" font-weight="normal" text-decoration="normal" x="26.716666221618652" y="226.6198272705078" text-anchor="start" dominant-baseline="alphabetic" transform="matrix(1, 0, 0, 1, 0.5, 0.5)" stroke-opacity="0" stroke-linejoin="bevel" stroke-miterlimit="10" stroke-dasharray="">0.4</text><text fill="rgb(68,68,68)" stroke="none" font-family="helvetica" font-size="11px" font-style="normal" font-weight="normal" text-decoration="normal" x="26.716666221618652" y="167.611572265625" text-anchor="start" dominant-baseline="alphabetic" transform="matrix(1, 0, 0, 1, 0.5, 0.5)" fill-opacity="1">0.6</text><text fill="none" stroke="rgb(0,0,0)" font-family="helvetica" font-size="11px" font-style="normal" font-weight="normal" text-decoration="normal" x="26.716666221618652" y="167.611572265625" text-anchor="start" dominant-baseline="alphabetic" transform="matrix(1, 0, 0, 1, 0.5, 0.5)" stroke-opacity="0" stroke-linejoin="bevel" stroke-miterlimit="10" stroke-dasharray="">0.6</text><text fill="rgb(68,68,68)" stroke="none" font-family="helvetica" font-size="11px" font-style="normal" font-weight="normal" text-decoration="normal" x="26.716666221618652" y="108.60330200195312" text-anchor="start" dominant-baseline="alphabetic" transform="matrix(1, 0, 0, 1, 0.5, 0.5)" fill-opacity="1">0.8</text><text fill="none" stroke="rgb(0,0,0)" font-family="helvetica" font-size="11px" font-style="normal" font-weight="normal" text-decoration="normal" x="26.716666221618652" y="108.60330200195312" text-anchor="start" dominant-baseline="alphabetic" transform="matrix(1, 0, 0, 1, 0.5, 0.5)" stroke-opacity="0" stroke-linejoin="bevel" stroke-miterlimit="10" stroke-dasharray="">0.8</text><text fill="rgb(68,68,68)" stroke="none" font-family="helvetica" font-size="13px" font-style="italic" font-weight="normal" text-decoration="normal" x="-41.03333377838135" y="204" text-anchor="start" dominant-baseline="alphabetic" transform="matrix(6.123233995736766e-17, -1, 1, 6.123233995736766e-17, -187.78333377838135, 226.21666622161865)" fill-opacity="1">Wartość dokładności</text><text fill="none" stroke="rgb(0,0,0)" font-family="helvetica" font-size="13px" font-style="italic" font-weight="normal" text-decoration="normal" x="-41.03333377838135" y="204" text-anchor="start" dominant-baseline="alphabetic" transform="matrix(6.123233995736766e-17, -1, 1, 6.123233995736766e-17, -187.78333377838135, 226.21666622161865)" stroke-opacity="0" stroke-linejoin="bevel" stroke-miterlimit="10" stroke-dasharray="">Wartość dokładności</text><path fill="rgb(255,255,255)" stroke="rgb(229,229,229)" paint-order="fill" d="M 140.1833267211914 10.5 L 608.8166732788086 10.5 L 608.8166732788086 50.5 L 140.1833267211914 50.5 L 140.1833267211914 10.5" fill-opacity="0.9490196078431372" stroke-opacity="0.5019607843137255" stroke-linejoin="bevel" stroke-miterlimit="10" stroke-dasharray=""/><text fill="rgb(68,68,68)" stroke="none" font-family="helvetica" font-size="13px" font-style="normal" font-weight="normal" text-decoration="normal" x="174.6833267211914" y="30" text-anchor="start" dominant-baseline="central" transform="matrix(1, 0, 0, 1, 0.5, 0.5)" fill-opacity="1">strategia najmniejszej pewności</text><path fill="none" stroke="rgb(11,132,165)" paint-order="fill" d="M 150.1833267211914 30.5 L 170.1833267211914 30.5" stroke-opacity="1" stroke-linejoin="bevel" stroke-miterlimit="10" stroke-width="2" stroke-dasharray=""/><text fill="rgb(68,68,68)" stroke="none" font-family="helvetica" font-size="13px" font-style="normal" font-weight="normal" text-decoration="normal" x="412.53333282470703" y="30" text-anchor="start" dominant-baseline="central" transform="matrix(1, 0, 0, 1, 0.5, 0.5)" fill-opacity="1">strategia próbkowania losowego</text><path fill="none" stroke="rgb(246,200,95)" paint-order="fill" d="M 388.03333282470703 30.5 L 408.03333282470703 30.5" stroke-opacity="1" stroke-linejoin="bevel" stroke-miterlimit="10" stroke-width="2" stroke-dasharray=""/><path fill="rgb(255,255,255)" stroke="rgb(229,229,229)" paint-order="fill" d="M 140.1833267211914 10.5 L 608.8166732788086 10.5 L 608.8166732788086 50.5 L 140.1833267211914 50.5 L 140.1833267211914 10.5" fill-opacity="0.9490196078431372" stroke-opacity="0.5019607843137255" stroke-linejoin="bevel" stroke-miterlimit="10" stroke-dasharray=""/><text fill="rgb(68,68,68)" stroke="none" font-family="helvetica" font-size="13px" font-style="normal" font-weight="normal" text-decoration="normal" x="174.6833267211914" y="30" text-anchor="start" dominant-baseline="central" transform="matrix(1, 0, 0, 1, 0.5, 0.5)" fill-opacity="1">strategia najmniejszej pewności</text><path fill="none" stroke="rgb(11,132,165)" paint-order="fill" d="M 150.1833267211914 30.5 L 170.1833267211914 30.5" stroke-opacity="1" stroke-linejoin="bevel" stroke-miterlimit="10" stroke-width="2" stroke-dasharray=""/><text fill="rgb(68,68,68)" stroke="none" font-family="helvetica" font-size="13px" font-style="normal" font-weight="normal" text-decoration="normal" x="412.53333282470703" y="30" text-anchor="start" dominant-baseline="central" transform="matrix(1, 0, 0, 1, 0.5, 0.5)" fill-opacity="1">strategia próbkowania losowego</text><path fill="none" stroke="rgb(246,200,95)" paint-order="fill" d="M 388.03333282470703 30.5 L 408.03333282470703 30.5" stroke-opacity="1" stroke-linejoin="bevel" stroke-miterlimit="10" stroke-width="2" stroke-dasharray=""/></svg>