<svg version="1.1" xmlns="http://www.w3.org/2000/svg" width="700" height="400"><defs><clipPath id="RaPKSRcHgRtl"><path fill="none" stroke="none" d="M 53.5 60.5 L 695.5 60.5 L 695.5 354.5 L 53.5 354.5 L 53.5 60.5"/></clipPath><clipPath id="sWEcXgknyoxR"><path fill="none" stroke="none" d="M 53.5 60.5 L 695.5 60.5 L 695.5 354.5 L 53.5 354.5 L 53.5 60.5"/></clipPath><clipPath id="cliQgOBVLgfz"><path fill="none" stroke="none" d="M 53.5 60.5 L 695.5 60.5 L 695.5 354.5 L 53.5 354.5 L 53.5 60.5"/></clipPath><clipPath id="hOxOlEkhJNrO"><path fill="none" stroke="none" d="M 53.5 60.5 L 695.5 60.5 L 695.5 354.5 L 53.5 354.5 L 53.5 60.5"/></clipPath><clipPath id="MmwtVzDAFKUo"><path fill="none" stroke="none" d="M 53.5 60.5 L 695.5 60.5 L 695.5 354.5 L 53.5 354.5 L 53.5 60.5"/></clipPath><clipPath id="XqduxCaIvIPS"><path fill="none" stroke="none" d="M 53.5 60.5 L 695.5 60.5 L 695.5 354.5 L 53.5 354.5 L 53.5 60.5"/></clipPath><clipPath id="LbdknuGHGOCV"><path fill="none" stroke="none" d="M 53.5 60.5 L 695.5 60.5 L 695.5 354.5 L 53.5 354.5 L 53.5 60.5"/></clipPath></defs><path fill="rgb(255,255,255)" stroke="none" paint-order="stroke" d="M 0.5 0.5 L 700.5 0.5 L 700.5 400.5 L 0.5 400.5 L 0.5 0.5" fill-opacity="1"/><rect fill="#FFFFFF" stroke="none" x="53" y="60" width="642" height="294" transform="matrix(1, 0, 0, 1, 0.5, 0.5)"/><path fill="rgb(255,255,255)" stroke="none" paint-order="stroke" d="M 53.5 60.5 L 695.5 60.5 L 695.5 354.5 L 53.5 354.5 L 53.5 60.5" fill-opacity="1"/><path fill="none" stroke="rgb(229,229,229)" paint-order="fill" d="M 53.5 60.5 L 695.5 60.5 L 695.5 354.5 L 53.5 354.5 L 53.5 60.5" stroke-opacity="1" stroke-linejoin="bevel" stroke-miterlimit="10" stroke-dasharray=""/><path fill="none" stroke="rgb(229,229,229)" paint-order="fill" d="M 67.5 354.5 L 67.5 60.5 M 223.5 354.5 L 223.5 60.5 M 379.5 354.5 L 379.5 60.5 M 534.5 354.5 L 534.5 60.5 M 690.5 354.5 L 690.5 60.5" stroke-opacity="1" stroke-linejoin="bevel" stroke-miterlimit="10" stroke-dasharray="" clip-path="url(#RaPKSRcHgRtl)"/><path fill="none" stroke="rgb(229,229,229)" paint-order="fill" d="M 53.5 326.5 L 695.5 326.5 M 53.5 282.5 L 695.5 282.5 M 53.5 237.5 L 695.5 237.5 M 53.5 193.5 L 695.5 193.5 M 53.5 149.5 L 695.5 149.5 M 53.5 105.5 L 695.5 105.5 M 53.5 61.5 L 695.5 61.5" stroke-opacity="1" stroke-linejoin="bevel" stroke-miterlimit="10" stroke-dasharray="" clip-path="url(#sWEcXgknyoxR)"/><path fill="none" stroke="rgb(11,132,165)" paint-order="fill" d="M 82.68181610107422 326.1564636230469 L 96.54454803466797 326.1564636230469 L 107.60357666015625 322.1076354980469 L 119.1298828125 308.44281005859375 L 134.0829315185547 325.6503601074219 L 145.2977294921875 284.40289306640625 L 155.5779571533203 326.1564636230469 L 166.32545471191406 324.8912048339844 L 179.4093780517578 264.6648254394531 L 191.40296936035156 303.12872314453125 L 202.61776733398438 325.9034118652344 L 215.07864379882812 262.6404113769531 L 226.91647338867188 236.0699462890625 L 240.00039672851562 299.33294677734375 L 254.17465209960938 216.58494567871094 L 265.7009582519531 276.0521545410156 L 276.4484558105469 227.9722900390625 L 288.5978088378906 217.85020446777344 L 298.7222900390625 221.3929443359375 L 309.00250244140625 246.95118713378906 L 322.2421875 147.7548065185547 L 333.30120849609375 168.5050811767578 L 344.5160217285156 188.74923706054688 L 356.3538513183594 98.91577911376953 L 368.6589660644531 212.53611755371094 L 380.1852722167969 259.8568420410156 L 394.3595275878906 166.7337188720703 L 405.2627868652344 135.3552703857422 L 417.1006164550781 205.19761657714844 L 431.4306335449219 226.200927734375 L 442.1781311035156 179.8924102783203 L 453.0814208984375 197.09994506835938 L 463.51739501953125 167.4928741455078 L 478.314697265625 89.805908203125 L 491.86590576171875 151.04449462890625 L 502.9249267578125 226.4539794921875 L 513.6724243164062 116.3763656616211 L 525.19873046875 118.65383911132812 L 535.6347045898438 168.5050811767578 L 548.5628662109375 108.02565002441406 L 560.4006958007812 124.22097778320312 L 571.1482543945312 158.38299560546875 L 584.076416015625 102.96461486816406 L 598.7178955078125 89.2998046875 L 609.9327392578125 111.0622787475586 L 620.9917602539062 132.8247528076172 L 631.58349609375 83.4796142578125 L 642.9540405273438 83.732666015625 L 654.6361083984375 84.4918212890625 L 666.3181762695312 115.8702621459961" stroke-opacity="1" stroke-linejoin="bevel" stroke-miterlimit="10" stroke-width="2" stroke-dasharray="" clip-path="url(#cliQgOBVLgfz)"/><path fill="none" stroke="rgb(246,200,95)" paint-order="fill" d="M 82.68181610107422 326.1564636230469 L 97.47911071777344 326.1564636230469 L 110.71879577636719 326.1564636230469 L 121.93358612060547 272.5094299316406 L 134.0829315185547 315.52825927734375 L 146.0765380859375 305.91229248046875 L 156.66827392578125 306.67144775390625 L 168.81764221191406 281.61932373046875 L 179.4093780517578 203.93235778808594 L 189.53384399414062 224.4295654296875 L 201.68319702148438 192.03890991210938 L 213.98831176757812 284.14984130859375 L 226.44918823242188 243.66151428222656 L 238.4427947998047 277.8235168457031 L 251.21519470214844 218.86241149902344 L 262.89727783203125 196.08773803710938 L 273.489013671875 190.26754760742188 L 284.85955810546875 154.58721923828125 L 296.0743408203125 251.00001525878906 L 309.62554931640625 227.9722900390625 L 325.20166015625 217.34410095214844 L 337.66253662109375 223.4173583984375 L 348.0985107421875 201.40182495117188 L 360.24786376953125 282.12542724609375 L 372.085693359375 198.87130737304688 L 381.5871276855469 158.63604736328125 L 392.0231018066406 199.37741088867188 L 402.1475830078125 183.4351348876953 L 412.89508056640625 180.1454620361328 L 423.17529296875 167.9989776611328 L 435.94769287109375 228.7314453125 L 445.6048889160156 130.54727172851562 L 457.1311950683594 177.1088409423828 L 473.797607421875 211.01780700683594 L 485.6354675292969 128.01676177978516 L 495.9156799316406 152.56280517578125 L 506.6631774902344 226.4539794921875 L 517.2549438476562 133.5839080810547 L 528.158203125 121.69046020507812 L 541.0863647460938 152.05670166015625 L 553.7030029296875 129.78811645507812 L 566.0081176757812 118.40078735351562 L 576.755615234375 73.86363983154297 L 589.8395385742188 88.5406494140625 L 603.8580322265625 133.3308563232422 L 616.0073852539062 162.68487548828125 L 626.443359375 86.0101318359375 L 638.4369506835938 120.17214965820312 L 649.0286865234375 167.7459259033203 L 661.3338012695312 173.8191680908203" stroke-opacity="1" stroke-linejoin="bevel" stroke-miterlimit="10" stroke-width="2" stroke-dasharray="" clip-path="url(#hOxOlEkhJNrO)"/><path fill="none" stroke="rgb(11,132,165)" paint-order="fill" d="M 82.68181610107422 341.1363525390625 L 96.54454803466797 332.9239807128906 L 107.60357666015625 326.4563293457031 L 119.1298828125 319.7945556640625 L 134.0829315185547 311.272705078125 L 145.2977294921875 304.9705810546875 L 155.5779571533203 299.26080322265625 L 166.32545471191406 293.3602600097656 L 179.4093780517578 286.27178955078125 L 191.40296936035156 279.8655090332031 L 202.61776733398438 273.9543762207031 L 215.07864379882812 267.4761657714844 L 226.91647338867188 261.4093322753906 L 240.00039672851562 254.80308532714844 L 254.17465209960938 247.7637939453125 L 265.7009582519531 242.129638671875 L 276.4484558105469 236.948974609375 L 288.5978088378906 231.1771697998047 L 298.7222900390625 226.4359130859375 L 309.00250244140625 221.68551635742188 L 322.2421875 215.6622772216797 L 333.30120849609375 210.71282958984375 L 344.5160217285156 205.76962280273438 L 356.3538513183594 200.6348114013672 L 368.6589660644531 195.3876495361328 L 380.1852722167969 190.55613708496094 L 394.3595275878906 184.72544860839844 L 405.2627868652344 180.32347106933594 L 417.1006164550781 175.6260528564453 L 431.4306335449219 170.05374145507812 L 442.1781311035156 165.95648193359375 L 453.0814208984375 161.8716278076172 L 463.51739501953125 158.02957153320312 L 478.314697265625 152.6954345703125 L 491.86590576171875 147.9273223876953 L 502.9249267578125 144.11886596679688 L 513.6724243164062 140.48898315429688 L 525.19873046875 136.67413330078125 L 535.6347045898438 133.28985595703125 L 548.5628662109375 129.1892547607422 L 560.4006958007812 125.52364349365234 L 571.1482543945312 122.26948547363281 L 584.076416015625 118.4481430053711 L 598.7178955078125 114.24312591552734 L 609.9327392578125 111.1104507446289 L 620.9917602539062 108.09619903564453 L 631.58349609375 105.279052734375 L 642.9540405273438 102.33070373535156 L 654.6361083984375 99.38349151611328 L 666.3181762695312 96.51927947998047" stroke-opacity="0.6" stroke-linejoin="bevel" stroke-miterlimit="10" stroke-width="2" stroke-dasharray="6" clip-path="url(#MmwtVzDAFKUo)"/><path fill="none" stroke="rgb(246,200,95)" paint-order="fill" d="M 82.68181610107422 318.0037536621094 L 97.47911071777344 309.9473876953125 L 110.71879577636719 302.88018798828125 L 121.93358612060547 296.9981384277344 L 134.0829315185547 290.7338562011719 L 146.0765380859375 284.65997314453125 L 156.66827392578125 279.386962890625 L 168.81764221191406 273.4435729980469 L 179.4093780517578 268.353759765625 L 189.53384399414062 263.5682373046875 L 201.68319702148438 257.9284973144531 L 213.98831176757812 252.3308563232422 L 226.44918823242188 246.7797088623047 L 238.4427947998047 241.54824829101562 L 251.21519470214844 236.09735107421875 L 262.89727783203125 231.2203826904297 L 273.489013671875 226.88832092285156 L 284.85955810546875 222.33265686035156 L 296.0743408203125 217.9357147216797 L 309.62554931640625 212.75035095214844 L 325.20166015625 206.962646484375 L 337.66253662109375 202.46533203125 L 348.0985107421875 198.78968811035156 L 360.24786376953125 194.61489868164062 L 372.085693359375 190.65513610839844 L 381.5871276855469 187.55398559570312 L 392.0231018066406 184.2269287109375 L 402.1475830078125 181.0783233642578 L 412.89508056640625 177.82125854492188 L 423.17529296875 174.78797912597656 L 435.94769287109375 171.13133239746094 L 445.6048889160156 168.44891357421875 L 457.1311950683594 165.3401336669922 L 473.797607421875 161.023681640625 L 485.6354675292969 158.08609008789062 L 495.9156799316406 155.6214599609375 L 506.6631774902344 153.13075256347656 L 517.2549438476562 150.76206970214844 L 528.158203125 148.41282653808594 L 541.0863647460938 145.74444580078125 L 553.7030029296875 143.26290893554688 L 566.0081176757812 140.95924377441406 L 576.755615234375 139.0413818359375 L 589.8395385742188 136.8251495361328 L 603.8580322265625 134.59507751464844 L 616.0073852539062 132.78321838378906 L 626.443359375 131.31649780273438 L 638.4369506835938 129.733154296875 L 649.0286865234375 128.42583465576172 L 661.3338012695312 127.01416015625" stroke-opacity="0.6" stroke-linejoin="bevel" stroke-miterlimit="10" stroke-width="2" stroke-dasharray="6" clip-path="url(#XqduxCaIvIPS)"/><path fill="none" stroke="rgb(0,0,0)" paint-order="fill" d="M 53.5 354.5 L 695.5 354.5" stroke-opacity="1" stroke-linejoin="bevel" stroke-miterlimit="10" stroke-dasharray=""/><path fill="none" stroke="rgb(0,0,0)" paint-order="fill" d="M 67.5 360.5 L 67.5 352.5 M 223.5 360.5 L 223.5 352.5 M 379.5 360.5 L 379.5 352.5 M 534.5 360.5 L 534.5 352.5 M 690.5 360.5 L 690.5 352.5" stroke-opacity="1" stroke-linejoin="bevel" stroke-miterlimit="10" stroke-dasharray=""/><path fill="none" stroke="rgb(0,0,0)" paint-order="fill" d="M 67.5 358.5 L 67.5 354.5 M 98.5 358.5 L 98.5 354.5 M 129.5 358.5 L 129.5 354.5 M 161.5 358.5 L 161.5 354.5 M 192.5 358.5 L 192.5 354.5 M 223.5 358.5 L 223.5 354.5 M 254.5 358.5 L 254.5 354.5 M 285.5 358.5 L 285.5 354.5 M 316.5 358.5 L 316.5 354.5 M 347.5 358.5 L 347.5 354.5 M 379.5 358.5 L 379.5 354.5 M 410.5 358.5 L 410.5 354.5 M 441.5 358.5 L 441.5 354.5 M 472.5 358.5 L 472.5 354.5 M 503.5 358.5 L 503.5 354.5 M 534.5 358.5 L 534.5 354.5 M 566.5 358.5 L 566.5 354.5 M 597.5 358.5 L 597.5 354.5 M 628.5 358.5 L 628.5 354.5 M 659.5 358.5 L 659.5 354.5 M 690.5 358.5 L 690.5 354.5" stroke-opacity="1" stroke-linejoin="bevel" stroke-miterlimit="10" stroke-dasharray=""/><text fill="rgb(68,68,68)" stroke="none" font-family="helvetica" font-size="11px" font-style="normal" font-weight="normal" text-decoration="normal" x="64.01467227935791" y="373" text-anchor="start" dominant-baseline="alphabetic" transform="matrix(1, 0, 0, 1, 0.5, 0.5)" fill-opacity="1">0</text><text fill="none" stroke="rgb(0,0,0)" font-family="helvetica" font-size="11px" font-style="normal" font-weight="normal" text-decoration="normal" x="64.01467227935791" y="373" text-anchor="start" dominant-baseline="alphabetic" transform="matrix(1, 0, 0, 1, 0.5, 0.5)" stroke-opacity="0" stroke-linejoin="bevel" stroke-miterlimit="10" stroke-dasharray="">0</text><text fill="rgb(68,68,68)" stroke="none" font-family="helvetica" font-size="11px" font-style="normal" font-weight="normal" text-decoration="normal" x="210.60063552856445" y="373" text-anchor="start" dominant-baseline="alphabetic" transform="matrix(1, 0, 0, 1, 0.5, 0.5)" fill-opacity="1">1000</text><text fill="none" stroke="rgb(0,0,0)" font-family="helvetica" font-size="11px" font-style="normal" font-weight="normal" text-decoration="normal" x="210.60063552856445" y="373" text-anchor="start" dominant-baseline="alphabetic" transform="matrix(1, 0, 0, 1, 0.5, 0.5)" stroke-opacity="0" stroke-linejoin="bevel" stroke-miterlimit="10" stroke-dasharray="">1000</text><text fill="rgb(68,68,68)" stroke="none" font-family="helvetica" font-size="11px" font-style="normal" font-weight="normal" text-decoration="normal" x="366.3616065979004" y="373" text-anchor="start" dominant-baseline="alphabetic" transform="matrix(1, 0, 0, 1, 0.5, 0.5)" fill-opacity="1">2000</text><text fill="none" stroke="rgb(0,0,0)" font-family="helvetica" font-size="11px" font-style="normal" font-weight="normal" text-decoration="normal" x="366.3616065979004" y="373" text-anchor="start" dominant-baseline="alphabetic" transform="matrix(1, 0, 0, 1, 0.5, 0.5)" stroke-opacity="0" stroke-linejoin="bevel" stroke-miterlimit="10" stroke-dasharray="">2000</text><text fill="rgb(68,68,68)" stroke="none" font-family="helvetica" font-size="11px" font-style="normal" font-weight="normal" text-decoration="normal" x="522.1225624084473" y="373" text-anchor="start" dominant-baseline="alphabetic" transform="matrix(1, 0, 0, 1, 0.5, 0.5)" fill-opacity="1">3000</text><text fill="none" stroke="rgb(0,0,0)" font-family="helvetica" font-size="11px" font-style="normal" font-weight="normal" text-decoration="normal" x="522.1225624084473" y="373" text-anchor="start" dominant-baseline="alphabetic" transform="matrix(1, 0, 0, 1, 0.5, 0.5)" stroke-opacity="0" stroke-linejoin="bevel" stroke-miterlimit="10" stroke-dasharray="">3000</text><text fill="rgb(68,68,68)" stroke="none" font-family="helvetica" font-size="11px" font-style="normal" font-weight="normal" text-decoration="normal" x="675.533332824707" y="373" text-anchor="start" dominant-baseline="alphabetic" transform="matrix(1, 0, 0, 1, 0.5, 0.5)" fill-opacity="1">4000</text><text fill="none" stroke="rgb(0,0,0)" font-family="helvetica" font-size="11px" font-style="normal" font-weight="normal" text-decoration="normal" x="675.533332824707" y="373" text-anchor="start" dominant-baseline="alphabetic" transform="matrix(1, 0, 0, 1, 0.5, 0.5)" stroke-opacity="0" stroke-linejoin="bevel" stroke-miterlimit="10" stroke-dasharray="">4000</text><text fill="rgb(68,68,68)" stroke="none" font-family="helvetica" font-size="13px" font-style="italic" font-weight="normal" text-decoration="normal" x="340.03333282470703" y="394" text-anchor="start" dominant-baseline="alphabetic" transform="matrix(1, 0, 0, 1, 0.5, 0.5)" fill-opacity="1">Liczba encji</text><text fill="none" stroke="rgb(0,0,0)" font-family="helvetica" font-size="13px" font-style="italic" font-weight="normal" text-decoration="normal" x="340.03333282470703" y="394" text-anchor="start" dominant-baseline="alphabetic" transform="matrix(1, 0, 0, 1, 0.5, 0.5)" stroke-opacity="0" stroke-linejoin="bevel" stroke-miterlimit="10" stroke-dasharray="">Liczba encji</text><path fill="none" stroke="rgb(0,0,0)" paint-order="fill" d="M 53.5 354.5 L 53.5 60.5" stroke-opacity="1" stroke-linejoin="bevel" stroke-miterlimit="10" stroke-dasharray=""/><path fill="none" stroke="rgb(0,0,0)" paint-order="fill" d="M 47.5 326.5 L 55.5 326.5 M 47.5 282.5 L 55.5 282.5 M 47.5 237.5 L 55.5 237.5 M 47.5 193.5 L 55.5 193.5 M 47.5 149.5 L 55.5 149.5 M 47.5 105.5 L 55.5 105.5 M 47.5 61.5 L 55.5 61.5" stroke-opacity="1" stroke-linejoin="bevel" stroke-miterlimit="10" stroke-dasharray=""/><path fill="none" stroke="rgb(0,0,0)" paint-order="fill" d="M 49.5 334.5 L 53.5 334.5 M 49.5 343.5 L 53.5 343.5 M 49.5 352.5 L 53.5 352.5 M 49.5 326.5 L 53.5 326.5 M 49.5 317.5 L 53.5 317.5 M 49.5 308.5 L 53.5 308.5 M 49.5 299.5 L 53.5 299.5 M 49.5 290.5 L 53.5 290.5 M 49.5 282.5 L 53.5 282.5 M 49.5 273.5 L 53.5 273.5 M 49.5 264.5 L 53.5 264.5 M 49.5 255.5 L 53.5 255.5 M 49.5 246.5 L 53.5 246.5 M 49.5 237.5 L 53.5 237.5 M 49.5 229.5 L 53.5 229.5 M 49.5 220.5 L 53.5 220.5 M 49.5 211.5 L 53.5 211.5 M 49.5 202.5 L 53.5 202.5 M 49.5 193.5 L 53.5 193.5 M 49.5 185.5 L 53.5 185.5 M 49.5 176.5 L 53.5 176.5 M 49.5 167.5 L 53.5 167.5 M 49.5 158.5 L 53.5 158.5 M 49.5 149.5 L 53.5 149.5 M 49.5 140.5 L 53.5 140.5 M 49.5 132.5 L 53.5 132.5 M 49.5 123.5 L 53.5 123.5 M 49.5 114.5 L 53.5 114.5 M 49.5 105.5 L 53.5 105.5 M 49.5 96.5 L 53.5 96.5 M 49.5 87.5 L 53.5 87.5 M 49.5 79.5 L 53.5 79.5 M 49.5 70.5 L 53.5 70.5 M 49.5 61.5 L 53.5 61.5" stroke-opacity="1" stroke-linejoin="bevel" stroke-miterlimit="10" stroke-dasharray=""/><text fill="rgb(68,68,68)" stroke="none" font-family="helvetica" font-size="11px" font-style="normal" font-weight="normal" text-decoration="normal" x="35.88333320617676" y="329.6564636230469" text-anchor="start" dominant-baseline="alphabetic" transform="matrix(1, 0, 0, 1, 0.5, 0.5)" fill-opacity="1">0</text><text fill="none" stroke="rgb(0,0,0)" font-family="helvetica" font-size="11px" font-style="normal" font-weight="normal" text-decoration="normal" x="35.88333320617676" y="329.6564636230469" text-anchor="start" dominant-baseline="alphabetic" transform="matrix(1, 0, 0, 1, 0.5, 0.5)" stroke-opacity="0" stroke-linejoin="bevel" stroke-miterlimit="10" stroke-dasharray="">0</text><text fill="rgb(68,68,68)" stroke="none" font-family="helvetica" font-size="11px" font-style="normal" font-weight="normal" text-decoration="normal" x="26.716666221618652" y="285.54949951171875" text-anchor="start" dominant-baseline="alphabetic" transform="matrix(1, 0, 0, 1, 0.5, 0.5)" fill-opacity="1">0.1</text><text fill="none" stroke="rgb(0,0,0)" font-family="helvetica" font-size="11px" font-style="normal" font-weight="normal" text-decoration="normal" x="26.716666221618652" y="285.54949951171875" text-anchor="start" dominant-baseline="alphabetic" transform="matrix(1, 0, 0, 1, 0.5, 0.5)" stroke-opacity="0" stroke-linejoin="bevel" stroke-miterlimit="10" stroke-dasharray="">0.1</text><text fill="rgb(68,68,68)" stroke="none" font-family="helvetica" font-size="11px" font-style="normal" font-weight="normal" text-decoration="normal" x="26.716666221618652" y="241.44253540039062" text-anchor="start" dominant-baseline="alphabetic" transform="matrix(1, 0, 0, 1, 0.5, 0.5)" fill-opacity="1">0.2</text><text fill="none" stroke="rgb(0,0,0)" font-family="helvetica" font-size="11px" font-style="normal" font-weight="normal" text-decoration="normal" x="26.716666221618652" y="241.44253540039062" text-anchor="start" dominant-baseline="alphabetic" transform="matrix(1, 0, 0, 1, 0.5, 0.5)" stroke-opacity="0" stroke-linejoin="bevel" stroke-miterlimit="10" stroke-dasharray="">0.2</text><text fill="rgb(68,68,68)" stroke="none" font-family="helvetica" font-size="11px" font-style="normal" font-weight="normal" text-decoration="normal" x="26.716666221618652" y="197.3355712890625" text-anchor="start" dominant-baseline="alphabetic" transform="matrix(1, 0, 0, 1, 0.5, 0.5)" fill-opacity="1">0.3</text><text fill="none" stroke="rgb(0,0,0)" font-family="helvetica" font-size="11px" font-style="normal" font-weight="normal" text-decoration="normal" x="26.716666221618652" y="197.3355712890625" text-anchor="start" dominant-baseline="alphabetic" transform="matrix(1, 0, 0, 1, 0.5, 0.5)" stroke-opacity="0" stroke-linejoin="bevel" stroke-miterlimit="10" stroke-dasharray="">0.3</text><text fill="rgb(68,68,68)" stroke="none" font-family="helvetica" font-size="11px" font-style="normal" font-weight="normal" text-decoration="normal" x="26.716666221618652" y="153.22862243652344" text-anchor="start" dominant-baseline="alphabetic" transform="matrix(1, 0, 0, 1, 0.5, 0.5)" fill-opacity="1">0.4</text><text fill="none" stroke="rgb(0,0,0)" font-family="helvetica" font-size="11px" font-style="normal" font-weight="normal" text-decoration="normal" x="26.716666221618652" y="153.22862243652344" text-anchor="start" dominant-baseline="alphabetic" transform="matrix(1, 0, 0, 1, 0.5, 0.5)" stroke-opacity="0" stroke-linejoin="bevel" stroke-miterlimit="10" stroke-dasharray="">0.4</text><text fill="rgb(68,68,68)" stroke="none" font-family="helvetica" font-size="11px" font-style="normal" font-weight="normal" text-decoration="normal" x="26.716666221618652" y="109.12165832519531" text-anchor="start" dominant-baseline="alphabetic" transform="matrix(1, 0, 0, 1, 0.5, 0.5)" fill-opacity="1">0.5</text><text fill="none" stroke="rgb(0,0,0)" font-family="helvetica" font-size="11px" font-style="normal" font-weight="normal" text-decoration="normal" x="26.716666221618652" y="109.12165832519531" text-anchor="start" dominant-baseline="alphabetic" transform="matrix(1, 0, 0, 1, 0.5, 0.5)" stroke-opacity="0" stroke-linejoin="bevel" stroke-miterlimit="10" stroke-dasharray="">0.5</text><text fill="rgb(68,68,68)" stroke="none" font-family="helvetica" font-size="11px" font-style="normal" font-weight="normal" text-decoration="normal" x="26.716666221618652" y="65.01469802856445" text-anchor="start" dominant-baseline="alphabetic" transform="matrix(1, 0, 0, 1, 0.5, 0.5)" fill-opacity="1">0.6</text><text fill="none" stroke="rgb(0,0,0)" font-family="helvetica" font-size="11px" font-style="normal" font-weight="normal" text-decoration="normal" x="26.716666221618652" y="65.01469802856445" text-anchor="start" dominant-baseline="alphabetic" transform="matrix(1, 0, 0, 1, 0.5, 0.5)" stroke-opacity="0" stroke-linejoin="bevel" stroke-miterlimit="10" stroke-dasharray="">0.6</text><text fill="rgb(68,68,68)" stroke="none" font-family="helvetica" font-size="13px" font-style="italic" font-weight="normal" text-decoration="normal" x="-44.64166736602783" y="204" text-anchor="start" dominant-baseline="alphabetic" transform="matrix(6.123233995736766e-17, -1, 1, 6.123233995736766e-17, -187.78333377838135, 226.21666622161865)" fill-opacity="1">Wartość kompletności</text><text fill="none" stroke="rgb(0,0,0)" font-family="helvetica" font-size="13px" font-style="italic" font-weight="normal" text-decoration="normal" x="-44.64166736602783" y="204" text-anchor="start" dominant-baseline="alphabetic" transform="matrix(6.123233995736766e-17, -1, 1, 6.123233995736766e-17, -187.78333377838135, 226.21666622161865)" stroke-opacity="0" stroke-linejoin="bevel" stroke-miterlimit="10" stroke-dasharray="">Wartość kompletności</text><path fill="rgb(255,255,255)" stroke="rgb(229,229,229)" paint-order="fill" d="M 140.1833267211914 10.5 L 608.8166732788086 10.5 L 608.8166732788086 50.5 L 140.1833267211914 50.5 L 140.1833267211914 10.5" fill-opacity="0.9490196078431372" stroke-opacity="0.5019607843137255" stroke-linejoin="bevel" stroke-miterlimit="10" stroke-dasharray=""/><text fill="rgb(68,68,68)" stroke="none" font-family="helvetica" font-size="13px" font-style="normal" font-weight="normal" text-decoration="normal" x="174.6833267211914" y="30" text-anchor="start" dominant-baseline="central" transform="matrix(1, 0, 0, 1, 0.5, 0.5)" fill-opacity="1">strategia najmniejszej pewności</text><path fill="none" stroke="rgb(11,132,165)" paint-order="fill" d="M 150.1833267211914 30.5 L 170.1833267211914 30.5" stroke-opacity="1" stroke-linejoin="bevel" stroke-miterlimit="10" stroke-width="2" stroke-dasharray=""/><text fill="rgb(68,68,68)" stroke="none" font-family="helvetica" font-size="13px" font-style="normal" font-weight="normal" text-decoration="normal" x="412.53333282470703" y="30" text-anchor="start" dominant-baseline="central" transform="matrix(1, 0, 0, 1, 0.5, 0.5)" fill-opacity="1">strategia próbkowania losowego</text><path fill="none" stroke="rgb(246,200,95)" paint-order="fill" d="M 388.03333282470703 30.5 L 408.03333282470703 30.5" stroke-opacity="1" stroke-linejoin="bevel" stroke-miterlimit="10" stroke-width="2" stroke-dasharray=""/><path fill="rgb(255,255,255)" stroke="rgb(229,229,229)" paint-order="fill" d="M 140.1833267211914 10.5 L 608.8166732788086 10.5 L 608.8166732788086 50.5 L 140.1833267211914 50.5 L 140.1833267211914 10.5" fill-opacity="0.9490196078431372" stroke-opacity="0.5019607843137255" stroke-linejoin="bevel" stroke-miterlimit="10" stroke-dasharray=""/><text fill="rgb(68,68,68)" stroke="none" font-family="helvetica" font-size="13px" font-style="normal" font-weight="normal" text-decoration="normal" x="174.6833267211914" y="30" text-anchor="start" dominant-baseline="central" transform="matrix(1, 0, 0, 1, 0.5, 0.5)" fill-opacity="1">strategia najmniejszej pewności</text><path fill="none" stroke="rgb(11,132,165)" paint-order="fill" d="M 150.1833267211914 30.5 L 170.1833267211914 30.5" stroke-opacity="1" stroke-linejoin="bevel" stroke-miterlimit="10" stroke-width="2" stroke-dasharray=""/><text fill="rgb(68,68,68)" stroke="none" font-family="helvetica" font-size="13px" font-style="normal" font-weight="normal" text-decoration="normal" x="412.53333282470703" y="30" text-anchor="start" dominant-baseline="central" transform="matrix(1, 0, 0, 1, 0.5, 0.5)" fill-opacity="1">strategia próbkowania losowego</text><path fill="none" stroke="rgb(246,200,95)" paint-order="fill" d="M 388.03333282470703 30.5 L 408.03333282470703 30.5" stroke-opacity="1" stroke-linejoin="bevel" stroke-miterlimit="10" stroke-width="2" stroke-dasharray=""/></svg>