<svg version="1.1" xmlns="http://www.w3.org/2000/svg" width="700" height="400"><defs><clipPath id="aaZggFBDoUMA"><path fill="none" stroke="none" d="M 53.5 5.5 L 560.5 5.5 L 560.5 354.5 L 53.5 354.5 L 53.5 5.5"/></clipPath><clipPath id="LvJsHGweNGCG"><path fill="none" stroke="none" d="M 53.5 5.5 L 560.5 5.5 L 560.5 354.5 L 53.5 354.5 L 53.5 5.5"/></clipPath><clipPath id="TlXBxKfLoODq"><path fill="none" stroke="none" d="M 53.5 5.5 L 560.5 5.5 L 560.5 354.5 L 53.5 354.5 L 53.5 5.5"/></clipPath><clipPath id="xvBdMPpvNswC"><path fill="none" stroke="none" d="M 53.5 5.5 L 560.5 5.5 L 560.5 354.5 L 53.5 354.5 L 53.5 5.5"/></clipPath><clipPath id="qzZvfyaOzOph"><path fill="none" stroke="none" d="M 53.5 5.5 L 560.5 5.5 L 560.5 354.5 L 53.5 354.5 L 53.5 5.5"/></clipPath><clipPath id="GyidxiSBIxpe"><path fill="none" stroke="none" d="M 53.5 5.5 L 560.5 5.5 L 560.5 354.5 L 53.5 354.5 L 53.5 5.5"/></clipPath></defs><path fill="rgb(255,255,255)" stroke="none" paint-order="stroke" d="M 0.5 0.5 L 700.5 0.5 L 700.5 400.5 L 0.5 400.5 L 0.5 0.5" fill-opacity="1"/><rect fill="#FFFFFF" stroke="none" x="53" y="5" width="507" height="349" transform="matrix(1, 0, 0, 1, 0.5, 0.5)"/><path fill="rgb(255,255,255)" stroke="none" paint-order="stroke" d="M 53.5 5.5 L 560.5 5.5 L 560.5 354.5 L 53.5 354.5 L 53.5 5.5" fill-opacity="1"/><path fill="none" stroke="rgb(229,229,229)" paint-order="fill" d="M 53.5 5.5 L 560.5 5.5 L 560.5 354.5 L 53.5 354.5 L 53.5 5.5" stroke-opacity="1" stroke-linejoin="bevel" stroke-miterlimit="10" stroke-dasharray=""/><path fill="none" stroke="rgb(229,229,229)" paint-order="fill" d="M 146.5 354.5 L 146.5 5.5 M 250.5 354.5 L 250.5 5.5 M 353.5 354.5 L 353.5 5.5 M 457.5 354.5 L 457.5 5.5" stroke-opacity="1" stroke-linejoin="bevel" stroke-miterlimit="10" stroke-dasharray="" clip-path="url(#aaZggFBDoUMA)"/><path fill="none" stroke="rgb(229,229,229)" paint-order="fill" d="M 53.5 284.5 L 560.5 284.5 M 53.5 214.5 L 560.5 214.5 M 53.5 145.5 L 560.5 145.5 M 53.5 75.5 L 560.5 75.5" stroke-opacity="1" stroke-linejoin="bevel" stroke-miterlimit="10" stroke-dasharray="" clip-path="url(#LvJsHGweNGCG)"/><path fill="none" stroke="rgb(11,132,165)" paint-order="fill" d="M 53.5 354.5 L 63.84693908691406 354.5 L 74.19387817382812 348.1761169433594 L 84.54081726074219 328.0892028808594 L 94.88775634765625 353.70001220703125 L 105.23469543457031 301.83880615234375 L 115.58163452148438 354.5 L 125.92857360839844 352.50457763671875 L 136.2755126953125 275.3890075683594 L 146.62245178222656 320.7317810058594 L 156.96939086914062 354.0997619628906 L 167.3163299560547 270.99285888671875 L 177.66326904296875 243.02041625976562 L 188.0102081298828 314.6572570800781 L 198.35714721679688 224.7301483154297 L 208.70408630371094 285.9464416503906 L 219.051025390625 234.4539031982422 L 229.39796447753906 224.10104370117188 L 239.74490356445312 228.47645568847656 L 250.0918426513672 252.3616180419922 L 260.43878173828125 181.1678466796875 L 270.78570556640625 195.85206604003906 L 281.1326599121094 201.363037109375 L 291.4795837402344 165.36180114746094 L 301.8265380859375 218.2974853515625 L 312.1734619140625 264.8548889160156 L 322.5204162597656 190.54026794433594 L 332.8673400878906 187.79364013671875 L 343.21429443359375 211.18212890625 L 353.56121826171875 229.40472412109375 L 363.9081726074219 192.14828491210938 L 374.2550964355469 208.06643676757812 L 384.60205078125 183.41087341308594 L 394.948974609375 148.06175231933594 L 405.2959289550781 185.3767547607422 L 415.6428527832031 227.9413299560547 L 425.98980712890625 149.5984344482422 L 436.33673095703125 159.28854370117188 L 446.6836853027344 184.16940307617188 L 457.0306091308594 149.56948852539062 L 467.3775634765625 167.39755249023438 L 477.7244873046875 172.09007263183594 L 488.0714416503906 141.84507751464844 L 498.4183654785156 136.3604278564453 L 508.76531982421875 147.4867401123047 L 519.1122436523438 154.54798889160156 L 529.4591674804688 133.6547393798828 L 539.80615234375 135.68978881835938 L 550.153076171875 136.16065979003906 L 560.5 160.5722198486328" stroke-opacity="1" stroke-linejoin="bevel" stroke-miterlimit="10" stroke-width="2" stroke-dasharray="" clip-path="url(#TlXBxKfLoODq)"/><path fill="none" stroke="rgb(246,200,95)" paint-order="fill" d="M 53.5 354.5 L 63.84693908691406 354.5 L 74.19387817382812 351.29632568359375 L 84.54081726074219 340.48394775390625 L 94.88775634765625 354.09954833984375 L 105.23469543457031 321.4621276855469 L 115.58163452148438 354.5 L 125.92857360839844 353.49884033203125 L 136.2755126953125 305.84423828125 L 146.62245178222656 336.27911376953125 L 156.96939086914062 354.2997741699219 L 167.3163299560547 304.2424011230469 L 177.66326904296875 283.2182922363281 L 188.0102081298828 333.2756652832031 L 198.35714721679688 267.8006286621094 L 208.70408630371094 314.85455322265625 L 219.051025390625 276.8109436035156 L 229.39796447753906 268.8017883300781 L 239.74490356445312 271.60498046875 L 250.0918426513672 291.8281555175781 L 260.43878173828125 213.3382110595703 L 270.78570556640625 229.7570343017578 L 281.1326599121094 245.775390625 L 291.4795837402344 174.6939239501953 L 301.8265380859375 264.5969543457031 L 312.1734619140625 302.0398864746094 L 322.5204162597656 228.3554229736328 L 332.8673400878906 203.52696228027344 L 343.21429443359375 258.7903137207031 L 353.56121826171875 275.40936279296875 L 363.9081726074219 238.76734924316406 L 374.2550964355469 252.38296508789062 L 384.60205078125 228.95611572265625 L 394.948974609375 167.48565673828125 L 405.2959289550781 215.94119262695312 L 415.6428527832031 275.6095886230469 L 425.98980712890625 188.50975036621094 L 436.33673095703125 190.3118133544922 L 446.6836853027344 229.7570343017578 L 457.0306091308594 181.9021759033203 L 467.3775634765625 194.7168731689453 L 477.7244873046875 221.7478485107422 L 488.0714416503906 177.8975830078125 L 498.4183654785156 167.085205078125 L 508.76531982421875 184.304931640625 L 519.1122436523438 201.52467346191406 L 529.4591674804688 162.47991943359375 L 539.80615234375 162.68014526367188 L 550.153076171875 163.2808380126953 L 560.5 188.1092987060547" stroke-opacity="1" stroke-linejoin="bevel" stroke-miterlimit="10" stroke-width="2" stroke-dasharray="" clip-path="url(#xvBdMPpvNswC)"/><path fill="none" stroke="rgb(193,230,153)" paint-order="fill" d="M 53.5 354.5 L 63.84693908691406 354.5 L 74.19387817382812 111.71739196777344 L 84.54081726074219 126.18224334716797 L 94.88775634765625 5.5 L 105.23469543457031 224.80404663085938 L 115.58163452148438 354.5 L 125.92857360839844 63.66666793823242 L 136.2755126953125 143.01121520996094 L 146.62245178222656 124.36231994628906 L 156.96939086914062 5.5 L 167.3163299560547 107.74225616455078 L 177.66326904296875 98.85391235351562 L 188.0102081298828 29.991228103637695 L 198.35714721679688 96.62116241455078 L 208.70408630371094 101.37911987304688 L 219.051025390625 90.53898620605469 L 229.39796447753906 81.92335510253906 L 239.74490356445312 91.79817962646484 L 250.0918426513672 78.64898681640625 L 260.43878173828125 130.0063934326172 L 270.78570556640625 136.63726806640625 L 281.1326599121094 95.61065673828125 L 291.4795837402344 155.00794982910156 L 301.8265380859375 73.67383575439453 L 312.1734619140625 46.62794494628906 L 322.5204162597656 120.34664916992188 L 332.8673400878906 168.3995819091797 L 343.21429443359375 69.33419036865234 L 353.56121826171875 55.465293884277344 L 363.9081726074219 82.63746643066406 L 374.2550964355469 95.7936019897461 L 384.60205078125 86.00552368164062 L 394.948974609375 124.13533782958984 L 405.2959289550781 137.5116729736328 L 415.6428527832031 34.718605041503906 L 425.98980712890625 86.85800170898438 L 436.33673095703125 113.81034851074219 L 446.6836853027344 86.07160186767578 L 457.0306091308594 102.33068084716797 L 467.3775634765625 128.80955505371094 L 477.7244873046875 63.080604553222656 L 488.0714416503906 87.296875 L 498.4183654785156 93.58626556396484 L 508.76531982421875 90.34149932861328 L 519.1122436523438 65.93289947509766 L 529.4591674804688 94.64673614501953 L 539.80615234375 99.86024475097656 L 550.153076171875 100.07633209228516 L 560.5 122.11298370361328" stroke-opacity="1" stroke-linejoin="bevel" stroke-miterlimit="10" stroke-width="2" stroke-dasharray="" clip-path="url(#qzZvfyaOzOph)"/><path fill="none" stroke="rgb(0,0,0)" paint-order="fill" d="M 53.5 354.5 L 560.5 354.5" stroke-opacity="1" stroke-linejoin="bevel" stroke-miterlimit="10" stroke-dasharray=""/><path fill="none" stroke="rgb(0,0,0)" paint-order="fill" d="M 146.5 360.5 L 146.5 352.5 M 250.5 360.5 L 250.5 352.5 M 353.5 360.5 L 353.5 352.5 M 457.5 360.5 L 457.5 352.5 M 560.5 360.5 L 560.5 352.5" stroke-opacity="1" stroke-linejoin="bevel" stroke-miterlimit="10" stroke-dasharray=""/><path fill="none" stroke="rgb(0,0,0)" paint-order="fill" d="M 125.5 358.5 L 125.5 354.5 M 105.5 358.5 L 105.5 354.5 M 84.5 358.5 L 84.5 354.5 M 63.5 358.5 L 63.5 354.5 M 146.5 358.5 L 146.5 354.5 M 167.5 358.5 L 167.5 354.5 M 188.5 358.5 L 188.5 354.5 M 208.5 358.5 L 208.5 354.5 M 229.5 358.5 L 229.5 354.5 M 250.5 358.5 L 250.5 354.5 M 270.5 358.5 L 270.5 354.5 M 291.5 358.5 L 291.5 354.5 M 312.5 358.5 L 312.5 354.5 M 332.5 358.5 L 332.5 354.5 M 353.5 358.5 L 353.5 354.5 M 374.5 358.5 L 374.5 354.5 M 394.5 358.5 L 394.5 354.5 M 415.5 358.5 L 415.5 354.5 M 436.5 358.5 L 436.5 354.5 M 457.5 358.5 L 457.5 354.5 M 477.5 358.5 L 477.5 354.5 M 498.5 358.5 L 498.5 354.5 M 519.5 358.5 L 519.5 354.5 M 539.5 358.5 L 539.5 354.5 M 560.5 358.5 L 560.5 354.5" stroke-opacity="1" stroke-linejoin="bevel" stroke-miterlimit="10" stroke-dasharray=""/><text fill="rgb(68,68,68)" stroke="none" font-family="helvetica" font-size="11px" font-style="normal" font-weight="normal" text-decoration="normal" x="140.00578498840332" y="373" text-anchor="start" dominant-baseline="alphabetic" transform="matrix(1, 0, 0, 1, 0.5, 0.5)" fill-opacity="1">10</text><text fill="none" stroke="rgb(0,0,0)" font-family="helvetica" font-size="11px" font-style="normal" font-weight="normal" text-decoration="normal" x="140.00578498840332" y="373" text-anchor="start" dominant-baseline="alphabetic" transform="matrix(1, 0, 0, 1, 0.5, 0.5)" stroke-opacity="0" stroke-linejoin="bevel" stroke-miterlimit="10" stroke-dasharray="">10</text><text fill="rgb(68,68,68)" stroke="none" font-family="helvetica" font-size="11px" font-style="normal" font-weight="normal" text-decoration="normal" x="243.47517585754395" y="373" text-anchor="start" dominant-baseline="alphabetic" transform="matrix(1, 0, 0, 1, 0.5, 0.5)" fill-opacity="1">20</text><text fill="none" stroke="rgb(0,0,0)" font-family="helvetica" font-size="11px" font-style="normal" font-weight="normal" text-decoration="normal" x="243.47517585754395" y="373" text-anchor="start" dominant-baseline="alphabetic" transform="matrix(1, 0, 0, 1, 0.5, 0.5)" stroke-opacity="0" stroke-linejoin="bevel" stroke-miterlimit="10" stroke-dasharray="">20</text><text fill="rgb(68,68,68)" stroke="none" font-family="helvetica" font-size="11px" font-style="normal" font-weight="normal" text-decoration="normal" x="346.9445514678955" y="373" text-anchor="start" dominant-baseline="alphabetic" transform="matrix(1, 0, 0, 1, 0.5, 0.5)" fill-opacity="1">30</text><text fill="none" stroke="rgb(0,0,0)" font-family="helvetica" font-size="11px" font-style="normal" font-weight="normal" text-decoration="normal" x="346.9445514678955" y="373" text-anchor="start" dominant-baseline="alphabetic" transform="matrix(1, 0, 0, 1, 0.5, 0.5)" stroke-opacity="0" stroke-linejoin="bevel" stroke-miterlimit="10" stroke-dasharray="">30</text><text fill="rgb(68,68,68)" stroke="none" font-family="helvetica" font-size="11px" font-style="normal" font-weight="normal" text-decoration="normal" x="450.41394233703613" y="373" text-anchor="start" dominant-baseline="alphabetic" transform="matrix(1, 0, 0, 1, 0.5, 0.5)" fill-opacity="1">40</text><text fill="none" stroke="rgb(0,0,0)" font-family="helvetica" font-size="11px" font-style="normal" font-weight="normal" text-decoration="normal" x="450.41394233703613" y="373" text-anchor="start" dominant-baseline="alphabetic" transform="matrix(1, 0, 0, 1, 0.5, 0.5)" stroke-opacity="0" stroke-linejoin="bevel" stroke-miterlimit="10" stroke-dasharray="">40</text><text fill="rgb(68,68,68)" stroke="none" font-family="helvetica" font-size="11px" font-style="normal" font-weight="normal" text-decoration="normal" x="553.8833332061768" y="373" text-anchor="start" dominant-baseline="alphabetic" transform="matrix(1, 0, 0, 1, 0.5, 0.5)" fill-opacity="1">50</text><text fill="none" stroke="rgb(0,0,0)" font-family="helvetica" font-size="11px" font-style="normal" font-weight="normal" text-decoration="normal" x="553.8833332061768" y="373" text-anchor="start" dominant-baseline="alphabetic" transform="matrix(1, 0, 0, 1, 0.5, 0.5)" stroke-opacity="0" stroke-linejoin="bevel" stroke-miterlimit="10" stroke-dasharray="">50</text><text fill="rgb(68,68,68)" stroke="none" font-family="helvetica" font-size="13px" font-style="italic" font-weight="normal" text-decoration="normal" x="285.17499923706055" y="394" text-anchor="start" dominant-baseline="alphabetic" transform="matrix(1, 0, 0, 1, 0.5, 0.5)" fill-opacity="1">Iteracja</text><text fill="none" stroke="rgb(0,0,0)" font-family="helvetica" font-size="13px" font-style="italic" font-weight="normal" text-decoration="normal" x="285.17499923706055" y="394" text-anchor="start" dominant-baseline="alphabetic" transform="matrix(1, 0, 0, 1, 0.5, 0.5)" stroke-opacity="0" stroke-linejoin="bevel" stroke-miterlimit="10" stroke-dasharray="">Iteracja</text><path fill="none" stroke="rgb(0,0,0)" paint-order="fill" d="M 53.5 354.5 L 53.5 5.5" stroke-opacity="1" stroke-linejoin="bevel" stroke-miterlimit="10" stroke-dasharray=""/><path fill="none" stroke="rgb(0,0,0)" paint-order="fill" d="M 47.5 354.5 L 55.5 354.5 M 47.5 284.5 L 55.5 284.5 M 47.5 214.5 L 55.5 214.5 M 47.5 145.5 L 55.5 145.5 M 47.5 75.5 L 55.5 75.5 M 47.5 5.5 L 55.5 5.5" stroke-opacity="1" stroke-linejoin="bevel" stroke-miterlimit="10" stroke-dasharray=""/><path fill="none" stroke="rgb(0,0,0)" paint-order="fill" d="M 49.5 354.5 L 53.5 354.5 M 49.5 340.5 L 53.5 340.5 M 49.5 326.5 L 53.5 326.5 M 49.5 312.5 L 53.5 312.5 M 49.5 298.5 L 53.5 298.5 M 49.5 284.5 L 53.5 284.5 M 49.5 270.5 L 53.5 270.5 M 49.5 256.5 L 53.5 256.5 M 49.5 242.5 L 53.5 242.5 M 49.5 228.5 L 53.5 228.5 M 49.5 214.5 L 53.5 214.5 M 49.5 200.5 L 53.5 200.5 M 49.5 186.5 L 53.5 186.5 M 49.5 173.5 L 53.5 173.5 M 49.5 159.5 L 53.5 159.5 M 49.5 145.5 L 53.5 145.5 M 49.5 131.5 L 53.5 131.5 M 49.5 117.5 L 53.5 117.5 M 49.5 103.5 L 53.5 103.5 M 49.5 89.5 L 53.5 89.5 M 49.5 75.5 L 53.5 75.5 M 49.5 61.5 L 53.5 61.5 M 49.5 47.5 L 53.5 47.5 M 49.5 33.5 L 53.5 33.5 M 49.5 19.5 L 53.5 19.5 M 49.5 5.5 L 53.5 5.5" stroke-opacity="1" stroke-linejoin="bevel" stroke-miterlimit="10" stroke-dasharray=""/><text fill="rgb(68,68,68)" stroke="none" font-family="helvetica" font-size="11px" font-style="normal" font-weight="normal" text-decoration="normal" x="35.88333320617676" y="358" text-anchor="start" dominant-baseline="alphabetic" transform="matrix(1, 0, 0, 1, 0.5, 0.5)" fill-opacity="1">0</text><text fill="none" stroke="rgb(0,0,0)" font-family="helvetica" font-size="11px" font-style="normal" font-weight="normal" text-decoration="normal" x="35.88333320617676" y="358" text-anchor="start" dominant-baseline="alphabetic" transform="matrix(1, 0, 0, 1, 0.5, 0.5)" stroke-opacity="0" stroke-linejoin="bevel" stroke-miterlimit="10" stroke-dasharray="">0</text><text fill="rgb(68,68,68)" stroke="none" font-family="helvetica" font-size="11px" font-style="normal" font-weight="normal" text-decoration="normal" x="26.716666221618652" y="288.20001220703125" text-anchor="start" dominant-baseline="alphabetic" transform="matrix(1, 0, 0, 1, 0.5, 0.5)" fill-opacity="1">0.2</text><text fill="none" stroke="rgb(0,0,0)" font-family="helvetica" font-size="11px" font-style="normal" font-weight="normal" text-decoration="normal" x="26.716666221618652" y="288.20001220703125" text-anchor="start" dominant-baseline="alphabetic" transform="matrix(1, 0, 0, 1, 0.5, 0.5)" stroke-opacity="0" stroke-linejoin="bevel" stroke-miterlimit="10" stroke-dasharray="">0.2</text><text fill="rgb(68,68,68)" stroke="none" font-family="helvetica" font-size="11px" font-style="normal" font-weight="normal" text-decoration="normal" x="26.716666221618652" y="218.39999389648438" text-anchor="start" dominant-baseline="alphabetic" transform="matrix(1, 0, 0, 1, 0.5, 0.5)" fill-opacity="1">0.4</text><text fill="none" stroke="rgb(0,0,0)" font-family="helvetica" font-size="11px" font-style="normal" font-weight="normal" text-decoration="normal" x="26.716666221618652" y="218.39999389648438" text-anchor="start" dominant-baseline="alphabetic" transform="matrix(1, 0, 0, 1, 0.5, 0.5)" stroke-opacity="0" stroke-linejoin="bevel" stroke-miterlimit="10" stroke-dasharray="">0.4</text><text fill="rgb(68,68,68)" stroke="none" font-family="helvetica" font-size="11px" font-style="normal" font-weight="normal" text-decoration="normal" x="26.716666221618652" y="148.60000610351562" text-anchor="start" dominant-baseline="alphabetic" transform="matrix(1, 0, 0, 1, 0.5, 0.5)" fill-opacity="1">0.6</text><text fill="none" stroke="rgb(0,0,0)" font-family="helvetica" font-size="11px" font-style="normal" font-weight="normal" text-decoration="normal" x="26.716666221618652" y="148.60000610351562" text-anchor="start" dominant-baseline="alphabetic" transform="matrix(1, 0, 0, 1, 0.5, 0.5)" stroke-opacity="0" stroke-linejoin="bevel" stroke-miterlimit="10" stroke-dasharray="">0.6</text><text fill="rgb(68,68,68)" stroke="none" font-family="helvetica" font-size="11px" font-style="normal" font-weight="normal" text-decoration="normal" x="26.716666221618652" y="78.80000305175781" text-anchor="start" dominant-baseline="alphabetic" transform="matrix(1, 0, 0, 1, 0.5, 0.5)" fill-opacity="1">0.8</text><text fill="none" stroke="rgb(0,0,0)" font-family="helvetica" font-size="11px" font-style="normal" font-weight="normal" text-decoration="normal" x="26.716666221618652" y="78.80000305175781" text-anchor="start" dominant-baseline="alphabetic" transform="matrix(1, 0, 0, 1, 0.5, 0.5)" stroke-opacity="0" stroke-linejoin="bevel" stroke-miterlimit="10" stroke-dasharray="">0.8</text><text fill="rgb(68,68,68)" stroke="none" font-family="helvetica" font-size="11px" font-style="normal" font-weight="normal" text-decoration="normal" x="35.88333320617676" y="9" text-anchor="start" dominant-baseline="alphabetic" transform="matrix(1, 0, 0, 1, 0.5, 0.5)" fill-opacity="1">1</text><text fill="none" stroke="rgb(0,0,0)" font-family="helvetica" font-size="11px" font-style="normal" font-weight="normal" text-decoration="normal" x="35.88333320617676" y="9" text-anchor="start" dominant-baseline="alphabetic" transform="matrix(1, 0, 0, 1, 0.5, 0.5)" stroke-opacity="0" stroke-linejoin="bevel" stroke-miterlimit="10" stroke-dasharray="">1</text><text fill="rgb(68,68,68)" stroke="none" font-family="helvetica" font-size="13px" font-style="italic" font-weight="normal" text-decoration="normal" x="-27.649998664855957" y="176.5" text-anchor="start" dominant-baseline="alphabetic" transform="matrix(6.123233995736766e-17, -1, 1, 6.123233995736766e-17, -160.28333377838135, 198.71666622161865)" fill-opacity="1">Wartość metryki</text><text fill="none" stroke="rgb(0,0,0)" font-family="helvetica" font-size="13px" font-style="italic" font-weight="normal" text-decoration="normal" x="-27.649998664855957" y="176.5" text-anchor="start" dominant-baseline="alphabetic" transform="matrix(6.123233995736766e-17, -1, 1, 6.123233995736766e-17, -160.28333377838135, 198.71666622161865)" stroke-opacity="0" stroke-linejoin="bevel" stroke-miterlimit="10" stroke-dasharray="">Wartość metryki</text><path fill="rgb(255,255,255)" stroke="rgb(229,229,229)" paint-order="fill" d="M 570.3333358764648 15.5 L 690.5 15.5 L 690.5 101.5 L 570.3333358764648 101.5 L 570.3333358764648 15.5" fill-opacity="0.9490196078431372" stroke-opacity="0.5019607843137255" stroke-linejoin="bevel" stroke-miterlimit="10" stroke-dasharray=""/><text fill="rgb(68,68,68)" stroke="none" font-family="helvetica" font-size="13px" font-style="normal" font-weight="normal" text-decoration="normal" x="604.8333358764648" y="35" text-anchor="start" dominant-baseline="central" transform="matrix(1, 0, 0, 1, 0.5, 0.5)" fill-opacity="1">F1</text><path fill="none" stroke="rgb(11,132,165)" paint-order="fill" d="M 580.3333358764648 35.5 L 600.3333358764648 35.5" stroke-opacity="1" stroke-linejoin="bevel" stroke-miterlimit="10" stroke-width="2" stroke-dasharray=""/><text fill="rgb(68,68,68)" stroke="none" font-family="helvetica" font-size="13px" font-style="normal" font-weight="normal" text-decoration="normal" x="604.8333358764648" y="58" text-anchor="start" dominant-baseline="central" transform="matrix(1, 0, 0, 1, 0.5, 0.5)" fill-opacity="1">Kompletność</text><path fill="none" stroke="rgb(246,200,95)" paint-order="fill" d="M 580.3333358764648 58.5 L 600.3333358764648 58.5" stroke-opacity="1" stroke-linejoin="bevel" stroke-miterlimit="10" stroke-width="2" stroke-dasharray=""/><text fill="rgb(68,68,68)" stroke="none" font-family="helvetica" font-size="13px" font-style="normal" font-weight="normal" text-decoration="normal" x="604.8333358764648" y="81" text-anchor="start" dominant-baseline="central" transform="matrix(1, 0, 0, 1, 0.5, 0.5)" fill-opacity="1">Dokładność</text><path fill="none" stroke="rgb(193,230,153)" paint-order="fill" d="M 580.3333358764648 81.5 L 600.3333358764648 81.5" stroke-opacity="1" stroke-linejoin="bevel" stroke-miterlimit="10" stroke-width="2" stroke-dasharray=""/><path fill="rgb(255,255,255)" stroke="rgb(229,229,229)" paint-order="fill" d="M 570.3333358764648 15.5 L 690.5 15.5 L 690.5 101.5 L 570.3333358764648 101.5 L 570.3333358764648 15.5" fill-opacity="0.9490196078431372" stroke-opacity="0.5019607843137255" stroke-linejoin="bevel" stroke-miterlimit="10" stroke-dasharray=""/><text fill="rgb(68,68,68)" stroke="none" font-family="helvetica" font-size="13px" font-style="normal" font-weight="normal" text-decoration="normal" x="604.8333358764648" y="35" text-anchor="start" dominant-baseline="central" transform="matrix(1, 0, 0, 1, 0.5, 0.5)" fill-opacity="1">F1</text><path fill="none" stroke="rgb(11,132,165)" paint-order="fill" d="M 580.3333358764648 35.5 L 600.3333358764648 35.5" stroke-opacity="1" stroke-linejoin="bevel" stroke-miterlimit="10" stroke-width="2" stroke-dasharray=""/><text fill="rgb(68,68,68)" stroke="none" font-family="helvetica" font-size="13px" font-style="normal" font-weight="normal" text-decoration="normal" x="604.8333358764648" y="58" text-anchor="start" dominant-baseline="central" transform="matrix(1, 0, 0, 1, 0.5, 0.5)" fill-opacity="1">Kompletność</text><path fill="none" stroke="rgb(246,200,95)" paint-order="fill" d="M 580.3333358764648 58.5 L 600.3333358764648 58.5" stroke-opacity="1" stroke-linejoin="bevel" stroke-miterlimit="10" stroke-width="2" stroke-dasharray=""/><text fill="rgb(68,68,68)" stroke="none" font-family="helvetica" font-size="13px" font-style="normal" font-weight="normal" text-decoration="normal" x="604.8333358764648" y="81" text-anchor="start" dominant-baseline="central" transform="matrix(1, 0, 0, 1, 0.5, 0.5)" fill-opacity="1">Dokładność</text><path fill="none" stroke="rgb(193,230,153)" paint-order="fill" d="M 580.3333358764648 81.5 L 600.3333358764648 81.5" stroke-opacity="1" stroke-linejoin="bevel" stroke-miterlimit="10" stroke-width="2" stroke-dasharray=""/></svg>