<svg version="1.1" xmlns="http://www.w3.org/2000/svg" width="700" height="400"><defs><clipPath id="vPicTXeHzTSg"><path fill="none" stroke="none" d="M 53.5 60.5 L 695.5 60.5 L 695.5 354.5 L 53.5 354.5 L 53.5 60.5"/></clipPath><clipPath id="vBXdIODOdpzt"><path fill="none" stroke="none" d="M 53.5 60.5 L 695.5 60.5 L 695.5 354.5 L 53.5 354.5 L 53.5 60.5"/></clipPath><clipPath id="wGQPTnwPvMhK"><path fill="none" stroke="none" d="M 53.5 60.5 L 695.5 60.5 L 695.5 354.5 L 53.5 354.5 L 53.5 60.5"/></clipPath><clipPath id="euoTzrCnlPTv"><path fill="none" stroke="none" d="M 53.5 60.5 L 695.5 60.5 L 695.5 354.5 L 53.5 354.5 L 53.5 60.5"/></clipPath><clipPath id="zrTvemifgPKP"><path fill="none" stroke="none" d="M 53.5 60.5 L 695.5 60.5 L 695.5 354.5 L 53.5 354.5 L 53.5 60.5"/></clipPath><clipPath id="NaXTIwhEdKeO"><path fill="none" stroke="none" d="M 53.5 60.5 L 695.5 60.5 L 695.5 354.5 L 53.5 354.5 L 53.5 60.5"/></clipPath><clipPath id="rwdiWfEXgrMo"><path fill="none" stroke="none" d="M 53.5 60.5 L 695.5 60.5 L 695.5 354.5 L 53.5 354.5 L 53.5 60.5"/></clipPath></defs><path fill="rgb(255,255,255)" stroke="none" paint-order="stroke" d="M 0.5 0.5 L 700.5 0.5 L 700.5 400.5 L 0.5 400.5 L 0.5 0.5" fill-opacity="1"/><rect fill="#FFFFFF" stroke="none" x="53" y="60" width="642" height="294" transform="matrix(1, 0, 0, 1, 0.5, 0.5)"/><path fill="rgb(255,255,255)" stroke="none" paint-order="stroke" d="M 53.5 60.5 L 695.5 60.5 L 695.5 354.5 L 53.5 354.5 L 53.5 60.5" fill-opacity="1"/><path fill="none" stroke="rgb(229,229,229)" paint-order="fill" d="M 53.5 60.5 L 695.5 60.5 L 695.5 354.5 L 53.5 354.5 L 53.5 60.5" stroke-opacity="1" stroke-linejoin="bevel" stroke-miterlimit="10" stroke-dasharray=""/><path fill="none" stroke="rgb(229,229,229)" paint-order="fill" d="M 67.5 354.5 L 67.5 60.5 M 223.5 354.5 L 223.5 60.5 M 379.5 354.5 L 379.5 60.5 M 534.5 354.5 L 534.5 60.5 M 690.5 354.5 L 690.5 60.5" stroke-opacity="1" stroke-linejoin="bevel" stroke-miterlimit="10" stroke-dasharray="" clip-path="url(#vPicTXeHzTSg)"/><path fill="none" stroke="rgb(229,229,229)" paint-order="fill" d="M 53.5 326.5 L 695.5 326.5 M 53.5 286.5 L 695.5 286.5 M 53.5 247.5 L 695.5 247.5 M 53.5 208.5 L 695.5 208.5 M 53.5 169.5 L 695.5 169.5 M 53.5 130.5 L 695.5 130.5 M 53.5 90.5 L 695.5 90.5" stroke-opacity="1" stroke-linejoin="bevel" stroke-miterlimit="10" stroke-dasharray="" clip-path="url(#vBXdIODOdpzt)"/><path fill="none" stroke="rgb(11,132,165)" paint-order="fill" d="M 82.68181610107422 326.20745849609375 L 96.54454803466797 326.20745849609375 L 107.60357666015625 319.1029968261719 L 119.1298828125 296.5367736816406 L 134.0829315185547 325.3087158203125 L 145.2977294921875 267.04632568359375 L 155.5779571533203 326.20745849609375 L 166.32545471191406 323.9657287597656 L 179.4093780517578 237.33181762695312 L 191.40296936035156 288.271240234375 L 202.61776733398438 325.7578125 L 215.07864379882812 232.39306640625 L 226.91647338867188 200.96800231933594 L 240.00039672851562 281.4469299316406 L 254.17465209960938 180.420166015625 L 265.7009582519531 249.19235229492188 L 276.4484558105469 191.34413146972656 L 288.5978088378906 179.7134246826172 L 298.7222900390625 184.62889099121094 L 309.00250244140625 211.46218872070312 L 322.2421875 131.4810028076172 L 333.30120849609375 147.97769165039062 L 344.5160217285156 154.1688690185547 L 356.3538513183594 113.72402954101562 L 368.6589660644531 173.1935272216797 L 380.1852722167969 225.4975128173828 L 394.3595275878906 142.01026916503906 L 405.2627868652344 138.9246063232422 L 417.1006164550781 165.19993591308594 L 431.4306335449219 185.67173767089844 L 442.1781311035156 143.81675720214844 L 453.0814208984375 161.69967651367188 L 463.51739501953125 134.00088500976562 L 478.314697265625 94.28864288330078 L 491.86590576171875 136.20941162109375 L 502.9249267578125 184.0277099609375 L 513.6724243164062 96.01500701904297 L 525.19873046875 106.90115356445312 L 535.6347045898438 134.85305786132812 L 548.5628662109375 95.98247528076172 L 560.4006958007812 116.01104736328125 L 571.1482543945312 121.28276062011719 L 584.076416015625 87.30464935302734 L 598.7178955078125 81.1430435180664 L 609.9327392578125 93.64266204833984 L 620.9917602539062 101.57547760009766 L 631.58349609375 78.10337829589844 L 642.9540405273438 80.38961791992188 L 654.6361083984375 80.91860961914062 L 666.3181762695312 108.34326934814453" stroke-opacity="1" stroke-linejoin="bevel" stroke-miterlimit="10" stroke-width="2" stroke-dasharray="" clip-path="url(#wGQPTnwPvMhK)"/><path fill="none" stroke="rgb(246,200,95)" paint-order="fill" d="M 82.68181610107422 326.20745849609375 L 97.47911071777344 326.20745849609375 L 110.71879577636719 326.20745849609375 L 121.93358612060547 260.343505859375 L 134.0829315185547 307.95111083984375 L 146.0765380859375 295.01287841796875 L 156.66827392578125 293.1769104003906 L 168.81764221191406 260.236572265625 L 179.4093780517578 192.2328338623047 L 189.53384399414062 194.0910186767578 L 201.68319702148438 181.8011016845703 L 213.98831176757812 259.38531494140625 L 226.44918823242188 214.9654541015625 L 238.4427947998047 249.9092559814453 L 251.21519470214844 186.80233764648438 L 262.89727783203125 171.6025390625 L 273.489013671875 159.7026824951172 L 284.85955810546875 170.57037353515625 L 296.0743408203125 215.3057098388672 L 309.62554931640625 191.64236450195312 L 325.20166015625 178.18896484375 L 337.66253662109375 184.64834594726562 L 348.0985107421875 174.72320556640625 L 360.24786376953125 255.7672119140625 L 372.085693359375 161.9987335205078 L 381.5871276855469 133.01437377929688 L 392.0231018066406 164.66920471191406 L 402.1475830078125 149.1607208251953 L 412.89508056640625 144.4249267578125 L 423.17529296875 138.0707550048828 L 435.94769287109375 189.72499084472656 L 445.6048889160156 121.77208709716797 L 457.1311950683594 142.63568115234375 L 473.797607421875 172.35235595703125 L 485.6354675292969 119.26697540283203 L 495.9156799316406 127.78270721435547 L 506.6631774902344 186.97511291503906 L 517.2549438476562 110.7774887084961 L 528.158203125 99.03060150146484 L 541.0863647460938 122.5465316772461 L 553.7030029296875 113.36963653564453 L 566.0081176757812 104.89764404296875 L 576.755615234375 77.38463592529297 L 589.8395385742188 82.39276123046875 L 603.8580322265625 100.04350280761719 L 616.0073852539062 122.76836395263672 L 626.443359375 73.86363983154297 L 638.4369506835938 98.24275207519531 L 649.0286865234375 133.47865295410156 L 661.3338012695312 136.47250366210938" stroke-opacity="1" stroke-linejoin="bevel" stroke-miterlimit="10" stroke-width="2" stroke-dasharray="" clip-path="url(#euoTzrCnlPTv)"/><path fill="none" stroke="rgb(11,132,165)" paint-order="fill" d="M 82.68181610107422 341.1363525390625 L 96.54454803466797 330.3865661621094 L 107.60357666015625 321.979248046875 L 119.1298828125 313.3757629394531 L 134.0829315185547 302.4563903808594 L 145.2977294921875 294.4461669921875 L 155.5779571533203 287.2384338378906 L 166.32545471191406 279.8411865234375 L 179.4093780517578 271.0263366699219 L 191.40296936035156 263.1297912597656 L 202.61776733398438 255.90504455566406 L 215.07864379882812 248.0577850341797 L 226.91647338867188 240.7786407470703 L 240.00039672851562 232.93247985839844 L 254.17465209960938 224.66851806640625 L 265.7009582519531 218.12936401367188 L 276.4484558105469 212.17828369140625 L 288.5978088378906 205.62095642089844 L 298.7222900390625 200.29428100585938 L 309.00250244140625 195.01382446289062 L 322.2421875 188.4034881591797 L 333.30120849609375 183.04608154296875 L 344.5160217285156 177.76583862304688 L 356.3538513183594 172.35897827148438 L 368.6589660644531 166.92018127441406 L 380.1852722167969 161.99343872070312 L 394.3595275878906 156.15744018554688 L 405.2627868652344 151.83526611328125 L 417.1006164550781 147.30709838867188 L 431.4306335449219 142.05471801757812 L 442.1781311035156 138.2801055908203 L 453.0814208984375 134.5950164794922 L 463.51739501953125 131.20391845703125 L 478.314697265625 126.6237564086914 L 491.86590576171875 122.66399383544922 L 502.9249267578125 119.59874725341797 L 513.6724243164062 116.7630386352539 L 525.19873046875 113.87869262695312 L 535.6347045898438 111.40721893310547 L 548.5628662109375 108.53009033203125 L 560.4006958007812 106.07472229003906 L 571.1482543945312 103.99381256103516 L 584.076416015625 101.67769622802734 L 598.7178955078125 99.30123901367188 L 609.9327392578125 97.65814208984375 L 620.9917602539062 96.1883544921875 L 631.58349609375 94.9207763671875 L 642.9540405273438 93.71256256103516 L 654.6361083984375 92.63578033447266 L 666.3181762695312 91.72576141357422" stroke-opacity="0.6" stroke-linejoin="bevel" stroke-miterlimit="10" stroke-width="2" stroke-dasharray="6" clip-path="url(#zrTvemifgPKP)"/><path fill="none" stroke="rgb(246,200,95)" paint-order="fill" d="M 82.68181610107422 314.1307067871094 L 97.47911071777344 303.8954772949219 L 110.71879577636719 294.9595031738281 L 121.93358612060547 287.5541687011719 L 134.0829315185547 279.7013854980469 L 146.0765380859375 272.1224060058594 L 156.66827392578125 265.572265625 L 168.81764221191406 258.2240295410156 L 179.4093780517578 251.9618682861328 L 189.53384399414062 246.10134887695312 L 201.68319702148438 239.23049926757812 L 213.98831176757812 232.45144653320312 L 226.44918823242188 225.7710723876953 L 238.4427947998047 219.5165252685547 L 251.21519470214844 213.04493713378906 L 262.89727783203125 207.29656982421875 L 273.489013671875 202.2257537841797 L 284.85955810546875 196.93136596679688 L 296.0743408203125 191.86090087890625 L 309.62554931640625 185.93472290039062 L 325.20166015625 179.3942413330078 L 337.66253662109375 174.3706817626953 L 348.0985107421875 170.30630493164062 L 360.24786376953125 165.73866271972656 L 372.085693359375 161.45790100097656 L 381.5871276855469 158.14321899414062 L 392.0231018066406 154.6268768310547 L 402.1475830078125 151.33993530273438 L 412.89508056640625 147.98483276367188 L 423.17529296875 144.90481567382812 L 435.94769287109375 141.25413513183594 L 445.6048889160156 138.62335205078125 L 457.1311950683594 135.6293487548828 L 473.797607421875 131.5810546875 L 485.6354675292969 128.9073486328125 L 495.9156799316406 126.72135925292969 L 506.6631774902344 124.57111358642578 L 517.2549438476562 122.5871353149414 L 528.158203125 120.68490600585938 L 541.0863647460938 118.61357879638672 L 553.7030029296875 116.78482055664062 L 566.0081176757812 115.18453979492188 L 576.755615234375 113.9349365234375 L 589.8395385742188 112.60006713867188 L 603.8580322265625 111.39697265625 L 616.0073852539062 110.5443344116211 L 626.443359375 109.95284271240234 L 638.4369506835938 109.43387603759766 L 649.0286865234375 109.11856842041016 L 661.3338012695312 108.92068481445312" stroke-opacity="0.6" stroke-linejoin="bevel" stroke-miterlimit="10" stroke-width="2" stroke-dasharray="6" clip-path="url(#NaXTIwhEdKeO)"/><path fill="none" stroke="rgb(0,0,0)" paint-order="fill" d="M 53.5 354.5 L 695.5 354.5" stroke-opacity="1" stroke-linejoin="bevel" stroke-miterlimit="10" stroke-dasharray=""/><path fill="none" stroke="rgb(0,0,0)" paint-order="fill" d="M 67.5 360.5 L 67.5 352.5 M 223.5 360.5 L 223.5 352.5 M 379.5 360.5 L 379.5 352.5 M 534.5 360.5 L 534.5 352.5 M 690.5 360.5 L 690.5 352.5" stroke-opacity="1" stroke-linejoin="bevel" stroke-miterlimit="10" stroke-dasharray=""/><path fill="none" stroke="rgb(0,0,0)" paint-order="fill" d="M 67.5 358.5 L 67.5 354.5 M 98.5 358.5 L 98.5 354.5 M 129.5 358.5 L 129.5 354.5 M 161.5 358.5 L 161.5 354.5 M 192.5 358.5 L 192.5 354.5 M 223.5 358.5 L 223.5 354.5 M 254.5 358.5 L 254.5 354.5 M 285.5 358.5 L 285.5 354.5 M 316.5 358.5 L 316.5 354.5 M 347.5 358.5 L 347.5 354.5 M 379.5 358.5 L 379.5 354.5 M 410.5 358.5 L 410.5 354.5 M 441.5 358.5 L 441.5 354.5 M 472.5 358.5 L 472.5 354.5 M 503.5 358.5 L 503.5 354.5 M 534.5 358.5 L 534.5 354.5 M 566.5 358.5 L 566.5 354.5 M 597.5 358.5 L 597.5 354.5 M 628.5 358.5 L 628.5 354.5 M 659.5 358.5 L 659.5 354.5 M 690.5 358.5 L 690.5 354.5" stroke-opacity="1" stroke-linejoin="bevel" stroke-miterlimit="10" stroke-dasharray=""/><text fill="rgb(68,68,68)" stroke="none" font-family="helvetica" font-size="11px" font-style="normal" font-weight="normal" text-decoration="normal" x="64.01467227935791" y="373" text-anchor="start" dominant-baseline="alphabetic" transform="matrix(1, 0, 0, 1, 0.5, 0.5)" fill-opacity="1">0</text><text fill="none" stroke="rgb(0,0,0)" font-family="helvetica" font-size="11px" font-style="normal" font-weight="normal" text-decoration="normal" x="64.01467227935791" y="373" text-anchor="start" dominant-baseline="alphabetic" transform="matrix(1, 0, 0, 1, 0.5, 0.5)" stroke-opacity="0" stroke-linejoin="bevel" stroke-miterlimit="10" stroke-dasharray="">0</text><text fill="rgb(68,68,68)" stroke="none" font-family="helvetica" font-size="11px" font-style="normal" font-weight="normal" text-decoration="normal" x="210.60063552856445" y="373" text-anchor="start" dominant-baseline="alphabetic" transform="matrix(1, 0, 0, 1, 0.5, 0.5)" fill-opacity="1">1000</text><text fill="none" stroke="rgb(0,0,0)" font-family="helvetica" font-size="11px" font-style="normal" font-weight="normal" text-decoration="normal" x="210.60063552856445" y="373" text-anchor="start" dominant-baseline="alphabetic" transform="matrix(1, 0, 0, 1, 0.5, 0.5)" stroke-opacity="0" stroke-linejoin="bevel" stroke-miterlimit="10" stroke-dasharray="">1000</text><text fill="rgb(68,68,68)" stroke="none" font-family="helvetica" font-size="11px" font-style="normal" font-weight="normal" text-decoration="normal" x="366.3616065979004" y="373" text-anchor="start" dominant-baseline="alphabetic" transform="matrix(1, 0, 0, 1, 0.5, 0.5)" fill-opacity="1">2000</text><text fill="none" stroke="rgb(0,0,0)" font-family="helvetica" font-size="11px" font-style="normal" font-weight="normal" text-decoration="normal" x="366.3616065979004" y="373" text-anchor="start" dominant-baseline="alphabetic" transform="matrix(1, 0, 0, 1, 0.5, 0.5)" stroke-opacity="0" stroke-linejoin="bevel" stroke-miterlimit="10" stroke-dasharray="">2000</text><text fill="rgb(68,68,68)" stroke="none" font-family="helvetica" font-size="11px" font-style="normal" font-weight="normal" text-decoration="normal" x="522.1225624084473" y="373" text-anchor="start" dominant-baseline="alphabetic" transform="matrix(1, 0, 0, 1, 0.5, 0.5)" fill-opacity="1">3000</text><text fill="none" stroke="rgb(0,0,0)" font-family="helvetica" font-size="11px" font-style="normal" font-weight="normal" text-decoration="normal" x="522.1225624084473" y="373" text-anchor="start" dominant-baseline="alphabetic" transform="matrix(1, 0, 0, 1, 0.5, 0.5)" stroke-opacity="0" stroke-linejoin="bevel" stroke-miterlimit="10" stroke-dasharray="">3000</text><text fill="rgb(68,68,68)" stroke="none" font-family="helvetica" font-size="11px" font-style="normal" font-weight="normal" text-decoration="normal" x="675.533332824707" y="373" text-anchor="start" dominant-baseline="alphabetic" transform="matrix(1, 0, 0, 1, 0.5, 0.5)" fill-opacity="1">4000</text><text fill="none" stroke="rgb(0,0,0)" font-family="helvetica" font-size="11px" font-style="normal" font-weight="normal" text-decoration="normal" x="675.533332824707" y="373" text-anchor="start" dominant-baseline="alphabetic" transform="matrix(1, 0, 0, 1, 0.5, 0.5)" stroke-opacity="0" stroke-linejoin="bevel" stroke-miterlimit="10" stroke-dasharray="">4000</text><text fill="rgb(68,68,68)" stroke="none" font-family="helvetica" font-size="13px" font-style="italic" font-weight="normal" text-decoration="normal" x="340.03333282470703" y="394" text-anchor="start" dominant-baseline="alphabetic" transform="matrix(1, 0, 0, 1, 0.5, 0.5)" fill-opacity="1">Liczba encji</text><text fill="none" stroke="rgb(0,0,0)" font-family="helvetica" font-size="13px" font-style="italic" font-weight="normal" text-decoration="normal" x="340.03333282470703" y="394" text-anchor="start" dominant-baseline="alphabetic" transform="matrix(1, 0, 0, 1, 0.5, 0.5)" stroke-opacity="0" stroke-linejoin="bevel" stroke-miterlimit="10" stroke-dasharray="">Liczba encji</text><path fill="none" stroke="rgb(0,0,0)" paint-order="fill" d="M 53.5 354.5 L 53.5 60.5" stroke-opacity="1" stroke-linejoin="bevel" stroke-miterlimit="10" stroke-dasharray=""/><path fill="none" stroke="rgb(0,0,0)" paint-order="fill" d="M 47.5 326.5 L 55.5 326.5 M 47.5 286.5 L 55.5 286.5 M 47.5 247.5 L 55.5 247.5 M 47.5 208.5 L 55.5 208.5 M 47.5 169.5 L 55.5 169.5 M 47.5 130.5 L 55.5 130.5 M 47.5 90.5 L 55.5 90.5" stroke-opacity="1" stroke-linejoin="bevel" stroke-miterlimit="10" stroke-dasharray=""/><path fill="none" stroke="rgb(0,0,0)" paint-order="fill" d="M 49.5 334.5 L 53.5 334.5 M 49.5 341.5 L 53.5 341.5 M 49.5 349.5 L 53.5 349.5 M 49.5 326.5 L 53.5 326.5 M 49.5 318.5 L 53.5 318.5 M 49.5 310.5 L 53.5 310.5 M 49.5 302.5 L 53.5 302.5 M 49.5 294.5 L 53.5 294.5 M 49.5 286.5 L 53.5 286.5 M 49.5 279.5 L 53.5 279.5 M 49.5 271.5 L 53.5 271.5 M 49.5 263.5 L 53.5 263.5 M 49.5 255.5 L 53.5 255.5 M 49.5 247.5 L 53.5 247.5 M 49.5 239.5 L 53.5 239.5 M 49.5 232.5 L 53.5 232.5 M 49.5 224.5 L 53.5 224.5 M 49.5 216.5 L 53.5 216.5 M 49.5 208.5 L 53.5 208.5 M 49.5 200.5 L 53.5 200.5 M 49.5 192.5 L 53.5 192.5 M 49.5 185.5 L 53.5 185.5 M 49.5 177.5 L 53.5 177.5 M 49.5 169.5 L 53.5 169.5 M 49.5 161.5 L 53.5 161.5 M 49.5 153.5 L 53.5 153.5 M 49.5 145.5 L 53.5 145.5 M 49.5 138.5 L 53.5 138.5 M 49.5 130.5 L 53.5 130.5 M 49.5 122.5 L 53.5 122.5 M 49.5 114.5 L 53.5 114.5 M 49.5 106.5 L 53.5 106.5 M 49.5 98.5 L 53.5 98.5 M 49.5 90.5 L 53.5 90.5 M 49.5 83.5 L 53.5 83.5 M 49.5 75.5 L 53.5 75.5 M 49.5 67.5 L 53.5 67.5" stroke-opacity="1" stroke-linejoin="bevel" stroke-miterlimit="10" stroke-dasharray=""/><text fill="rgb(68,68,68)" stroke="none" font-family="helvetica" font-size="11px" font-style="normal" font-weight="normal" text-decoration="normal" x="35.88333320617676" y="329.70745849609375" text-anchor="start" dominant-baseline="alphabetic" transform="matrix(1, 0, 0, 1, 0.5, 0.5)" fill-opacity="1">0</text><text fill="none" stroke="rgb(0,0,0)" font-family="helvetica" font-size="11px" font-style="normal" font-weight="normal" text-decoration="normal" x="35.88333320617676" y="329.70745849609375" text-anchor="start" dominant-baseline="alphabetic" transform="matrix(1, 0, 0, 1, 0.5, 0.5)" stroke-opacity="0" stroke-linejoin="bevel" stroke-miterlimit="10" stroke-dasharray="">0</text><text fill="rgb(68,68,68)" stroke="none" font-family="helvetica" font-size="11px" font-style="normal" font-weight="normal" text-decoration="normal" x="26.716666221618652" y="290.499755859375" text-anchor="start" dominant-baseline="alphabetic" transform="matrix(1, 0, 0, 1, 0.5, 0.5)" fill-opacity="1">0.1</text><text fill="none" stroke="rgb(0,0,0)" font-family="helvetica" font-size="11px" font-style="normal" font-weight="normal" text-decoration="normal" x="26.716666221618652" y="290.499755859375" text-anchor="start" dominant-baseline="alphabetic" transform="matrix(1, 0, 0, 1, 0.5, 0.5)" stroke-opacity="0" stroke-linejoin="bevel" stroke-miterlimit="10" stroke-dasharray="">0.1</text><text fill="rgb(68,68,68)" stroke="none" font-family="helvetica" font-size="11px" font-style="normal" font-weight="normal" text-decoration="normal" x="26.716666221618652" y="251.29208374023438" text-anchor="start" dominant-baseline="alphabetic" transform="matrix(1, 0, 0, 1, 0.5, 0.5)" fill-opacity="1">0.2</text><text fill="none" stroke="rgb(0,0,0)" font-family="helvetica" font-size="11px" font-style="normal" font-weight="normal" text-decoration="normal" x="26.716666221618652" y="251.29208374023438" text-anchor="start" dominant-baseline="alphabetic" transform="matrix(1, 0, 0, 1, 0.5, 0.5)" stroke-opacity="0" stroke-linejoin="bevel" stroke-miterlimit="10" stroke-dasharray="">0.2</text><text fill="rgb(68,68,68)" stroke="none" font-family="helvetica" font-size="11px" font-style="normal" font-weight="normal" text-decoration="normal" x="26.716666221618652" y="212.0843963623047" text-anchor="start" dominant-baseline="alphabetic" transform="matrix(1, 0, 0, 1, 0.5, 0.5)" fill-opacity="1">0.3</text><text fill="none" stroke="rgb(0,0,0)" font-family="helvetica" font-size="11px" font-style="normal" font-weight="normal" text-decoration="normal" x="26.716666221618652" y="212.0843963623047" text-anchor="start" dominant-baseline="alphabetic" transform="matrix(1, 0, 0, 1, 0.5, 0.5)" stroke-opacity="0" stroke-linejoin="bevel" stroke-miterlimit="10" stroke-dasharray="">0.3</text><text fill="rgb(68,68,68)" stroke="none" font-family="helvetica" font-size="11px" font-style="normal" font-weight="normal" text-decoration="normal" x="26.716666221618652" y="172.876708984375" text-anchor="start" dominant-baseline="alphabetic" transform="matrix(1, 0, 0, 1, 0.5, 0.5)" fill-opacity="1">0.4</text><text fill="none" stroke="rgb(0,0,0)" font-family="helvetica" font-size="11px" font-style="normal" font-weight="normal" text-decoration="normal" x="26.716666221618652" y="172.876708984375" text-anchor="start" dominant-baseline="alphabetic" transform="matrix(1, 0, 0, 1, 0.5, 0.5)" stroke-opacity="0" stroke-linejoin="bevel" stroke-miterlimit="10" stroke-dasharray="">0.4</text><text fill="rgb(68,68,68)" stroke="none" font-family="helvetica" font-size="11px" font-style="normal" font-weight="normal" text-decoration="normal" x="26.716666221618652" y="133.6690216064453" text-anchor="start" dominant-baseline="alphabetic" transform="matrix(1, 0, 0, 1, 0.5, 0.5)" fill-opacity="1">0.5</text><text fill="none" stroke="rgb(0,0,0)" font-family="helvetica" font-size="11px" font-style="normal" font-weight="normal" text-decoration="normal" x="26.716666221618652" y="133.6690216064453" text-anchor="start" dominant-baseline="alphabetic" transform="matrix(1, 0, 0, 1, 0.5, 0.5)" stroke-opacity="0" stroke-linejoin="bevel" stroke-miterlimit="10" stroke-dasharray="">0.5</text><text fill="rgb(68,68,68)" stroke="none" font-family="helvetica" font-size="11px" font-style="normal" font-weight="normal" text-decoration="normal" x="26.716666221618652" y="94.4613265991211" text-anchor="start" dominant-baseline="alphabetic" transform="matrix(1, 0, 0, 1, 0.5, 0.5)" fill-opacity="1">0.6</text><text fill="none" stroke="rgb(0,0,0)" font-family="helvetica" font-size="11px" font-style="normal" font-weight="normal" text-decoration="normal" x="26.716666221618652" y="94.4613265991211" text-anchor="start" dominant-baseline="alphabetic" transform="matrix(1, 0, 0, 1, 0.5, 0.5)" stroke-opacity="0" stroke-linejoin="bevel" stroke-miterlimit="10" stroke-dasharray="">0.6</text><text fill="rgb(68,68,68)" stroke="none" font-family="helvetica" font-size="13px" font-style="italic" font-weight="normal" text-decoration="normal" x="-28.366665840148926" y="204" text-anchor="start" dominant-baseline="alphabetic" transform="matrix(6.123233995736766e-17, -1, 1, 6.123233995736766e-17, -187.78333377838135, 226.21666622161865)" fill-opacity="1">Wartość miary F</text><text fill="none" stroke="rgb(0,0,0)" font-family="helvetica" font-size="13px" font-style="italic" font-weight="normal" text-decoration="normal" x="-28.366665840148926" y="204" text-anchor="start" dominant-baseline="alphabetic" transform="matrix(6.123233995736766e-17, -1, 1, 6.123233995736766e-17, -187.78333377838135, 226.21666622161865)" stroke-opacity="0" stroke-linejoin="bevel" stroke-miterlimit="10" stroke-dasharray="">Wartość miary F</text><path fill="rgb(255,255,255)" stroke="rgb(229,229,229)" paint-order="fill" d="M 140.1833267211914 10.5 L 608.8166732788086 10.5 L 608.8166732788086 50.5 L 140.1833267211914 50.5 L 140.1833267211914 10.5" fill-opacity="0.9490196078431372" stroke-opacity="0.5019607843137255" stroke-linejoin="bevel" stroke-miterlimit="10" stroke-dasharray=""/><text fill="rgb(68,68,68)" stroke="none" font-family="helvetica" font-size="13px" font-style="normal" font-weight="normal" text-decoration="normal" x="174.6833267211914" y="30" text-anchor="start" dominant-baseline="central" transform="matrix(1, 0, 0, 1, 0.5, 0.5)" fill-opacity="1">strategia najmniejszej pewności</text><path fill="none" stroke="rgb(11,132,165)" paint-order="fill" d="M 150.1833267211914 30.5 L 170.1833267211914 30.5" stroke-opacity="1" stroke-linejoin="bevel" stroke-miterlimit="10" stroke-width="2" stroke-dasharray=""/><text fill="rgb(68,68,68)" stroke="none" font-family="helvetica" font-size="13px" font-style="normal" font-weight="normal" text-decoration="normal" x="412.53333282470703" y="30" text-anchor="start" dominant-baseline="central" transform="matrix(1, 0, 0, 1, 0.5, 0.5)" fill-opacity="1">strategia próbkowania losowego</text><path fill="none" stroke="rgb(246,200,95)" paint-order="fill" d="M 388.03333282470703 30.5 L 408.03333282470703 30.5" stroke-opacity="1" stroke-linejoin="bevel" stroke-miterlimit="10" stroke-width="2" stroke-dasharray=""/><path fill="rgb(255,255,255)" stroke="rgb(229,229,229)" paint-order="fill" d="M 140.1833267211914 10.5 L 608.8166732788086 10.5 L 608.8166732788086 50.5 L 140.1833267211914 50.5 L 140.1833267211914 10.5" fill-opacity="0.9490196078431372" stroke-opacity="0.5019607843137255" stroke-linejoin="bevel" stroke-miterlimit="10" stroke-dasharray=""/><text fill="rgb(68,68,68)" stroke="none" font-family="helvetica" font-size="13px" font-style="normal" font-weight="normal" text-decoration="normal" x="174.6833267211914" y="30" text-anchor="start" dominant-baseline="central" transform="matrix(1, 0, 0, 1, 0.5, 0.5)" fill-opacity="1">strategia najmniejszej pewności</text><path fill="none" stroke="rgb(11,132,165)" paint-order="fill" d="M 150.1833267211914 30.5 L 170.1833267211914 30.5" stroke-opacity="1" stroke-linejoin="bevel" stroke-miterlimit="10" stroke-width="2" stroke-dasharray=""/><text fill="rgb(68,68,68)" stroke="none" font-family="helvetica" font-size="13px" font-style="normal" font-weight="normal" text-decoration="normal" x="412.53333282470703" y="30" text-anchor="start" dominant-baseline="central" transform="matrix(1, 0, 0, 1, 0.5, 0.5)" fill-opacity="1">strategia próbkowania losowego</text><path fill="none" stroke="rgb(246,200,95)" paint-order="fill" d="M 388.03333282470703 30.5 L 408.03333282470703 30.5" stroke-opacity="1" stroke-linejoin="bevel" stroke-miterlimit="10" stroke-width="2" stroke-dasharray=""/></svg>