<svg version="1.1" xmlns="http://www.w3.org/2000/svg" width="700" height="400"><defs><clipPath id="DqTyRnJAFgHF"><path fill="none" stroke="none" d="M 53.5 60.5 L 695.5 60.5 L 695.5 354.5 L 53.5 354.5 L 53.5 60.5"/></clipPath><clipPath id="iNJxeOqnolgu"><path fill="none" stroke="none" d="M 53.5 60.5 L 695.5 60.5 L 695.5 354.5 L 53.5 354.5 L 53.5 60.5"/></clipPath><clipPath id="QviLMOAyhzTk"><path fill="none" stroke="none" d="M 53.5 60.5 L 695.5 60.5 L 695.5 354.5 L 53.5 354.5 L 53.5 60.5"/></clipPath><clipPath id="rmltsrzkwzob"><path fill="none" stroke="none" d="M 53.5 60.5 L 695.5 60.5 L 695.5 354.5 L 53.5 354.5 L 53.5 60.5"/></clipPath><clipPath id="CTdaHigbWACb"><path fill="none" stroke="none" d="M 53.5 60.5 L 695.5 60.5 L 695.5 354.5 L 53.5 354.5 L 53.5 60.5"/></clipPath><clipPath id="BFcXlSMcCLUM"><path fill="none" stroke="none" d="M 53.5 60.5 L 695.5 60.5 L 695.5 354.5 L 53.5 354.5 L 53.5 60.5"/></clipPath><clipPath id="ZFebdofxdBQl"><path fill="none" stroke="none" d="M 53.5 60.5 L 695.5 60.5 L 695.5 354.5 L 53.5 354.5 L 53.5 60.5"/></clipPath></defs><path fill="rgb(255,255,255)" stroke="none" paint-order="stroke" d="M 0.5 0.5 L 700.5 0.5 L 700.5 400.5 L 0.5 400.5 L 0.5 0.5" fill-opacity="1"/><rect fill="#FFFFFF" stroke="none" x="53" y="60" width="642" height="294" transform="matrix(1, 0, 0, 1, 0.5, 0.5)"/><path fill="rgb(255,255,255)" stroke="none" paint-order="stroke" d="M 53.5 60.5 L 695.5 60.5 L 695.5 354.5 L 53.5 354.5 L 53.5 60.5" fill-opacity="1"/><path fill="none" stroke="rgb(229,229,229)" paint-order="fill" d="M 53.5 60.5 L 695.5 60.5 L 695.5 354.5 L 53.5 354.5 L 53.5 60.5" stroke-opacity="1" stroke-linejoin="bevel" stroke-miterlimit="10" stroke-dasharray=""/><path fill="none" stroke="rgb(229,229,229)" paint-order="fill" d="M 67.5 354.5 L 67.5 60.5 M 223.5 354.5 L 223.5 60.5 M 379.5 354.5 L 379.5 60.5 M 534.5 354.5 L 534.5 60.5 M 690.5 354.5 L 690.5 60.5" stroke-opacity="1" stroke-linejoin="bevel" stroke-miterlimit="10" stroke-dasharray="" clip-path="url(#DqTyRnJAFgHF)"/><path fill="none" stroke="rgb(229,229,229)" paint-order="fill" d="M 53.5 341.5 L 695.5 341.5 M 53.5 287.5 L 695.5 287.5 M 53.5 234.5 L 695.5 234.5 M 53.5 180.5 L 695.5 180.5 M 53.5 127.5 L 695.5 127.5 M 53.5 73.5 L 695.5 73.5" stroke-opacity="1" stroke-linejoin="bevel" stroke-miterlimit="10" stroke-dasharray="" clip-path="url(#iNJxeOqnolgu)"/><path fill="none" stroke="rgb(11,132,165)" paint-order="fill" d="M 82.68181610107422 341.1363525390625 L 96.54454803466797 341.1363525390625 L 107.60357666015625 155.20750427246094 L 119.1298828125 166.28504943847656 L 134.0829315185547 73.86363983154297 L 145.2977294921875 241.81204223632812 L 155.5779571533203 341.1363525390625 L 166.32545471191406 118.40908813476562 L 179.4093780517578 179.173095703125 L 191.40296936035156 164.8913116455078 L 202.61776733398438 73.86363983154297 L 215.07864379882812 152.1632537841797 L 226.91647338867188 145.35633850097656 L 240.00039672851562 92.61961364746094 L 254.17465209960938 143.64645385742188 L 265.7009582519531 147.2902069091797 L 276.4484558105469 138.9885711669922 L 288.5978088378906 132.39051818847656 L 298.7222900390625 139.95289611816406 L 309.00250244140625 129.88291931152344 L 322.2421875 169.2136688232422 L 333.30120849609375 174.29176330566406 L 344.5160217285156 142.87257385253906 L 356.3538513183594 188.36048889160156 L 368.6589660644531 126.07282257080078 L 380.1852722167969 105.36042022705078 L 394.3595275878906 161.81600952148438 L 405.2627868652344 198.61610412597656 L 417.1006164550781 122.74942016601562 L 431.4306335449219 112.12828063964844 L 442.1781311035156 132.93739318847656 L 453.0814208984375 143.01268005371094 L 463.51739501953125 135.51673889160156 L 478.314697265625 164.71746826171875 L 491.86590576171875 174.96141052246094 L 502.9249267578125 96.23995971679688 L 513.6724243164062 136.16958618164062 L 525.19873046875 156.8103485107422 L 535.6347045898438 135.5673370361328 L 548.5628662109375 148.01893615722656 L 560.4006958007812 168.297119140625 L 571.1482543945312 117.96027374267578 L 584.076416015625 136.50567626953125 L 598.7178955078125 141.32225036621094 L 609.9327392578125 138.8373260498047 L 620.9917602539062 120.1446304321289 L 631.58349609375 142.13438415527344 L 642.9540405273438 146.12701416015625 L 654.6361083984375 146.29251098632812 L 666.3181762695312 163.168701171875" stroke-opacity="1" stroke-linejoin="bevel" stroke-miterlimit="10" stroke-width="2" stroke-dasharray="" clip-path="url(#QviLMOAyhzTk)"/><path fill="none" stroke="rgb(246,200,95)" paint-order="fill" d="M 82.68181610107422 341.1363525390625 L 97.47911071777344 341.1363525390625 L 110.71879577636719 341.1363525390625 L 121.93358612060547 268.5860290527344 L 134.0829315185547 157.11251831054688 L 146.0765380859375 261.35345458984375 L 156.66827392578125 99.01871490478516 L 168.81764221191406 206.35125732421875 L 179.4093780517578 222.04713439941406 L 189.53384399414062 174.03895568847656 L 201.68319702148438 216.33059692382812 L 213.98831176757812 124.71063995361328 L 226.44918823242188 184.14373779296875 L 238.4427947998047 109.09503936767578 L 251.21519470214844 164.6197967529297 L 262.89727783203125 182.1338348388672 L 273.489013671875 158.53399658203125 L 284.85955810546875 232.8214111328125 L 296.0743408203125 118.7834243774414 L 309.62554931640625 140.93980407714844 L 325.20166015625 126.31903076171875 L 337.66253662109375 126.68433380126953 L 348.0985107421875 178.2618865966797 L 360.24786376953125 101.41752624511719 L 372.085693359375 137.133056640625 L 381.5871276855469 153.70570373535156 L 392.0231018066406 146.7914581298828 L 402.1475830078125 141.47833251953125 L 412.89508056640625 134.41201782226562 L 423.17529296875 147.34812927246094 L 435.94769287109375 121.7333755493164 L 445.6048889160156 172.06777954101562 L 457.1311950683594 137.48353576660156 L 473.797607421875 130.0094757080078 L 485.6354675292969 170.16043090820312 L 495.9156799316406 151.7261505126953 L 506.6631774902344 119.90641784667969 L 517.2549438476562 143.08909606933594 L 528.158203125 134.6771240234375 L 541.0863647460938 138.17428588867188 L 553.7030029296875 155.2908172607422 L 566.0081176757812 152.9451904296875 L 576.755615234375 150.66395568847656 L 589.8395385742188 144.60614013671875 L 603.8580322265625 114.59374237060547 L 616.0073852539062 110.00091552734375 L 626.443359375 130.81976318359375 L 638.4369506835938 135.3085479736328 L 649.0286865234375 133.03594970703125 L 661.3338012695312 125.1656494140625" stroke-opacity="1" stroke-linejoin="bevel" stroke-miterlimit="10" stroke-width="2" stroke-dasharray="" clip-path="url(#rmltsrzkwzob)"/><path fill="none" stroke="rgb(11,132,165)" paint-order="fill" d="M 82.68181610107422 230.24017333984375 L 96.54454803466797 222.77978515625 L 107.60357666015625 217.03326416015625 L 119.1298828125 211.2375946044922 L 134.0829315185547 204.013427734375 L 145.2977294921875 198.8135986328125 L 155.5779571533203 194.2114715576172 L 166.32545471191406 189.5682830810547 L 179.4093780517578 184.14764404296875 L 191.40296936035156 179.4024658203125 L 202.61776733398438 175.15902709960938 L 215.07864379882812 170.66355895996094 L 226.91647338867188 166.60684204101562 L 240.00039672851562 162.36566162109375 L 254.17465209960938 158.0584716796875 L 265.7009582519531 154.77627563476562 L 276.4484558105469 151.89393615722656 L 288.5978088378906 148.84255981445312 L 298.7222900390625 146.46751403808594 L 309.00250244140625 144.2119598388672 L 322.2421875 141.53872680664062 L 333.30120849609375 139.5056915283203 L 344.5160217285156 137.6298370361328 L 356.3538513183594 135.852783203125 L 368.6589660644531 134.2265625 L 380.1852722167969 132.90760803222656 L 394.3595275878906 131.556640625 L 405.2627868652344 130.72084045410156 L 417.1006164550781 130.01365661621094 L 431.4306335449219 129.4365234375 L 442.1781311035156 129.2041778564453 L 453.0814208984375 129.14405822753906 L 463.51739501953125 129.252197265625 L 478.314697265625 129.68325805664062 L 491.86590576171875 130.36380004882812 L 502.9249267578125 131.1216278076172 L 513.6724243164062 132.032470703125 L 525.19873046875 133.20028686523438 L 535.6347045898438 134.42813110351562 L 548.5628662109375 136.17388916015625 L 560.4006958007812 137.99050903320312 L 571.1482543945312 139.82037353515625 L 584.076416015625 142.24920654296875 L 598.7178955078125 145.3002166748047 L 609.9327392578125 147.8528594970703 L 620.9917602539062 150.55328369140625 L 631.58349609375 153.31021118164062 L 642.9540405273438 156.4556121826172 L 654.6361083984375 159.88751220703125 L 666.3181762695312 163.5224609375" stroke-opacity="0.6" stroke-linejoin="bevel" stroke-miterlimit="10" stroke-width="2" stroke-dasharray="6" clip-path="url(#CTdaHigbWACb)"/><path fill="none" stroke="rgb(246,200,95)" paint-order="fill" d="M 82.68181610107422 278.3412170410156 L 97.47911071777344 267.2351989746094 L 110.71879577636719 257.6532287597656 L 121.93358612060547 249.79898071289062 L 134.0829315185547 241.56167602539062 L 146.0765380859375 233.70687866210938 L 156.66827392578125 226.99893188476562 L 168.81764221191406 219.56874084472656 L 179.4093780517578 213.32147216796875 L 189.53384399414062 207.55039978027344 L 201.68319702148438 200.88389587402344 L 213.98831176757812 194.419677734375 L 226.44918823242188 188.16876220703125 L 238.4427947998047 182.43272399902344 L 251.21519470214844 176.62672424316406 L 262.89727783203125 171.58953857421875 L 273.489013671875 167.2480926513672 L 284.85955810546875 162.8262481689453 L 296.0743408203125 158.70718383789062 L 309.62554931640625 154.05093383789062 L 325.20166015625 149.1327667236328 L 337.66253662109375 145.53233337402344 L 348.0985107421875 142.74546813964844 L 360.24786376953125 139.7634735107422 L 372.085693359375 137.12948608398438 L 381.5871276855469 135.20925903320312 L 392.0231018066406 133.2991180419922 L 402.1475830078125 131.6450653076172 L 412.89508056640625 130.10374450683594 L 423.17529296875 128.83615112304688 L 435.94769287109375 127.54283905029297 L 445.6048889160156 126.77210235595703 L 457.1311950683594 126.085693359375 L 473.797607421875 125.54251098632812 L 485.6354675292969 125.47938537597656 L 495.9156799316406 125.64199829101562 L 506.6631774902344 126.02812194824219 L 517.2549438476562 126.62479400634766 L 528.158203125 127.463134765625 L 541.0863647460938 128.75180053710938 L 553.7030029296875 130.31761169433594 L 566.0081176757812 132.13803100585938 L 576.755615234375 133.96493530273438 L 589.8395385742188 136.4871826171875 L 603.8580322265625 139.55291748046875 L 616.0073852539062 142.51390075683594 L 626.443359375 145.28271484375 L 638.4369506835938 148.7220458984375 L 649.0286865234375 151.98812866210938 L 661.3338012695312 156.05198669433594" stroke-opacity="0.6" stroke-linejoin="bevel" stroke-miterlimit="10" stroke-width="2" stroke-dasharray="6" clip-path="url(#BFcXlSMcCLUM)"/><path fill="none" stroke="rgb(0,0,0)" paint-order="fill" d="M 53.5 354.5 L 695.5 354.5" stroke-opacity="1" stroke-linejoin="bevel" stroke-miterlimit="10" stroke-dasharray=""/><path fill="none" stroke="rgb(0,0,0)" paint-order="fill" d="M 67.5 360.5 L 67.5 352.5 M 223.5 360.5 L 223.5 352.5 M 379.5 360.5 L 379.5 352.5 M 534.5 360.5 L 534.5 352.5 M 690.5 360.5 L 690.5 352.5" stroke-opacity="1" stroke-linejoin="bevel" stroke-miterlimit="10" stroke-dasharray=""/><path fill="none" stroke="rgb(0,0,0)" paint-order="fill" d="M 67.5 358.5 L 67.5 354.5 M 98.5 358.5 L 98.5 354.5 M 129.5 358.5 L 129.5 354.5 M 161.5 358.5 L 161.5 354.5 M 192.5 358.5 L 192.5 354.5 M 223.5 358.5 L 223.5 354.5 M 254.5 358.5 L 254.5 354.5 M 285.5 358.5 L 285.5 354.5 M 316.5 358.5 L 316.5 354.5 M 347.5 358.5 L 347.5 354.5 M 379.5 358.5 L 379.5 354.5 M 410.5 358.5 L 410.5 354.5 M 441.5 358.5 L 441.5 354.5 M 472.5 358.5 L 472.5 354.5 M 503.5 358.5 L 503.5 354.5 M 534.5 358.5 L 534.5 354.5 M 566.5 358.5 L 566.5 354.5 M 597.5 358.5 L 597.5 354.5 M 628.5 358.5 L 628.5 354.5 M 659.5 358.5 L 659.5 354.5 M 690.5 358.5 L 690.5 354.5" stroke-opacity="1" stroke-linejoin="bevel" stroke-miterlimit="10" stroke-dasharray=""/><text fill="rgb(68,68,68)" stroke="none" font-family="helvetica" font-size="11px" font-style="normal" font-weight="normal" text-decoration="normal" x="64.01467227935791" y="373" text-anchor="start" dominant-baseline="alphabetic" transform="matrix(1, 0, 0, 1, 0.5, 0.5)" fill-opacity="1">0</text><text fill="none" stroke="rgb(0,0,0)" font-family="helvetica" font-size="11px" font-style="normal" font-weight="normal" text-decoration="normal" x="64.01467227935791" y="373" text-anchor="start" dominant-baseline="alphabetic" transform="matrix(1, 0, 0, 1, 0.5, 0.5)" stroke-opacity="0" stroke-linejoin="bevel" stroke-miterlimit="10" stroke-dasharray="">0</text><text fill="rgb(68,68,68)" stroke="none" font-family="helvetica" font-size="11px" font-style="normal" font-weight="normal" text-decoration="normal" x="210.60063552856445" y="373" text-anchor="start" dominant-baseline="alphabetic" transform="matrix(1, 0, 0, 1, 0.5, 0.5)" fill-opacity="1">1000</text><text fill="none" stroke="rgb(0,0,0)" font-family="helvetica" font-size="11px" font-style="normal" font-weight="normal" text-decoration="normal" x="210.60063552856445" y="373" text-anchor="start" dominant-baseline="alphabetic" transform="matrix(1, 0, 0, 1, 0.5, 0.5)" stroke-opacity="0" stroke-linejoin="bevel" stroke-miterlimit="10" stroke-dasharray="">1000</text><text fill="rgb(68,68,68)" stroke="none" font-family="helvetica" font-size="11px" font-style="normal" font-weight="normal" text-decoration="normal" x="366.3616065979004" y="373" text-anchor="start" dominant-baseline="alphabetic" transform="matrix(1, 0, 0, 1, 0.5, 0.5)" fill-opacity="1">2000</text><text fill="none" stroke="rgb(0,0,0)" font-family="helvetica" font-size="11px" font-style="normal" font-weight="normal" text-decoration="normal" x="366.3616065979004" y="373" text-anchor="start" dominant-baseline="alphabetic" transform="matrix(1, 0, 0, 1, 0.5, 0.5)" stroke-opacity="0" stroke-linejoin="bevel" stroke-miterlimit="10" stroke-dasharray="">2000</text><text fill="rgb(68,68,68)" stroke="none" font-family="helvetica" font-size="11px" font-style="normal" font-weight="normal" text-decoration="normal" x="522.1225624084473" y="373" text-anchor="start" dominant-baseline="alphabetic" transform="matrix(1, 0, 0, 1, 0.5, 0.5)" fill-opacity="1">3000</text><text fill="none" stroke="rgb(0,0,0)" font-family="helvetica" font-size="11px" font-style="normal" font-weight="normal" text-decoration="normal" x="522.1225624084473" y="373" text-anchor="start" dominant-baseline="alphabetic" transform="matrix(1, 0, 0, 1, 0.5, 0.5)" stroke-opacity="0" stroke-linejoin="bevel" stroke-miterlimit="10" stroke-dasharray="">3000</text><text fill="rgb(68,68,68)" stroke="none" font-family="helvetica" font-size="11px" font-style="normal" font-weight="normal" text-decoration="normal" x="675.533332824707" y="373" text-anchor="start" dominant-baseline="alphabetic" transform="matrix(1, 0, 0, 1, 0.5, 0.5)" fill-opacity="1">4000</text><text fill="none" stroke="rgb(0,0,0)" font-family="helvetica" font-size="11px" font-style="normal" font-weight="normal" text-decoration="normal" x="675.533332824707" y="373" text-anchor="start" dominant-baseline="alphabetic" transform="matrix(1, 0, 0, 1, 0.5, 0.5)" stroke-opacity="0" stroke-linejoin="bevel" stroke-miterlimit="10" stroke-dasharray="">4000</text><text fill="rgb(68,68,68)" stroke="none" font-family="helvetica" font-size="13px" font-style="italic" font-weight="normal" text-decoration="normal" x="340.03333282470703" y="394" text-anchor="start" dominant-baseline="alphabetic" transform="matrix(1, 0, 0, 1, 0.5, 0.5)" fill-opacity="1">Liczba encji</text><text fill="none" stroke="rgb(0,0,0)" font-family="helvetica" font-size="13px" font-style="italic" font-weight="normal" text-decoration="normal" x="340.03333282470703" y="394" text-anchor="start" dominant-baseline="alphabetic" transform="matrix(1, 0, 0, 1, 0.5, 0.5)" stroke-opacity="0" stroke-linejoin="bevel" stroke-miterlimit="10" stroke-dasharray="">Liczba encji</text><path fill="none" stroke="rgb(0,0,0)" paint-order="fill" d="M 53.5 354.5 L 53.5 60.5" stroke-opacity="1" stroke-linejoin="bevel" stroke-miterlimit="10" stroke-dasharray=""/><path fill="none" stroke="rgb(0,0,0)" paint-order="fill" d="M 47.5 341.5 L 55.5 341.5 M 47.5 287.5 L 55.5 287.5 M 47.5 234.5 L 55.5 234.5 M 47.5 180.5 L 55.5 180.5 M 47.5 127.5 L 55.5 127.5 M 47.5 73.5 L 55.5 73.5" stroke-opacity="1" stroke-linejoin="bevel" stroke-miterlimit="10" stroke-dasharray=""/><path fill="none" stroke="rgb(0,0,0)" paint-order="fill" d="M 49.5 351.5 L 53.5 351.5 M 49.5 341.5 L 53.5 341.5 M 49.5 330.5 L 53.5 330.5 M 49.5 319.5 L 53.5 319.5 M 49.5 309.5 L 53.5 309.5 M 49.5 298.5 L 53.5 298.5 M 49.5 287.5 L 53.5 287.5 M 49.5 276.5 L 53.5 276.5 M 49.5 266.5 L 53.5 266.5 M 49.5 255.5 L 53.5 255.5 M 49.5 244.5 L 53.5 244.5 M 49.5 234.5 L 53.5 234.5 M 49.5 223.5 L 53.5 223.5 M 49.5 212.5 L 53.5 212.5 M 49.5 202.5 L 53.5 202.5 M 49.5 191.5 L 53.5 191.5 M 49.5 180.5 L 53.5 180.5 M 49.5 170.5 L 53.5 170.5 M 49.5 159.5 L 53.5 159.5 M 49.5 148.5 L 53.5 148.5 M 49.5 138.5 L 53.5 138.5 M 49.5 127.5 L 53.5 127.5 M 49.5 116.5 L 53.5 116.5 M 49.5 105.5 L 53.5 105.5 M 49.5 95.5 L 53.5 95.5 M 49.5 84.5 L 53.5 84.5 M 49.5 73.5 L 53.5 73.5 M 49.5 63.5 L 53.5 63.5" stroke-opacity="1" stroke-linejoin="bevel" stroke-miterlimit="10" stroke-dasharray=""/><text fill="rgb(68,68,68)" stroke="none" font-family="helvetica" font-size="11px" font-style="normal" font-weight="normal" text-decoration="normal" x="35.88333320617676" y="344.6363525390625" text-anchor="start" dominant-baseline="alphabetic" transform="matrix(1, 0, 0, 1, 0.5, 0.5)" fill-opacity="1">0</text><text fill="none" stroke="rgb(0,0,0)" font-family="helvetica" font-size="11px" font-style="normal" font-weight="normal" text-decoration="normal" x="35.88333320617676" y="344.6363525390625" text-anchor="start" dominant-baseline="alphabetic" transform="matrix(1, 0, 0, 1, 0.5, 0.5)" stroke-opacity="0" stroke-linejoin="bevel" stroke-miterlimit="10" stroke-dasharray="">0</text><text fill="rgb(68,68,68)" stroke="none" font-family="helvetica" font-size="11px" font-style="normal" font-weight="normal" text-decoration="normal" x="26.716666221618652" y="291.18182373046875" text-anchor="start" dominant-baseline="alphabetic" transform="matrix(1, 0, 0, 1, 0.5, 0.5)" fill-opacity="1">0.2</text><text fill="none" stroke="rgb(0,0,0)" font-family="helvetica" font-size="11px" font-style="normal" font-weight="normal" text-decoration="normal" x="26.716666221618652" y="291.18182373046875" text-anchor="start" dominant-baseline="alphabetic" transform="matrix(1, 0, 0, 1, 0.5, 0.5)" stroke-opacity="0" stroke-linejoin="bevel" stroke-miterlimit="10" stroke-dasharray="">0.2</text><text fill="rgb(68,68,68)" stroke="none" font-family="helvetica" font-size="11px" font-style="normal" font-weight="normal" text-decoration="normal" x="26.716666221618652" y="237.72727966308594" text-anchor="start" dominant-baseline="alphabetic" transform="matrix(1, 0, 0, 1, 0.5, 0.5)" fill-opacity="1">0.4</text><text fill="none" stroke="rgb(0,0,0)" font-family="helvetica" font-size="11px" font-style="normal" font-weight="normal" text-decoration="normal" x="26.716666221618652" y="237.72727966308594" text-anchor="start" dominant-baseline="alphabetic" transform="matrix(1, 0, 0, 1, 0.5, 0.5)" stroke-opacity="0" stroke-linejoin="bevel" stroke-miterlimit="10" stroke-dasharray="">0.4</text><text fill="rgb(68,68,68)" stroke="none" font-family="helvetica" font-size="11px" font-style="normal" font-weight="normal" text-decoration="normal" x="26.716666221618652" y="184.27272033691406" text-anchor="start" dominant-baseline="alphabetic" transform="matrix(1, 0, 0, 1, 0.5, 0.5)" fill-opacity="1">0.6</text><text fill="none" stroke="rgb(0,0,0)" font-family="helvetica" font-size="11px" font-style="normal" font-weight="normal" text-decoration="normal" x="26.716666221618652" y="184.27272033691406" text-anchor="start" dominant-baseline="alphabetic" transform="matrix(1, 0, 0, 1, 0.5, 0.5)" stroke-opacity="0" stroke-linejoin="bevel" stroke-miterlimit="10" stroke-dasharray="">0.6</text><text fill="rgb(68,68,68)" stroke="none" font-family="helvetica" font-size="11px" font-style="normal" font-weight="normal" text-decoration="normal" x="26.716666221618652" y="130.81818389892578" text-anchor="start" dominant-baseline="alphabetic" transform="matrix(1, 0, 0, 1, 0.5, 0.5)" fill-opacity="1">0.8</text><text fill="none" stroke="rgb(0,0,0)" font-family="helvetica" font-size="11px" font-style="normal" font-weight="normal" text-decoration="normal" x="26.716666221618652" y="130.81818389892578" text-anchor="start" dominant-baseline="alphabetic" transform="matrix(1, 0, 0, 1, 0.5, 0.5)" stroke-opacity="0" stroke-linejoin="bevel" stroke-miterlimit="10" stroke-dasharray="">0.8</text><text fill="rgb(68,68,68)" stroke="none" font-family="helvetica" font-size="11px" font-style="normal" font-weight="normal" text-decoration="normal" x="35.88333320617676" y="77.36363983154297" text-anchor="start" dominant-baseline="alphabetic" transform="matrix(1, 0, 0, 1, 0.5, 0.5)" fill-opacity="1">1</text><text fill="none" stroke="rgb(0,0,0)" font-family="helvetica" font-size="11px" font-style="normal" font-weight="normal" text-decoration="normal" x="35.88333320617676" y="77.36363983154297" text-anchor="start" dominant-baseline="alphabetic" transform="matrix(1, 0, 0, 1, 0.5, 0.5)" stroke-opacity="0" stroke-linejoin="bevel" stroke-miterlimit="10" stroke-dasharray="">1</text><text fill="rgb(68,68,68)" stroke="none" font-family="helvetica" font-size="13px" font-style="italic" font-weight="normal" text-decoration="normal" x="-41.03333377838135" y="204" text-anchor="start" dominant-baseline="alphabetic" transform="matrix(6.123233995736766e-17, -1, 1, 6.123233995736766e-17, -187.78333377838135, 226.21666622161865)" fill-opacity="1">Wartość dokładności</text><text fill="none" stroke="rgb(0,0,0)" font-family="helvetica" font-size="13px" font-style="italic" font-weight="normal" text-decoration="normal" x="-41.03333377838135" y="204" text-anchor="start" dominant-baseline="alphabetic" transform="matrix(6.123233995736766e-17, -1, 1, 6.123233995736766e-17, -187.78333377838135, 226.21666622161865)" stroke-opacity="0" stroke-linejoin="bevel" stroke-miterlimit="10" stroke-dasharray="">Wartość dokładności</text><path fill="rgb(255,255,255)" stroke="rgb(229,229,229)" paint-order="fill" d="M 140.1833267211914 10.5 L 608.8166732788086 10.5 L 608.8166732788086 50.5 L 140.1833267211914 50.5 L 140.1833267211914 10.5" fill-opacity="0.9490196078431372" stroke-opacity="0.5019607843137255" stroke-linejoin="bevel" stroke-miterlimit="10" stroke-dasharray=""/><text fill="rgb(68,68,68)" stroke="none" font-family="helvetica" font-size="13px" font-style="normal" font-weight="normal" text-decoration="normal" x="174.6833267211914" y="30" text-anchor="start" dominant-baseline="central" transform="matrix(1, 0, 0, 1, 0.5, 0.5)" fill-opacity="1">strategia najmniejszej pewności</text><path fill="none" stroke="rgb(11,132,165)" paint-order="fill" d="M 150.1833267211914 30.5 L 170.1833267211914 30.5" stroke-opacity="1" stroke-linejoin="bevel" stroke-miterlimit="10" stroke-width="2" stroke-dasharray=""/><text fill="rgb(68,68,68)" stroke="none" font-family="helvetica" font-size="13px" font-style="normal" font-weight="normal" text-decoration="normal" x="412.53333282470703" y="30" text-anchor="start" dominant-baseline="central" transform="matrix(1, 0, 0, 1, 0.5, 0.5)" fill-opacity="1">strategia próbkowania losowego</text><path fill="none" stroke="rgb(246,200,95)" paint-order="fill" d="M 388.03333282470703 30.5 L 408.03333282470703 30.5" stroke-opacity="1" stroke-linejoin="bevel" stroke-miterlimit="10" stroke-width="2" stroke-dasharray=""/><path fill="rgb(255,255,255)" stroke="rgb(229,229,229)" paint-order="fill" d="M 140.1833267211914 10.5 L 608.8166732788086 10.5 L 608.8166732788086 50.5 L 140.1833267211914 50.5 L 140.1833267211914 10.5" fill-opacity="0.9490196078431372" stroke-opacity="0.5019607843137255" stroke-linejoin="bevel" stroke-miterlimit="10" stroke-dasharray=""/><text fill="rgb(68,68,68)" stroke="none" font-family="helvetica" font-size="13px" font-style="normal" font-weight="normal" text-decoration="normal" x="174.6833267211914" y="30" text-anchor="start" dominant-baseline="central" transform="matrix(1, 0, 0, 1, 0.5, 0.5)" fill-opacity="1">strategia najmniejszej pewności</text><path fill="none" stroke="rgb(11,132,165)" paint-order="fill" d="M 150.1833267211914 30.5 L 170.1833267211914 30.5" stroke-opacity="1" stroke-linejoin="bevel" stroke-miterlimit="10" stroke-width="2" stroke-dasharray=""/><text fill="rgb(68,68,68)" stroke="none" font-family="helvetica" font-size="13px" font-style="normal" font-weight="normal" text-decoration="normal" x="412.53333282470703" y="30" text-anchor="start" dominant-baseline="central" transform="matrix(1, 0, 0, 1, 0.5, 0.5)" fill-opacity="1">strategia próbkowania losowego</text><path fill="none" stroke="rgb(246,200,95)" paint-order="fill" d="M 388.03333282470703 30.5 L 408.03333282470703 30.5" stroke-opacity="1" stroke-linejoin="bevel" stroke-miterlimit="10" stroke-width="2" stroke-dasharray=""/></svg>