<svg version="1.1" xmlns="http://www.w3.org/2000/svg" width="700" height="400"><defs><clipPath id="XWEoxkleEdBH"><path fill="none" stroke="none" d="M 53.5 5.5 L 560.5 5.5 L 560.5 354.5 L 53.5 354.5 L 53.5 5.5"/></clipPath><clipPath id="VlyQaXfIkgmf"><path fill="none" stroke="none" d="M 53.5 5.5 L 560.5 5.5 L 560.5 354.5 L 53.5 354.5 L 53.5 5.5"/></clipPath><clipPath id="LcJEHhDkavQz"><path fill="none" stroke="none" d="M 53.5 5.5 L 560.5 5.5 L 560.5 354.5 L 53.5 354.5 L 53.5 5.5"/></clipPath><clipPath id="AcAsQmArgJsK"><path fill="none" stroke="none" d="M 53.5 5.5 L 560.5 5.5 L 560.5 354.5 L 53.5 354.5 L 53.5 5.5"/></clipPath><clipPath id="gkkpckMHeUbw"><path fill="none" stroke="none" d="M 53.5 5.5 L 560.5 5.5 L 560.5 354.5 L 53.5 354.5 L 53.5 5.5"/></clipPath><clipPath id="llpieEILngFm"><path fill="none" stroke="none" d="M 53.5 5.5 L 560.5 5.5 L 560.5 354.5 L 53.5 354.5 L 53.5 5.5"/></clipPath></defs><path fill="rgb(255,255,255)" stroke="none" paint-order="stroke" d="M 0.5 0.5 L 700.5 0.5 L 700.5 400.5 L 0.5 400.5 L 0.5 0.5" fill-opacity="1"/><rect fill="#FFFFFF" stroke="none" x="53" y="5" width="507" height="349" transform="matrix(1, 0, 0, 1, 0.5, 0.5)"/><path fill="rgb(255,255,255)" stroke="none" paint-order="stroke" d="M 53.5 5.5 L 560.5 5.5 L 560.5 354.5 L 53.5 354.5 L 53.5 5.5" fill-opacity="1"/><path fill="none" stroke="rgb(229,229,229)" paint-order="fill" d="M 53.5 5.5 L 560.5 5.5 L 560.5 354.5 L 53.5 354.5 L 53.5 5.5" stroke-opacity="1" stroke-linejoin="bevel" stroke-miterlimit="10" stroke-dasharray=""/><path fill="none" stroke="rgb(229,229,229)" paint-order="fill" d="M 125.5 354.5 L 125.5 5.5 M 198.5 354.5 L 198.5 5.5 M 270.5 354.5 L 270.5 5.5 M 343.5 354.5 L 343.5 5.5 M 415.5 354.5 L 415.5 5.5 M 488.5 354.5 L 488.5 5.5" stroke-opacity="1" stroke-linejoin="bevel" stroke-miterlimit="10" stroke-dasharray="" clip-path="url(#XWEoxkleEdBH)"/><path fill="none" stroke="rgb(229,229,229)" paint-order="fill" d="M 53.5 284.5 L 560.5 284.5 M 53.5 214.5 L 560.5 214.5 M 53.5 145.5 L 560.5 145.5 M 53.5 75.5 L 560.5 75.5" stroke-opacity="1" stroke-linejoin="bevel" stroke-miterlimit="10" stroke-dasharray="" clip-path="url(#VlyQaXfIkgmf)"/><path fill="none" stroke="rgb(11,132,165)" paint-order="fill" d="M 67.55113983154297 354.5 L 80.44342803955078 354.5 L 90.72828674316406 348.1761169433594 L 101.44771575927734 328.0892028808594 L 115.35399627685547 353.70001220703125 L 125.7837142944336 301.83880615234375 L 135.3442840576172 354.5 L 145.3394317626953 352.50457763671875 L 157.50743103027344 275.3890075683594 L 168.6614227294922 320.7317810058594 L 179.0911407470703 354.0997619628906 L 190.67971801757812 270.99285888671875 L 201.68885803222656 243.02041625976562 L 213.8568572998047 314.6572570800781 L 227.0388641357422 224.7301483154297 L 237.75828552246094 285.9464416503906 L 247.75343322753906 234.4539031982422 L 259.0522766113281 224.10104370117188 L 268.4679870605469 228.47645568847656 L 278.028564453125 252.3616180419922 L 290.3414306640625 181.1678466796875 L 300.62628173828125 195.85206604003906 L 311.0559997558594 201.363037109375 L 322.0651550292969 165.36180114746094 L 333.50885009765625 218.2974853515625 L 344.228271484375 264.8548889160156 L 357.4102783203125 190.54026794433594 L 367.55029296875 187.79364013671875 L 378.5594177246094 211.18212890625 L 391.88629150390625 229.40472412109375 L 401.8814392089844 192.14828491210938 L 412.02142333984375 208.06643676757812 L 421.72686767578125 183.41087341308594 L 435.48828125 148.06175231933594 L 448.0908508300781 185.3767547607422 L 458.3757019042969 227.9413299560547 L 468.370849609375 149.5984344482422 L 479.09027099609375 159.28854370117188 L 488.79571533203125 184.16940307617188 L 500.81884765625 149.56948852539062 L 511.8280029296875 167.39755249023438 L 521.8231201171875 172.09007263183594 L 533.8463134765625 141.84507751464844 L 547.4628295898438 136.3604278564453 L 557.892578125 147.4867401123047 L 568.1774291992188 154.54798889160156 L 578.0277099609375 133.6547393798828 L 588.602294921875 135.68978881835938 L 599.466552734375 136.16065979003906 L 610.3308715820312 160.5722198486328" stroke-opacity="1" stroke-linejoin="bevel" stroke-miterlimit="10" stroke-width="2" stroke-dasharray="" clip-path="url(#LcJEHhDkavQz)"/><path fill="none" stroke="rgb(246,200,95)" paint-order="fill" d="M 67.55113983154297 354.5 L 80.44342803955078 354.5 L 90.72828674316406 351.29632568359375 L 101.44771575927734 340.48394775390625 L 115.35399627685547 354.09954833984375 L 125.7837142944336 321.4621276855469 L 135.3442840576172 354.5 L 145.3394317626953 353.49884033203125 L 157.50743103027344 305.84423828125 L 168.6614227294922 336.27911376953125 L 179.0911407470703 354.2997741699219 L 190.67971801757812 304.2424011230469 L 201.68885803222656 283.2182922363281 L 213.8568572998047 333.2756652832031 L 227.0388641357422 267.8006286621094 L 237.75828552246094 314.85455322265625 L 247.75343322753906 276.8109436035156 L 259.0522766113281 268.8017883300781 L 268.4679870605469 271.60498046875 L 278.028564453125 291.8281555175781 L 290.3414306640625 213.3382110595703 L 300.62628173828125 229.7570343017578 L 311.0559997558594 245.775390625 L 322.0651550292969 174.6939239501953 L 333.50885009765625 264.5969543457031 L 344.228271484375 302.0398864746094 L 357.4102783203125 228.3554229736328 L 367.55029296875 203.52696228027344 L 378.5594177246094 258.7903137207031 L 391.88629150390625 275.40936279296875 L 401.8814392089844 238.76734924316406 L 412.02142333984375 252.38296508789062 L 421.72686767578125 228.95611572265625 L 435.48828125 167.48565673828125 L 448.0908508300781 215.94119262695312 L 458.3757019042969 275.6095886230469 L 468.370849609375 188.50975036621094 L 479.09027099609375 190.3118133544922 L 488.79571533203125 229.7570343017578 L 500.81884765625 181.9021759033203 L 511.8280029296875 194.7168731689453 L 521.8231201171875 221.7478485107422 L 533.8463134765625 177.8975830078125 L 547.4628295898438 167.085205078125 L 557.892578125 184.304931640625 L 568.1774291992188 201.52467346191406 L 578.0277099609375 162.47991943359375 L 588.602294921875 162.68014526367188 L 599.466552734375 163.2808380126953 L 610.3308715820312 188.1092987060547" stroke-opacity="1" stroke-linejoin="bevel" stroke-miterlimit="10" stroke-width="2" stroke-dasharray="" clip-path="url(#AcAsQmArgJsK)"/><path fill="none" stroke="rgb(193,230,153)" paint-order="fill" d="M 67.55113983154297 354.5 L 80.44342803955078 354.5 L 90.72828674316406 111.71739196777344 L 101.44771575927734 126.18224334716797 L 115.35399627685547 5.5 L 125.7837142944336 224.80404663085938 L 135.3442840576172 354.5 L 145.3394317626953 63.66666793823242 L 157.50743103027344 143.01121520996094 L 168.6614227294922 124.36231994628906 L 179.0911407470703 5.5 L 190.67971801757812 107.74225616455078 L 201.68885803222656 98.85391235351562 L 213.8568572998047 29.991228103637695 L 227.0388641357422 96.62116241455078 L 237.75828552246094 101.37911987304688 L 247.75343322753906 90.53898620605469 L 259.0522766113281 81.92335510253906 L 268.4679870605469 91.79817962646484 L 278.028564453125 78.64898681640625 L 290.3414306640625 130.0063934326172 L 300.62628173828125 136.63726806640625 L 311.0559997558594 95.61065673828125 L 322.0651550292969 155.00794982910156 L 333.50885009765625 73.67383575439453 L 344.228271484375 46.62794494628906 L 357.4102783203125 120.34664916992188 L 367.55029296875 168.3995819091797 L 378.5594177246094 69.33419036865234 L 391.88629150390625 55.465293884277344 L 401.8814392089844 82.63746643066406 L 412.02142333984375 95.7936019897461 L 421.72686767578125 86.00552368164062 L 435.48828125 124.13533782958984 L 448.0908508300781 137.5116729736328 L 458.3757019042969 34.718605041503906 L 468.370849609375 86.85800170898438 L 479.09027099609375 113.81034851074219 L 488.79571533203125 86.07160186767578 L 500.81884765625 102.33068084716797 L 511.8280029296875 128.80955505371094 L 521.8231201171875 63.080604553222656 L 533.8463134765625 87.296875 L 547.4628295898438 93.58626556396484 L 557.892578125 90.34149932861328 L 568.1774291992188 65.93289947509766 L 578.0277099609375 94.64673614501953 L 588.602294921875 99.86024475097656 L 599.466552734375 100.07633209228516 L 610.3308715820312 122.11298370361328" stroke-opacity="1" stroke-linejoin="bevel" stroke-miterlimit="10" stroke-width="2" stroke-dasharray="" clip-path="url(#gkkpckMHeUbw)"/><path fill="none" stroke="rgb(0,0,0)" paint-order="fill" d="M 53.5 354.5 L 560.5 354.5" stroke-opacity="1" stroke-linejoin="bevel" stroke-miterlimit="10" stroke-dasharray=""/><path fill="none" stroke="rgb(0,0,0)" paint-order="fill" d="M 53.5 360.5 L 53.5 352.5 M 125.5 360.5 L 125.5 352.5 M 198.5 360.5 L 198.5 352.5 M 270.5 360.5 L 270.5 352.5 M 343.5 360.5 L 343.5 352.5 M 415.5 360.5 L 415.5 352.5 M 488.5 360.5 L 488.5 352.5 M 560.5 360.5 L 560.5 352.5" stroke-opacity="1" stroke-linejoin="bevel" stroke-miterlimit="10" stroke-dasharray=""/><path fill="none" stroke="rgb(0,0,0)" paint-order="fill" d="M 53.5 358.5 L 53.5 354.5 M 67.5 358.5 L 67.5 354.5 M 82.5 358.5 L 82.5 354.5 M 96.5 358.5 L 96.5 354.5 M 111.5 358.5 L 111.5 354.5 M 125.5 358.5 L 125.5 354.5 M 140.5 358.5 L 140.5 354.5 M 154.5 358.5 L 154.5 354.5 M 169.5 358.5 L 169.5 354.5 M 183.5 358.5 L 183.5 354.5 M 198.5 358.5 L 198.5 354.5 M 212.5 358.5 L 212.5 354.5 M 227.5 358.5 L 227.5 354.5 M 241.5 358.5 L 241.5 354.5 M 256.5 358.5 L 256.5 354.5 M 270.5 358.5 L 270.5 354.5 M 285.5 358.5 L 285.5 354.5 M 299.5 358.5 L 299.5 354.5 M 314.5 358.5 L 314.5 354.5 M 328.5 358.5 L 328.5 354.5 M 343.5 358.5 L 343.5 354.5 M 357.5 358.5 L 357.5 354.5 M 372.5 358.5 L 372.5 354.5 M 386.5 358.5 L 386.5 354.5 M 401.5 358.5 L 401.5 354.5 M 415.5 358.5 L 415.5 354.5 M 430.5 358.5 L 430.5 354.5 M 444.5 358.5 L 444.5 354.5 M 459.5 358.5 L 459.5 354.5 M 473.5 358.5 L 473.5 354.5 M 488.5 358.5 L 488.5 354.5 M 502.5 358.5 L 502.5 354.5 M 517.5 358.5 L 517.5 354.5 M 531.5 358.5 L 531.5 354.5 M 546.5 358.5 L 546.5 354.5 M 560.5 358.5 L 560.5 354.5" stroke-opacity="1" stroke-linejoin="bevel" stroke-miterlimit="10" stroke-dasharray=""/><text fill="rgb(68,68,68)" stroke="none" font-family="helvetica" font-size="11px" font-style="normal" font-weight="normal" text-decoration="normal" x="49.94166660308838" y="373" text-anchor="start" dominant-baseline="alphabetic" transform="matrix(1, 0, 0, 1, 0.5, 0.5)" fill-opacity="1">0</text><text fill="none" stroke="rgb(0,0,0)" font-family="helvetica" font-size="11px" font-style="normal" font-weight="normal" text-decoration="normal" x="49.94166660308838" y="373" text-anchor="start" dominant-baseline="alphabetic" transform="matrix(1, 0, 0, 1, 0.5, 0.5)" stroke-opacity="0" stroke-linejoin="bevel" stroke-miterlimit="10" stroke-dasharray="">0</text><text fill="rgb(68,68,68)" stroke="none" font-family="helvetica" font-size="11px" font-style="normal" font-weight="normal" text-decoration="normal" x="116.25357341766357" y="373" text-anchor="start" dominant-baseline="alphabetic" transform="matrix(1, 0, 0, 1, 0.5, 0.5)" fill-opacity="1">500</text><text fill="none" stroke="rgb(0,0,0)" font-family="helvetica" font-size="11px" font-style="normal" font-weight="normal" text-decoration="normal" x="116.25357341766357" y="373" text-anchor="start" dominant-baseline="alphabetic" transform="matrix(1, 0, 0, 1, 0.5, 0.5)" stroke-opacity="0" stroke-linejoin="bevel" stroke-miterlimit="10" stroke-dasharray="">500</text><text fill="rgb(68,68,68)" stroke="none" font-family="helvetica" font-size="11px" font-style="normal" font-weight="normal" text-decoration="normal" x="185.6238136291504" y="373" text-anchor="start" dominant-baseline="alphabetic" transform="matrix(1, 0, 0, 1, 0.5, 0.5)" fill-opacity="1">1000</text><text fill="none" stroke="rgb(0,0,0)" font-family="helvetica" font-size="11px" font-style="normal" font-weight="normal" text-decoration="normal" x="185.6238136291504" y="373" text-anchor="start" dominant-baseline="alphabetic" transform="matrix(1, 0, 0, 1, 0.5, 0.5)" stroke-opacity="0" stroke-linejoin="bevel" stroke-miterlimit="10" stroke-dasharray="">1000</text><text fill="rgb(68,68,68)" stroke="none" font-family="helvetica" font-size="11px" font-style="normal" font-weight="normal" text-decoration="normal" x="258.05237197875977" y="373" text-anchor="start" dominant-baseline="alphabetic" transform="matrix(1, 0, 0, 1, 0.5, 0.5)" fill-opacity="1">1500</text><text fill="none" stroke="rgb(0,0,0)" font-family="helvetica" font-size="11px" font-style="normal" font-weight="normal" text-decoration="normal" x="258.05237197875977" y="373" text-anchor="start" dominant-baseline="alphabetic" transform="matrix(1, 0, 0, 1, 0.5, 0.5)" stroke-opacity="0" stroke-linejoin="bevel" stroke-miterlimit="10" stroke-dasharray="">1500</text><text fill="rgb(68,68,68)" stroke="none" font-family="helvetica" font-size="11px" font-style="normal" font-weight="normal" text-decoration="normal" x="330.48096084594727" y="373" text-anchor="start" dominant-baseline="alphabetic" transform="matrix(1, 0, 0, 1, 0.5, 0.5)" fill-opacity="1">2000</text><text fill="none" stroke="rgb(0,0,0)" font-family="helvetica" font-size="11px" font-style="normal" font-weight="normal" text-decoration="normal" x="330.48096084594727" y="373" text-anchor="start" dominant-baseline="alphabetic" transform="matrix(1, 0, 0, 1, 0.5, 0.5)" stroke-opacity="0" stroke-linejoin="bevel" stroke-miterlimit="10" stroke-dasharray="">2000</text><text fill="rgb(68,68,68)" stroke="none" font-family="helvetica" font-size="11px" font-style="normal" font-weight="normal" text-decoration="normal" x="402.90951919555664" y="373" text-anchor="start" dominant-baseline="alphabetic" transform="matrix(1, 0, 0, 1, 0.5, 0.5)" fill-opacity="1">2500</text><text fill="none" stroke="rgb(0,0,0)" font-family="helvetica" font-size="11px" font-style="normal" font-weight="normal" text-decoration="normal" x="402.90951919555664" y="373" text-anchor="start" dominant-baseline="alphabetic" transform="matrix(1, 0, 0, 1, 0.5, 0.5)" stroke-opacity="0" stroke-linejoin="bevel" stroke-miterlimit="10" stroke-dasharray="">2500</text><text fill="rgb(68,68,68)" stroke="none" font-family="helvetica" font-size="11px" font-style="normal" font-weight="normal" text-decoration="normal" x="475.33810806274414" y="373" text-anchor="start" dominant-baseline="alphabetic" transform="matrix(1, 0, 0, 1, 0.5, 0.5)" fill-opacity="1">3000</text><text fill="none" stroke="rgb(0,0,0)" font-family="helvetica" font-size="11px" font-style="normal" font-weight="normal" text-decoration="normal" x="475.33810806274414" y="373" text-anchor="start" dominant-baseline="alphabetic" transform="matrix(1, 0, 0, 1, 0.5, 0.5)" stroke-opacity="0" stroke-linejoin="bevel" stroke-miterlimit="10" stroke-dasharray="">3000</text><text fill="rgb(68,68,68)" stroke="none" font-family="helvetica" font-size="11px" font-style="normal" font-weight="normal" text-decoration="normal" x="547.7666664123535" y="373" text-anchor="start" dominant-baseline="alphabetic" transform="matrix(1, 0, 0, 1, 0.5, 0.5)" fill-opacity="1">3500</text><text fill="none" stroke="rgb(0,0,0)" font-family="helvetica" font-size="11px" font-style="normal" font-weight="normal" text-decoration="normal" x="547.7666664123535" y="373" text-anchor="start" dominant-baseline="alphabetic" transform="matrix(1, 0, 0, 1, 0.5, 0.5)" stroke-opacity="0" stroke-linejoin="bevel" stroke-miterlimit="10" stroke-dasharray="">3500</text><text fill="rgb(68,68,68)" stroke="none" font-family="helvetica" font-size="13px" font-style="italic" font-weight="normal" text-decoration="normal" x="272.53333282470703" y="394" text-anchor="start" dominant-baseline="alphabetic" transform="matrix(1, 0, 0, 1, 0.5, 0.5)" fill-opacity="1">Liczba encji</text><text fill="none" stroke="rgb(0,0,0)" font-family="helvetica" font-size="13px" font-style="italic" font-weight="normal" text-decoration="normal" x="272.53333282470703" y="394" text-anchor="start" dominant-baseline="alphabetic" transform="matrix(1, 0, 0, 1, 0.5, 0.5)" stroke-opacity="0" stroke-linejoin="bevel" stroke-miterlimit="10" stroke-dasharray="">Liczba encji</text><path fill="none" stroke="rgb(0,0,0)" paint-order="fill" d="M 53.5 354.5 L 53.5 5.5" stroke-opacity="1" stroke-linejoin="bevel" stroke-miterlimit="10" stroke-dasharray=""/><path fill="none" stroke="rgb(0,0,0)" paint-order="fill" d="M 47.5 354.5 L 55.5 354.5 M 47.5 284.5 L 55.5 284.5 M 47.5 214.5 L 55.5 214.5 M 47.5 145.5 L 55.5 145.5 M 47.5 75.5 L 55.5 75.5 M 47.5 5.5 L 55.5 5.5" stroke-opacity="1" stroke-linejoin="bevel" stroke-miterlimit="10" stroke-dasharray=""/><path fill="none" stroke="rgb(0,0,0)" paint-order="fill" d="M 49.5 354.5 L 53.5 354.5 M 49.5 340.5 L 53.5 340.5 M 49.5 326.5 L 53.5 326.5 M 49.5 312.5 L 53.5 312.5 M 49.5 298.5 L 53.5 298.5 M 49.5 284.5 L 53.5 284.5 M 49.5 270.5 L 53.5 270.5 M 49.5 256.5 L 53.5 256.5 M 49.5 242.5 L 53.5 242.5 M 49.5 228.5 L 53.5 228.5 M 49.5 214.5 L 53.5 214.5 M 49.5 200.5 L 53.5 200.5 M 49.5 186.5 L 53.5 186.5 M 49.5 173.5 L 53.5 173.5 M 49.5 159.5 L 53.5 159.5 M 49.5 145.5 L 53.5 145.5 M 49.5 131.5 L 53.5 131.5 M 49.5 117.5 L 53.5 117.5 M 49.5 103.5 L 53.5 103.5 M 49.5 89.5 L 53.5 89.5 M 49.5 75.5 L 53.5 75.5 M 49.5 61.5 L 53.5 61.5 M 49.5 47.5 L 53.5 47.5 M 49.5 33.5 L 53.5 33.5 M 49.5 19.5 L 53.5 19.5 M 49.5 5.5 L 53.5 5.5" stroke-opacity="1" stroke-linejoin="bevel" stroke-miterlimit="10" stroke-dasharray=""/><text fill="rgb(68,68,68)" stroke="none" font-family="helvetica" font-size="11px" font-style="normal" font-weight="normal" text-decoration="normal" x="35.88333320617676" y="358" text-anchor="start" dominant-baseline="alphabetic" transform="matrix(1, 0, 0, 1, 0.5, 0.5)" fill-opacity="1">0</text><text fill="none" stroke="rgb(0,0,0)" font-family="helvetica" font-size="11px" font-style="normal" font-weight="normal" text-decoration="normal" x="35.88333320617676" y="358" text-anchor="start" dominant-baseline="alphabetic" transform="matrix(1, 0, 0, 1, 0.5, 0.5)" stroke-opacity="0" stroke-linejoin="bevel" stroke-miterlimit="10" stroke-dasharray="">0</text><text fill="rgb(68,68,68)" stroke="none" font-family="helvetica" font-size="11px" font-style="normal" font-weight="normal" text-decoration="normal" x="26.716666221618652" y="288.20001220703125" text-anchor="start" dominant-baseline="alphabetic" transform="matrix(1, 0, 0, 1, 0.5, 0.5)" fill-opacity="1">0.2</text><text fill="none" stroke="rgb(0,0,0)" font-family="helvetica" font-size="11px" font-style="normal" font-weight="normal" text-decoration="normal" x="26.716666221618652" y="288.20001220703125" text-anchor="start" dominant-baseline="alphabetic" transform="matrix(1, 0, 0, 1, 0.5, 0.5)" stroke-opacity="0" stroke-linejoin="bevel" stroke-miterlimit="10" stroke-dasharray="">0.2</text><text fill="rgb(68,68,68)" stroke="none" font-family="helvetica" font-size="11px" font-style="normal" font-weight="normal" text-decoration="normal" x="26.716666221618652" y="218.39999389648438" text-anchor="start" dominant-baseline="alphabetic" transform="matrix(1, 0, 0, 1, 0.5, 0.5)" fill-opacity="1">0.4</text><text fill="none" stroke="rgb(0,0,0)" font-family="helvetica" font-size="11px" font-style="normal" font-weight="normal" text-decoration="normal" x="26.716666221618652" y="218.39999389648438" text-anchor="start" dominant-baseline="alphabetic" transform="matrix(1, 0, 0, 1, 0.5, 0.5)" stroke-opacity="0" stroke-linejoin="bevel" stroke-miterlimit="10" stroke-dasharray="">0.4</text><text fill="rgb(68,68,68)" stroke="none" font-family="helvetica" font-size="11px" font-style="normal" font-weight="normal" text-decoration="normal" x="26.716666221618652" y="148.60000610351562" text-anchor="start" dominant-baseline="alphabetic" transform="matrix(1, 0, 0, 1, 0.5, 0.5)" fill-opacity="1">0.6</text><text fill="none" stroke="rgb(0,0,0)" font-family="helvetica" font-size="11px" font-style="normal" font-weight="normal" text-decoration="normal" x="26.716666221618652" y="148.60000610351562" text-anchor="start" dominant-baseline="alphabetic" transform="matrix(1, 0, 0, 1, 0.5, 0.5)" stroke-opacity="0" stroke-linejoin="bevel" stroke-miterlimit="10" stroke-dasharray="">0.6</text><text fill="rgb(68,68,68)" stroke="none" font-family="helvetica" font-size="11px" font-style="normal" font-weight="normal" text-decoration="normal" x="26.716666221618652" y="78.80000305175781" text-anchor="start" dominant-baseline="alphabetic" transform="matrix(1, 0, 0, 1, 0.5, 0.5)" fill-opacity="1">0.8</text><text fill="none" stroke="rgb(0,0,0)" font-family="helvetica" font-size="11px" font-style="normal" font-weight="normal" text-decoration="normal" x="26.716666221618652" y="78.80000305175781" text-anchor="start" dominant-baseline="alphabetic" transform="matrix(1, 0, 0, 1, 0.5, 0.5)" stroke-opacity="0" stroke-linejoin="bevel" stroke-miterlimit="10" stroke-dasharray="">0.8</text><text fill="rgb(68,68,68)" stroke="none" font-family="helvetica" font-size="11px" font-style="normal" font-weight="normal" text-decoration="normal" x="35.88333320617676" y="9" text-anchor="start" dominant-baseline="alphabetic" transform="matrix(1, 0, 0, 1, 0.5, 0.5)" fill-opacity="1">1</text><text fill="none" stroke="rgb(0,0,0)" font-family="helvetica" font-size="11px" font-style="normal" font-weight="normal" text-decoration="normal" x="35.88333320617676" y="9" text-anchor="start" dominant-baseline="alphabetic" transform="matrix(1, 0, 0, 1, 0.5, 0.5)" stroke-opacity="0" stroke-linejoin="bevel" stroke-miterlimit="10" stroke-dasharray="">1</text><text fill="rgb(68,68,68)" stroke="none" font-family="helvetica" font-size="13px" font-style="italic" font-weight="normal" text-decoration="normal" x="-27.649998664855957" y="176.5" text-anchor="start" dominant-baseline="alphabetic" transform="matrix(6.123233995736766e-17, -1, 1, 6.123233995736766e-17, -160.28333377838135, 198.71666622161865)" fill-opacity="1">Wartość metryki</text><text fill="none" stroke="rgb(0,0,0)" font-family="helvetica" font-size="13px" font-style="italic" font-weight="normal" text-decoration="normal" x="-27.649998664855957" y="176.5" text-anchor="start" dominant-baseline="alphabetic" transform="matrix(6.123233995736766e-17, -1, 1, 6.123233995736766e-17, -160.28333377838135, 198.71666622161865)" stroke-opacity="0" stroke-linejoin="bevel" stroke-miterlimit="10" stroke-dasharray="">Wartość metryki</text><path fill="rgb(255,255,255)" stroke="rgb(229,229,229)" paint-order="fill" d="M 570.3333358764648 15.5 L 690.5 15.5 L 690.5 101.5 L 570.3333358764648 101.5 L 570.3333358764648 15.5" fill-opacity="0.9490196078431372" stroke-opacity="0.5019607843137255" stroke-linejoin="bevel" stroke-miterlimit="10" stroke-dasharray=""/><text fill="rgb(68,68,68)" stroke="none" font-family="helvetica" font-size="13px" font-style="normal" font-weight="normal" text-decoration="normal" x="604.8333358764648" y="35" text-anchor="start" dominant-baseline="central" transform="matrix(1, 0, 0, 1, 0.5, 0.5)" fill-opacity="1">F1</text><path fill="none" stroke="rgb(11,132,165)" paint-order="fill" d="M 580.3333358764648 35.5 L 600.3333358764648 35.5" stroke-opacity="1" stroke-linejoin="bevel" stroke-miterlimit="10" stroke-width="2" stroke-dasharray=""/><text fill="rgb(68,68,68)" stroke="none" font-family="helvetica" font-size="13px" font-style="normal" font-weight="normal" text-decoration="normal" x="604.8333358764648" y="58" text-anchor="start" dominant-baseline="central" transform="matrix(1, 0, 0, 1, 0.5, 0.5)" fill-opacity="1">Kompletność</text><path fill="none" stroke="rgb(246,200,95)" paint-order="fill" d="M 580.3333358764648 58.5 L 600.3333358764648 58.5" stroke-opacity="1" stroke-linejoin="bevel" stroke-miterlimit="10" stroke-width="2" stroke-dasharray=""/><text fill="rgb(68,68,68)" stroke="none" font-family="helvetica" font-size="13px" font-style="normal" font-weight="normal" text-decoration="normal" x="604.8333358764648" y="81" text-anchor="start" dominant-baseline="central" transform="matrix(1, 0, 0, 1, 0.5, 0.5)" fill-opacity="1">Dokładność</text><path fill="none" stroke="rgb(193,230,153)" paint-order="fill" d="M 580.3333358764648 81.5 L 600.3333358764648 81.5" stroke-opacity="1" stroke-linejoin="bevel" stroke-miterlimit="10" stroke-width="2" stroke-dasharray=""/><path fill="rgb(255,255,255)" stroke="rgb(229,229,229)" paint-order="fill" d="M 570.3333358764648 15.5 L 690.5 15.5 L 690.5 101.5 L 570.3333358764648 101.5 L 570.3333358764648 15.5" fill-opacity="0.9490196078431372" stroke-opacity="0.5019607843137255" stroke-linejoin="bevel" stroke-miterlimit="10" stroke-dasharray=""/><text fill="rgb(68,68,68)" stroke="none" font-family="helvetica" font-size="13px" font-style="normal" font-weight="normal" text-decoration="normal" x="604.8333358764648" y="35" text-anchor="start" dominant-baseline="central" transform="matrix(1, 0, 0, 1, 0.5, 0.5)" fill-opacity="1">F1</text><path fill="none" stroke="rgb(11,132,165)" paint-order="fill" d="M 580.3333358764648 35.5 L 600.3333358764648 35.5" stroke-opacity="1" stroke-linejoin="bevel" stroke-miterlimit="10" stroke-width="2" stroke-dasharray=""/><text fill="rgb(68,68,68)" stroke="none" font-family="helvetica" font-size="13px" font-style="normal" font-weight="normal" text-decoration="normal" x="604.8333358764648" y="58" text-anchor="start" dominant-baseline="central" transform="matrix(1, 0, 0, 1, 0.5, 0.5)" fill-opacity="1">Kompletność</text><path fill="none" stroke="rgb(246,200,95)" paint-order="fill" d="M 580.3333358764648 58.5 L 600.3333358764648 58.5" stroke-opacity="1" stroke-linejoin="bevel" stroke-miterlimit="10" stroke-width="2" stroke-dasharray=""/><text fill="rgb(68,68,68)" stroke="none" font-family="helvetica" font-size="13px" font-style="normal" font-weight="normal" text-decoration="normal" x="604.8333358764648" y="81" text-anchor="start" dominant-baseline="central" transform="matrix(1, 0, 0, 1, 0.5, 0.5)" fill-opacity="1">Dokładność</text><path fill="none" stroke="rgb(193,230,153)" paint-order="fill" d="M 580.3333358764648 81.5 L 600.3333358764648 81.5" stroke-opacity="1" stroke-linejoin="bevel" stroke-miterlimit="10" stroke-width="2" stroke-dasharray=""/></svg>