<svg version="1.1" xmlns="http://www.w3.org/2000/svg" width="700" height="400"><defs><clipPath id="SwStdhEUyXHC"><path fill="none" stroke="none" d="M 56.5 5.5 L 695.5 5.5 L 695.5 373.5 L 56.5 373.5 L 56.5 5.5"/></clipPath><clipPath id="aFAqpusclzTi"><path fill="none" stroke="none" d="M 56.5 5.5 L 695.5 5.5 L 695.5 373.5 L 56.5 373.5 L 56.5 5.5"/></clipPath><clipPath id="dtxuyaCzxEQI"><path fill="none" stroke="none" d="M 56.5 5.5 L 695.5 5.5 L 695.5 373.5 L 56.5 373.5 L 56.5 5.5"/></clipPath><clipPath id="JeFhWIxPxsuT"><path fill="none" stroke="none" d="M 56.5 5.5 L 695.5 5.5 L 695.5 373.5 L 56.5 373.5 L 56.5 5.5"/></clipPath><clipPath id="QOZpoQhZfKuN"><path fill="none" stroke="none" d="M 56.5 5.5 L 695.5 5.5 L 695.5 373.5 L 56.5 373.5 L 56.5 5.5"/></clipPath><clipPath id="piASPdvAOHJS"><path fill="none" stroke="none" d="M 56.5 5.5 L 695.5 5.5 L 695.5 373.5 L 56.5 373.5 L 56.5 5.5"/></clipPath></defs><path fill="rgb(255,255,255)" stroke="none" paint-order="stroke" d="M 0.5 0.5 L 700.5 0.5 L 700.5 400.5 L 0.5 400.5 L 0.5 0.5" fill-opacity="1"/><rect fill="#FFFFFF" stroke="none" x="56" y="5" width="639" height="368" transform="matrix(1, 0, 0, 1, 0.5, 0.5)"/><path fill="rgb(255,255,255)" stroke="none" paint-order="stroke" d="M 56.5 5.5 L 695.5 5.5 L 695.5 373.5 L 56.5 373.5 L 56.5 5.5" fill-opacity="1"/><path fill="none" stroke="rgb(229,229,229)" paint-order="fill" d="M 56.5 5.5 L 695.5 5.5 L 695.5 373.5 L 56.5 373.5 L 56.5 5.5" stroke-opacity="1" stroke-linejoin="bevel" stroke-miterlimit="10" stroke-dasharray=""/><path fill="none" stroke="rgb(229,229,229)" paint-order="fill" d="M 56.5 306.5 L 695.5 306.5 M 56.5 240.5 L 695.5 240.5 M 56.5 173.5 L 695.5 173.5 M 56.5 107.5 L 695.5 107.5 M 56.5 40.5 L 695.5 40.5" stroke-opacity="1" stroke-linejoin="bevel" stroke-miterlimit="10" stroke-dasharray="" clip-path="url(#aFAqpusclzTi)"/><path fill="rgb(229,151,151)" stroke="rgb(0,0,0)" paint-order="fill" d="M 72.47500610351562 64.14546203613281 L 360.0249938964844 64.14546203613281 L 360.0249938964844 373.5 L 72.47500610351562 373.5 L 72.47500610351562 64.14546203613281" fill-opacity="1" clip-path="url(#dtxuyaCzxEQI)" stroke-opacity="0.4" stroke-linejoin="bevel" stroke-miterlimit="10" stroke-dasharray=""/><path fill="rgb(46,139,87)" stroke="rgb(0,0,0)" paint-order="fill" d="M 391.9750061035156 23.0238094329834 L 679.5250244140625 23.0238094329834 L 679.5250244140625 373.5 L 391.9750061035156 373.5 L 391.9750061035156 23.0238094329834" fill-opacity="1" clip-path="url(#dtxuyaCzxEQI)" stroke-opacity="0.4" stroke-linejoin="bevel" stroke-miterlimit="10" stroke-dasharray=""/><g clip-path="url(#JeFhWIxPxsuT)"><text fill="rgb(68,68,68)" stroke="none" font-family="helvetica" font-size="16px" font-style="normal" font-weight="normal" text-decoration="normal" x="191.27499961853027" y="218.32273864746094" text-anchor="start" dominant-baseline="alphabetic" transform="matrix(1, 0, 0, 1, 0.5, 0.5)" fill-opacity="1">465.17</text></g><g clip-path="url(#JeFhWIxPxsuT)"><text fill="none" stroke="rgb(0,0,0)" font-family="helvetica" font-size="16px" font-style="normal" font-weight="normal" text-decoration="normal" x="191.27499961853027" y="218.32273864746094" text-anchor="start" dominant-baseline="alphabetic" transform="matrix(1, 0, 0, 1, 0.5, 0.5)" stroke-opacity="0" stroke-miterlimit="10" stroke-dasharray="">465.17</text></g><g clip-path="url(#JeFhWIxPxsuT)"><text fill="rgb(68,68,68)" stroke="none" font-family="helvetica" font-size="16px" font-style="normal" font-weight="normal" text-decoration="normal" x="510.7749996185303" y="197.76190185546875" text-anchor="start" dominant-baseline="alphabetic" transform="matrix(1, 0, 0, 1, 0.5, 0.5)" fill-opacity="1">527.00</text></g><g clip-path="url(#JeFhWIxPxsuT)"><text fill="none" stroke="rgb(0,0,0)" font-family="helvetica" font-size="16px" font-style="normal" font-weight="normal" text-decoration="normal" x="510.7749996185303" y="197.76190185546875" text-anchor="start" dominant-baseline="alphabetic" transform="matrix(1, 0, 0, 1, 0.5, 0.5)" stroke-opacity="0" stroke-miterlimit="10" stroke-dasharray="">527.00</text></g><path fill="none" stroke="rgb(0,0,0)" paint-order="fill" d="M 56.5 373.5 L 695.5 373.5" stroke-opacity="1" stroke-linejoin="bevel" stroke-miterlimit="10" stroke-dasharray=""/><path fill="none" stroke="rgb(0,0,0)" paint-order="fill" d="M 216.5 379.5 L 216.5 371.5 M 535.5 379.5 L 535.5 371.5" stroke-opacity="1" stroke-linejoin="bevel" stroke-miterlimit="10" stroke-dasharray=""/><path fill="none" stroke="rgb(0,0,0)" paint-order="fill" d="" stroke-opacity="1" stroke-linejoin="bevel" stroke-miterlimit="10" stroke-dasharray=""/><text fill="rgb(68,68,68)" stroke="none" font-family="helvetica" font-size="11px" font-style="normal" font-weight="normal" text-decoration="normal" x="172.03333282470703" y="395" text-anchor="start" dominant-baseline="alphabetic" transform="matrix(1, 0, 0, 1, 0.5, 0.5)" fill-opacity="1">Bez rekomendacji</text><text fill="none" stroke="rgb(0,0,0)" font-family="helvetica" font-size="11px" font-style="normal" font-weight="normal" text-decoration="normal" x="172.03333282470703" y="395" text-anchor="start" dominant-baseline="alphabetic" transform="matrix(1, 0, 0, 1, 0.5, 0.5)" stroke-opacity="0" stroke-linejoin="bevel" stroke-miterlimit="10" stroke-dasharray="">Bez rekomendacji</text><text fill="rgb(68,68,68)" stroke="none" font-family="helvetica" font-size="11px" font-style="normal" font-weight="normal" text-decoration="normal" x="490.0083351135254" y="395" text-anchor="start" dominant-baseline="alphabetic" transform="matrix(1, 0, 0, 1, 0.5, 0.5)" fill-opacity="1">Z rekomendacjami</text><text fill="none" stroke="rgb(0,0,0)" font-family="helvetica" font-size="11px" font-style="normal" font-weight="normal" text-decoration="normal" x="490.0083351135254" y="395" text-anchor="start" dominant-baseline="alphabetic" transform="matrix(1, 0, 0, 1, 0.5, 0.5)" stroke-opacity="0" stroke-linejoin="bevel" stroke-miterlimit="10" stroke-dasharray="">Z rekomendacjami</text><path fill="none" stroke="rgb(0,0,0)" paint-order="fill" d="M 56.5 373.5 L 56.5 5.5" stroke-opacity="1" stroke-linejoin="bevel" stroke-miterlimit="10" stroke-dasharray=""/><path fill="none" stroke="rgb(0,0,0)" paint-order="fill" d="M 50.5 373.5 L 58.5 373.5 M 50.5 306.5 L 58.5 306.5 M 50.5 240.5 L 58.5 240.5 M 50.5 173.5 L 58.5 173.5 M 50.5 107.5 L 58.5 107.5 M 50.5 40.5 L 58.5 40.5" stroke-opacity="1" stroke-linejoin="bevel" stroke-miterlimit="10" stroke-dasharray=""/><path fill="none" stroke="rgb(0,0,0)" paint-order="fill" d="M 52.5 373.5 L 56.5 373.5 M 52.5 360.5 L 56.5 360.5 M 52.5 346.5 L 56.5 346.5 M 52.5 333.5 L 56.5 333.5 M 52.5 320.5 L 56.5 320.5 M 52.5 306.5 L 56.5 306.5 M 52.5 293.5 L 56.5 293.5 M 52.5 280.5 L 56.5 280.5 M 52.5 267.5 L 56.5 267.5 M 52.5 253.5 L 56.5 253.5 M 52.5 240.5 L 56.5 240.5 M 52.5 227.5 L 56.5 227.5 M 52.5 213.5 L 56.5 213.5 M 52.5 200.5 L 56.5 200.5 M 52.5 187.5 L 56.5 187.5 M 52.5 173.5 L 56.5 173.5 M 52.5 160.5 L 56.5 160.5 M 52.5 147.5 L 56.5 147.5 M 52.5 134.5 L 56.5 134.5 M 52.5 120.5 L 56.5 120.5 M 52.5 107.5 L 56.5 107.5 M 52.5 94.5 L 56.5 94.5 M 52.5 80.5 L 56.5 80.5 M 52.5 67.5 L 56.5 67.5 M 52.5 54.5 L 56.5 54.5 M 52.5 40.5 L 56.5 40.5 M 52.5 27.5 L 56.5 27.5 M 52.5 14.5 L 56.5 14.5" stroke-opacity="1" stroke-linejoin="bevel" stroke-miterlimit="10" stroke-dasharray=""/><text fill="rgb(68,68,68)" stroke="none" font-family="helvetica" font-size="11px" font-style="normal" font-weight="normal" text-decoration="normal" x="38.88333320617676" y="377" text-anchor="start" dominant-baseline="alphabetic" transform="matrix(1, 0, 0, 1, 0.5, 0.5)" fill-opacity="1">0</text><text fill="none" stroke="rgb(0,0,0)" font-family="helvetica" font-size="11px" font-style="normal" font-weight="normal" text-decoration="normal" x="38.88333320617676" y="377" text-anchor="start" dominant-baseline="alphabetic" transform="matrix(1, 0, 0, 1, 0.5, 0.5)" stroke-opacity="0" stroke-linejoin="bevel" stroke-miterlimit="10" stroke-dasharray="">0</text><text fill="rgb(68,68,68)" stroke="none" font-family="helvetica" font-size="11px" font-style="normal" font-weight="normal" text-decoration="normal" x="26.649999618530273" y="310.4959716796875" text-anchor="start" dominant-baseline="alphabetic" transform="matrix(1, 0, 0, 1, 0.5, 0.5)" fill-opacity="1">100</text><text fill="none" stroke="rgb(0,0,0)" font-family="helvetica" font-size="11px" font-style="normal" font-weight="normal" text-decoration="normal" x="26.649999618530273" y="310.4959716796875" text-anchor="start" dominant-baseline="alphabetic" transform="matrix(1, 0, 0, 1, 0.5, 0.5)" stroke-opacity="0" stroke-linejoin="bevel" stroke-miterlimit="10" stroke-dasharray="">100</text><text fill="rgb(68,68,68)" stroke="none" font-family="helvetica" font-size="11px" font-style="normal" font-weight="normal" text-decoration="normal" x="26.649999618530273" y="243.99195861816406" text-anchor="start" dominant-baseline="alphabetic" transform="matrix(1, 0, 0, 1, 0.5, 0.5)" fill-opacity="1">200</text><text fill="none" stroke="rgb(0,0,0)" font-family="helvetica" font-size="11px" font-style="normal" font-weight="normal" text-decoration="normal" x="26.649999618530273" y="243.99195861816406" text-anchor="start" dominant-baseline="alphabetic" transform="matrix(1, 0, 0, 1, 0.5, 0.5)" stroke-opacity="0" stroke-linejoin="bevel" stroke-miterlimit="10" stroke-dasharray="">200</text><text fill="rgb(68,68,68)" stroke="none" font-family="helvetica" font-size="11px" font-style="normal" font-weight="normal" text-decoration="normal" x="26.649999618530273" y="177.48793029785156" text-anchor="start" dominant-baseline="alphabetic" transform="matrix(1, 0, 0, 1, 0.5, 0.5)" fill-opacity="1">300</text><text fill="none" stroke="rgb(0,0,0)" font-family="helvetica" font-size="11px" font-style="normal" font-weight="normal" text-decoration="normal" x="26.649999618530273" y="177.48793029785156" text-anchor="start" dominant-baseline="alphabetic" transform="matrix(1, 0, 0, 1, 0.5, 0.5)" stroke-opacity="0" stroke-linejoin="bevel" stroke-miterlimit="10" stroke-dasharray="">300</text><text fill="rgb(68,68,68)" stroke="none" font-family="helvetica" font-size="11px" font-style="normal" font-weight="normal" text-decoration="normal" x="26.649999618530273" y="110.98391723632812" text-anchor="start" dominant-baseline="alphabetic" transform="matrix(1, 0, 0, 1, 0.5, 0.5)" fill-opacity="1">400</text><text fill="none" stroke="rgb(0,0,0)" font-family="helvetica" font-size="11px" font-style="normal" font-weight="normal" text-decoration="normal" x="26.649999618530273" y="110.98391723632812" text-anchor="start" dominant-baseline="alphabetic" transform="matrix(1, 0, 0, 1, 0.5, 0.5)" stroke-opacity="0" stroke-linejoin="bevel" stroke-miterlimit="10" stroke-dasharray="">400</text><text fill="rgb(68,68,68)" stroke="none" font-family="helvetica" font-size="11px" font-style="normal" font-weight="normal" text-decoration="normal" x="26.649999618530273" y="44.479896545410156" text-anchor="start" dominant-baseline="alphabetic" transform="matrix(1, 0, 0, 1, 0.5, 0.5)" fill-opacity="1">500</text><text fill="none" stroke="rgb(0,0,0)" font-family="helvetica" font-size="11px" font-style="normal" font-weight="normal" text-decoration="normal" x="26.649999618530273" y="44.479896545410156" text-anchor="start" dominant-baseline="alphabetic" transform="matrix(1, 0, 0, 1, 0.5, 0.5)" stroke-opacity="0" stroke-linejoin="bevel" stroke-miterlimit="10" stroke-dasharray="">500</text><text fill="rgb(68,68,68)" stroke="none" font-family="helvetica" font-size="13px" font-style="italic" font-weight="normal" text-decoration="normal" x="-51.82499885559082" y="186" text-anchor="start" dominant-baseline="alphabetic" transform="matrix(6.123233995736766e-17, -1, 1, 6.123233995736766e-17, -169.85000038146973, 208.14999961853027)" fill-opacity="1">Średnia liczba oznaczeń</text><text fill="none" stroke="rgb(0,0,0)" font-family="helvetica" font-size="13px" font-style="italic" font-weight="normal" text-decoration="normal" x="-51.82499885559082" y="186" text-anchor="start" dominant-baseline="alphabetic" transform="matrix(6.123233995736766e-17, -1, 1, 6.123233995736766e-17, -169.85000038146973, 208.14999961853027)" stroke-opacity="0" stroke-linejoin="bevel" stroke-miterlimit="10" stroke-dasharray="">Średnia liczba oznaczeń</text><path fill="none" stroke="rgb(0,0,0)" paint-order="fill" d="M 216.25 82.01719665527344 L 216.25 46.27373123168945" stroke-opacity="1" stroke-linejoin="bevel" stroke-miterlimit="10" stroke-dasharray="" clip-path="url(#QOZpoQhZfKuN)"/><path fill="none" stroke="rgb(0,0,0)" paint-order="fill" d="M 535.75 28.42662239074707 L 535.75 17.620996475219727" stroke-opacity="1" stroke-linejoin="bevel" stroke-miterlimit="10" stroke-dasharray="" clip-path="url(#QOZpoQhZfKuN)"/><path fill="none" stroke="rgb(0,0,0)" paint-order="fill" d="M 211.25 82.01719665527344 L 221.25 82.01719665527344" stroke-opacity="1" stroke-linejoin="bevel" stroke-miterlimit="10" stroke-dasharray="" clip-path="url(#QOZpoQhZfKuN)"/><path fill="none" stroke="rgb(0,0,0)" paint-order="fill" d="M 530.75 28.42662239074707 L 540.75 28.42662239074707" stroke-opacity="1" stroke-linejoin="bevel" stroke-miterlimit="10" stroke-dasharray="" clip-path="url(#QOZpoQhZfKuN)"/><path fill="none" stroke="rgb(0,0,0)" paint-order="fill" d="M 221.25 46.27373123168945 L 211.25 46.27373123168945" stroke-opacity="1" stroke-linejoin="bevel" stroke-miterlimit="10" stroke-dasharray="" clip-path="url(#QOZpoQhZfKuN)"/><path fill="none" stroke="rgb(0,0,0)" paint-order="fill" d="M 540.75 17.620996475219727 L 530.75 17.620996475219727" stroke-opacity="1" stroke-linejoin="bevel" stroke-miterlimit="10" stroke-dasharray="" clip-path="url(#QOZpoQhZfKuN)"/></svg>