<svg version="1.1" xmlns="http://www.w3.org/2000/svg" width="700" height="400"><defs><clipPath id="PWCgxCDCzyLT"><path fill="none" stroke="none" d="M 38.5 5.5 L 695.5 5.5 L 695.5 373.5 L 38.5 373.5 L 38.5 5.5"/></clipPath><clipPath id="NHDNwZMVZhlK"><path fill="none" stroke="none" d="M 38.5 5.5 L 695.5 5.5 L 695.5 373.5 L 38.5 373.5 L 38.5 5.5"/></clipPath><clipPath id="lqGvTdahuScc"><path fill="none" stroke="none" d="M 38.5 5.5 L 695.5 5.5 L 695.5 373.5 L 38.5 373.5 L 38.5 5.5"/></clipPath><clipPath id="muKTtSokmhHR"><path fill="none" stroke="none" d="M 38.5 5.5 L 695.5 5.5 L 695.5 373.5 L 38.5 373.5 L 38.5 5.5"/></clipPath></defs><path fill="rgb(255,255,255)" stroke="none" paint-order="stroke" d="M 0.5 0.5 L 700.5 0.5 L 700.5 400.5 L 0.5 400.5 L 0.5 0.5" fill-opacity="1"/><rect fill="#FFFFFF" stroke="none" x="38" y="5" width="657" height="368" transform="matrix(1, 0, 0, 1, 0.5, 0.5)"/><path fill="rgb(255,255,255)" stroke="none" paint-order="stroke" d="M 38.5 5.5 L 695.5 5.5 L 695.5 373.5 L 38.5 373.5 L 38.5 5.5" fill-opacity="1"/><path fill="none" stroke="rgb(229,229,229)" paint-order="fill" d="M 38.5 5.5 L 695.5 5.5 L 695.5 373.5 L 38.5 373.5 L 38.5 5.5" stroke-opacity="1" stroke-linejoin="bevel" stroke-miterlimit="10" stroke-dasharray=""/><path fill="none" stroke="rgb(229,229,229)" paint-order="fill" d="M 148.5 373.5 L 148.5 5.5 M 367.5 373.5 L 367.5 5.5 M 586.5 373.5 L 586.5 5.5" stroke-opacity="1" stroke-linejoin="bevel" stroke-miterlimit="10" stroke-dasharray="" clip-path="url(#PWCgxCDCzyLT)"/><path fill="none" stroke="rgb(229,229,229)" paint-order="fill" d="M 38.5 314.5 L 695.5 314.5 M 38.5 254.5 L 695.5 254.5 M 38.5 195.5 L 695.5 195.5 M 38.5 136.5 L 695.5 136.5 M 38.5 77.5 L 695.5 77.5 M 38.5 17.5 L 695.5 17.5" stroke-opacity="1" stroke-linejoin="bevel" stroke-miterlimit="10" stroke-dasharray="" clip-path="url(#NHDNwZMVZhlK)"/><path fill="rgb(11,132,165)" stroke="rgb(0,0,0)" paint-order="fill" d="M 49.44999694824219 54.955833435058594 L 246.5500030517578 54.955833435058594 L 246.5500030517578 373.5 L 49.44999694824219 373.5 L 49.44999694824219 54.955833435058594" fill-opacity="1" clip-path="url(#lqGvTdahuScc)" stroke-opacity="0.4" stroke-linejoin="bevel" stroke-miterlimit="10" stroke-dasharray=""/><path fill="rgb(246,200,95)" stroke="rgb(0,0,0)" paint-order="fill" d="M 268.45001220703125 222.37672424316406 L 465.54998779296875 222.37672424316406 L 465.54998779296875 373.5 L 268.45001220703125 373.5 L 268.45001220703125 222.37672424316406" fill-opacity="1" clip-path="url(#lqGvTdahuScc)" stroke-opacity="0.4" stroke-linejoin="bevel" stroke-miterlimit="10" stroke-dasharray=""/><path fill="rgb(46,139,87)" stroke="rgb(0,0,0)" paint-order="fill" d="M 487.45001220703125 248.45289611816406 L 684.5499877929688 248.45289611816406 L 684.5499877929688 373.5 L 487.45001220703125 373.5 L 487.45001220703125 248.45289611816406" fill-opacity="1" clip-path="url(#lqGvTdahuScc)" stroke-opacity="0.4" stroke-linejoin="bevel" stroke-miterlimit="10" stroke-dasharray=""/><path fill="none" stroke="rgb(0,0,0)" paint-order="fill" d="M 38.5 373.5 L 695.5 373.5" stroke-opacity="1" stroke-linejoin="bevel" stroke-miterlimit="10" stroke-dasharray=""/><path fill="none" stroke="rgb(0,0,0)" paint-order="fill" d="M 148.5 379.5 L 148.5 371.5 M 367.5 379.5 L 367.5 371.5 M 586.5 379.5 L 586.5 371.5" stroke-opacity="1" stroke-linejoin="bevel" stroke-miterlimit="10" stroke-dasharray=""/><path fill="none" stroke="rgb(0,0,0)" paint-order="fill" d="" stroke-opacity="1" stroke-linejoin="bevel" stroke-miterlimit="10" stroke-dasharray=""/><text fill="rgb(68,68,68)" stroke="none" font-family="helvetica" font-size="11px" font-style="normal" font-weight="normal" text-decoration="normal" x="132.51666641235352" y="395" text-anchor="start" dominant-baseline="alphabetic" transform="matrix(1, 0, 0, 1, 0.5, 0.5)" fill-opacity="1">osoba</text><text fill="none" stroke="rgb(0,0,0)" font-family="helvetica" font-size="11px" font-style="normal" font-weight="normal" text-decoration="normal" x="132.51666641235352" y="395" text-anchor="start" dominant-baseline="alphabetic" transform="matrix(1, 0, 0, 1, 0.5, 0.5)" stroke-opacity="0" stroke-linejoin="bevel" stroke-miterlimit="10" stroke-dasharray="">osoba</text><text fill="rgb(68,68,68)" stroke="none" font-family="helvetica" font-size="11px" font-style="normal" font-weight="normal" text-decoration="normal" x="350.29999923706055" y="395" text-anchor="start" dominant-baseline="alphabetic" transform="matrix(1, 0, 0, 1, 0.5, 0.5)" fill-opacity="1">miasto</text><text fill="none" stroke="rgb(0,0,0)" font-family="helvetica" font-size="11px" font-style="normal" font-weight="normal" text-decoration="normal" x="350.29999923706055" y="395" text-anchor="start" dominant-baseline="alphabetic" transform="matrix(1, 0, 0, 1, 0.5, 0.5)" stroke-opacity="0" stroke-linejoin="bevel" stroke-miterlimit="10" stroke-dasharray="">miasto</text><text fill="rgb(68,68,68)" stroke="none" font-family="helvetica" font-size="11px" font-style="normal" font-weight="normal" text-decoration="normal" x="576.6333332061768" y="395" text-anchor="start" dominant-baseline="alphabetic" transform="matrix(1, 0, 0, 1, 0.5, 0.5)" fill-opacity="1">kraj</text><text fill="none" stroke="rgb(0,0,0)" font-family="helvetica" font-size="11px" font-style="normal" font-weight="normal" text-decoration="normal" x="576.6333332061768" y="395" text-anchor="start" dominant-baseline="alphabetic" transform="matrix(1, 0, 0, 1, 0.5, 0.5)" stroke-opacity="0" stroke-linejoin="bevel" stroke-miterlimit="10" stroke-dasharray="">kraj</text><path fill="none" stroke="rgb(0,0,0)" paint-order="fill" d="M 38.5 373.5 L 38.5 5.5" stroke-opacity="1" stroke-linejoin="bevel" stroke-miterlimit="10" stroke-dasharray=""/><path fill="none" stroke="rgb(0,0,0)" paint-order="fill" d="M 32.5 373.5 L 40.5 373.5 M 32.5 314.5 L 40.5 314.5 M 32.5 254.5 L 40.5 254.5 M 32.5 195.5 L 40.5 195.5 M 32.5 136.5 L 40.5 136.5 M 32.5 77.5 L 40.5 77.5 M 32.5 17.5 L 40.5 17.5" stroke-opacity="1" stroke-linejoin="bevel" stroke-miterlimit="10" stroke-dasharray=""/><path fill="none" stroke="rgb(0,0,0)" paint-order="fill" d="M 34.5 373.5 L 38.5 373.5 M 34.5 361.5 L 38.5 361.5 M 34.5 349.5 L 38.5 349.5 M 34.5 337.5 L 38.5 337.5 M 34.5 326.5 L 38.5 326.5 M 34.5 314.5 L 38.5 314.5 M 34.5 302.5 L 38.5 302.5 M 34.5 290.5 L 38.5 290.5 M 34.5 278.5 L 38.5 278.5 M 34.5 266.5 L 38.5 266.5 M 34.5 254.5 L 38.5 254.5 M 34.5 243.5 L 38.5 243.5 M 34.5 231.5 L 38.5 231.5 M 34.5 219.5 L 38.5 219.5 M 34.5 207.5 L 38.5 207.5 M 34.5 195.5 L 38.5 195.5 M 34.5 183.5 L 38.5 183.5 M 34.5 172.5 L 38.5 172.5 M 34.5 160.5 L 38.5 160.5 M 34.5 148.5 L 38.5 148.5 M 34.5 136.5 L 38.5 136.5 M 34.5 124.5 L 38.5 124.5 M 34.5 112.5 L 38.5 112.5 M 34.5 100.5 L 38.5 100.5 M 34.5 89.5 L 38.5 89.5 M 34.5 77.5 L 38.5 77.5 M 34.5 65.5 L 38.5 65.5 M 34.5 53.5 L 38.5 53.5 M 34.5 41.5 L 38.5 41.5 M 34.5 29.5 L 38.5 29.5 M 34.5 17.5 L 38.5 17.5 M 34.5 6.5 L 38.5 6.5" stroke-opacity="1" stroke-linejoin="bevel" stroke-miterlimit="10" stroke-dasharray=""/><text fill="rgb(68,68,68)" stroke="none" font-family="helvetica" font-size="11px" font-style="normal" font-weight="normal" text-decoration="normal" x="20.883333206176758" y="377" text-anchor="start" dominant-baseline="alphabetic" transform="matrix(1, 0, 0, 1, 0.5, 0.5)" fill-opacity="1">0</text><text fill="none" stroke="rgb(0,0,0)" font-family="helvetica" font-size="11px" font-style="normal" font-weight="normal" text-decoration="normal" x="20.883333206176758" y="377" text-anchor="start" dominant-baseline="alphabetic" transform="matrix(1, 0, 0, 1, 0.5, 0.5)" stroke-opacity="0" stroke-linejoin="bevel" stroke-miterlimit="10" stroke-dasharray="">0</text><text fill="rgb(68,68,68)" stroke="none" font-family="helvetica" font-size="11px" font-style="normal" font-weight="normal" text-decoration="normal" x="8.649999618530273" y="317.7359619140625" text-anchor="start" dominant-baseline="alphabetic" transform="matrix(1, 0, 0, 1, 0.5, 0.5)" fill-opacity="1">200</text><text fill="none" stroke="rgb(0,0,0)" font-family="helvetica" font-size="11px" font-style="normal" font-weight="normal" text-decoration="normal" x="8.649999618530273" y="317.7359619140625" text-anchor="start" dominant-baseline="alphabetic" transform="matrix(1, 0, 0, 1, 0.5, 0.5)" stroke-opacity="0" stroke-linejoin="bevel" stroke-miterlimit="10" stroke-dasharray="">200</text><text fill="rgb(68,68,68)" stroke="none" font-family="helvetica" font-size="11px" font-style="normal" font-weight="normal" text-decoration="normal" x="8.649999618530273" y="258.47193908691406" text-anchor="start" dominant-baseline="alphabetic" transform="matrix(1, 0, 0, 1, 0.5, 0.5)" fill-opacity="1">400</text><text fill="none" stroke="rgb(0,0,0)" font-family="helvetica" font-size="11px" font-style="normal" font-weight="normal" text-decoration="normal" x="8.649999618530273" y="258.47193908691406" text-anchor="start" dominant-baseline="alphabetic" transform="matrix(1, 0, 0, 1, 0.5, 0.5)" stroke-opacity="0" stroke-linejoin="bevel" stroke-miterlimit="10" stroke-dasharray="">400</text><text fill="rgb(68,68,68)" stroke="none" font-family="helvetica" font-size="11px" font-style="normal" font-weight="normal" text-decoration="normal" x="8.649999618530273" y="199.20790100097656" text-anchor="start" dominant-baseline="alphabetic" transform="matrix(1, 0, 0, 1, 0.5, 0.5)" fill-opacity="1">600</text><text fill="none" stroke="rgb(0,0,0)" font-family="helvetica" font-size="11px" font-style="normal" font-weight="normal" text-decoration="normal" x="8.649999618530273" y="199.20790100097656" text-anchor="start" dominant-baseline="alphabetic" transform="matrix(1, 0, 0, 1, 0.5, 0.5)" stroke-opacity="0" stroke-linejoin="bevel" stroke-miterlimit="10" stroke-dasharray="">600</text><text fill="rgb(68,68,68)" stroke="none" font-family="helvetica" font-size="11px" font-style="normal" font-weight="normal" text-decoration="normal" x="8.649999618530273" y="139.94387817382812" text-anchor="start" dominant-baseline="alphabetic" transform="matrix(1, 0, 0, 1, 0.5, 0.5)" fill-opacity="1">800</text><text fill="none" stroke="rgb(0,0,0)" font-family="helvetica" font-size="11px" font-style="normal" font-weight="normal" text-decoration="normal" x="8.649999618530273" y="139.94387817382812" text-anchor="start" dominant-baseline="alphabetic" transform="matrix(1, 0, 0, 1, 0.5, 0.5)" stroke-opacity="0" stroke-linejoin="bevel" stroke-miterlimit="10" stroke-dasharray="">800</text><text fill="rgb(68,68,68)" stroke="none" font-family="helvetica" font-size="11px" font-style="normal" font-weight="normal" text-decoration="normal" x="2.5333328247070312" y="80.67984771728516" text-anchor="start" dominant-baseline="alphabetic" transform="matrix(1, 0, 0, 1, 0.5, 0.5)" fill-opacity="1">1000</text><text fill="none" stroke="rgb(0,0,0)" font-family="helvetica" font-size="11px" font-style="normal" font-weight="normal" text-decoration="normal" x="2.5333328247070312" y="80.67984771728516" text-anchor="start" dominant-baseline="alphabetic" transform="matrix(1, 0, 0, 1, 0.5, 0.5)" stroke-opacity="0" stroke-linejoin="bevel" stroke-miterlimit="10" stroke-dasharray="">1000</text><text fill="rgb(68,68,68)" stroke="none" font-family="helvetica" font-size="11px" font-style="normal" font-weight="normal" text-decoration="normal" x="2.5333328247070312" y="21.415815353393555" text-anchor="start" dominant-baseline="alphabetic" transform="matrix(1, 0, 0, 1, 0.5, 0.5)" fill-opacity="1">1200</text><text fill="none" stroke="rgb(0,0,0)" font-family="helvetica" font-size="11px" font-style="normal" font-weight="normal" text-decoration="normal" x="2.5333328247070312" y="21.415815353393555" text-anchor="start" dominant-baseline="alphabetic" transform="matrix(1, 0, 0, 1, 0.5, 0.5)" stroke-opacity="0" stroke-linejoin="bevel" stroke-miterlimit="10" stroke-dasharray="">1200</text></svg>