<svg version="1.1" xmlns="http://www.w3.org/2000/svg" width="700" height="400"><defs><clipPath id="tKqdbUCTgcJs"><path fill="none" stroke="none" d="M 32.5 5.5 L 695.5 5.5 L 695.5 373.5 L 32.5 373.5 L 32.5 5.5"/></clipPath><clipPath id="zNtdmWBqGNXE"><path fill="none" stroke="none" d="M 32.5 5.5 L 695.5 5.5 L 695.5 373.5 L 32.5 373.5 L 32.5 5.5"/></clipPath><clipPath id="yTagiGEAQgTR"><path fill="none" stroke="none" d="M 32.5 5.5 L 695.5 5.5 L 695.5 373.5 L 32.5 373.5 L 32.5 5.5"/></clipPath><clipPath id="bZaIlXuzBoZM"><path fill="none" stroke="none" d="M 32.5 5.5 L 695.5 5.5 L 695.5 373.5 L 32.5 373.5 L 32.5 5.5"/></clipPath></defs><path fill="rgb(255,255,255)" stroke="none" paint-order="stroke" d="M 0.5 0.5 L 700.5 0.5 L 700.5 400.5 L 0.5 400.5 L 0.5 0.5" fill-opacity="1"/><rect fill="#FFFFFF" stroke="none" x="32" y="5" width="663" height="368" transform="matrix(1, 0, 0, 1, 0.5, 0.5)"/><path fill="rgb(255,255,255)" stroke="none" paint-order="stroke" d="M 32.5 5.5 L 695.5 5.5 L 695.5 373.5 L 32.5 373.5 L 32.5 5.5" fill-opacity="1"/><path fill="none" stroke="rgb(229,229,229)" paint-order="fill" d="M 32.5 5.5 L 695.5 5.5 L 695.5 373.5 L 32.5 373.5 L 32.5 5.5" stroke-opacity="1" stroke-linejoin="bevel" stroke-miterlimit="10" stroke-dasharray=""/><path fill="none" stroke="rgb(229,229,229)" paint-order="fill" d="M 143.5 373.5 L 143.5 5.5 M 364.5 373.5 L 364.5 5.5 M 585.5 373.5 L 585.5 5.5" stroke-opacity="1" stroke-linejoin="bevel" stroke-miterlimit="10" stroke-dasharray="" clip-path="url(#tKqdbUCTgcJs)"/><path fill="none" stroke="rgb(229,229,229)" paint-order="fill" d="M 32.5 315.5 L 695.5 315.5 M 32.5 258.5 L 695.5 258.5 M 32.5 200.5 L 695.5 200.5 M 32.5 143.5 L 695.5 143.5 M 32.5 85.5 L 695.5 85.5 M 32.5 28.5 L 695.5 28.5" stroke-opacity="1" stroke-linejoin="bevel" stroke-miterlimit="10" stroke-dasharray="" clip-path="url(#zNtdmWBqGNXE)"/><path fill="rgb(11,132,165)" stroke="rgb(0,0,0)" paint-order="fill" d="M 43.55000305175781 38.95454406738281 L 242.4499969482422 38.95454406738281 L 242.4499969482422 373.5 L 43.55000305175781 373.5 L 43.55000305175781 38.95454406738281" fill-opacity="1" clip-path="url(#yTagiGEAQgTR)" stroke-opacity="0.4" stroke-linejoin="bevel" stroke-miterlimit="10" stroke-dasharray=""/><path fill="rgb(246,200,95)" stroke="rgb(0,0,0)" paint-order="fill" d="M 264.54998779296875 238.76052856445312 L 463.45001220703125 238.76052856445312 L 463.45001220703125 373.5 L 264.54998779296875 373.5 L 264.54998779296875 238.76052856445312" fill-opacity="1" clip-path="url(#yTagiGEAQgTR)" stroke-opacity="0.4" stroke-linejoin="bevel" stroke-miterlimit="10" stroke-dasharray=""/><path fill="rgb(46,139,87)" stroke="rgb(0,0,0)" paint-order="fill" d="M 485.54998779296875 255.45899963378906 L 684.4500122070312 255.45899963378906 L 684.4500122070312 373.5 L 485.54998779296875 373.5 L 485.54998779296875 255.45899963378906" fill-opacity="1" clip-path="url(#yTagiGEAQgTR)" stroke-opacity="0.4" stroke-linejoin="bevel" stroke-miterlimit="10" stroke-dasharray=""/><path fill="none" stroke="rgb(0,0,0)" paint-order="fill" d="M 32.5 373.5 L 695.5 373.5" stroke-opacity="1" stroke-linejoin="bevel" stroke-miterlimit="10" stroke-dasharray=""/><path fill="none" stroke="rgb(0,0,0)" paint-order="fill" d="M 143.5 379.5 L 143.5 371.5 M 364.5 379.5 L 364.5 371.5 M 585.5 379.5 L 585.5 371.5" stroke-opacity="1" stroke-linejoin="bevel" stroke-miterlimit="10" stroke-dasharray=""/><path fill="none" stroke="rgb(0,0,0)" paint-order="fill" d="" stroke-opacity="1" stroke-linejoin="bevel" stroke-miterlimit="10" stroke-dasharray=""/><text fill="rgb(68,68,68)" stroke="none" font-family="helvetica" font-size="11px" font-style="normal" font-weight="normal" text-decoration="normal" x="127.51666641235352" y="395" text-anchor="start" dominant-baseline="alphabetic" transform="matrix(1, 0, 0, 1, 0.5, 0.5)" fill-opacity="1">osoba</text><text fill="none" stroke="rgb(0,0,0)" font-family="helvetica" font-size="11px" font-style="normal" font-weight="normal" text-decoration="normal" x="127.51666641235352" y="395" text-anchor="start" dominant-baseline="alphabetic" transform="matrix(1, 0, 0, 1, 0.5, 0.5)" stroke-opacity="0" stroke-linejoin="bevel" stroke-miterlimit="10" stroke-dasharray="">osoba</text><text fill="rgb(68,68,68)" stroke="none" font-family="helvetica" font-size="11px" font-style="normal" font-weight="normal" text-decoration="normal" x="347.29999923706055" y="395" text-anchor="start" dominant-baseline="alphabetic" transform="matrix(1, 0, 0, 1, 0.5, 0.5)" fill-opacity="1">miasto</text><text fill="none" stroke="rgb(0,0,0)" font-family="helvetica" font-size="11px" font-style="normal" font-weight="normal" text-decoration="normal" x="347.29999923706055" y="395" text-anchor="start" dominant-baseline="alphabetic" transform="matrix(1, 0, 0, 1, 0.5, 0.5)" stroke-opacity="0" stroke-linejoin="bevel" stroke-miterlimit="10" stroke-dasharray="">miasto</text><text fill="rgb(68,68,68)" stroke="none" font-family="helvetica" font-size="11px" font-style="normal" font-weight="normal" text-decoration="normal" x="575.6333332061768" y="395" text-anchor="start" dominant-baseline="alphabetic" transform="matrix(1, 0, 0, 1, 0.5, 0.5)" fill-opacity="1">kraj</text><text fill="none" stroke="rgb(0,0,0)" font-family="helvetica" font-size="11px" font-style="normal" font-weight="normal" text-decoration="normal" x="575.6333332061768" y="395" text-anchor="start" dominant-baseline="alphabetic" transform="matrix(1, 0, 0, 1, 0.5, 0.5)" stroke-opacity="0" stroke-linejoin="bevel" stroke-miterlimit="10" stroke-dasharray="">kraj</text><path fill="none" stroke="rgb(0,0,0)" paint-order="fill" d="M 32.5 373.5 L 32.5 5.5" stroke-opacity="1" stroke-linejoin="bevel" stroke-miterlimit="10" stroke-dasharray=""/><path fill="none" stroke="rgb(0,0,0)" paint-order="fill" d="M 26.5 373.5 L 34.5 373.5 M 26.5 315.5 L 34.5 315.5 M 26.5 258.5 L 34.5 258.5 M 26.5 200.5 L 34.5 200.5 M 26.5 143.5 L 34.5 143.5 M 26.5 85.5 L 34.5 85.5 M 26.5 28.5 L 34.5 28.5" stroke-opacity="1" stroke-linejoin="bevel" stroke-miterlimit="10" stroke-dasharray=""/><path fill="none" stroke="rgb(0,0,0)" paint-order="fill" d="M 28.5 373.5 L 32.5 373.5 M 28.5 361.5 L 32.5 361.5 M 28.5 350.5 L 32.5 350.5 M 28.5 338.5 L 32.5 338.5 M 28.5 327.5 L 32.5 327.5 M 28.5 315.5 L 32.5 315.5 M 28.5 304.5 L 32.5 304.5 M 28.5 292.5 L 32.5 292.5 M 28.5 281.5 L 32.5 281.5 M 28.5 269.5 L 32.5 269.5 M 28.5 258.5 L 32.5 258.5 M 28.5 246.5 L 32.5 246.5 M 28.5 235.5 L 32.5 235.5 M 28.5 223.5 L 32.5 223.5 M 28.5 212.5 L 32.5 212.5 M 28.5 200.5 L 32.5 200.5 M 28.5 189.5 L 32.5 189.5 M 28.5 177.5 L 32.5 177.5 M 28.5 166.5 L 32.5 166.5 M 28.5 154.5 L 32.5 154.5 M 28.5 143.5 L 32.5 143.5 M 28.5 131.5 L 32.5 131.5 M 28.5 120.5 L 32.5 120.5 M 28.5 108.5 L 32.5 108.5 M 28.5 97.5 L 32.5 97.5 M 28.5 85.5 L 32.5 85.5 M 28.5 74.5 L 32.5 74.5 M 28.5 62.5 L 32.5 62.5 M 28.5 51.5 L 32.5 51.5 M 28.5 39.5 L 32.5 39.5 M 28.5 28.5 L 32.5 28.5 M 28.5 16.5 L 32.5 16.5" stroke-opacity="1" stroke-linejoin="bevel" stroke-miterlimit="10" stroke-dasharray=""/><text fill="rgb(68,68,68)" stroke="none" font-family="helvetica" font-size="11px" font-style="normal" font-weight="normal" text-decoration="normal" x="14.883333206176758" y="377" text-anchor="start" dominant-baseline="alphabetic" transform="matrix(1, 0, 0, 1, 0.5, 0.5)" fill-opacity="1">0</text><text fill="none" stroke="rgb(0,0,0)" font-family="helvetica" font-size="11px" font-style="normal" font-weight="normal" text-decoration="normal" x="14.883333206176758" y="377" text-anchor="start" dominant-baseline="alphabetic" transform="matrix(1, 0, 0, 1, 0.5, 0.5)" stroke-opacity="0" stroke-linejoin="bevel" stroke-miterlimit="10" stroke-dasharray="">0</text><text fill="rgb(68,68,68)" stroke="none" font-family="helvetica" font-size="11px" font-style="normal" font-weight="normal" text-decoration="normal" x="2.6499996185302734" y="319.4190368652344" text-anchor="start" dominant-baseline="alphabetic" transform="matrix(1, 0, 0, 1, 0.5, 0.5)" fill-opacity="1">100</text><text fill="none" stroke="rgb(0,0,0)" font-family="helvetica" font-size="11px" font-style="normal" font-weight="normal" text-decoration="normal" x="2.6499996185302734" y="319.4190368652344" text-anchor="start" dominant-baseline="alphabetic" transform="matrix(1, 0, 0, 1, 0.5, 0.5)" stroke-opacity="0" stroke-linejoin="bevel" stroke-miterlimit="10" stroke-dasharray="">100</text><text fill="rgb(68,68,68)" stroke="none" font-family="helvetica" font-size="11px" font-style="normal" font-weight="normal" text-decoration="normal" x="2.6499996185302734" y="261.8380432128906" text-anchor="start" dominant-baseline="alphabetic" transform="matrix(1, 0, 0, 1, 0.5, 0.5)" fill-opacity="1">200</text><text fill="none" stroke="rgb(0,0,0)" font-family="helvetica" font-size="11px" font-style="normal" font-weight="normal" text-decoration="normal" x="2.6499996185302734" y="261.8380432128906" text-anchor="start" dominant-baseline="alphabetic" transform="matrix(1, 0, 0, 1, 0.5, 0.5)" stroke-opacity="0" stroke-linejoin="bevel" stroke-miterlimit="10" stroke-dasharray="">200</text><text fill="rgb(68,68,68)" stroke="none" font-family="helvetica" font-size="11px" font-style="normal" font-weight="normal" text-decoration="normal" x="2.6499996185302734" y="204.257080078125" text-anchor="start" dominant-baseline="alphabetic" transform="matrix(1, 0, 0, 1, 0.5, 0.5)" fill-opacity="1">300</text><text fill="none" stroke="rgb(0,0,0)" font-family="helvetica" font-size="11px" font-style="normal" font-weight="normal" text-decoration="normal" x="2.6499996185302734" y="204.257080078125" text-anchor="start" dominant-baseline="alphabetic" transform="matrix(1, 0, 0, 1, 0.5, 0.5)" stroke-opacity="0" stroke-linejoin="bevel" stroke-miterlimit="10" stroke-dasharray="">300</text><text fill="rgb(68,68,68)" stroke="none" font-family="helvetica" font-size="11px" font-style="normal" font-weight="normal" text-decoration="normal" x="2.6499996185302734" y="146.6761016845703" text-anchor="start" dominant-baseline="alphabetic" transform="matrix(1, 0, 0, 1, 0.5, 0.5)" fill-opacity="1">400</text><text fill="none" stroke="rgb(0,0,0)" font-family="helvetica" font-size="11px" font-style="normal" font-weight="normal" text-decoration="normal" x="2.6499996185302734" y="146.6761016845703" text-anchor="start" dominant-baseline="alphabetic" transform="matrix(1, 0, 0, 1, 0.5, 0.5)" stroke-opacity="0" stroke-linejoin="bevel" stroke-miterlimit="10" stroke-dasharray="">400</text><text fill="rgb(68,68,68)" stroke="none" font-family="helvetica" font-size="11px" font-style="normal" font-weight="normal" text-decoration="normal" x="2.6499996185302734" y="89.09513092041016" text-anchor="start" dominant-baseline="alphabetic" transform="matrix(1, 0, 0, 1, 0.5, 0.5)" fill-opacity="1">500</text><text fill="none" stroke="rgb(0,0,0)" font-family="helvetica" font-size="11px" font-style="normal" font-weight="normal" text-decoration="normal" x="2.6499996185302734" y="89.09513092041016" text-anchor="start" dominant-baseline="alphabetic" transform="matrix(1, 0, 0, 1, 0.5, 0.5)" stroke-opacity="0" stroke-linejoin="bevel" stroke-miterlimit="10" stroke-dasharray="">500</text><text fill="rgb(68,68,68)" stroke="none" font-family="helvetica" font-size="11px" font-style="normal" font-weight="normal" text-decoration="normal" x="2.6499996185302734" y="31.51416015625" text-anchor="start" dominant-baseline="alphabetic" transform="matrix(1, 0, 0, 1, 0.5, 0.5)" fill-opacity="1">600</text><text fill="none" stroke="rgb(0,0,0)" font-family="helvetica" font-size="11px" font-style="normal" font-weight="normal" text-decoration="normal" x="2.6499996185302734" y="31.51416015625" text-anchor="start" dominant-baseline="alphabetic" transform="matrix(1, 0, 0, 1, 0.5, 0.5)" stroke-opacity="0" stroke-linejoin="bevel" stroke-miterlimit="10" stroke-dasharray="">600</text></svg>