<svg version="1.1" xmlns="http://www.w3.org/2000/svg" width="700" height="400"><defs><clipPath id="dGcBeLDXUJkN"><path fill="none" stroke="none" d="M 38.5 5.5 L 695.5 5.5 L 695.5 373.5 L 38.5 373.5 L 38.5 5.5"/></clipPath><clipPath id="zJEqEDFTDghs"><path fill="none" stroke="none" d="M 38.5 5.5 L 695.5 5.5 L 695.5 373.5 L 38.5 373.5 L 38.5 5.5"/></clipPath><clipPath id="ktnKVoqSAgQC"><path fill="none" stroke="none" d="M 38.5 5.5 L 695.5 5.5 L 695.5 373.5 L 38.5 373.5 L 38.5 5.5"/></clipPath><clipPath id="tpESTUcdpGuq"><path fill="none" stroke="none" d="M 38.5 5.5 L 695.5 5.5 L 695.5 373.5 L 38.5 373.5 L 38.5 5.5"/></clipPath></defs><path fill="rgb(255,255,255)" stroke="none" paint-order="stroke" d="M 0.5 0.5 L 700.5 0.5 L 700.5 400.5 L 0.5 400.5 L 0.5 0.5" fill-opacity="1"/><rect fill="#FFFFFF" stroke="none" x="38" y="5" width="657" height="368" transform="matrix(1, 0, 0, 1, 0.5, 0.5)"/><path fill="rgb(255,255,255)" stroke="none" paint-order="stroke" d="M 38.5 5.5 L 695.5 5.5 L 695.5 373.5 L 38.5 373.5 L 38.5 5.5" fill-opacity="1"/><path fill="none" stroke="rgb(229,229,229)" paint-order="fill" d="M 38.5 5.5 L 695.5 5.5 L 695.5 373.5 L 38.5 373.5 L 38.5 5.5" stroke-opacity="1" stroke-linejoin="bevel" stroke-miterlimit="10" stroke-dasharray=""/><path fill="none" stroke="rgb(229,229,229)" paint-order="fill" d="M 148.5 373.5 L 148.5 5.5 M 367.5 373.5 L 367.5 5.5 M 586.5 373.5 L 586.5 5.5" stroke-opacity="1" stroke-linejoin="bevel" stroke-miterlimit="10" stroke-dasharray="" clip-path="url(#dGcBeLDXUJkN)"/><path fill="none" stroke="rgb(229,229,229)" paint-order="fill" d="M 38.5 274.5 L 695.5 274.5 M 38.5 175.5 L 695.5 175.5 M 38.5 76.5 L 695.5 76.5" stroke-opacity="1" stroke-linejoin="bevel" stroke-miterlimit="10" stroke-dasharray="" clip-path="url(#zJEqEDFTDghs)"/><path fill="rgb(11,132,165)" stroke="rgb(0,0,0)" paint-order="fill" d="M 49.44999694824219 38.95454406738281 L 246.5500030517578 38.95454406738281 L 246.5500030517578 373.5 L 49.44999694824219 373.5 L 49.44999694824219 38.95454406738281" fill-opacity="1" clip-path="url(#ktnKVoqSAgQC)" stroke-opacity="0.4" stroke-linejoin="bevel" stroke-miterlimit="10" stroke-dasharray=""/><path fill="rgb(246,200,95)" stroke="rgb(0,0,0)" paint-order="fill" d="M 268.45001220703125 225.8249053955078 L 465.54998779296875 225.8249053955078 L 465.54998779296875 373.5 L 268.45001220703125 373.5 L 268.45001220703125 225.8249053955078" fill-opacity="1" clip-path="url(#ktnKVoqSAgQC)" stroke-opacity="0.4" stroke-linejoin="bevel" stroke-miterlimit="10" stroke-dasharray=""/><path fill="rgb(46,139,87)" stroke="rgb(0,0,0)" paint-order="fill" d="M 487.45001220703125 253.9346466064453 L 684.5499877929688 253.9346466064453 L 684.5499877929688 373.5 L 487.45001220703125 373.5 L 487.45001220703125 253.9346466064453" fill-opacity="1" clip-path="url(#ktnKVoqSAgQC)" stroke-opacity="0.4" stroke-linejoin="bevel" stroke-miterlimit="10" stroke-dasharray=""/><path fill="none" stroke="rgb(0,0,0)" paint-order="fill" d="M 38.5 373.5 L 695.5 373.5" stroke-opacity="1" stroke-linejoin="bevel" stroke-miterlimit="10" stroke-dasharray=""/><path fill="none" stroke="rgb(0,0,0)" paint-order="fill" d="M 148.5 379.5 L 148.5 371.5 M 367.5 379.5 L 367.5 371.5 M 586.5 379.5 L 586.5 371.5" stroke-opacity="1" stroke-linejoin="bevel" stroke-miterlimit="10" stroke-dasharray=""/><path fill="none" stroke="rgb(0,0,0)" paint-order="fill" d="" stroke-opacity="1" stroke-linejoin="bevel" stroke-miterlimit="10" stroke-dasharray=""/><text fill="rgb(68,68,68)" stroke="none" font-family="helvetica" font-size="11px" font-style="normal" font-weight="normal" text-decoration="normal" x="132.51666641235352" y="395" text-anchor="start" dominant-baseline="alphabetic" transform="matrix(1, 0, 0, 1, 0.5, 0.5)" fill-opacity="1">osoba</text><text fill="none" stroke="rgb(0,0,0)" font-family="helvetica" font-size="11px" font-style="normal" font-weight="normal" text-decoration="normal" x="132.51666641235352" y="395" text-anchor="start" dominant-baseline="alphabetic" transform="matrix(1, 0, 0, 1, 0.5, 0.5)" stroke-opacity="0" stroke-linejoin="bevel" stroke-miterlimit="10" stroke-dasharray="">osoba</text><text fill="rgb(68,68,68)" stroke="none" font-family="helvetica" font-size="11px" font-style="normal" font-weight="normal" text-decoration="normal" x="350.29999923706055" y="395" text-anchor="start" dominant-baseline="alphabetic" transform="matrix(1, 0, 0, 1, 0.5, 0.5)" fill-opacity="1">miasto</text><text fill="none" stroke="rgb(0,0,0)" font-family="helvetica" font-size="11px" font-style="normal" font-weight="normal" text-decoration="normal" x="350.29999923706055" y="395" text-anchor="start" dominant-baseline="alphabetic" transform="matrix(1, 0, 0, 1, 0.5, 0.5)" stroke-opacity="0" stroke-linejoin="bevel" stroke-miterlimit="10" stroke-dasharray="">miasto</text><text fill="rgb(68,68,68)" stroke="none" font-family="helvetica" font-size="11px" font-style="normal" font-weight="normal" text-decoration="normal" x="576.6333332061768" y="395" text-anchor="start" dominant-baseline="alphabetic" transform="matrix(1, 0, 0, 1, 0.5, 0.5)" fill-opacity="1">kraj</text><text fill="none" stroke="rgb(0,0,0)" font-family="helvetica" font-size="11px" font-style="normal" font-weight="normal" text-decoration="normal" x="576.6333332061768" y="395" text-anchor="start" dominant-baseline="alphabetic" transform="matrix(1, 0, 0, 1, 0.5, 0.5)" stroke-opacity="0" stroke-linejoin="bevel" stroke-miterlimit="10" stroke-dasharray="">kraj</text><path fill="none" stroke="rgb(0,0,0)" paint-order="fill" d="M 38.5 373.5 L 38.5 5.5" stroke-opacity="1" stroke-linejoin="bevel" stroke-miterlimit="10" stroke-dasharray=""/><path fill="none" stroke="rgb(0,0,0)" paint-order="fill" d="M 32.5 373.5 L 40.5 373.5 M 32.5 274.5 L 40.5 274.5 M 32.5 175.5 L 40.5 175.5 M 32.5 76.5 L 40.5 76.5" stroke-opacity="1" stroke-linejoin="bevel" stroke-miterlimit="10" stroke-dasharray=""/><path fill="none" stroke="rgb(0,0,0)" paint-order="fill" d="M 34.5 373.5 L 38.5 373.5 M 34.5 353.5 L 38.5 353.5 M 34.5 333.5 L 38.5 333.5 M 34.5 314.5 L 38.5 314.5 M 34.5 294.5 L 38.5 294.5 M 34.5 274.5 L 38.5 274.5 M 34.5 254.5 L 38.5 254.5 M 34.5 234.5 L 38.5 234.5 M 34.5 215.5 L 38.5 215.5 M 34.5 195.5 L 38.5 195.5 M 34.5 175.5 L 38.5 175.5 M 34.5 155.5 L 38.5 155.5 M 34.5 135.5 L 38.5 135.5 M 34.5 116.5 L 38.5 116.5 M 34.5 96.5 L 38.5 96.5 M 34.5 76.5 L 38.5 76.5 M 34.5 56.5 L 38.5 56.5 M 34.5 36.5 L 38.5 36.5 M 34.5 17.5 L 38.5 17.5" stroke-opacity="1" stroke-linejoin="bevel" stroke-miterlimit="10" stroke-dasharray=""/><text fill="rgb(68,68,68)" stroke="none" font-family="helvetica" font-size="11px" font-style="normal" font-weight="normal" text-decoration="normal" x="20.883333206176758" y="377" text-anchor="start" dominant-baseline="alphabetic" transform="matrix(1, 0, 0, 1, 0.5, 0.5)" fill-opacity="1">0</text><text fill="none" stroke="rgb(0,0,0)" font-family="helvetica" font-size="11px" font-style="normal" font-weight="normal" text-decoration="normal" x="20.883333206176758" y="377" text-anchor="start" dominant-baseline="alphabetic" transform="matrix(1, 0, 0, 1, 0.5, 0.5)" stroke-opacity="0" stroke-linejoin="bevel" stroke-miterlimit="10" stroke-dasharray="">0</text><text fill="rgb(68,68,68)" stroke="none" font-family="helvetica" font-size="11px" font-style="normal" font-weight="normal" text-decoration="normal" x="8.649999618530273" y="278.0220642089844" text-anchor="start" dominant-baseline="alphabetic" transform="matrix(1, 0, 0, 1, 0.5, 0.5)" fill-opacity="1">500</text><text fill="none" stroke="rgb(0,0,0)" font-family="helvetica" font-size="11px" font-style="normal" font-weight="normal" text-decoration="normal" x="8.649999618530273" y="278.0220642089844" text-anchor="start" dominant-baseline="alphabetic" transform="matrix(1, 0, 0, 1, 0.5, 0.5)" stroke-opacity="0" stroke-linejoin="bevel" stroke-miterlimit="10" stroke-dasharray="">500</text><text fill="rgb(68,68,68)" stroke="none" font-family="helvetica" font-size="11px" font-style="normal" font-weight="normal" text-decoration="normal" x="2.5333328247070312" y="179.0441131591797" text-anchor="start" dominant-baseline="alphabetic" transform="matrix(1, 0, 0, 1, 0.5, 0.5)" fill-opacity="1">1000</text><text fill="none" stroke="rgb(0,0,0)" font-family="helvetica" font-size="11px" font-style="normal" font-weight="normal" text-decoration="normal" x="2.5333328247070312" y="179.0441131591797" text-anchor="start" dominant-baseline="alphabetic" transform="matrix(1, 0, 0, 1, 0.5, 0.5)" stroke-opacity="0" stroke-linejoin="bevel" stroke-miterlimit="10" stroke-dasharray="">1000</text><text fill="rgb(68,68,68)" stroke="none" font-family="helvetica" font-size="11px" font-style="normal" font-weight="normal" text-decoration="normal" x="2.5333328247070312" y="80.066162109375" text-anchor="start" dominant-baseline="alphabetic" transform="matrix(1, 0, 0, 1, 0.5, 0.5)" fill-opacity="1">1500</text><text fill="none" stroke="rgb(0,0,0)" font-family="helvetica" font-size="11px" font-style="normal" font-weight="normal" text-decoration="normal" x="2.5333328247070312" y="80.066162109375" text-anchor="start" dominant-baseline="alphabetic" transform="matrix(1, 0, 0, 1, 0.5, 0.5)" stroke-opacity="0" stroke-linejoin="bevel" stroke-miterlimit="10" stroke-dasharray="">1500</text></svg>