<svg version="1.1" xmlns="http://www.w3.org/2000/svg" width="700" height="400"><defs><clipPath id="yoLTGIIZNcTc"><path fill="none" stroke="none" d="M 38.5 5.5 L 695.5 5.5 L 695.5 373.5 L 38.5 373.5 L 38.5 5.5"/></clipPath><clipPath id="sIKREusSTkIH"><path fill="none" stroke="none" d="M 38.5 5.5 L 695.5 5.5 L 695.5 373.5 L 38.5 373.5 L 38.5 5.5"/></clipPath><clipPath id="xGTiafLCVGkW"><path fill="none" stroke="none" d="M 38.5 5.5 L 695.5 5.5 L 695.5 373.5 L 38.5 373.5 L 38.5 5.5"/></clipPath><clipPath id="crKgiNJllvuv"><path fill="none" stroke="none" d="M 38.5 5.5 L 695.5 5.5 L 695.5 373.5 L 38.5 373.5 L 38.5 5.5"/></clipPath></defs><path fill="rgb(255,255,255)" stroke="none" paint-order="stroke" d="M 0.5 0.5 L 700.5 0.5 L 700.5 400.5 L 0.5 400.5 L 0.5 0.5" fill-opacity="1"/><rect fill="#FFFFFF" stroke="none" x="38" y="5" width="657" height="368" transform="matrix(1, 0, 0, 1, 0.5, 0.5)"/><path fill="rgb(255,255,255)" stroke="none" paint-order="stroke" d="M 38.5 5.5 L 695.5 5.5 L 695.5 373.5 L 38.5 373.5 L 38.5 5.5" fill-opacity="1"/><path fill="none" stroke="rgb(229,229,229)" paint-order="fill" d="M 38.5 5.5 L 695.5 5.5 L 695.5 373.5 L 38.5 373.5 L 38.5 5.5" stroke-opacity="1" stroke-linejoin="bevel" stroke-miterlimit="10" stroke-dasharray=""/><path fill="none" stroke="rgb(229,229,229)" paint-order="fill" d="M 148.5 373.5 L 148.5 5.5 M 367.5 373.5 L 367.5 5.5 M 586.5 373.5 L 586.5 5.5" stroke-opacity="1" stroke-linejoin="bevel" stroke-miterlimit="10" stroke-dasharray="" clip-path="url(#yoLTGIIZNcTc)"/><path fill="none" stroke="rgb(229,229,229)" paint-order="fill" d="M 38.5 295.5 L 695.5 295.5 M 38.5 218.5 L 695.5 218.5 M 38.5 140.5 L 695.5 140.5 M 38.5 62.5 L 695.5 62.5" stroke-opacity="1" stroke-linejoin="bevel" stroke-miterlimit="10" stroke-dasharray="" clip-path="url(#sIKREusSTkIH)"/><path fill="rgb(11,132,165)" stroke="rgb(0,0,0)" paint-order="fill" d="M 49.44999694824219 38.95454406738281 L 246.5500030517578 38.95454406738281 L 246.5500030517578 373.5 L 49.44999694824219 373.5 L 49.44999694824219 38.95454406738281" fill-opacity="1" clip-path="url(#xGTiafLCVGkW)" stroke-opacity="0.4" stroke-linejoin="bevel" stroke-miterlimit="10" stroke-dasharray=""/><path fill="rgb(246,200,95)" stroke="rgb(0,0,0)" paint-order="fill" d="M 268.45001220703125 260.8453674316406 L 465.54998779296875 260.8453674316406 L 465.54998779296875 373.5 L 268.45001220703125 373.5 L 268.45001220703125 260.8453674316406" fill-opacity="1" clip-path="url(#xGTiafLCVGkW)" stroke-opacity="0.4" stroke-linejoin="bevel" stroke-miterlimit="10" stroke-dasharray=""/><path fill="rgb(46,139,87)" stroke="rgb(0,0,0)" paint-order="fill" d="M 487.45001220703125 223.39739990234375 L 684.5499877929688 223.39739990234375 L 684.5499877929688 373.5 L 487.45001220703125 373.5 L 487.45001220703125 223.39739990234375" fill-opacity="1" clip-path="url(#xGTiafLCVGkW)" stroke-opacity="0.4" stroke-linejoin="bevel" stroke-miterlimit="10" stroke-dasharray=""/><path fill="none" stroke="rgb(0,0,0)" paint-order="fill" d="M 38.5 373.5 L 695.5 373.5" stroke-opacity="1" stroke-linejoin="bevel" stroke-miterlimit="10" stroke-dasharray=""/><path fill="none" stroke="rgb(0,0,0)" paint-order="fill" d="M 148.5 379.5 L 148.5 371.5 M 367.5 379.5 L 367.5 371.5 M 586.5 379.5 L 586.5 371.5" stroke-opacity="1" stroke-linejoin="bevel" stroke-miterlimit="10" stroke-dasharray=""/><path fill="none" stroke="rgb(0,0,0)" paint-order="fill" d="" stroke-opacity="1" stroke-linejoin="bevel" stroke-miterlimit="10" stroke-dasharray=""/><text fill="rgb(68,68,68)" stroke="none" font-family="helvetica" font-size="11px" font-style="normal" font-weight="normal" text-decoration="normal" x="132.51666641235352" y="395" text-anchor="start" dominant-baseline="alphabetic" transform="matrix(1, 0, 0, 1, 0.5, 0.5)" fill-opacity="1">osoba</text><text fill="none" stroke="rgb(0,0,0)" font-family="helvetica" font-size="11px" font-style="normal" font-weight="normal" text-decoration="normal" x="132.51666641235352" y="395" text-anchor="start" dominant-baseline="alphabetic" transform="matrix(1, 0, 0, 1, 0.5, 0.5)" stroke-opacity="0" stroke-linejoin="bevel" stroke-miterlimit="10" stroke-dasharray="">osoba</text><text fill="rgb(68,68,68)" stroke="none" font-family="helvetica" font-size="11px" font-style="normal" font-weight="normal" text-decoration="normal" x="357.63333320617676" y="395" text-anchor="start" dominant-baseline="alphabetic" transform="matrix(1, 0, 0, 1, 0.5, 0.5)" fill-opacity="1">kraj</text><text fill="none" stroke="rgb(0,0,0)" font-family="helvetica" font-size="11px" font-style="normal" font-weight="normal" text-decoration="normal" x="357.63333320617676" y="395" text-anchor="start" dominant-baseline="alphabetic" transform="matrix(1, 0, 0, 1, 0.5, 0.5)" stroke-opacity="0" stroke-linejoin="bevel" stroke-miterlimit="10" stroke-dasharray="">kraj</text><text fill="rgb(68,68,68)" stroke="none" font-family="helvetica" font-size="11px" font-style="normal" font-weight="normal" text-decoration="normal" x="569.2999992370605" y="395" text-anchor="start" dominant-baseline="alphabetic" transform="matrix(1, 0, 0, 1, 0.5, 0.5)" fill-opacity="1">miasto</text><text fill="none" stroke="rgb(0,0,0)" font-family="helvetica" font-size="11px" font-style="normal" font-weight="normal" text-decoration="normal" x="569.2999992370605" y="395" text-anchor="start" dominant-baseline="alphabetic" transform="matrix(1, 0, 0, 1, 0.5, 0.5)" stroke-opacity="0" stroke-linejoin="bevel" stroke-miterlimit="10" stroke-dasharray="">miasto</text><path fill="none" stroke="rgb(0,0,0)" paint-order="fill" d="M 38.5 373.5 L 38.5 5.5" stroke-opacity="1" stroke-linejoin="bevel" stroke-miterlimit="10" stroke-dasharray=""/><path fill="none" stroke="rgb(0,0,0)" paint-order="fill" d="M 32.5 373.5 L 40.5 373.5 M 32.5 295.5 L 40.5 295.5 M 32.5 218.5 L 40.5 218.5 M 32.5 140.5 L 40.5 140.5 M 32.5 62.5 L 40.5 62.5" stroke-opacity="1" stroke-linejoin="bevel" stroke-miterlimit="10" stroke-dasharray=""/><path fill="none" stroke="rgb(0,0,0)" paint-order="fill" d="M 34.5 373.5 L 38.5 373.5 M 34.5 357.5 L 38.5 357.5 M 34.5 342.5 L 38.5 342.5 M 34.5 326.5 L 38.5 326.5 M 34.5 311.5 L 38.5 311.5 M 34.5 295.5 L 38.5 295.5 M 34.5 280.5 L 38.5 280.5 M 34.5 264.5 L 38.5 264.5 M 34.5 249.5 L 38.5 249.5 M 34.5 233.5 L 38.5 233.5 M 34.5 218.5 L 38.5 218.5 M 34.5 202.5 L 38.5 202.5 M 34.5 187.5 L 38.5 187.5 M 34.5 171.5 L 38.5 171.5 M 34.5 155.5 L 38.5 155.5 M 34.5 140.5 L 38.5 140.5 M 34.5 124.5 L 38.5 124.5 M 34.5 109.5 L 38.5 109.5 M 34.5 93.5 L 38.5 93.5 M 34.5 78.5 L 38.5 78.5 M 34.5 62.5 L 38.5 62.5 M 34.5 47.5 L 38.5 47.5 M 34.5 31.5 L 38.5 31.5 M 34.5 16.5 L 38.5 16.5" stroke-opacity="1" stroke-linejoin="bevel" stroke-miterlimit="10" stroke-dasharray=""/><text fill="rgb(68,68,68)" stroke="none" font-family="helvetica" font-size="11px" font-style="normal" font-weight="normal" text-decoration="normal" x="20.883333206176758" y="377" text-anchor="start" dominant-baseline="alphabetic" transform="matrix(1, 0, 0, 1, 0.5, 0.5)" fill-opacity="1">0</text><text fill="none" stroke="rgb(0,0,0)" font-family="helvetica" font-size="11px" font-style="normal" font-weight="normal" text-decoration="normal" x="20.883333206176758" y="377" text-anchor="start" dominant-baseline="alphabetic" transform="matrix(1, 0, 0, 1, 0.5, 0.5)" stroke-opacity="0" stroke-linejoin="bevel" stroke-miterlimit="10" stroke-dasharray="">0</text><text fill="rgb(68,68,68)" stroke="none" font-family="helvetica" font-size="11px" font-style="normal" font-weight="normal" text-decoration="normal" x="8.649999618530273" y="299.30712890625" text-anchor="start" dominant-baseline="alphabetic" transform="matrix(1, 0, 0, 1, 0.5, 0.5)" fill-opacity="1">500</text><text fill="none" stroke="rgb(0,0,0)" font-family="helvetica" font-size="11px" font-style="normal" font-weight="normal" text-decoration="normal" x="8.649999618530273" y="299.30712890625" text-anchor="start" dominant-baseline="alphabetic" transform="matrix(1, 0, 0, 1, 0.5, 0.5)" stroke-opacity="0" stroke-linejoin="bevel" stroke-miterlimit="10" stroke-dasharray="">500</text><text fill="rgb(68,68,68)" stroke="none" font-family="helvetica" font-size="11px" font-style="normal" font-weight="normal" text-decoration="normal" x="2.5333328247070312" y="221.61427307128906" text-anchor="start" dominant-baseline="alphabetic" transform="matrix(1, 0, 0, 1, 0.5, 0.5)" fill-opacity="1">1000</text><text fill="none" stroke="rgb(0,0,0)" font-family="helvetica" font-size="11px" font-style="normal" font-weight="normal" text-decoration="normal" x="2.5333328247070312" y="221.61427307128906" text-anchor="start" dominant-baseline="alphabetic" transform="matrix(1, 0, 0, 1, 0.5, 0.5)" stroke-opacity="0" stroke-linejoin="bevel" stroke-miterlimit="10" stroke-dasharray="">1000</text><text fill="rgb(68,68,68)" stroke="none" font-family="helvetica" font-size="11px" font-style="normal" font-weight="normal" text-decoration="normal" x="2.5333328247070312" y="143.92141723632812" text-anchor="start" dominant-baseline="alphabetic" transform="matrix(1, 0, 0, 1, 0.5, 0.5)" fill-opacity="1">1500</text><text fill="none" stroke="rgb(0,0,0)" font-family="helvetica" font-size="11px" font-style="normal" font-weight="normal" text-decoration="normal" x="2.5333328247070312" y="143.92141723632812" text-anchor="start" dominant-baseline="alphabetic" transform="matrix(1, 0, 0, 1, 0.5, 0.5)" stroke-opacity="0" stroke-linejoin="bevel" stroke-miterlimit="10" stroke-dasharray="">1500</text><text fill="rgb(68,68,68)" stroke="none" font-family="helvetica" font-size="11px" font-style="normal" font-weight="normal" text-decoration="normal" x="2.5333328247070312" y="66.22856140136719" text-anchor="start" dominant-baseline="alphabetic" transform="matrix(1, 0, 0, 1, 0.5, 0.5)" fill-opacity="1">2000</text><text fill="none" stroke="rgb(0,0,0)" font-family="helvetica" font-size="11px" font-style="normal" font-weight="normal" text-decoration="normal" x="2.5333328247070312" y="66.22856140136719" text-anchor="start" dominant-baseline="alphabetic" transform="matrix(1, 0, 0, 1, 0.5, 0.5)" stroke-opacity="0" stroke-linejoin="bevel" stroke-miterlimit="10" stroke-dasharray="">2000</text></svg>