<svg version="1.1" xmlns="http://www.w3.org/2000/svg" width="700" height="700"><defs><clipPath id="asBbnpuBChsv"><path fill="none" stroke="none" d="M 53.5 60.5 L 695.5 60.5 L 695.5 654.5 L 53.5 654.5 L 53.5 60.5"/></clipPath><clipPath id="vavyBnXbZCQL"><path fill="none" stroke="none" d="M 53.5 60.5 L 695.5 60.5 L 695.5 654.5 L 53.5 654.5 L 53.5 60.5"/></clipPath><clipPath id="JydnPeTxGIMh"><path fill="none" stroke="none" d="M 53.5 60.5 L 695.5 60.5 L 695.5 654.5 L 53.5 654.5 L 53.5 60.5"/></clipPath><clipPath id="oOtWqQRpkynS"><path fill="none" stroke="none" d="M 53.5 60.5 L 695.5 60.5 L 695.5 654.5 L 53.5 654.5 L 53.5 60.5"/></clipPath><clipPath id="OxJsVFgRaxOv"><path fill="none" stroke="none" d="M 53.5 60.5 L 695.5 60.5 L 695.5 654.5 L 53.5 654.5 L 53.5 60.5"/></clipPath><clipPath id="LtxTPKAagSUB"><path fill="none" stroke="none" d="M 53.5 60.5 L 695.5 60.5 L 695.5 654.5 L 53.5 654.5 L 53.5 60.5"/></clipPath><clipPath id="SoqqvJMFwJlA"><path fill="none" stroke="none" d="M 53.5 60.5 L 695.5 60.5 L 695.5 654.5 L 53.5 654.5 L 53.5 60.5"/></clipPath></defs><path fill="rgb(255,255,255)" stroke="none" paint-order="stroke" d="M 0.5 0.5 L 700.5 0.5 L 700.5 700.5 L 0.5 700.5 L 0.5 0.5" fill-opacity="1"/><rect fill="#FFFFFF" stroke="none" x="53" y="60" width="642" height="594" transform="matrix(1, 0, 0, 1, 0.5, 0.5)"/><path fill="rgb(255,255,255)" stroke="none" paint-order="stroke" d="M 53.5 60.5 L 695.5 60.5 L 695.5 654.5 L 53.5 654.5 L 53.5 60.5" fill-opacity="1"/><path fill="none" stroke="rgb(229,229,229)" paint-order="fill" d="M 53.5 60.5 L 695.5 60.5 L 695.5 654.5 L 53.5 654.5 L 53.5 60.5" stroke-opacity="1" stroke-linejoin="bevel" stroke-miterlimit="10" stroke-dasharray=""/><path fill="none" stroke="rgb(229,229,229)" paint-order="fill" d="M 82.5 654.5 L 82.5 60.5 M 199.5 654.5 L 199.5 60.5 M 316.5 654.5 L 316.5 60.5 M 432.5 654.5 L 432.5 60.5 M 549.5 654.5 L 549.5 60.5 M 666.5 654.5 L 666.5 60.5" stroke-opacity="1" stroke-linejoin="bevel" stroke-miterlimit="10" stroke-dasharray="" clip-path="url(#asBbnpuBChsv)"/><path fill="none" stroke="rgb(229,229,229)" paint-order="fill" d="M 53.5 627.5 L 695.5 627.5 M 53.5 519.5 L 695.5 519.5 M 53.5 411.5 L 695.5 411.5 M 53.5 303.5 L 695.5 303.5 M 53.5 195.5 L 695.5 195.5 M 53.5 87.5 L 695.5 87.5" stroke-opacity="1" stroke-linejoin="bevel" stroke-miterlimit="10" stroke-dasharray="" clip-path="url(#vavyBnXbZCQL)"/><path fill="none" stroke="rgb(11,132,165)" paint-order="fill" d="M 137.07614135742188 300.88250732421875 L 85.61835479736328 503.2773132324219 L 150.30718994140625 282.6738586425781 L 131.1956787109375 300.3134765625 L 120.1697998046875 336.1617431640625 L 89.2973403930664 435.7402648925781 L 104.73356628417969 344.6970520019531 L 97.38298797607422 423.79083251953125 L 87.82722473144531 449.396728515625 L 115.51136016845703 315.43682861328125 L 111.3490982055664 360.0605773925781 L 127.23979187011719 370.3029479980469 L 161.76930236816406 268.4483642578125 L 132.66578674316406 284.949951171875 L 92.9726333618164 437.44732666015625 L 158.20260620117188 298.03741455078125 L 114.20991516113281 349.24920654296875 L 88.56228637695312 485.2449951171875 L 117.60023498535156 325.4853210449219 L 93.70769500732422 452.81085205078125 L 87.09217071533203 448.8277282714844 L 82.68181610107422 627.5 L 111.3490982055664 366.31982421875 L 84.15193176269531 608.1533203125 L 82.68181610107422 626.3619384765625 L 128.6431884765625 571.1669921875 L 82.68181610107422 627.5 L 98.85310363769531 406.1512145996094 L 86.35710906982422 535.8877563476562 L 87.82722473144531 451.6728210449219 L 90.74714660644531 463.05322265625 L 121.59091186523438 308.61578369140625 L 82.68181610107422 624.6549072265625 L 82.68181610107422 627.5 L 92.23757934570312 484.67596435546875 L 117.14276123046875 313.969970703125 L 112.8192138671875 323.07427978515625 L 86.29342651367188 459.63909912109375 L 137.12550354003906 285.82110595703125 L 82.68181610107422 567.1838989257812 L 135.53944396972656 296.89935302734375 L 146.47122192382812 285.3105163574219 L 90.76746368408203 489.2281494140625 L 146.47122192382812 285.3105163574219 L 82.68181610107422 627.5 L 89.2973403930664 423.79083251953125 L 193.67562866210938 267.1210632324219 L 82.68181610107422 627.5 L 82.68181610107422 627.5 L 211.4992218017578 269.01739501953125 L 123.84508514404297 304.86566162109375" stroke-opacity="1" stroke-linejoin="bevel" stroke-miterlimit="10" stroke-width="2" stroke-dasharray="" clip-path="url(#JydnPeTxGIMh)"/><path fill="none" stroke="rgb(246,200,95)" paint-order="fill" d="M 82.68181610107422 627.5 L 97.84120178222656 431.47259521484375 L 83.12870788574219 521.22998046875 L 94.30091857910156 402.60296630859375 L 83.57559204101562 529.8798828125 L 83.57559204101562 555.8295288085938 L 83.57559204101562 602.7860107421875 L 88.9382553100586 479.21624755859375 L 82.68181610107422 627.5 L 105.83139038085938 331.05352783203125 L 83.12870788574219 565.715087890625 L 82.68181610107422 627.5 L 90.7258071899414 422.5454406738281 L 95.19469451904297 386.5389099121094 L 82.68181610107422 627.5 L 88.9334716796875 526.4041137695312 L 84.02043151855469 529.8798828125 L 82.68181610107422 627.5 L 109.82769775390625 367.95556640625 L 92.96025085449219 566.9508056640625 L 92.06647491455078 486.63043212890625 L 82.68181610107422 626.2642822265625 L 82.68181610107422 627.5 L 94.74781036376953 557.0652465820312 L 82.68181610107422 627.5 L 91.17269897460938 547.0485229492188 L 82.68181610107422 627.5 L 82.68181610107422 627.5 L 82.68181610107422 627.5 L 82.68181610107422 627.5 L 107.70757293701172 355.6549072265625 L 89.8265609741211 406.8150634765625 L 82.68181610107422 627.5 L 88.04447937011719 541.0011596679688 L 82.68181610107422 627.5 L 92.05929565429688 437.6369934082031 L 96.08847045898438 418.66705322265625 L 126.52096557617188 359.3450927734375 L 117.77106475830078 336.1681823730469 L 82.68181610107422 627.5 L 85.8100357055664 505.4451904296875 L 99.20404052734375 345.8143615722656 L 82.68181610107422 627.5 L 99.20404052734375 345.8143615722656 L 82.68181610107422 627.5 L 83.12870788574219 622.5571899414062 L 89.38002014160156 479.21624755859375 L 82.68181610107422 627.5 L 82.68181610107422 627.5 L 97.85279083251953 429.1814270019531 L 92.06647491455078 416.1956481933594" stroke-opacity="1" stroke-linejoin="bevel" stroke-miterlimit="10" stroke-width="2" stroke-dasharray="" clip-path="url(#oOtWqQRpkynS)"/><path fill="none" stroke="rgb(0,158,115)" paint-order="fill" d="M 82.68181610107422 553.38232421875 L 82.68181610107422 612.3739624023438 L 82.68181610107422 627.5 L 83.10291290283203 532.2058715820312 L 82.68181610107422 579.0966186523438 L 82.68181610107422 627.5 L 82.68181610107422 406.65966796875 L 82.68181610107422 627.5 L 82.68181610107422 627.5 L 83.10200500488281 409.1066589355469 L 85.20838165283203 465.6512756347656 L 82.68181610107422 439.544189453125 L 82.68181610107422 627.5 L 83.10291290283203 388.5083923339844 L 85.62947845458984 453.5504150390625 L 83.10260772705078 561.1312866210938 L 83.94509887695312 332.6810607910156 L 82.68181610107422 609.3487548828125 L 87.71316528320312 323.3947448730469 L 82.68181610107422 627.5 L 82.68181610107422 627.5 L 82.68181610107422 627.5 L 82.68181610107422 500.441162109375 L 82.68181610107422 627.5 L 82.68181610107422 627.5 L 82.68181610107422 627.5 L 82.68181610107422 627.5 L 82.68181610107422 560.9453735351562 L 82.68181610107422 571.5336303710938 L 84.78728485107422 468.6764831542969 L 83.10230255126953 627.5 L 91.51205444335938 296.239501953125 L 82.68181610107422 627.5 L 82.68181610107422 627.5 L 82.68181610107422 627.5 L 83.10260772705078 440.4609069824219 L 83.10291290283203 358.2563171386719 L 83.52278900146484 456.2804870605469 L 82.68181610107422 489.88226318359375 L 82.68181610107422 627.5 L 90.25605010986328 352.20587158203125 L 82.68181610107422 627.5 L 82.68181610107422 627.5 L 82.68181610107422 627.5 L 82.68181610107422 603.29833984375 L 82.68181610107422 579.0966186523438 L 82.68181610107422 627.5 L 82.68181610107422 627.5 L 82.68181610107422 627.5 L 82.68181610107422 474.0738220214844 L 82.68181610107422 458.0882263183594" stroke-opacity="1" stroke-linejoin="bevel" stroke-miterlimit="10" stroke-width="2" stroke-dasharray="" clip-path="url(#OxJsVFgRaxOv)"/><path fill="none" stroke="rgb(128,128,128)" paint-order="fill" d="M 82.68181610107422 627.5 L 374.5 357.5 L 666.3181762695312 87.5" stroke-opacity="0.8" stroke-linejoin="bevel" stroke-miterlimit="10" stroke-width="2" stroke-dasharray="6" clip-path="url(#LtxTPKAagSUB)"/><path fill="none" stroke="rgb(0,0,0)" paint-order="fill" d="M 53.5 654.5 L 695.5 654.5" stroke-opacity="1" stroke-linejoin="bevel" stroke-miterlimit="10" stroke-dasharray=""/><path fill="none" stroke="rgb(0,0,0)" paint-order="fill" d="M 82.5 660.5 L 82.5 652.5 M 199.5 660.5 L 199.5 652.5 M 316.5 660.5 L 316.5 652.5 M 432.5 660.5 L 432.5 652.5 M 549.5 660.5 L 549.5 652.5 M 666.5 660.5 L 666.5 652.5" stroke-opacity="1" stroke-linejoin="bevel" stroke-miterlimit="10" stroke-dasharray=""/><path fill="none" stroke="rgb(0,0,0)" paint-order="fill" d="M 59.5 658.5 L 59.5 654.5 M 82.5 658.5 L 82.5 654.5 M 106.5 658.5 L 106.5 654.5 M 129.5 658.5 L 129.5 654.5 M 152.5 658.5 L 152.5 654.5 M 176.5 658.5 L 176.5 654.5 M 199.5 658.5 L 199.5 654.5 M 222.5 658.5 L 222.5 654.5 M 246.5 658.5 L 246.5 654.5 M 269.5 658.5 L 269.5 654.5 M 292.5 658.5 L 292.5 654.5 M 316.5 658.5 L 316.5 654.5 M 339.5 658.5 L 339.5 654.5 M 362.5 658.5 L 362.5 654.5 M 386.5 658.5 L 386.5 654.5 M 409.5 658.5 L 409.5 654.5 M 432.5 658.5 L 432.5 654.5 M 456.5 658.5 L 456.5 654.5 M 479.5 658.5 L 479.5 654.5 M 502.5 658.5 L 502.5 654.5 M 526.5 658.5 L 526.5 654.5 M 549.5 658.5 L 549.5 654.5 M 572.5 658.5 L 572.5 654.5 M 596.5 658.5 L 596.5 654.5 M 619.5 658.5 L 619.5 654.5 M 642.5 658.5 L 642.5 654.5 M 666.5 658.5 L 666.5 654.5 M 689.5 658.5 L 689.5 654.5" stroke-opacity="1" stroke-linejoin="bevel" stroke-miterlimit="10" stroke-dasharray=""/><text fill="rgb(68,68,68)" stroke="none" font-family="helvetica" font-size="11px" font-style="normal" font-weight="normal" text-decoration="normal" x="79.1234827041626" y="673" text-anchor="start" dominant-baseline="alphabetic" transform="matrix(1, 0, 0, 1, 0.5, 0.5)" fill-opacity="1">0</text><text fill="none" stroke="rgb(0,0,0)" font-family="helvetica" font-size="11px" font-style="normal" font-weight="normal" text-decoration="normal" x="79.1234827041626" y="673" text-anchor="start" dominant-baseline="alphabetic" transform="matrix(1, 0, 0, 1, 0.5, 0.5)" stroke-opacity="0" stroke-linejoin="bevel" stroke-miterlimit="10" stroke-dasharray="">0</text><text fill="rgb(68,68,68)" stroke="none" font-family="helvetica" font-size="11px" font-style="normal" font-weight="normal" text-decoration="normal" x="191.26742124557495" y="673" text-anchor="start" dominant-baseline="alphabetic" transform="matrix(1, 0, 0, 1, 0.5, 0.5)" fill-opacity="1">0.2</text><text fill="none" stroke="rgb(0,0,0)" font-family="helvetica" font-size="11px" font-style="normal" font-weight="normal" text-decoration="normal" x="191.26742124557495" y="673" text-anchor="start" dominant-baseline="alphabetic" transform="matrix(1, 0, 0, 1, 0.5, 0.5)" stroke-opacity="0" stroke-linejoin="bevel" stroke-miterlimit="10" stroke-dasharray="">0.2</text><text fill="rgb(68,68,68)" stroke="none" font-family="helvetica" font-size="11px" font-style="normal" font-weight="normal" text-decoration="normal" x="307.9946856498718" y="673" text-anchor="start" dominant-baseline="alphabetic" transform="matrix(1, 0, 0, 1, 0.5, 0.5)" fill-opacity="1">0.4</text><text fill="none" stroke="rgb(0,0,0)" font-family="helvetica" font-size="11px" font-style="normal" font-weight="normal" text-decoration="normal" x="307.9946856498718" y="673" text-anchor="start" dominant-baseline="alphabetic" transform="matrix(1, 0, 0, 1, 0.5, 0.5)" stroke-opacity="0" stroke-linejoin="bevel" stroke-miterlimit="10" stroke-dasharray="">0.4</text><text fill="rgb(68,68,68)" stroke="none" font-family="helvetica" font-size="11px" font-style="normal" font-weight="normal" text-decoration="normal" x="424.7219805717468" y="673" text-anchor="start" dominant-baseline="alphabetic" transform="matrix(1, 0, 0, 1, 0.5, 0.5)" fill-opacity="1">0.6</text><text fill="none" stroke="rgb(0,0,0)" font-family="helvetica" font-size="11px" font-style="normal" font-weight="normal" text-decoration="normal" x="424.7219805717468" y="673" text-anchor="start" dominant-baseline="alphabetic" transform="matrix(1, 0, 0, 1, 0.5, 0.5)" stroke-opacity="0" stroke-linejoin="bevel" stroke-miterlimit="10" stroke-dasharray="">0.6</text><text fill="rgb(68,68,68)" stroke="none" font-family="helvetica" font-size="11px" font-style="normal" font-weight="normal" text-decoration="normal" x="541.4492144584656" y="673" text-anchor="start" dominant-baseline="alphabetic" transform="matrix(1, 0, 0, 1, 0.5, 0.5)" fill-opacity="1">0.8</text><text fill="none" stroke="rgb(0,0,0)" font-family="helvetica" font-size="11px" font-style="normal" font-weight="normal" text-decoration="normal" x="541.4492144584656" y="673" text-anchor="start" dominant-baseline="alphabetic" transform="matrix(1, 0, 0, 1, 0.5, 0.5)" stroke-opacity="0" stroke-linejoin="bevel" stroke-miterlimit="10" stroke-dasharray="">0.8</text><text fill="rgb(68,68,68)" stroke="none" font-family="helvetica" font-size="11px" font-style="normal" font-weight="normal" text-decoration="normal" x="662.7598428726196" y="673" text-anchor="start" dominant-baseline="alphabetic" transform="matrix(1, 0, 0, 1, 0.5, 0.5)" fill-opacity="1">1</text><text fill="none" stroke="rgb(0,0,0)" font-family="helvetica" font-size="11px" font-style="normal" font-weight="normal" text-decoration="normal" x="662.7598428726196" y="673" text-anchor="start" dominant-baseline="alphabetic" transform="matrix(1, 0, 0, 1, 0.5, 0.5)" stroke-opacity="0" stroke-linejoin="bevel" stroke-miterlimit="10" stroke-dasharray="">1</text><text fill="rgb(68,68,68)" stroke="none" font-family="helvetica" font-size="13px" font-style="italic" font-weight="normal" text-decoration="normal" x="361.00833320617676" y="694" text-anchor="start" dominant-baseline="alphabetic" transform="matrix(1, 0, 0, 1, 0.5, 0.5)" fill-opacity="1">FPR</text><text fill="none" stroke="rgb(0,0,0)" font-family="helvetica" font-size="13px" font-style="italic" font-weight="normal" text-decoration="normal" x="361.00833320617676" y="694" text-anchor="start" dominant-baseline="alphabetic" transform="matrix(1, 0, 0, 1, 0.5, 0.5)" stroke-opacity="0" stroke-linejoin="bevel" stroke-miterlimit="10" stroke-dasharray="">FPR</text><path fill="none" stroke="rgb(0,0,0)" paint-order="fill" d="M 53.5 654.5 L 53.5 60.5" stroke-opacity="1" stroke-linejoin="bevel" stroke-miterlimit="10" stroke-dasharray=""/><path fill="none" stroke="rgb(0,0,0)" paint-order="fill" d="M 47.5 627.5 L 55.5 627.5 M 47.5 519.5 L 55.5 519.5 M 47.5 411.5 L 55.5 411.5 M 47.5 303.5 L 55.5 303.5 M 47.5 195.5 L 55.5 195.5 M 47.5 87.5 L 55.5 87.5" stroke-opacity="1" stroke-linejoin="bevel" stroke-miterlimit="10" stroke-dasharray=""/><path fill="none" stroke="rgb(0,0,0)" paint-order="fill" d="M 49.5 649.5 L 53.5 649.5 M 49.5 627.5 L 53.5 627.5 M 49.5 605.5 L 53.5 605.5 M 49.5 584.5 L 53.5 584.5 M 49.5 562.5 L 53.5 562.5 M 49.5 541.5 L 53.5 541.5 M 49.5 519.5 L 53.5 519.5 M 49.5 497.5 L 53.5 497.5 M 49.5 476.5 L 53.5 476.5 M 49.5 454.5 L 53.5 454.5 M 49.5 433.5 L 53.5 433.5 M 49.5 411.5 L 53.5 411.5 M 49.5 389.5 L 53.5 389.5 M 49.5 368.5 L 53.5 368.5 M 49.5 346.5 L 53.5 346.5 M 49.5 325.5 L 53.5 325.5 M 49.5 303.5 L 53.5 303.5 M 49.5 281.5 L 53.5 281.5 M 49.5 260.5 L 53.5 260.5 M 49.5 238.5 L 53.5 238.5 M 49.5 217.5 L 53.5 217.5 M 49.5 195.5 L 53.5 195.5 M 49.5 173.5 L 53.5 173.5 M 49.5 152.5 L 53.5 152.5 M 49.5 130.5 L 53.5 130.5 M 49.5 109.5 L 53.5 109.5 M 49.5 87.5 L 53.5 87.5 M 49.5 65.5 L 53.5 65.5" stroke-opacity="1" stroke-linejoin="bevel" stroke-miterlimit="10" stroke-dasharray=""/><text fill="rgb(68,68,68)" stroke="none" font-family="helvetica" font-size="11px" font-style="normal" font-weight="normal" text-decoration="normal" x="35.88333320617676" y="631" text-anchor="start" dominant-baseline="alphabetic" transform="matrix(1, 0, 0, 1, 0.5, 0.5)" fill-opacity="1">0</text><text fill="none" stroke="rgb(0,0,0)" font-family="helvetica" font-size="11px" font-style="normal" font-weight="normal" text-decoration="normal" x="35.88333320617676" y="631" text-anchor="start" dominant-baseline="alphabetic" transform="matrix(1, 0, 0, 1, 0.5, 0.5)" stroke-opacity="0" stroke-linejoin="bevel" stroke-miterlimit="10" stroke-dasharray="">0</text><text fill="rgb(68,68,68)" stroke="none" font-family="helvetica" font-size="11px" font-style="normal" font-weight="normal" text-decoration="normal" x="26.716666221618652" y="523" text-anchor="start" dominant-baseline="alphabetic" transform="matrix(1, 0, 0, 1, 0.5, 0.5)" fill-opacity="1">0.2</text><text fill="none" stroke="rgb(0,0,0)" font-family="helvetica" font-size="11px" font-style="normal" font-weight="normal" text-decoration="normal" x="26.716666221618652" y="523" text-anchor="start" dominant-baseline="alphabetic" transform="matrix(1, 0, 0, 1, 0.5, 0.5)" stroke-opacity="0" stroke-linejoin="bevel" stroke-miterlimit="10" stroke-dasharray="">0.2</text><text fill="rgb(68,68,68)" stroke="none" font-family="helvetica" font-size="11px" font-style="normal" font-weight="normal" text-decoration="normal" x="26.716666221618652" y="415" text-anchor="start" dominant-baseline="alphabetic" transform="matrix(1, 0, 0, 1, 0.5, 0.5)" fill-opacity="1">0.4</text><text fill="none" stroke="rgb(0,0,0)" font-family="helvetica" font-size="11px" font-style="normal" font-weight="normal" text-decoration="normal" x="26.716666221618652" y="415" text-anchor="start" dominant-baseline="alphabetic" transform="matrix(1, 0, 0, 1, 0.5, 0.5)" stroke-opacity="0" stroke-linejoin="bevel" stroke-miterlimit="10" stroke-dasharray="">0.4</text><text fill="rgb(68,68,68)" stroke="none" font-family="helvetica" font-size="11px" font-style="normal" font-weight="normal" text-decoration="normal" x="26.716666221618652" y="307" text-anchor="start" dominant-baseline="alphabetic" transform="matrix(1, 0, 0, 1, 0.5, 0.5)" fill-opacity="1">0.6</text><text fill="none" stroke="rgb(0,0,0)" font-family="helvetica" font-size="11px" font-style="normal" font-weight="normal" text-decoration="normal" x="26.716666221618652" y="307" text-anchor="start" dominant-baseline="alphabetic" transform="matrix(1, 0, 0, 1, 0.5, 0.5)" stroke-opacity="0" stroke-linejoin="bevel" stroke-miterlimit="10" stroke-dasharray="">0.6</text><text fill="rgb(68,68,68)" stroke="none" font-family="helvetica" font-size="11px" font-style="normal" font-weight="normal" text-decoration="normal" x="26.716666221618652" y="199" text-anchor="start" dominant-baseline="alphabetic" transform="matrix(1, 0, 0, 1, 0.5, 0.5)" fill-opacity="1">0.8</text><text fill="none" stroke="rgb(0,0,0)" font-family="helvetica" font-size="11px" font-style="normal" font-weight="normal" text-decoration="normal" x="26.716666221618652" y="199" text-anchor="start" dominant-baseline="alphabetic" transform="matrix(1, 0, 0, 1, 0.5, 0.5)" stroke-opacity="0" stroke-linejoin="bevel" stroke-miterlimit="10" stroke-dasharray="">0.8</text><text fill="rgb(68,68,68)" stroke="none" font-family="helvetica" font-size="11px" font-style="normal" font-weight="normal" text-decoration="normal" x="35.88333320617676" y="91" text-anchor="start" dominant-baseline="alphabetic" transform="matrix(1, 0, 0, 1, 0.5, 0.5)" fill-opacity="1">1</text><text fill="none" stroke="rgb(0,0,0)" font-family="helvetica" font-size="11px" font-style="normal" font-weight="normal" text-decoration="normal" x="35.88333320617676" y="91" text-anchor="start" dominant-baseline="alphabetic" transform="matrix(1, 0, 0, 1, 0.5, 0.5)" stroke-opacity="0" stroke-linejoin="bevel" stroke-miterlimit="10" stroke-dasharray="">1</text><text fill="rgb(68,68,68)" stroke="none" font-family="helvetica" font-size="13px" font-style="italic" font-weight="normal" text-decoration="normal" x="5.72499942779541" y="354" text-anchor="start" dominant-baseline="alphabetic" transform="matrix(6.123233995736766e-17, -1, 1, 6.123233995736766e-17, -337.78333377838135, 376.21666622161865)" fill-opacity="1">TPR</text><text fill="none" stroke="rgb(0,0,0)" font-family="helvetica" font-size="13px" font-style="italic" font-weight="normal" text-decoration="normal" x="5.72499942779541" y="354" text-anchor="start" dominant-baseline="alphabetic" transform="matrix(6.123233995736766e-17, -1, 1, 6.123233995736766e-17, -337.78333377838135, 376.21666622161865)" stroke-opacity="0" stroke-linejoin="bevel" stroke-miterlimit="10" stroke-dasharray="">TPR</text><path fill="rgb(255,255,255)" stroke="rgb(229,229,229)" paint-order="fill" d="M 249.65833282470703 10.5 L 499.34166717529297 10.5 L 499.34166717529297 50.5 L 249.65833282470703 50.5 L 249.65833282470703 10.5" fill-opacity="0.9490196078431372" stroke-opacity="0.5019607843137255" stroke-linejoin="bevel" stroke-miterlimit="10" stroke-dasharray=""/><text fill="rgb(68,68,68)" stroke="none" font-family="helvetica" font-size="13px" font-style="normal" font-weight="normal" text-decoration="normal" x="284.15833282470703" y="30" text-anchor="start" dominant-baseline="central" transform="matrix(1, 0, 0, 1, 0.5, 0.5)" fill-opacity="1">osoba</text><path fill="none" stroke="rgb(11,132,165)" paint-order="fill" d="M 259.65833282470703 30.5 L 279.65833282470703 30.5" stroke-opacity="1" stroke-linejoin="bevel" stroke-miterlimit="10" stroke-width="2" stroke-dasharray=""/><text fill="rgb(68,68,68)" stroke="none" font-family="helvetica" font-size="13px" font-style="normal" font-weight="normal" text-decoration="normal" x="374.59166717529297" y="30" text-anchor="start" dominant-baseline="central" transform="matrix(1, 0, 0, 1, 0.5, 0.5)" fill-opacity="1">miasto</text><path fill="none" stroke="rgb(246,200,95)" paint-order="fill" d="M 350.09166717529297 30.5 L 370.09166717529297 30.5" stroke-opacity="1" stroke-linejoin="bevel" stroke-miterlimit="10" stroke-width="2" stroke-dasharray=""/><text fill="rgb(68,68,68)" stroke="none" font-family="helvetica" font-size="13px" font-style="normal" font-weight="normal" text-decoration="normal" x="467.8916664123535" y="30" text-anchor="start" dominant-baseline="central" transform="matrix(1, 0, 0, 1, 0.5, 0.5)" fill-opacity="1">kraj</text><path fill="none" stroke="rgb(0,158,115)" paint-order="fill" d="M 443.3916664123535 30.5 L 463.3916664123535 30.5" stroke-opacity="1" stroke-linejoin="bevel" stroke-miterlimit="10" stroke-width="2" stroke-dasharray=""/><path fill="rgb(255,255,255)" stroke="rgb(229,229,229)" paint-order="fill" d="M 249.65833282470703 10.5 L 499.34166717529297 10.5 L 499.34166717529297 50.5 L 249.65833282470703 50.5 L 249.65833282470703 10.5" fill-opacity="0.9490196078431372" stroke-opacity="0.5019607843137255" stroke-linejoin="bevel" stroke-miterlimit="10" stroke-dasharray=""/><text fill="rgb(68,68,68)" stroke="none" font-family="helvetica" font-size="13px" font-style="normal" font-weight="normal" text-decoration="normal" x="284.15833282470703" y="30" text-anchor="start" dominant-baseline="central" transform="matrix(1, 0, 0, 1, 0.5, 0.5)" fill-opacity="1">osoba</text><path fill="none" stroke="rgb(11,132,165)" paint-order="fill" d="M 259.65833282470703 30.5 L 279.65833282470703 30.5" stroke-opacity="1" stroke-linejoin="bevel" stroke-miterlimit="10" stroke-width="2" stroke-dasharray=""/><text fill="rgb(68,68,68)" stroke="none" font-family="helvetica" font-size="13px" font-style="normal" font-weight="normal" text-decoration="normal" x="374.59166717529297" y="30" text-anchor="start" dominant-baseline="central" transform="matrix(1, 0, 0, 1, 0.5, 0.5)" fill-opacity="1">miasto</text><path fill="none" stroke="rgb(246,200,95)" paint-order="fill" d="M 350.09166717529297 30.5 L 370.09166717529297 30.5" stroke-opacity="1" stroke-linejoin="bevel" stroke-miterlimit="10" stroke-width="2" stroke-dasharray=""/><text fill="rgb(68,68,68)" stroke="none" font-family="helvetica" font-size="13px" font-style="normal" font-weight="normal" text-decoration="normal" x="467.8916664123535" y="30" text-anchor="start" dominant-baseline="central" transform="matrix(1, 0, 0, 1, 0.5, 0.5)" fill-opacity="1">kraj</text><path fill="none" stroke="rgb(0,158,115)" paint-order="fill" d="M 443.3916664123535 30.5 L 463.3916664123535 30.5" stroke-opacity="1" stroke-linejoin="bevel" stroke-miterlimit="10" stroke-width="2" stroke-dasharray=""/></svg>