<svg version="1.1" xmlns="http://www.w3.org/2000/svg" width="700" height="400"><defs><clipPath id="bMXJOpatnMey"><path fill="none" stroke="none" d="M 53.5 60.5 L 695.5 60.5 L 695.5 354.5 L 53.5 354.5 L 53.5 60.5"/></clipPath><clipPath id="FawSNadzWgls"><path fill="none" stroke="none" d="M 53.5 60.5 L 695.5 60.5 L 695.5 354.5 L 53.5 354.5 L 53.5 60.5"/></clipPath><clipPath id="lZMHqZFZXtVk"><path fill="none" stroke="none" d="M 53.5 60.5 L 695.5 60.5 L 695.5 354.5 L 53.5 354.5 L 53.5 60.5"/></clipPath><clipPath id="FnegwOHzZBbK"><path fill="none" stroke="none" d="M 53.5 60.5 L 695.5 60.5 L 695.5 354.5 L 53.5 354.5 L 53.5 60.5"/></clipPath><clipPath id="yIaLpdWthaln"><path fill="none" stroke="none" d="M 53.5 60.5 L 695.5 60.5 L 695.5 354.5 L 53.5 354.5 L 53.5 60.5"/></clipPath><clipPath id="VMNiNLeuMCVm"><path fill="none" stroke="none" d="M 53.5 60.5 L 695.5 60.5 L 695.5 354.5 L 53.5 354.5 L 53.5 60.5"/></clipPath><clipPath id="aMaaGFxDyefm"><path fill="none" stroke="none" d="M 53.5 60.5 L 695.5 60.5 L 695.5 354.5 L 53.5 354.5 L 53.5 60.5"/></clipPath></defs><path fill="rgb(255,255,255)" stroke="none" paint-order="stroke" d="M 0.5 0.5 L 700.5 0.5 L 700.5 400.5 L 0.5 400.5 L 0.5 0.5" fill-opacity="1"/><rect fill="#FFFFFF" stroke="none" x="53" y="60" width="642" height="294" transform="matrix(1, 0, 0, 1, 0.5, 0.5)"/><path fill="rgb(255,255,255)" stroke="none" paint-order="stroke" d="M 53.5 60.5 L 695.5 60.5 L 695.5 354.5 L 53.5 354.5 L 53.5 60.5" fill-opacity="1"/><path fill="none" stroke="rgb(229,229,229)" paint-order="fill" d="M 53.5 60.5 L 695.5 60.5 L 695.5 354.5 L 53.5 354.5 L 53.5 60.5" stroke-opacity="1" stroke-linejoin="bevel" stroke-miterlimit="10" stroke-dasharray=""/><path fill="none" stroke="rgb(229,229,229)" paint-order="fill" d="M 181.5 354.5 L 181.5 60.5 M 310.5 354.5 L 310.5 60.5 M 438.5 354.5 L 438.5 60.5 M 567.5 354.5 L 567.5 60.5" stroke-opacity="1" stroke-linejoin="bevel" stroke-miterlimit="10" stroke-dasharray="" clip-path="url(#bMXJOpatnMey)"/><path fill="none" stroke="rgb(229,229,229)" paint-order="fill" d="M 53.5 295.5 L 695.5 295.5 M 53.5 236.5 L 695.5 236.5 M 53.5 178.5 L 695.5 178.5 M 53.5 119.5 L 695.5 119.5" stroke-opacity="1" stroke-linejoin="bevel" stroke-miterlimit="10" stroke-dasharray="" clip-path="url(#FawSNadzWgls)"/><path fill="none" stroke="rgb(128,128,128)" paint-order="fill" d="M 53.5 354.5 L 695.5 60.5" stroke-opacity="0.8" stroke-linejoin="bevel" stroke-miterlimit="10" stroke-dasharray="6" clip-path="url(#lZMHqZFZXtVk)"/><path fill="none" stroke="rgb(11,132,165)" paint-order="fill" d="M 112.73690795898438 179.39028930664062 L 123.75660705566406 168.62013244628906 L 140.60552978515625 161.80453491210938 L 102.82241821289062 198.36090087890625 L 93.92821502685547 229.34088134765625 L 86.52635192871094 200.6915740966797 L 53.5 354.5 L 96.99811553955078 222.9736785888672 L 179.8212890625 136.08236694335938 L 154.57052612304688 208.5843048095703 L 128.69647216796875 224.0742950439453 L 125.0985107421875 182.5611114501953 L 117.86090087890625 177.91412353515625 L 57.54281997680664 322.28082275390625 L 112.73690795898438 179.39028930664062 L 342.1574401855469 182.5611114501953 L 359.13726806640625 116.57376098632812 L 124.0318374633789 171.48422241210938 L 148.6708526611328 197.1217041015625 L 115.47525024414062 169.08642578125 L 82.5351791381836 185.88685607910156 L 134.35643005371094 185.3493194580078 L 123.84508514404297 309.57904052734375 L 209.40286254882812 135.08316040039062 L 65.58280944824219 233.94769287109375 L 102.82241821289062 184.419921875 L 156.12741088867188 164.69482421875 L 53.5 354.5 L 60.777076721191406 283.55584716796875 L 57.54281997680664 303.6928405761719 L 186.35501098632812 136.4009552001953 L 106.67417907714844 155.13125610351562 L 58.35138702392578 273.33245849609375 L 78.16171264648438 197.1217041015625 L 86.65113067626953 251.02687072753906 L 211.9785919189453 144.45574951171875 L 130.06149291992188 209.6572265625 L 69.65093994140625 211.98265075683594 L 85.80188751220703 183.1807098388672 L 274.238037109375 138.25975036621094 L 99.5881576538086 188.4473114013672 L 136.44161987304688 151.00889587402344 L 72.88113403320312 256.9130554199219 L 76.91886901855469 221.59588623046875 L 181.2572021484375 137.08824157714844 L 176.1121063232422 141.91065979003906 L 89.47758483886719 199.7794189453125 L 53.5 354.5 L 146.48489379882812 168.31033325195312 L 149.7230224609375 159.4274444580078 L 172.71707153320312 169.51470947265625" stroke-opacity="1" stroke-linejoin="bevel" stroke-miterlimit="10" stroke-dasharray="" clip-path="url(#FnegwOHzZBbK)"/><path fill="none" stroke="rgb(246,200,95)" paint-order="fill" d="M 64.2325210571289 233.71444702148438 L 63.331546783447266 263.8835754394531 L 75.587158203125 247.52975463867188 L 53.5 354.5 L 53.5 354.5 L 96.20183563232422 201.1378173828125 L 53.5 354.5 L 61.35321044921875 266.0990905761719 L 68.19107818603516 235.5786590576172 L 53.5 354.5 L 53.5 354.5 L 58.85405731201172 354.5 L 63.32402420043945 243.58181762695312 L 53.5 354.5 L 64.2325210571289 233.71444702148438 L 53.5 354.5 L 53.5 354.5 L 60.86238479614258 240.6081085205078 L 58.40825653076172 309.42449951171875 L 89.6758041381836 211.10133361816406 L 86.67325592041016 216.54100036621094 L 53.5 354.5 L 53.5 354.5 L 68.7155990600586 242.8460693359375 L 85.77113342285156 239.57272338867188 L 53.5 354.5 L 80.45052337646484 239.56695556640625 L 53.5 354.5 L 53.5 354.5 L 53.5 354.5 L 53.5 354.5 L 93.625 176.02317810058594 L 53.5 354.5 L 92.92532348632812 207.1636199951172 L 53.5 354.5 L 53.5 354.5 L 119.07012176513672 232.1644287109375 L 54.480899810791016 296.6418762207031 L 65.780029296875 239.45652770996094 L 53.5 354.5 L 53.5 354.5 L 79.86349487304688 195.27752685546875 L 69.72205352783203 227.63699340820312 L 63.32402420043945 279.1498718261719 L 68.2135238647461 220.80316162109375 L 82.44064331054688 204.67910766601562 L 82.88214874267578 196.2432403564453 L 53.5 354.5 L 53.5 354.5 L 70.3567123413086 292.0575256347656 L 74.55720520019531 269.9246520996094" stroke-opacity="1" stroke-linejoin="bevel" stroke-miterlimit="10" stroke-dasharray="" clip-path="url(#yIaLpdWthaln)"/><path fill="none" stroke="rgb(0,158,115)" paint-order="fill" d="M 53.5 354.5 L 53.962867736816406 354.5 L 54.42640686035156 253.7701873779297 L 53.5 354.5 L 53.5 354.5 L 53.5 354.5 L 53.5 354.5 L 53.5 354.5 L 53.5 354.5 L 53.5 354.5 L 53.5 354.5 L 53.5 318.7432556152344 L 53.5 354.5 L 53.5 354.5 L 53.5 354.5 L 53.5 354.5 L 53.5 354.5 L 53.5 354.5 L 53.5 353.6810607910156 L 53.5 313.55291748046875 L 62.68455123901367 193.91175842285156 L 53.5 354.5 L 53.5 354.5 L 53.9602165222168 354.5 L 53.95988464355469 342.9705810546875 L 53.5 298.5 L 53.949581146240234 210.2886199951172 L 53.5 354.5 L 53.5 354.5 L 53.5 354.5 L 60.9112548828125 186.0459442138672 L 61.6783447265625 178.7391357421875 L 53.5 354.5 L 53.5 232.13243103027344 L 53.5 354.5 L 53.5 354.5 L 53.5 354.5 L 65.98847198486328 149.19273376464844 L 55.352813720703125 187.79049682617188 L 53.5 354.5 L 53.5 354.5 L 55.334285736083984 203.4166717529297 L 53.5 354.5 L 53.5 343.82403564453125 L 53.5 354.5 L 54.400421142578125 183.9171142578125 L 53.5 354.5 L 53.5 354.5 L 53.5 354.5 L 61.736637115478516 258.2958068847656 L 53.5 354.5" stroke-opacity="1" stroke-linejoin="bevel" stroke-miterlimit="10" stroke-dasharray="" clip-path="url(#VMNiNLeuMCVm)"/><path fill="none" stroke="rgb(0,0,0)" paint-order="fill" d="M 53.5 354.5 L 695.5 354.5" stroke-opacity="1" stroke-linejoin="bevel" stroke-miterlimit="10" stroke-dasharray=""/><path fill="none" stroke="rgb(0,0,0)" paint-order="fill" d="M 53.5 360.5 L 53.5 352.5 M 181.5 360.5 L 181.5 352.5 M 310.5 360.5 L 310.5 352.5 M 438.5 360.5 L 438.5 352.5 M 567.5 360.5 L 567.5 352.5 M 695.5 360.5 L 695.5 352.5" stroke-opacity="1" stroke-linejoin="bevel" stroke-miterlimit="10" stroke-dasharray=""/><path fill="none" stroke="rgb(0,0,0)" paint-order="fill" d="M 53.5 358.5 L 53.5 354.5 M 79.5 358.5 L 79.5 354.5 M 104.5 358.5 L 104.5 354.5 M 130.5 358.5 L 130.5 354.5 M 156.5 358.5 L 156.5 354.5 M 181.5 358.5 L 181.5 354.5 M 207.5 358.5 L 207.5 354.5 M 233.5 358.5 L 233.5 354.5 M 258.5 358.5 L 258.5 354.5 M 284.5 358.5 L 284.5 354.5 M 310.5 358.5 L 310.5 354.5 M 335.5 358.5 L 335.5 354.5 M 361.5 358.5 L 361.5 354.5 M 387.5 358.5 L 387.5 354.5 M 413.5 358.5 L 413.5 354.5 M 438.5 358.5 L 438.5 354.5 M 464.5 358.5 L 464.5 354.5 M 490.5 358.5 L 490.5 354.5 M 515.5 358.5 L 515.5 354.5 M 541.5 358.5 L 541.5 354.5 M 567.5 358.5 L 567.5 354.5 M 592.5 358.5 L 592.5 354.5 M 618.5 358.5 L 618.5 354.5 M 644.5 358.5 L 644.5 354.5 M 669.5 358.5 L 669.5 354.5 M 695.5 358.5 L 695.5 354.5" stroke-opacity="1" stroke-linejoin="bevel" stroke-miterlimit="10" stroke-dasharray=""/><text fill="rgb(68,68,68)" stroke="none" font-family="helvetica" font-size="11px" font-style="normal" font-weight="normal" text-decoration="normal" x="49.94166660308838" y="373" text-anchor="start" dominant-baseline="alphabetic" transform="matrix(1, 0, 0, 1, 0.5, 0.5)" fill-opacity="1">0</text><text fill="none" stroke="rgb(0,0,0)" font-family="helvetica" font-size="11px" font-style="normal" font-weight="normal" text-decoration="normal" x="49.94166660308838" y="373" text-anchor="start" dominant-baseline="alphabetic" transform="matrix(1, 0, 0, 1, 0.5, 0.5)" stroke-opacity="0" stroke-linejoin="bevel" stroke-miterlimit="10" stroke-dasharray="">0</text><text fill="rgb(68,68,68)" stroke="none" font-family="helvetica" font-size="11px" font-style="normal" font-weight="normal" text-decoration="normal" x="173.7583270072937" y="373" text-anchor="start" dominant-baseline="alphabetic" transform="matrix(1, 0, 0, 1, 0.5, 0.5)" fill-opacity="1">0.2</text><text fill="none" stroke="rgb(0,0,0)" font-family="helvetica" font-size="11px" font-style="normal" font-weight="normal" text-decoration="normal" x="173.7583270072937" y="373" text-anchor="start" dominant-baseline="alphabetic" transform="matrix(1, 0, 0, 1, 0.5, 0.5)" stroke-opacity="0" stroke-linejoin="bevel" stroke-miterlimit="10" stroke-dasharray="">0.2</text><text fill="rgb(68,68,68)" stroke="none" font-family="helvetica" font-size="11px" font-style="normal" font-weight="normal" text-decoration="normal" x="302.1583209037781" y="373" text-anchor="start" dominant-baseline="alphabetic" transform="matrix(1, 0, 0, 1, 0.5, 0.5)" fill-opacity="1">0.4</text><text fill="none" stroke="rgb(0,0,0)" font-family="helvetica" font-size="11px" font-style="normal" font-weight="normal" text-decoration="normal" x="302.1583209037781" y="373" text-anchor="start" dominant-baseline="alphabetic" transform="matrix(1, 0, 0, 1, 0.5, 0.5)" stroke-opacity="0" stroke-linejoin="bevel" stroke-miterlimit="10" stroke-dasharray="">0.4</text><text fill="rgb(68,68,68)" stroke="none" font-family="helvetica" font-size="11px" font-style="normal" font-weight="normal" text-decoration="normal" x="430.5583453178406" y="373" text-anchor="start" dominant-baseline="alphabetic" transform="matrix(1, 0, 0, 1, 0.5, 0.5)" fill-opacity="1">0.6</text><text fill="none" stroke="rgb(0,0,0)" font-family="helvetica" font-size="11px" font-style="normal" font-weight="normal" text-decoration="normal" x="430.5583453178406" y="373" text-anchor="start" dominant-baseline="alphabetic" transform="matrix(1, 0, 0, 1, 0.5, 0.5)" stroke-opacity="0" stroke-linejoin="bevel" stroke-miterlimit="10" stroke-dasharray="">0.6</text><text fill="rgb(68,68,68)" stroke="none" font-family="helvetica" font-size="11px" font-style="normal" font-weight="normal" text-decoration="normal" x="558.9583086967468" y="373" text-anchor="start" dominant-baseline="alphabetic" transform="matrix(1, 0, 0, 1, 0.5, 0.5)" fill-opacity="1">0.8</text><text fill="none" stroke="rgb(0,0,0)" font-family="helvetica" font-size="11px" font-style="normal" font-weight="normal" text-decoration="normal" x="558.9583086967468" y="373" text-anchor="start" dominant-baseline="alphabetic" transform="matrix(1, 0, 0, 1, 0.5, 0.5)" stroke-opacity="0" stroke-linejoin="bevel" stroke-miterlimit="10" stroke-dasharray="">0.8</text><text fill="rgb(68,68,68)" stroke="none" font-family="helvetica" font-size="11px" font-style="normal" font-weight="normal" text-decoration="normal" x="691.9416666030884" y="373" text-anchor="start" dominant-baseline="alphabetic" transform="matrix(1, 0, 0, 1, 0.5, 0.5)" fill-opacity="1">1</text><text fill="none" stroke="rgb(0,0,0)" font-family="helvetica" font-size="11px" font-style="normal" font-weight="normal" text-decoration="normal" x="691.9416666030884" y="373" text-anchor="start" dominant-baseline="alphabetic" transform="matrix(1, 0, 0, 1, 0.5, 0.5)" stroke-opacity="0" stroke-linejoin="bevel" stroke-miterlimit="10" stroke-dasharray="">1</text><text fill="rgb(68,68,68)" stroke="none" font-family="helvetica" font-size="13px" font-style="italic" font-weight="normal" text-decoration="normal" x="361.00833320617676" y="394" text-anchor="start" dominant-baseline="alphabetic" transform="matrix(1, 0, 0, 1, 0.5, 0.5)" fill-opacity="1">FPR</text><text fill="none" stroke="rgb(0,0,0)" font-family="helvetica" font-size="13px" font-style="italic" font-weight="normal" text-decoration="normal" x="361.00833320617676" y="394" text-anchor="start" dominant-baseline="alphabetic" transform="matrix(1, 0, 0, 1, 0.5, 0.5)" stroke-opacity="0" stroke-linejoin="bevel" stroke-miterlimit="10" stroke-dasharray="">FPR</text><path fill="none" stroke="rgb(0,0,0)" paint-order="fill" d="M 53.5 354.5 L 53.5 60.5" stroke-opacity="1" stroke-linejoin="bevel" stroke-miterlimit="10" stroke-dasharray=""/><path fill="none" stroke="rgb(0,0,0)" paint-order="fill" d="M 47.5 354.5 L 55.5 354.5 M 47.5 295.5 L 55.5 295.5 M 47.5 236.5 L 55.5 236.5 M 47.5 178.5 L 55.5 178.5 M 47.5 119.5 L 55.5 119.5 M 47.5 60.5 L 55.5 60.5" stroke-opacity="1" stroke-linejoin="bevel" stroke-miterlimit="10" stroke-dasharray=""/><path fill="none" stroke="rgb(0,0,0)" paint-order="fill" d="M 49.5 354.5 L 53.5 354.5 M 49.5 342.5 L 53.5 342.5 M 49.5 330.5 L 53.5 330.5 M 49.5 319.5 L 53.5 319.5 M 49.5 307.5 L 53.5 307.5 M 49.5 295.5 L 53.5 295.5 M 49.5 283.5 L 53.5 283.5 M 49.5 272.5 L 53.5 272.5 M 49.5 260.5 L 53.5 260.5 M 49.5 248.5 L 53.5 248.5 M 49.5 236.5 L 53.5 236.5 M 49.5 225.5 L 53.5 225.5 M 49.5 213.5 L 53.5 213.5 M 49.5 201.5 L 53.5 201.5 M 49.5 189.5 L 53.5 189.5 M 49.5 178.5 L 53.5 178.5 M 49.5 166.5 L 53.5 166.5 M 49.5 154.5 L 53.5 154.5 M 49.5 142.5 L 53.5 142.5 M 49.5 131.5 L 53.5 131.5 M 49.5 119.5 L 53.5 119.5 M 49.5 107.5 L 53.5 107.5 M 49.5 95.5 L 53.5 95.5 M 49.5 84.5 L 53.5 84.5 M 49.5 72.5 L 53.5 72.5 M 49.5 60.5 L 53.5 60.5" stroke-opacity="1" stroke-linejoin="bevel" stroke-miterlimit="10" stroke-dasharray=""/><text fill="rgb(68,68,68)" stroke="none" font-family="helvetica" font-size="11px" font-style="normal" font-weight="normal" text-decoration="normal" x="35.88333320617676" y="358" text-anchor="start" dominant-baseline="alphabetic" transform="matrix(1, 0, 0, 1, 0.5, 0.5)" fill-opacity="1">0</text><text fill="none" stroke="rgb(0,0,0)" font-family="helvetica" font-size="11px" font-style="normal" font-weight="normal" text-decoration="normal" x="35.88333320617676" y="358" text-anchor="start" dominant-baseline="alphabetic" transform="matrix(1, 0, 0, 1, 0.5, 0.5)" stroke-opacity="0" stroke-linejoin="bevel" stroke-miterlimit="10" stroke-dasharray="">0</text><text fill="rgb(68,68,68)" stroke="none" font-family="helvetica" font-size="11px" font-style="normal" font-weight="normal" text-decoration="normal" x="26.716666221618652" y="299.20001220703125" text-anchor="start" dominant-baseline="alphabetic" transform="matrix(1, 0, 0, 1, 0.5, 0.5)" fill-opacity="1">0.2</text><text fill="none" stroke="rgb(0,0,0)" font-family="helvetica" font-size="11px" font-style="normal" font-weight="normal" text-decoration="normal" x="26.716666221618652" y="299.20001220703125" text-anchor="start" dominant-baseline="alphabetic" transform="matrix(1, 0, 0, 1, 0.5, 0.5)" stroke-opacity="0" stroke-linejoin="bevel" stroke-miterlimit="10" stroke-dasharray="">0.2</text><text fill="rgb(68,68,68)" stroke="none" font-family="helvetica" font-size="11px" font-style="normal" font-weight="normal" text-decoration="normal" x="26.716666221618652" y="240.39999389648438" text-anchor="start" dominant-baseline="alphabetic" transform="matrix(1, 0, 0, 1, 0.5, 0.5)" fill-opacity="1">0.4</text><text fill="none" stroke="rgb(0,0,0)" font-family="helvetica" font-size="11px" font-style="normal" font-weight="normal" text-decoration="normal" x="26.716666221618652" y="240.39999389648438" text-anchor="start" dominant-baseline="alphabetic" transform="matrix(1, 0, 0, 1, 0.5, 0.5)" stroke-opacity="0" stroke-linejoin="bevel" stroke-miterlimit="10" stroke-dasharray="">0.4</text><text fill="rgb(68,68,68)" stroke="none" font-family="helvetica" font-size="11px" font-style="normal" font-weight="normal" text-decoration="normal" x="26.716666221618652" y="181.60000610351562" text-anchor="start" dominant-baseline="alphabetic" transform="matrix(1, 0, 0, 1, 0.5, 0.5)" fill-opacity="1">0.6</text><text fill="none" stroke="rgb(0,0,0)" font-family="helvetica" font-size="11px" font-style="normal" font-weight="normal" text-decoration="normal" x="26.716666221618652" y="181.60000610351562" text-anchor="start" dominant-baseline="alphabetic" transform="matrix(1, 0, 0, 1, 0.5, 0.5)" stroke-opacity="0" stroke-linejoin="bevel" stroke-miterlimit="10" stroke-dasharray="">0.6</text><text fill="rgb(68,68,68)" stroke="none" font-family="helvetica" font-size="11px" font-style="normal" font-weight="normal" text-decoration="normal" x="26.716666221618652" y="122.80000305175781" text-anchor="start" dominant-baseline="alphabetic" transform="matrix(1, 0, 0, 1, 0.5, 0.5)" fill-opacity="1">0.8</text><text fill="none" stroke="rgb(0,0,0)" font-family="helvetica" font-size="11px" font-style="normal" font-weight="normal" text-decoration="normal" x="26.716666221618652" y="122.80000305175781" text-anchor="start" dominant-baseline="alphabetic" transform="matrix(1, 0, 0, 1, 0.5, 0.5)" stroke-opacity="0" stroke-linejoin="bevel" stroke-miterlimit="10" stroke-dasharray="">0.8</text><text fill="rgb(68,68,68)" stroke="none" font-family="helvetica" font-size="11px" font-style="normal" font-weight="normal" text-decoration="normal" x="35.88333320617676" y="64" text-anchor="start" dominant-baseline="alphabetic" transform="matrix(1, 0, 0, 1, 0.5, 0.5)" fill-opacity="1">1</text><text fill="none" stroke="rgb(0,0,0)" font-family="helvetica" font-size="11px" font-style="normal" font-weight="normal" text-decoration="normal" x="35.88333320617676" y="64" text-anchor="start" dominant-baseline="alphabetic" transform="matrix(1, 0, 0, 1, 0.5, 0.5)" stroke-opacity="0" stroke-linejoin="bevel" stroke-miterlimit="10" stroke-dasharray="">1</text><text fill="rgb(68,68,68)" stroke="none" font-family="helvetica" font-size="13px" font-style="italic" font-weight="normal" text-decoration="normal" x="5.72499942779541" y="204" text-anchor="start" dominant-baseline="alphabetic" transform="matrix(6.123233995736766e-17, -1, 1, 6.123233995736766e-17, -187.78333377838135, 226.21666622161865)" fill-opacity="1">TPR</text><text fill="none" stroke="rgb(0,0,0)" font-family="helvetica" font-size="13px" font-style="italic" font-weight="normal" text-decoration="normal" x="5.72499942779541" y="204" text-anchor="start" dominant-baseline="alphabetic" transform="matrix(6.123233995736766e-17, -1, 1, 6.123233995736766e-17, -187.78333377838135, 226.21666622161865)" stroke-opacity="0" stroke-linejoin="bevel" stroke-miterlimit="10" stroke-dasharray="">TPR</text><path fill="rgb(255,255,255)" stroke="rgb(229,229,229)" paint-order="fill" d="M 249.65833282470703 10.5 L 499.34166717529297 10.5 L 499.34166717529297 50.5 L 249.65833282470703 50.5 L 249.65833282470703 10.5" fill-opacity="0.9490196078431372" stroke-opacity="0.5019607843137255" stroke-linejoin="bevel" stroke-miterlimit="10" stroke-dasharray=""/><text fill="rgb(68,68,68)" stroke="none" font-family="helvetica" font-size="13px" font-style="normal" font-weight="normal" text-decoration="normal" x="284.15833282470703" y="30" text-anchor="start" dominant-baseline="central" transform="matrix(1, 0, 0, 1, 0.5, 0.5)" fill-opacity="1">osoba</text><path fill="none" stroke="rgb(11,132,165)" paint-order="fill" d="M 259.65833282470703 30.5 L 279.65833282470703 30.5" stroke-opacity="1" stroke-linejoin="bevel" stroke-miterlimit="10" stroke-dasharray=""/><text fill="rgb(68,68,68)" stroke="none" font-family="helvetica" font-size="13px" font-style="normal" font-weight="normal" text-decoration="normal" x="374.59166717529297" y="30" text-anchor="start" dominant-baseline="central" transform="matrix(1, 0, 0, 1, 0.5, 0.5)" fill-opacity="1">miasto</text><path fill="none" stroke="rgb(246,200,95)" paint-order="fill" d="M 350.09166717529297 30.5 L 370.09166717529297 30.5" stroke-opacity="1" stroke-linejoin="bevel" stroke-miterlimit="10" stroke-dasharray=""/><text fill="rgb(68,68,68)" stroke="none" font-family="helvetica" font-size="13px" font-style="normal" font-weight="normal" text-decoration="normal" x="467.8916664123535" y="30" text-anchor="start" dominant-baseline="central" transform="matrix(1, 0, 0, 1, 0.5, 0.5)" fill-opacity="1">kraj</text><path fill="none" stroke="rgb(0,158,115)" paint-order="fill" d="M 443.3916664123535 30.5 L 463.3916664123535 30.5" stroke-opacity="1" stroke-linejoin="bevel" stroke-miterlimit="10" stroke-dasharray=""/><path fill="rgb(255,255,255)" stroke="rgb(229,229,229)" paint-order="fill" d="M 249.65833282470703 10.5 L 499.34166717529297 10.5 L 499.34166717529297 50.5 L 249.65833282470703 50.5 L 249.65833282470703 10.5" fill-opacity="0.9490196078431372" stroke-opacity="0.5019607843137255" stroke-linejoin="bevel" stroke-miterlimit="10" stroke-dasharray=""/><text fill="rgb(68,68,68)" stroke="none" font-family="helvetica" font-size="13px" font-style="normal" font-weight="normal" text-decoration="normal" x="284.15833282470703" y="30" text-anchor="start" dominant-baseline="central" transform="matrix(1, 0, 0, 1, 0.5, 0.5)" fill-opacity="1">osoba</text><path fill="none" stroke="rgb(11,132,165)" paint-order="fill" d="M 259.65833282470703 30.5 L 279.65833282470703 30.5" stroke-opacity="1" stroke-linejoin="bevel" stroke-miterlimit="10" stroke-dasharray=""/><text fill="rgb(68,68,68)" stroke="none" font-family="helvetica" font-size="13px" font-style="normal" font-weight="normal" text-decoration="normal" x="374.59166717529297" y="30" text-anchor="start" dominant-baseline="central" transform="matrix(1, 0, 0, 1, 0.5, 0.5)" fill-opacity="1">miasto</text><path fill="none" stroke="rgb(246,200,95)" paint-order="fill" d="M 350.09166717529297 30.5 L 370.09166717529297 30.5" stroke-opacity="1" stroke-linejoin="bevel" stroke-miterlimit="10" stroke-dasharray=""/><text fill="rgb(68,68,68)" stroke="none" font-family="helvetica" font-size="13px" font-style="normal" font-weight="normal" text-decoration="normal" x="467.8916664123535" y="30" text-anchor="start" dominant-baseline="central" transform="matrix(1, 0, 0, 1, 0.5, 0.5)" fill-opacity="1">kraj</text><path fill="none" stroke="rgb(0,158,115)" paint-order="fill" d="M 443.3916664123535 30.5 L 463.3916664123535 30.5" stroke-opacity="1" stroke-linejoin="bevel" stroke-miterlimit="10" stroke-dasharray=""/></svg>